G04 #@! TF.GenerationSoftware,KiCad,Pcbnew,(5.1.0)-1*
G04 #@! TF.CreationDate,2019-11-24T19:02:04+00:00*
G04 #@! TF.ProjectId,WebastoWBUSInterface,57656261-7374-46f5-9742-5553496e7465,rev?*
G04 #@! TF.SameCoordinates,Original*
G04 #@! TF.FileFunction,Soldermask,Bot*
G04 #@! TF.FilePolarity,Negative*
%FSLAX46Y46*%
G04 Gerber Fmt 4.6, Leading zero omitted, Abs format (unit mm)*
G04 Created by KiCad (PCBNEW (5.1.0)-1) date 2019-11-24 19:02:04*
%MOMM*%
%LPD*%
G04 APERTURE LIST*
%ADD10C,0.100000*%
G04 APERTURE END LIST*
D10*
G36*
X75610443Y-97305519D02*
G01*
X75676627Y-97312037D01*
X75846466Y-97363557D01*
X76002991Y-97447222D01*
X76038729Y-97476552D01*
X76140186Y-97559814D01*
X76223448Y-97661271D01*
X76252778Y-97697009D01*
X76336443Y-97853534D01*
X76387963Y-98023373D01*
X76405359Y-98200000D01*
X76387963Y-98376627D01*
X76336443Y-98546466D01*
X76252778Y-98702991D01*
X76223448Y-98738729D01*
X76140186Y-98840186D01*
X76038729Y-98923448D01*
X76002991Y-98952778D01*
X75846466Y-99036443D01*
X75676627Y-99087963D01*
X75610443Y-99094481D01*
X75544260Y-99101000D01*
X75455740Y-99101000D01*
X75389557Y-99094481D01*
X75323373Y-99087963D01*
X75153534Y-99036443D01*
X74997009Y-98952778D01*
X74961271Y-98923448D01*
X74859814Y-98840186D01*
X74776552Y-98738729D01*
X74747222Y-98702991D01*
X74663557Y-98546466D01*
X74612037Y-98376627D01*
X74594641Y-98200000D01*
X74612037Y-98023373D01*
X74663557Y-97853534D01*
X74747222Y-97697009D01*
X74776552Y-97661271D01*
X74859814Y-97559814D01*
X74961271Y-97476552D01*
X74997009Y-97447222D01*
X75153534Y-97363557D01*
X75323373Y-97312037D01*
X75389557Y-97305519D01*
X75455740Y-97299000D01*
X75544260Y-97299000D01*
X75610443Y-97305519D01*
X75610443Y-97305519D01*
G37*
G36*
X112142007Y-94383582D02*
G01*
X112542563Y-94549498D01*
X112542565Y-94549499D01*
X112903056Y-94790371D01*
X113209629Y-95096944D01*
X113450501Y-95457435D01*
X113450502Y-95457437D01*
X113616418Y-95857993D01*
X113701000Y-96283219D01*
X113701000Y-96716781D01*
X113616418Y-97142007D01*
X113450502Y-97542563D01*
X113450501Y-97542565D01*
X113209629Y-97903056D01*
X112903056Y-98209629D01*
X112542565Y-98450501D01*
X112542564Y-98450502D01*
X112542563Y-98450502D01*
X112142007Y-98616418D01*
X111716781Y-98701000D01*
X111283219Y-98701000D01*
X110857993Y-98616418D01*
X110457437Y-98450502D01*
X110457436Y-98450502D01*
X110457435Y-98450501D01*
X110096944Y-98209629D01*
X109790371Y-97903056D01*
X109549499Y-97542565D01*
X109549498Y-97542563D01*
X109383582Y-97142007D01*
X109299000Y-96716781D01*
X109299000Y-96283219D01*
X109383582Y-95857993D01*
X109549498Y-95457437D01*
X109549499Y-95457435D01*
X109790371Y-95096944D01*
X110096944Y-94790371D01*
X110457435Y-94549499D01*
X110457437Y-94549498D01*
X110857993Y-94383582D01*
X111283219Y-94299000D01*
X111716781Y-94299000D01*
X112142007Y-94383582D01*
X112142007Y-94383582D01*
G37*
G36*
X92219059Y-95777860D02*
G01*
X92279294Y-95802810D01*
X92355732Y-95834472D01*
X92478735Y-95916660D01*
X92583340Y-96021265D01*
X92665528Y-96144268D01*
X92665529Y-96144270D01*
X92722140Y-96280941D01*
X92748364Y-96412778D01*
X92751000Y-96426033D01*
X92751000Y-96573967D01*
X92722140Y-96719059D01*
X92665528Y-96855732D01*
X92583340Y-96978735D01*
X92478735Y-97083340D01*
X92355732Y-97165528D01*
X92355731Y-97165529D01*
X92355730Y-97165529D01*
X92219059Y-97222140D01*
X92073968Y-97251000D01*
X91926032Y-97251000D01*
X91780941Y-97222140D01*
X91644270Y-97165529D01*
X91644269Y-97165529D01*
X91644268Y-97165528D01*
X91521265Y-97083340D01*
X91416660Y-96978735D01*
X91334472Y-96855732D01*
X91277860Y-96719059D01*
X91249000Y-96573967D01*
X91249000Y-96426033D01*
X91251637Y-96412778D01*
X91277860Y-96280941D01*
X91334471Y-96144270D01*
X91334472Y-96144268D01*
X91416660Y-96021265D01*
X91521265Y-95916660D01*
X91644268Y-95834472D01*
X91720707Y-95802810D01*
X91780941Y-95777860D01*
X91926032Y-95749000D01*
X92073968Y-95749000D01*
X92219059Y-95777860D01*
X92219059Y-95777860D01*
G37*
G36*
X86993665Y-95752622D02*
G01*
X87067222Y-95759867D01*
X87208786Y-95802810D01*
X87339252Y-95872546D01*
X87369040Y-95896992D01*
X87453607Y-95966393D01*
X87523008Y-96050960D01*
X87547454Y-96080748D01*
X87617190Y-96211214D01*
X87660133Y-96352778D01*
X87674633Y-96500000D01*
X87660133Y-96647222D01*
X87617190Y-96788786D01*
X87547454Y-96919252D01*
X87523008Y-96949040D01*
X87453607Y-97033607D01*
X87393004Y-97083341D01*
X87339252Y-97127454D01*
X87208786Y-97197190D01*
X87067222Y-97240133D01*
X86993665Y-97247378D01*
X86956888Y-97251000D01*
X86883112Y-97251000D01*
X86846335Y-97247378D01*
X86772778Y-97240133D01*
X86631214Y-97197190D01*
X86500748Y-97127454D01*
X86446996Y-97083341D01*
X86386393Y-97033607D01*
X86316992Y-96949040D01*
X86292546Y-96919252D01*
X86222810Y-96788786D01*
X86179867Y-96647222D01*
X86165367Y-96500000D01*
X86179867Y-96352778D01*
X86222810Y-96211214D01*
X86292546Y-96080748D01*
X86316992Y-96050960D01*
X86386393Y-95966393D01*
X86470960Y-95896992D01*
X86500748Y-95872546D01*
X86631214Y-95802810D01*
X86772778Y-95759867D01*
X86846335Y-95752622D01*
X86883112Y-95749000D01*
X86956888Y-95749000D01*
X86993665Y-95752622D01*
X86993665Y-95752622D01*
G37*
G36*
X100153665Y-95752622D02*
G01*
X100227222Y-95759867D01*
X100368786Y-95802810D01*
X100499252Y-95872546D01*
X100529040Y-95896992D01*
X100613607Y-95966393D01*
X100683008Y-96050960D01*
X100707454Y-96080748D01*
X100777190Y-96211214D01*
X100820133Y-96352778D01*
X100834633Y-96500000D01*
X100820133Y-96647222D01*
X100777190Y-96788786D01*
X100707454Y-96919252D01*
X100683008Y-96949040D01*
X100613607Y-97033607D01*
X100553004Y-97083341D01*
X100499252Y-97127454D01*
X100368786Y-97197190D01*
X100227222Y-97240133D01*
X100153665Y-97247378D01*
X100116888Y-97251000D01*
X100043112Y-97251000D01*
X100006335Y-97247378D01*
X99932778Y-97240133D01*
X99791214Y-97197190D01*
X99660748Y-97127454D01*
X99606996Y-97083341D01*
X99546393Y-97033607D01*
X99476992Y-96949040D01*
X99452546Y-96919252D01*
X99382810Y-96788786D01*
X99339867Y-96647222D01*
X99325367Y-96500000D01*
X99339867Y-96352778D01*
X99382810Y-96211214D01*
X99452546Y-96080748D01*
X99476992Y-96050960D01*
X99546393Y-95966393D01*
X99630960Y-95896992D01*
X99660748Y-95872546D01*
X99791214Y-95802810D01*
X99932778Y-95759867D01*
X100006335Y-95752622D01*
X100043112Y-95749000D01*
X100116888Y-95749000D01*
X100153665Y-95752622D01*
X100153665Y-95752622D01*
G37*
G36*
X95219059Y-95777860D02*
G01*
X95279294Y-95802810D01*
X95355732Y-95834472D01*
X95478735Y-95916660D01*
X95583340Y-96021265D01*
X95665528Y-96144268D01*
X95665529Y-96144270D01*
X95722140Y-96280941D01*
X95748364Y-96412778D01*
X95751000Y-96426033D01*
X95751000Y-96573967D01*
X95722140Y-96719059D01*
X95665528Y-96855732D01*
X95583340Y-96978735D01*
X95478735Y-97083340D01*
X95355732Y-97165528D01*
X95355731Y-97165529D01*
X95355730Y-97165529D01*
X95219059Y-97222140D01*
X95073968Y-97251000D01*
X94926032Y-97251000D01*
X94780941Y-97222140D01*
X94644270Y-97165529D01*
X94644269Y-97165529D01*
X94644268Y-97165528D01*
X94521265Y-97083340D01*
X94416660Y-96978735D01*
X94334472Y-96855732D01*
X94277860Y-96719059D01*
X94249000Y-96573967D01*
X94249000Y-96426033D01*
X94251637Y-96412778D01*
X94277860Y-96280941D01*
X94334471Y-96144270D01*
X94334472Y-96144268D01*
X94416660Y-96021265D01*
X94521265Y-95916660D01*
X94644268Y-95834472D01*
X94720707Y-95802810D01*
X94780941Y-95777860D01*
X94926032Y-95749000D01*
X95073968Y-95749000D01*
X95219059Y-95777860D01*
X95219059Y-95777860D01*
G37*
G36*
X75610442Y-94765518D02*
G01*
X75676627Y-94772037D01*
X75846466Y-94823557D01*
X76002991Y-94907222D01*
X76038729Y-94936552D01*
X76140186Y-95019814D01*
X76223448Y-95121271D01*
X76252778Y-95157009D01*
X76336443Y-95313534D01*
X76387963Y-95483373D01*
X76405359Y-95660000D01*
X76387963Y-95836627D01*
X76336443Y-96006466D01*
X76252778Y-96162991D01*
X76223448Y-96198729D01*
X76140186Y-96300186D01*
X76038729Y-96383448D01*
X76002991Y-96412778D01*
X75846466Y-96496443D01*
X75676627Y-96547963D01*
X75610443Y-96554481D01*
X75544260Y-96561000D01*
X75455740Y-96561000D01*
X75389557Y-96554481D01*
X75323373Y-96547963D01*
X75153534Y-96496443D01*
X74997009Y-96412778D01*
X74961271Y-96383448D01*
X74859814Y-96300186D01*
X74776552Y-96198729D01*
X74747222Y-96162991D01*
X74663557Y-96006466D01*
X74612037Y-95836627D01*
X74594641Y-95660000D01*
X74612037Y-95483373D01*
X74663557Y-95313534D01*
X74747222Y-95157009D01*
X74776552Y-95121271D01*
X74859814Y-95019814D01*
X74961271Y-94936552D01*
X74997009Y-94907222D01*
X75153534Y-94823557D01*
X75323373Y-94772037D01*
X75389558Y-94765518D01*
X75455740Y-94759000D01*
X75544260Y-94759000D01*
X75610442Y-94765518D01*
X75610442Y-94765518D01*
G37*
G36*
X105451000Y-96451000D02*
G01*
X103549000Y-96451000D01*
X103549000Y-94549000D01*
X105451000Y-94549000D01*
X105451000Y-96451000D01*
X105451000Y-96451000D01*
G37*
G36*
X75610443Y-92225519D02*
G01*
X75676627Y-92232037D01*
X75846466Y-92283557D01*
X76002991Y-92367222D01*
X76038729Y-92396552D01*
X76140186Y-92479814D01*
X76217454Y-92573967D01*
X76252778Y-92617009D01*
X76336443Y-92773534D01*
X76387963Y-92943373D01*
X76405359Y-93120000D01*
X76387963Y-93296627D01*
X76336443Y-93466466D01*
X76252778Y-93622991D01*
X76223448Y-93658729D01*
X76140186Y-93760186D01*
X76038729Y-93843448D01*
X76002991Y-93872778D01*
X75846466Y-93956443D01*
X75676627Y-94007963D01*
X75610442Y-94014482D01*
X75544260Y-94021000D01*
X75455740Y-94021000D01*
X75389558Y-94014482D01*
X75323373Y-94007963D01*
X75153534Y-93956443D01*
X74997009Y-93872778D01*
X74961271Y-93843448D01*
X74859814Y-93760186D01*
X74776552Y-93658729D01*
X74747222Y-93622991D01*
X74663557Y-93466466D01*
X74612037Y-93296627D01*
X74594641Y-93120000D01*
X74612037Y-92943373D01*
X74663557Y-92773534D01*
X74747222Y-92617009D01*
X74782546Y-92573967D01*
X74859814Y-92479814D01*
X74961271Y-92396552D01*
X74997009Y-92367222D01*
X75153534Y-92283557D01*
X75323373Y-92232037D01*
X75389557Y-92225519D01*
X75455740Y-92219000D01*
X75544260Y-92219000D01*
X75610443Y-92225519D01*
X75610443Y-92225519D01*
G37*
G36*
X104777395Y-92045546D02*
G01*
X104950466Y-92117234D01*
X104950467Y-92117235D01*
X105106227Y-92221310D01*
X105238690Y-92353773D01*
X105247676Y-92367222D01*
X105342766Y-92509534D01*
X105414454Y-92682605D01*
X105451000Y-92866333D01*
X105451000Y-93053667D01*
X105414454Y-93237395D01*
X105342766Y-93410466D01*
X105342765Y-93410467D01*
X105238690Y-93566227D01*
X105106227Y-93698690D01*
X105027818Y-93751081D01*
X104950466Y-93802766D01*
X104777395Y-93874454D01*
X104593667Y-93911000D01*
X104406333Y-93911000D01*
X104222605Y-93874454D01*
X104049534Y-93802766D01*
X103972182Y-93751081D01*
X103893773Y-93698690D01*
X103761310Y-93566227D01*
X103657235Y-93410467D01*
X103657234Y-93410466D01*
X103585546Y-93237395D01*
X103549000Y-93053667D01*
X103549000Y-92866333D01*
X103585546Y-92682605D01*
X103657234Y-92509534D01*
X103752324Y-92367222D01*
X103761310Y-92353773D01*
X103893773Y-92221310D01*
X104049533Y-92117235D01*
X104049534Y-92117234D01*
X104222605Y-92045546D01*
X104406333Y-92009000D01*
X104593667Y-92009000D01*
X104777395Y-92045546D01*
X104777395Y-92045546D01*
G37*
G36*
X95219059Y-91777860D02*
G01*
X95279294Y-91802810D01*
X95355732Y-91834472D01*
X95478735Y-91916660D01*
X95583340Y-92021265D01*
X95647464Y-92117234D01*
X95665529Y-92144270D01*
X95722140Y-92280941D01*
X95751000Y-92426032D01*
X95751000Y-92573968D01*
X95722140Y-92719059D01*
X95699577Y-92773532D01*
X95665528Y-92855732D01*
X95583340Y-92978735D01*
X95478735Y-93083340D01*
X95355732Y-93165528D01*
X95355731Y-93165529D01*
X95355730Y-93165529D01*
X95219059Y-93222140D01*
X95073968Y-93251000D01*
X94926032Y-93251000D01*
X94780941Y-93222140D01*
X94644270Y-93165529D01*
X94644269Y-93165529D01*
X94644268Y-93165528D01*
X94521265Y-93083340D01*
X94416660Y-92978735D01*
X94334472Y-92855732D01*
X94300424Y-92773532D01*
X94277860Y-92719059D01*
X94249000Y-92573968D01*
X94249000Y-92426032D01*
X94277860Y-92280941D01*
X94334471Y-92144270D01*
X94352536Y-92117234D01*
X94416660Y-92021265D01*
X94521265Y-91916660D01*
X94644268Y-91834472D01*
X94720707Y-91802810D01*
X94780941Y-91777860D01*
X94926032Y-91749000D01*
X95073968Y-91749000D01*
X95219059Y-91777860D01*
X95219059Y-91777860D01*
G37*
G36*
X78993665Y-91752622D02*
G01*
X79067222Y-91759867D01*
X79208786Y-91802810D01*
X79339252Y-91872546D01*
X79369040Y-91896992D01*
X79453607Y-91966393D01*
X79518565Y-92045547D01*
X79547454Y-92080748D01*
X79617190Y-92211214D01*
X79660133Y-92352778D01*
X79674633Y-92500000D01*
X79660133Y-92647222D01*
X79617190Y-92788786D01*
X79547454Y-92919252D01*
X79527658Y-92943373D01*
X79453607Y-93033607D01*
X79393004Y-93083341D01*
X79339252Y-93127454D01*
X79208786Y-93197190D01*
X79067222Y-93240133D01*
X78993665Y-93247378D01*
X78956888Y-93251000D01*
X78883112Y-93251000D01*
X78846335Y-93247378D01*
X78772778Y-93240133D01*
X78631214Y-93197190D01*
X78500748Y-93127454D01*
X78446996Y-93083341D01*
X78386393Y-93033607D01*
X78312342Y-92943373D01*
X78292546Y-92919252D01*
X78222810Y-92788786D01*
X78179867Y-92647222D01*
X78165367Y-92500000D01*
X78179867Y-92352778D01*
X78222810Y-92211214D01*
X78292546Y-92080748D01*
X78321435Y-92045547D01*
X78386393Y-91966393D01*
X78470960Y-91896992D01*
X78500748Y-91872546D01*
X78631214Y-91802810D01*
X78772778Y-91759867D01*
X78846335Y-91752622D01*
X78883112Y-91749000D01*
X78956888Y-91749000D01*
X78993665Y-91752622D01*
X78993665Y-91752622D01*
G37*
G36*
X84219059Y-91777860D02*
G01*
X84279294Y-91802810D01*
X84355732Y-91834472D01*
X84478735Y-91916660D01*
X84583340Y-92021265D01*
X84647464Y-92117234D01*
X84665529Y-92144270D01*
X84722140Y-92280941D01*
X84751000Y-92426032D01*
X84751000Y-92573968D01*
X84722140Y-92719059D01*
X84699577Y-92773532D01*
X84665528Y-92855732D01*
X84583340Y-92978735D01*
X84478735Y-93083340D01*
X84355732Y-93165528D01*
X84355731Y-93165529D01*
X84355730Y-93165529D01*
X84219059Y-93222140D01*
X84073968Y-93251000D01*
X83926032Y-93251000D01*
X83780941Y-93222140D01*
X83644270Y-93165529D01*
X83644269Y-93165529D01*
X83644268Y-93165528D01*
X83521265Y-93083340D01*
X83416660Y-92978735D01*
X83334472Y-92855732D01*
X83300424Y-92773532D01*
X83277860Y-92719059D01*
X83249000Y-92573968D01*
X83249000Y-92426032D01*
X83277860Y-92280941D01*
X83334471Y-92144270D01*
X83352536Y-92117234D01*
X83416660Y-92021265D01*
X83521265Y-91916660D01*
X83644268Y-91834472D01*
X83720707Y-91802810D01*
X83780941Y-91777860D01*
X83926032Y-91749000D01*
X84073968Y-91749000D01*
X84219059Y-91777860D01*
X84219059Y-91777860D01*
G37*
G36*
X86993665Y-91752622D02*
G01*
X87067222Y-91759867D01*
X87208786Y-91802810D01*
X87339252Y-91872546D01*
X87369040Y-91896992D01*
X87453607Y-91966393D01*
X87518565Y-92045547D01*
X87547454Y-92080748D01*
X87617190Y-92211214D01*
X87660133Y-92352778D01*
X87674633Y-92500000D01*
X87660133Y-92647222D01*
X87617190Y-92788786D01*
X87547454Y-92919252D01*
X87527658Y-92943373D01*
X87453607Y-93033607D01*
X87393004Y-93083341D01*
X87339252Y-93127454D01*
X87208786Y-93197190D01*
X87067222Y-93240133D01*
X86993665Y-93247378D01*
X86956888Y-93251000D01*
X86883112Y-93251000D01*
X86846335Y-93247378D01*
X86772778Y-93240133D01*
X86631214Y-93197190D01*
X86500748Y-93127454D01*
X86446996Y-93083341D01*
X86386393Y-93033607D01*
X86312342Y-92943373D01*
X86292546Y-92919252D01*
X86222810Y-92788786D01*
X86179867Y-92647222D01*
X86165367Y-92500000D01*
X86179867Y-92352778D01*
X86222810Y-92211214D01*
X86292546Y-92080748D01*
X86321435Y-92045547D01*
X86386393Y-91966393D01*
X86470960Y-91896992D01*
X86500748Y-91872546D01*
X86631214Y-91802810D01*
X86772778Y-91759867D01*
X86846335Y-91752622D01*
X86883112Y-91749000D01*
X86956888Y-91749000D01*
X86993665Y-91752622D01*
X86993665Y-91752622D01*
G37*
G36*
X92219059Y-91777860D02*
G01*
X92279294Y-91802810D01*
X92355732Y-91834472D01*
X92478735Y-91916660D01*
X92583340Y-92021265D01*
X92647464Y-92117234D01*
X92665529Y-92144270D01*
X92722140Y-92280941D01*
X92751000Y-92426032D01*
X92751000Y-92573968D01*
X92722140Y-92719059D01*
X92699577Y-92773532D01*
X92665528Y-92855732D01*
X92583340Y-92978735D01*
X92478735Y-93083340D01*
X92355732Y-93165528D01*
X92355731Y-93165529D01*
X92355730Y-93165529D01*
X92219059Y-93222140D01*
X92073968Y-93251000D01*
X91926032Y-93251000D01*
X91780941Y-93222140D01*
X91644270Y-93165529D01*
X91644269Y-93165529D01*
X91644268Y-93165528D01*
X91521265Y-93083340D01*
X91416660Y-92978735D01*
X91334472Y-92855732D01*
X91300424Y-92773532D01*
X91277860Y-92719059D01*
X91249000Y-92573968D01*
X91249000Y-92426032D01*
X91277860Y-92280941D01*
X91334471Y-92144270D01*
X91352536Y-92117234D01*
X91416660Y-92021265D01*
X91521265Y-91916660D01*
X91644268Y-91834472D01*
X91720707Y-91802810D01*
X91780941Y-91777860D01*
X91926032Y-91749000D01*
X92073968Y-91749000D01*
X92219059Y-91777860D01*
X92219059Y-91777860D01*
G37*
G36*
X100153665Y-91752622D02*
G01*
X100227222Y-91759867D01*
X100368786Y-91802810D01*
X100499252Y-91872546D01*
X100529040Y-91896992D01*
X100613607Y-91966393D01*
X100678565Y-92045547D01*
X100707454Y-92080748D01*
X100777190Y-92211214D01*
X100820133Y-92352778D01*
X100834633Y-92500000D01*
X100820133Y-92647222D01*
X100777190Y-92788786D01*
X100707454Y-92919252D01*
X100687658Y-92943373D01*
X100613607Y-93033607D01*
X100553004Y-93083341D01*
X100499252Y-93127454D01*
X100368786Y-93197190D01*
X100227222Y-93240133D01*
X100153665Y-93247378D01*
X100116888Y-93251000D01*
X100043112Y-93251000D01*
X100006335Y-93247378D01*
X99932778Y-93240133D01*
X99791214Y-93197190D01*
X99660748Y-93127454D01*
X99606996Y-93083341D01*
X99546393Y-93033607D01*
X99472342Y-92943373D01*
X99452546Y-92919252D01*
X99382810Y-92788786D01*
X99339867Y-92647222D01*
X99325367Y-92500000D01*
X99339867Y-92352778D01*
X99382810Y-92211214D01*
X99452546Y-92080748D01*
X99481435Y-92045547D01*
X99546393Y-91966393D01*
X99630960Y-91896992D01*
X99660748Y-91872546D01*
X99791214Y-91802810D01*
X99932778Y-91759867D01*
X100006335Y-91752622D01*
X100043112Y-91749000D01*
X100116888Y-91749000D01*
X100153665Y-91752622D01*
X100153665Y-91752622D01*
G37*
G36*
X75610443Y-89685519D02*
G01*
X75676627Y-89692037D01*
X75846466Y-89743557D01*
X76002991Y-89827222D01*
X76038729Y-89856552D01*
X76140186Y-89939814D01*
X76223448Y-90041271D01*
X76252778Y-90077009D01*
X76336443Y-90233534D01*
X76387963Y-90403373D01*
X76405359Y-90580000D01*
X76387963Y-90756627D01*
X76336443Y-90926466D01*
X76252778Y-91082991D01*
X76223448Y-91118729D01*
X76140186Y-91220186D01*
X76038729Y-91303448D01*
X76002991Y-91332778D01*
X75846466Y-91416443D01*
X75676627Y-91467963D01*
X75610442Y-91474482D01*
X75544260Y-91481000D01*
X75455740Y-91481000D01*
X75389558Y-91474482D01*
X75323373Y-91467963D01*
X75153534Y-91416443D01*
X74997009Y-91332778D01*
X74961271Y-91303448D01*
X74859814Y-91220186D01*
X74776552Y-91118729D01*
X74747222Y-91082991D01*
X74663557Y-90926466D01*
X74612037Y-90756627D01*
X74594641Y-90580000D01*
X74612037Y-90403373D01*
X74663557Y-90233534D01*
X74747222Y-90077009D01*
X74776552Y-90041271D01*
X74859814Y-89939814D01*
X74961271Y-89856552D01*
X74997009Y-89827222D01*
X75153534Y-89743557D01*
X75323373Y-89692037D01*
X75389557Y-89685519D01*
X75455740Y-89679000D01*
X75544260Y-89679000D01*
X75610443Y-89685519D01*
X75610443Y-89685519D01*
G37*
G36*
X99051000Y-89051000D02*
G01*
X97949000Y-89051000D01*
X97949000Y-87949000D01*
X99051000Y-87949000D01*
X99051000Y-89051000D01*
X99051000Y-89051000D01*
G37*
G36*
X91551000Y-89051000D02*
G01*
X90449000Y-89051000D01*
X90449000Y-87949000D01*
X91551000Y-87949000D01*
X91551000Y-89051000D01*
X91551000Y-89051000D01*
G37*
G36*
X75610442Y-87145518D02*
G01*
X75676627Y-87152037D01*
X75846466Y-87203557D01*
X76002991Y-87287222D01*
X76038729Y-87316552D01*
X76140186Y-87399814D01*
X76215015Y-87490995D01*
X76252778Y-87537009D01*
X76336443Y-87693534D01*
X76387963Y-87863373D01*
X76405359Y-88040000D01*
X76387963Y-88216627D01*
X76336443Y-88386466D01*
X76252778Y-88542991D01*
X76223448Y-88578729D01*
X76140186Y-88680186D01*
X76038729Y-88763448D01*
X76002991Y-88792778D01*
X75846466Y-88876443D01*
X75676627Y-88927963D01*
X75610442Y-88934482D01*
X75544260Y-88941000D01*
X75455740Y-88941000D01*
X75389558Y-88934482D01*
X75323373Y-88927963D01*
X75153534Y-88876443D01*
X74997009Y-88792778D01*
X74961271Y-88763448D01*
X74859814Y-88680186D01*
X74776552Y-88578729D01*
X74747222Y-88542991D01*
X74663557Y-88386466D01*
X74612037Y-88216627D01*
X74594641Y-88040000D01*
X74612037Y-87863373D01*
X74663557Y-87693534D01*
X74747222Y-87537009D01*
X74784985Y-87490995D01*
X74859814Y-87399814D01*
X74961271Y-87316552D01*
X74997009Y-87287222D01*
X75153534Y-87203557D01*
X75323373Y-87152037D01*
X75389558Y-87145518D01*
X75455740Y-87139000D01*
X75544260Y-87139000D01*
X75610442Y-87145518D01*
X75610442Y-87145518D01*
G37*
G36*
X89890721Y-86700174D02*
G01*
X89990995Y-86741709D01*
X89990996Y-86741710D01*
X90081242Y-86802010D01*
X90157990Y-86878758D01*
X90157991Y-86878760D01*
X90218291Y-86969005D01*
X90259826Y-87069279D01*
X90281000Y-87175730D01*
X90281000Y-87284270D01*
X90259826Y-87390721D01*
X90218291Y-87490995D01*
X90218290Y-87490996D01*
X90157990Y-87581242D01*
X90081242Y-87657990D01*
X90069959Y-87665529D01*
X89990995Y-87718291D01*
X89890721Y-87759826D01*
X89784270Y-87781000D01*
X89675730Y-87781000D01*
X89569279Y-87759826D01*
X89469005Y-87718291D01*
X89390041Y-87665529D01*
X89378758Y-87657990D01*
X89302010Y-87581242D01*
X89241710Y-87490996D01*
X89241709Y-87490995D01*
X89200174Y-87390721D01*
X89179000Y-87284270D01*
X89179000Y-87175730D01*
X89200174Y-87069279D01*
X89241709Y-86969005D01*
X89302009Y-86878760D01*
X89302010Y-86878758D01*
X89378758Y-86802010D01*
X89469004Y-86741710D01*
X89469005Y-86741709D01*
X89569279Y-86700174D01*
X89675730Y-86679000D01*
X89784270Y-86679000D01*
X89890721Y-86700174D01*
X89890721Y-86700174D01*
G37*
G36*
X97390721Y-86700174D02*
G01*
X97490995Y-86741709D01*
X97490996Y-86741710D01*
X97581242Y-86802010D01*
X97657990Y-86878758D01*
X97657991Y-86878760D01*
X97718291Y-86969005D01*
X97759826Y-87069279D01*
X97781000Y-87175730D01*
X97781000Y-87284270D01*
X97759826Y-87390721D01*
X97718291Y-87490995D01*
X97718290Y-87490996D01*
X97657990Y-87581242D01*
X97581242Y-87657990D01*
X97569959Y-87665529D01*
X97490995Y-87718291D01*
X97390721Y-87759826D01*
X97284270Y-87781000D01*
X97175730Y-87781000D01*
X97069279Y-87759826D01*
X96969005Y-87718291D01*
X96890041Y-87665529D01*
X96878758Y-87657990D01*
X96802010Y-87581242D01*
X96741710Y-87490996D01*
X96741709Y-87490995D01*
X96700174Y-87390721D01*
X96679000Y-87284270D01*
X96679000Y-87175730D01*
X96700174Y-87069279D01*
X96741709Y-86969005D01*
X96802009Y-86878760D01*
X96802010Y-86878758D01*
X96878758Y-86802010D01*
X96969004Y-86741710D01*
X96969005Y-86741709D01*
X97069279Y-86700174D01*
X97175730Y-86679000D01*
X97284270Y-86679000D01*
X97390721Y-86700174D01*
X97390721Y-86700174D01*
G37*
G36*
X84219059Y-86277860D02*
G01*
X84279294Y-86302810D01*
X84355732Y-86334472D01*
X84478735Y-86416660D01*
X84583340Y-86521265D01*
X84665528Y-86644268D01*
X84665529Y-86644270D01*
X84722140Y-86780941D01*
X84751000Y-86926032D01*
X84751000Y-87073968D01*
X84730758Y-87175731D01*
X84722140Y-87219059D01*
X84665528Y-87355732D01*
X84583340Y-87478735D01*
X84478735Y-87583340D01*
X84355732Y-87665528D01*
X84355731Y-87665529D01*
X84355730Y-87665529D01*
X84219059Y-87722140D01*
X84073968Y-87751000D01*
X83926032Y-87751000D01*
X83780941Y-87722140D01*
X83644270Y-87665529D01*
X83644269Y-87665529D01*
X83644268Y-87665528D01*
X83521265Y-87583340D01*
X83416660Y-87478735D01*
X83334472Y-87355732D01*
X83277860Y-87219059D01*
X83269242Y-87175731D01*
X83249000Y-87073968D01*
X83249000Y-86926032D01*
X83277860Y-86780941D01*
X83334471Y-86644270D01*
X83334472Y-86644268D01*
X83416660Y-86521265D01*
X83521265Y-86416660D01*
X83644268Y-86334472D01*
X83720707Y-86302810D01*
X83780941Y-86277860D01*
X83926032Y-86249000D01*
X84073968Y-86249000D01*
X84219059Y-86277860D01*
X84219059Y-86277860D01*
G37*
G36*
X78993665Y-86252622D02*
G01*
X79067222Y-86259867D01*
X79208786Y-86302810D01*
X79339252Y-86372546D01*
X79369040Y-86396992D01*
X79453607Y-86466393D01*
X79523008Y-86550960D01*
X79547454Y-86580748D01*
X79547455Y-86580750D01*
X79611290Y-86700175D01*
X79617190Y-86711214D01*
X79660133Y-86852778D01*
X79674633Y-87000000D01*
X79660133Y-87147222D01*
X79617190Y-87288786D01*
X79547454Y-87419252D01*
X79523008Y-87449040D01*
X79453607Y-87533607D01*
X79393004Y-87583341D01*
X79339252Y-87627454D01*
X79208786Y-87697190D01*
X79067222Y-87740133D01*
X78993665Y-87747378D01*
X78956888Y-87751000D01*
X78883112Y-87751000D01*
X78846335Y-87747378D01*
X78772778Y-87740133D01*
X78631214Y-87697190D01*
X78500748Y-87627454D01*
X78446996Y-87583341D01*
X78386393Y-87533607D01*
X78316992Y-87449040D01*
X78292546Y-87419252D01*
X78222810Y-87288786D01*
X78179867Y-87147222D01*
X78165367Y-87000000D01*
X78179867Y-86852778D01*
X78222810Y-86711214D01*
X78228711Y-86700175D01*
X78292545Y-86580750D01*
X78292546Y-86580748D01*
X78316992Y-86550960D01*
X78386393Y-86466393D01*
X78470960Y-86396992D01*
X78500748Y-86372546D01*
X78631214Y-86302810D01*
X78772778Y-86259867D01*
X78846335Y-86252622D01*
X78883112Y-86249000D01*
X78956888Y-86249000D01*
X78993665Y-86252622D01*
X78993665Y-86252622D01*
G37*
G36*
X98660721Y-85430174D02*
G01*
X98760995Y-85471709D01*
X98760996Y-85471710D01*
X98851242Y-85532010D01*
X98927990Y-85608758D01*
X98927991Y-85608760D01*
X98988291Y-85699005D01*
X99029826Y-85799279D01*
X99051000Y-85905730D01*
X99051000Y-86014270D01*
X99029826Y-86120721D01*
X98988291Y-86220995D01*
X98962317Y-86259867D01*
X98927990Y-86311242D01*
X98851242Y-86387990D01*
X98831771Y-86401000D01*
X98760995Y-86448291D01*
X98660721Y-86489826D01*
X98554270Y-86511000D01*
X98445730Y-86511000D01*
X98339279Y-86489826D01*
X98239005Y-86448291D01*
X98168229Y-86401000D01*
X98148758Y-86387990D01*
X98072010Y-86311242D01*
X98037683Y-86259867D01*
X98011709Y-86220995D01*
X97970174Y-86120721D01*
X97949000Y-86014270D01*
X97949000Y-85905730D01*
X97970174Y-85799279D01*
X98011709Y-85699005D01*
X98072009Y-85608760D01*
X98072010Y-85608758D01*
X98148758Y-85532010D01*
X98239004Y-85471710D01*
X98239005Y-85471709D01*
X98339279Y-85430174D01*
X98445730Y-85409000D01*
X98554270Y-85409000D01*
X98660721Y-85430174D01*
X98660721Y-85430174D01*
G37*
G36*
X91160721Y-85430174D02*
G01*
X91260995Y-85471709D01*
X91260996Y-85471710D01*
X91351242Y-85532010D01*
X91427990Y-85608758D01*
X91427991Y-85608760D01*
X91488291Y-85699005D01*
X91529826Y-85799279D01*
X91551000Y-85905730D01*
X91551000Y-86014270D01*
X91529826Y-86120721D01*
X91488291Y-86220995D01*
X91462317Y-86259867D01*
X91427990Y-86311242D01*
X91351242Y-86387990D01*
X91331771Y-86401000D01*
X91260995Y-86448291D01*
X91160721Y-86489826D01*
X91054270Y-86511000D01*
X90945730Y-86511000D01*
X90839279Y-86489826D01*
X90739005Y-86448291D01*
X90668229Y-86401000D01*
X90648758Y-86387990D01*
X90572010Y-86311242D01*
X90537683Y-86259867D01*
X90511709Y-86220995D01*
X90470174Y-86120721D01*
X90449000Y-86014270D01*
X90449000Y-85905730D01*
X90470174Y-85799279D01*
X90511709Y-85699005D01*
X90572009Y-85608760D01*
X90572010Y-85608758D01*
X90648758Y-85532010D01*
X90739004Y-85471710D01*
X90739005Y-85471709D01*
X90839279Y-85430174D01*
X90945730Y-85409000D01*
X91054270Y-85409000D01*
X91160721Y-85430174D01*
X91160721Y-85430174D01*
G37*
G36*
X76401000Y-86401000D02*
G01*
X74599000Y-86401000D01*
X74599000Y-84599000D01*
X76401000Y-84599000D01*
X76401000Y-86401000D01*
X76401000Y-86401000D01*
G37*
G36*
X105901000Y-85401000D02*
G01*
X104099000Y-85401000D01*
X104099000Y-83599000D01*
X105901000Y-83599000D01*
X105901000Y-85401000D01*
X105901000Y-85401000D01*
G37*
G36*
X105110443Y-81065519D02*
G01*
X105176627Y-81072037D01*
X105346466Y-81123557D01*
X105502991Y-81207222D01*
X105538729Y-81236552D01*
X105640186Y-81319814D01*
X105723448Y-81421271D01*
X105752778Y-81457009D01*
X105836443Y-81613534D01*
X105887963Y-81783373D01*
X105905359Y-81960000D01*
X105887963Y-82136627D01*
X105836443Y-82306466D01*
X105752778Y-82462991D01*
X105723448Y-82498729D01*
X105640186Y-82600186D01*
X105538729Y-82683448D01*
X105502991Y-82712778D01*
X105346466Y-82796443D01*
X105176627Y-82847963D01*
X105110443Y-82854481D01*
X105044260Y-82861000D01*
X104955740Y-82861000D01*
X104889557Y-82854481D01*
X104823373Y-82847963D01*
X104653534Y-82796443D01*
X104497009Y-82712778D01*
X104461271Y-82683448D01*
X104359814Y-82600186D01*
X104276552Y-82498729D01*
X104247222Y-82462991D01*
X104163557Y-82306466D01*
X104112037Y-82136627D01*
X104094641Y-81960000D01*
X104112037Y-81783373D01*
X104163557Y-81613534D01*
X104247222Y-81457009D01*
X104276552Y-81421271D01*
X104359814Y-81319814D01*
X104461271Y-81236552D01*
X104497009Y-81207222D01*
X104653534Y-81123557D01*
X104823373Y-81072037D01*
X104889557Y-81065519D01*
X104955740Y-81059000D01*
X105044260Y-81059000D01*
X105110443Y-81065519D01*
X105110443Y-81065519D01*
G37*
G36*
X91551000Y-82051000D02*
G01*
X90449000Y-82051000D01*
X90449000Y-80949000D01*
X91551000Y-80949000D01*
X91551000Y-82051000D01*
X91551000Y-82051000D01*
G37*
G36*
X83551000Y-82051000D02*
G01*
X82449000Y-82051000D01*
X82449000Y-80949000D01*
X83551000Y-80949000D01*
X83551000Y-82051000D01*
X83551000Y-82051000D01*
G37*
G36*
X69142007Y-77383582D02*
G01*
X69542563Y-77549498D01*
X69542565Y-77549499D01*
X69903056Y-77790371D01*
X70209629Y-78096944D01*
X70432286Y-78430175D01*
X70450502Y-78457437D01*
X70616418Y-78857993D01*
X70701000Y-79283219D01*
X70701000Y-79716781D01*
X70616418Y-80142007D01*
X70513397Y-80390721D01*
X70450501Y-80542565D01*
X70209629Y-80903056D01*
X69903056Y-81209629D01*
X69542565Y-81450501D01*
X69542564Y-81450502D01*
X69542563Y-81450502D01*
X69142007Y-81616418D01*
X68716781Y-81701000D01*
X68283219Y-81701000D01*
X67857993Y-81616418D01*
X67457437Y-81450502D01*
X67457436Y-81450502D01*
X67457435Y-81450501D01*
X67096944Y-81209629D01*
X66790371Y-80903056D01*
X66549499Y-80542565D01*
X66486603Y-80390721D01*
X66383582Y-80142007D01*
X66299000Y-79716781D01*
X66299000Y-79283219D01*
X66383582Y-78857993D01*
X66549498Y-78457437D01*
X66567714Y-78430175D01*
X66790371Y-78096944D01*
X67096944Y-77790371D01*
X67457435Y-77549499D01*
X67457437Y-77549498D01*
X67857993Y-77383582D01*
X68283219Y-77299000D01*
X68716781Y-77299000D01*
X69142007Y-77383582D01*
X69142007Y-77383582D01*
G37*
G36*
X81890721Y-79700174D02*
G01*
X81990995Y-79741709D01*
X81990996Y-79741710D01*
X82081242Y-79802010D01*
X82157990Y-79878758D01*
X82157991Y-79878760D01*
X82218291Y-79969005D01*
X82259826Y-80069279D01*
X82281000Y-80175730D01*
X82281000Y-80284270D01*
X82259826Y-80390721D01*
X82218291Y-80490995D01*
X82218290Y-80490996D01*
X82157990Y-80581242D01*
X82081242Y-80657990D01*
X82035812Y-80688345D01*
X81990995Y-80718291D01*
X81890721Y-80759826D01*
X81784270Y-80781000D01*
X81675730Y-80781000D01*
X81569279Y-80759826D01*
X81469005Y-80718291D01*
X81424188Y-80688345D01*
X81378758Y-80657990D01*
X81302010Y-80581242D01*
X81241710Y-80490996D01*
X81241709Y-80490995D01*
X81200174Y-80390721D01*
X81179000Y-80284270D01*
X81179000Y-80175730D01*
X81200174Y-80069279D01*
X81241709Y-79969005D01*
X81302009Y-79878760D01*
X81302010Y-79878758D01*
X81378758Y-79802010D01*
X81469004Y-79741710D01*
X81469005Y-79741709D01*
X81569279Y-79700174D01*
X81675730Y-79679000D01*
X81784270Y-79679000D01*
X81890721Y-79700174D01*
X81890721Y-79700174D01*
G37*
G36*
X89890721Y-79700174D02*
G01*
X89990995Y-79741709D01*
X89990996Y-79741710D01*
X90081242Y-79802010D01*
X90157990Y-79878758D01*
X90157991Y-79878760D01*
X90218291Y-79969005D01*
X90259826Y-80069279D01*
X90281000Y-80175730D01*
X90281000Y-80284270D01*
X90259826Y-80390721D01*
X90218291Y-80490995D01*
X90218290Y-80490996D01*
X90157990Y-80581242D01*
X90081242Y-80657990D01*
X90035812Y-80688345D01*
X89990995Y-80718291D01*
X89890721Y-80759826D01*
X89784270Y-80781000D01*
X89675730Y-80781000D01*
X89569279Y-80759826D01*
X89469005Y-80718291D01*
X89424188Y-80688345D01*
X89378758Y-80657990D01*
X89302010Y-80581242D01*
X89241710Y-80490996D01*
X89241709Y-80490995D01*
X89200174Y-80390721D01*
X89179000Y-80284270D01*
X89179000Y-80175730D01*
X89200174Y-80069279D01*
X89241709Y-79969005D01*
X89302009Y-79878760D01*
X89302010Y-79878758D01*
X89378758Y-79802010D01*
X89469004Y-79741710D01*
X89469005Y-79741709D01*
X89569279Y-79700174D01*
X89675730Y-79679000D01*
X89784270Y-79679000D01*
X89890721Y-79700174D01*
X89890721Y-79700174D01*
G37*
G36*
X105110443Y-78525519D02*
G01*
X105176627Y-78532037D01*
X105346466Y-78583557D01*
X105502991Y-78667222D01*
X105538729Y-78696552D01*
X105640186Y-78779814D01*
X105723448Y-78881271D01*
X105752778Y-78917009D01*
X105752779Y-78917011D01*
X105804766Y-79014270D01*
X105836443Y-79073534D01*
X105887963Y-79243373D01*
X105905359Y-79420000D01*
X105887963Y-79596627D01*
X105836443Y-79766466D01*
X105752778Y-79922991D01*
X105723448Y-79958729D01*
X105640186Y-80060186D01*
X105540485Y-80142007D01*
X105502991Y-80172778D01*
X105346466Y-80256443D01*
X105176627Y-80307963D01*
X105110442Y-80314482D01*
X105044260Y-80321000D01*
X104955740Y-80321000D01*
X104889558Y-80314482D01*
X104823373Y-80307963D01*
X104653534Y-80256443D01*
X104497009Y-80172778D01*
X104459515Y-80142007D01*
X104359814Y-80060186D01*
X104276552Y-79958729D01*
X104247222Y-79922991D01*
X104163557Y-79766466D01*
X104112037Y-79596627D01*
X104094641Y-79420000D01*
X104112037Y-79243373D01*
X104163557Y-79073534D01*
X104195235Y-79014270D01*
X104247221Y-78917011D01*
X104247222Y-78917009D01*
X104276552Y-78881271D01*
X104359814Y-78779814D01*
X104461271Y-78696552D01*
X104497009Y-78667222D01*
X104653534Y-78583557D01*
X104823373Y-78532037D01*
X104889557Y-78525519D01*
X104955740Y-78519000D01*
X105044260Y-78519000D01*
X105110443Y-78525519D01*
X105110443Y-78525519D01*
G37*
G36*
X83160721Y-78430174D02*
G01*
X83260995Y-78471709D01*
X83260996Y-78471710D01*
X83351242Y-78532010D01*
X83427990Y-78608758D01*
X83427991Y-78608760D01*
X83488291Y-78699005D01*
X83529826Y-78799279D01*
X83551000Y-78905730D01*
X83551000Y-79014270D01*
X83529826Y-79120721D01*
X83488291Y-79220995D01*
X83488290Y-79220996D01*
X83427990Y-79311242D01*
X83351242Y-79387990D01*
X83305812Y-79418345D01*
X83260995Y-79448291D01*
X83160721Y-79489826D01*
X83054270Y-79511000D01*
X82945730Y-79511000D01*
X82839279Y-79489826D01*
X82739005Y-79448291D01*
X82694188Y-79418345D01*
X82648758Y-79387990D01*
X82572010Y-79311242D01*
X82511710Y-79220996D01*
X82511709Y-79220995D01*
X82470174Y-79120721D01*
X82449000Y-79014270D01*
X82449000Y-78905730D01*
X82470174Y-78799279D01*
X82511709Y-78699005D01*
X82572009Y-78608760D01*
X82572010Y-78608758D01*
X82648758Y-78532010D01*
X82739004Y-78471710D01*
X82739005Y-78471709D01*
X82839279Y-78430174D01*
X82945730Y-78409000D01*
X83054270Y-78409000D01*
X83160721Y-78430174D01*
X83160721Y-78430174D01*
G37*
G36*
X91160721Y-78430174D02*
G01*
X91260995Y-78471709D01*
X91260996Y-78471710D01*
X91351242Y-78532010D01*
X91427990Y-78608758D01*
X91427991Y-78608760D01*
X91488291Y-78699005D01*
X91529826Y-78799279D01*
X91551000Y-78905730D01*
X91551000Y-79014270D01*
X91529826Y-79120721D01*
X91488291Y-79220995D01*
X91488290Y-79220996D01*
X91427990Y-79311242D01*
X91351242Y-79387990D01*
X91305812Y-79418345D01*
X91260995Y-79448291D01*
X91160721Y-79489826D01*
X91054270Y-79511000D01*
X90945730Y-79511000D01*
X90839279Y-79489826D01*
X90739005Y-79448291D01*
X90694188Y-79418345D01*
X90648758Y-79387990D01*
X90572010Y-79311242D01*
X90511710Y-79220996D01*
X90511709Y-79220995D01*
X90470174Y-79120721D01*
X90449000Y-79014270D01*
X90449000Y-78905730D01*
X90470174Y-78799279D01*
X90511709Y-78699005D01*
X90572009Y-78608760D01*
X90572010Y-78608758D01*
X90648758Y-78532010D01*
X90739004Y-78471710D01*
X90739005Y-78471709D01*
X90839279Y-78430174D01*
X90945730Y-78409000D01*
X91054270Y-78409000D01*
X91160721Y-78430174D01*
X91160721Y-78430174D01*
G37*
G36*
X100719059Y-77777860D02*
G01*
X100779294Y-77802810D01*
X100855732Y-77834472D01*
X100978735Y-77916660D01*
X101083340Y-78021265D01*
X101165528Y-78144268D01*
X101165529Y-78144270D01*
X101222140Y-78280941D01*
X101251000Y-78426032D01*
X101251000Y-78573968D01*
X101236429Y-78647220D01*
X101222140Y-78719059D01*
X101165528Y-78855732D01*
X101083340Y-78978735D01*
X100978735Y-79083340D01*
X100855732Y-79165528D01*
X100855731Y-79165529D01*
X100855730Y-79165529D01*
X100719059Y-79222140D01*
X100573968Y-79251000D01*
X100426032Y-79251000D01*
X100280941Y-79222140D01*
X100144270Y-79165529D01*
X100144269Y-79165529D01*
X100144268Y-79165528D01*
X100021265Y-79083340D01*
X99916660Y-78978735D01*
X99834472Y-78855732D01*
X99777860Y-78719059D01*
X99763571Y-78647220D01*
X99749000Y-78573968D01*
X99749000Y-78426032D01*
X99777860Y-78280941D01*
X99834471Y-78144270D01*
X99834472Y-78144268D01*
X99916660Y-78021265D01*
X100021265Y-77916660D01*
X100144268Y-77834472D01*
X100220707Y-77802810D01*
X100280941Y-77777860D01*
X100426032Y-77749000D01*
X100573968Y-77749000D01*
X100719059Y-77777860D01*
X100719059Y-77777860D01*
G37*
G36*
X95493665Y-77752622D02*
G01*
X95567222Y-77759867D01*
X95708786Y-77802810D01*
X95839252Y-77872546D01*
X95869040Y-77896992D01*
X95953607Y-77966393D01*
X96023008Y-78050960D01*
X96047454Y-78080748D01*
X96117190Y-78211214D01*
X96160133Y-78352778D01*
X96174633Y-78500000D01*
X96160133Y-78647222D01*
X96117190Y-78788786D01*
X96047454Y-78919252D01*
X96023008Y-78949040D01*
X95953607Y-79033607D01*
X95893004Y-79083341D01*
X95839252Y-79127454D01*
X95708786Y-79197190D01*
X95567222Y-79240133D01*
X95493665Y-79247378D01*
X95456888Y-79251000D01*
X95383112Y-79251000D01*
X95346335Y-79247378D01*
X95272778Y-79240133D01*
X95131214Y-79197190D01*
X95000748Y-79127454D01*
X94946996Y-79083341D01*
X94886393Y-79033607D01*
X94816992Y-78949040D01*
X94792546Y-78919252D01*
X94722810Y-78788786D01*
X94679867Y-78647222D01*
X94665367Y-78500000D01*
X94679867Y-78352778D01*
X94722810Y-78211214D01*
X94792546Y-78080748D01*
X94816992Y-78050960D01*
X94886393Y-77966393D01*
X94970960Y-77896992D01*
X95000748Y-77872546D01*
X95131214Y-77802810D01*
X95272778Y-77759867D01*
X95346335Y-77752622D01*
X95383112Y-77749000D01*
X95456888Y-77749000D01*
X95493665Y-77752622D01*
X95493665Y-77752622D01*
G37*
M02*
