G04 #@! TF.GenerationSoftware,KiCad,Pcbnew,(5.1.0)-1*
G04 #@! TF.CreationDate,2019-11-24T19:02:04+00:00*
G04 #@! TF.ProjectId,WebastoWBUSInterface,57656261-7374-46f5-9742-5553496e7465,rev?*
G04 #@! TF.SameCoordinates,Original*
G04 #@! TF.FileFunction,Copper,L1,Top*
G04 #@! TF.FilePolarity,Positive*
%FSLAX46Y46*%
G04 Gerber Fmt 4.6, Leading zero omitted, Abs format (unit mm)*
G04 Created by KiCad (PCBNEW (5.1.0)-1) date 2019-11-24 19:02:04*
%MOMM*%
%LPD*%
G04 APERTURE LIST*
%ADD10C,1.400000*%
%ADD11O,1.400000X1.400000*%
%ADD12C,1.000000*%
%ADD13R,1.000000X1.000000*%
%ADD14R,1.700000X1.700000*%
%ADD15O,1.700000X1.700000*%
%ADD16R,1.800000X1.800000*%
%ADD17C,1.800000*%
%ADD18C,0.800000*%
%ADD19C,0.500000*%
%ADD20C,0.254000*%
G04 APERTURE END LIST*
D10*
X95000000Y-92500000D03*
D11*
X100080000Y-92500000D03*
D10*
X92000000Y-96500000D03*
D11*
X86920000Y-96500000D03*
D10*
X84000000Y-92500000D03*
D11*
X78920000Y-92500000D03*
D10*
X84000000Y-87000000D03*
D11*
X78920000Y-87000000D03*
D10*
X95000000Y-96500000D03*
D11*
X100080000Y-96500000D03*
D10*
X100500000Y-78500000D03*
D11*
X95420000Y-78500000D03*
D10*
X92000000Y-92500000D03*
D11*
X86920000Y-92500000D03*
D12*
X97230000Y-87230000D03*
X98500000Y-85960000D03*
D13*
X98500000Y-88500000D03*
D12*
X89730000Y-80230000D03*
X91000000Y-78960000D03*
D13*
X91000000Y-81500000D03*
D12*
X81730000Y-80230000D03*
X83000000Y-78960000D03*
D13*
X83000000Y-81500000D03*
D12*
X89730000Y-87230000D03*
X91000000Y-85960000D03*
D13*
X91000000Y-88500000D03*
D14*
X105000000Y-84500000D03*
D15*
X105000000Y-81960000D03*
X105000000Y-79420000D03*
D14*
X75500000Y-85500000D03*
D15*
X75500000Y-88040000D03*
X75500000Y-90580000D03*
X75500000Y-93120000D03*
X75500000Y-95660000D03*
X75500000Y-98200000D03*
D16*
X104500000Y-95500000D03*
D17*
X104500000Y-92960000D03*
D18*
X102000000Y-98500000D03*
X103000000Y-98500000D03*
X104000000Y-98500000D03*
X105000000Y-98500000D03*
X106000000Y-98500000D03*
X79000000Y-84000000D03*
X78000000Y-84000000D03*
X79000000Y-83000000D03*
X78000000Y-83000000D03*
X79000000Y-85000000D03*
X78000000Y-85000000D03*
D19*
X103620000Y-92960000D02*
X104500000Y-92960000D01*
X100080000Y-96500000D02*
X103620000Y-92960000D01*
X78300000Y-93120000D02*
X78920000Y-92500000D01*
X75500000Y-93120000D02*
X78300000Y-93120000D01*
X84000000Y-87420000D02*
X84000000Y-87000000D01*
X78920000Y-92500000D02*
X84000000Y-87420000D01*
X77880000Y-88040000D02*
X78920000Y-87000000D01*
X75500000Y-88040000D02*
X77880000Y-88040000D01*
X81730000Y-80937106D02*
X81730000Y-80230000D01*
X81730000Y-85892002D02*
X81730000Y-80937106D01*
X77042002Y-90580000D02*
X77622002Y-90000000D01*
X75500000Y-90580000D02*
X77042002Y-90580000D01*
X77622002Y-90000000D02*
X79500000Y-90000000D01*
X79500000Y-90000000D02*
X81500000Y-88000000D01*
X81500000Y-88000000D02*
X81500000Y-86122002D01*
X81500000Y-86122002D02*
X81730000Y-85892002D01*
X101420000Y-79420000D02*
X100500000Y-78500000D01*
X105000000Y-79420000D02*
X101420000Y-79420000D01*
X95420000Y-82880000D02*
X98500000Y-85960000D01*
X95420000Y-78500000D02*
X95420000Y-82880000D01*
X99960000Y-84500000D02*
X98500000Y-85960000D01*
X105000000Y-84500000D02*
X99960000Y-84500000D01*
X89730000Y-82040002D02*
X92189998Y-84500000D01*
X89730000Y-80230000D02*
X89730000Y-82040002D01*
X92189998Y-84500000D02*
X92500000Y-84500000D01*
X92500000Y-84500000D02*
X93000000Y-85000000D01*
X93000000Y-91500000D02*
X92000000Y-92500000D01*
X93000000Y-85000000D02*
X93000000Y-91500000D01*
X84699999Y-91800001D02*
X84699999Y-91300001D01*
X84000000Y-92500000D02*
X84699999Y-91800001D01*
X84699999Y-91300001D02*
X86500000Y-89500000D01*
X83000000Y-82500000D02*
X83000000Y-81500000D01*
X86500000Y-86000000D02*
X83000000Y-82500000D01*
X86500000Y-89500000D02*
X86500000Y-86000000D01*
X95000000Y-97489949D02*
X94489949Y-98000000D01*
X95000000Y-96500000D02*
X95000000Y-97489949D01*
X88420000Y-98000000D02*
X86920000Y-96500000D01*
X94489949Y-98000000D02*
X88420000Y-98000000D01*
X89730000Y-94230000D02*
X92000000Y-96500000D01*
X89730000Y-87230000D02*
X89730000Y-94230000D01*
X97230000Y-89650000D02*
X97230000Y-87230000D01*
X100080000Y-92500000D02*
X97230000Y-89650000D01*
D20*
G36*
X106373000Y-78838491D02*
G01*
X106240706Y-78590986D01*
X106055134Y-78364866D01*
X105829014Y-78179294D01*
X105571034Y-78041401D01*
X105291111Y-77956487D01*
X105072950Y-77935000D01*
X104927050Y-77935000D01*
X104708889Y-77956487D01*
X104428966Y-78041401D01*
X104170986Y-78179294D01*
X103944866Y-78364866D01*
X103805241Y-78535000D01*
X101835000Y-78535000D01*
X101835000Y-78368514D01*
X101783696Y-78110595D01*
X101683061Y-77867641D01*
X101536962Y-77648987D01*
X101351013Y-77463038D01*
X101132359Y-77316939D01*
X100889405Y-77216304D01*
X100631486Y-77165000D01*
X100368514Y-77165000D01*
X100110595Y-77216304D01*
X99867641Y-77316939D01*
X99648987Y-77463038D01*
X99463038Y-77648987D01*
X99316939Y-77867641D01*
X99216304Y-78110595D01*
X99165000Y-78368514D01*
X99165000Y-78631486D01*
X99216304Y-78889405D01*
X99316939Y-79132359D01*
X99463038Y-79351013D01*
X99648987Y-79536962D01*
X99867641Y-79683061D01*
X100110595Y-79783696D01*
X100368514Y-79835000D01*
X100583421Y-79835000D01*
X100763470Y-80015049D01*
X100791183Y-80048817D01*
X100824951Y-80076530D01*
X100824953Y-80076532D01*
X100843473Y-80091731D01*
X100925941Y-80159411D01*
X101079687Y-80241589D01*
X101246510Y-80292195D01*
X101376523Y-80305000D01*
X101376533Y-80305000D01*
X101419999Y-80309281D01*
X101463465Y-80305000D01*
X103805241Y-80305000D01*
X103944866Y-80475134D01*
X104170986Y-80660706D01*
X104235523Y-80695201D01*
X104118645Y-80764822D01*
X103902412Y-80959731D01*
X103728359Y-81193080D01*
X103603175Y-81455901D01*
X103558524Y-81603110D01*
X103679845Y-81833000D01*
X104873000Y-81833000D01*
X104873000Y-81813000D01*
X105127000Y-81813000D01*
X105127000Y-81833000D01*
X105147000Y-81833000D01*
X105147000Y-82087000D01*
X105127000Y-82087000D01*
X105127000Y-82107000D01*
X104873000Y-82107000D01*
X104873000Y-82087000D01*
X103679845Y-82087000D01*
X103558524Y-82316890D01*
X103603175Y-82464099D01*
X103728359Y-82726920D01*
X103902412Y-82960269D01*
X103986466Y-83036034D01*
X103905820Y-83060498D01*
X103795506Y-83119463D01*
X103698815Y-83198815D01*
X103619463Y-83295506D01*
X103560498Y-83405820D01*
X103524188Y-83525518D01*
X103515375Y-83615000D01*
X100003469Y-83615000D01*
X99960000Y-83610719D01*
X99916531Y-83615000D01*
X99916523Y-83615000D01*
X99786510Y-83627805D01*
X99619687Y-83678411D01*
X99576324Y-83701589D01*
X99465941Y-83760589D01*
X99364953Y-83843468D01*
X99364951Y-83843470D01*
X99331183Y-83871183D01*
X99303470Y-83904951D01*
X98500000Y-84708421D01*
X96305000Y-82513422D01*
X96305000Y-79500713D01*
X96368555Y-79448555D01*
X96535382Y-79245275D01*
X96659347Y-79013354D01*
X96735683Y-78761706D01*
X96761459Y-78500000D01*
X96735683Y-78238294D01*
X96659347Y-77986646D01*
X96535382Y-77754725D01*
X96368555Y-77551445D01*
X96165275Y-77384618D01*
X95933354Y-77260653D01*
X95681706Y-77184317D01*
X95485579Y-77165000D01*
X95354421Y-77165000D01*
X95158294Y-77184317D01*
X94906646Y-77260653D01*
X94674725Y-77384618D01*
X94471445Y-77551445D01*
X94304618Y-77754725D01*
X94180653Y-77986646D01*
X94104317Y-78238294D01*
X94078541Y-78500000D01*
X94104317Y-78761706D01*
X94180653Y-79013354D01*
X94304618Y-79245275D01*
X94471445Y-79448555D01*
X94535000Y-79500713D01*
X94535001Y-82836521D01*
X94530719Y-82880000D01*
X94547805Y-83053490D01*
X94598412Y-83220313D01*
X94680590Y-83374059D01*
X94763468Y-83475046D01*
X94763471Y-83475049D01*
X94791184Y-83508817D01*
X94824951Y-83536529D01*
X97366190Y-86077768D01*
X97370764Y-86100764D01*
X97341788Y-86095000D01*
X97118212Y-86095000D01*
X96898933Y-86138617D01*
X96692376Y-86224176D01*
X96506480Y-86348388D01*
X96348388Y-86506480D01*
X96224176Y-86692376D01*
X96138617Y-86898933D01*
X96095000Y-87118212D01*
X96095000Y-87341788D01*
X96138617Y-87561067D01*
X96224176Y-87767624D01*
X96345001Y-87948451D01*
X96345000Y-89606531D01*
X96340719Y-89650000D01*
X96345000Y-89693469D01*
X96345000Y-89693476D01*
X96356212Y-89807314D01*
X96357805Y-89823490D01*
X96362909Y-89840314D01*
X96408411Y-89990312D01*
X96490589Y-90144058D01*
X96601183Y-90278817D01*
X96634956Y-90306534D01*
X98746600Y-92418179D01*
X98738541Y-92500000D01*
X98764317Y-92761706D01*
X98840653Y-93013354D01*
X98964618Y-93245275D01*
X99131445Y-93448555D01*
X99334725Y-93615382D01*
X99566646Y-93739347D01*
X99818294Y-93815683D01*
X100014421Y-93835000D01*
X100145579Y-93835000D01*
X100341706Y-93815683D01*
X100593354Y-93739347D01*
X100825275Y-93615382D01*
X101028555Y-93448555D01*
X101195382Y-93245275D01*
X101319347Y-93013354D01*
X101395683Y-92761706D01*
X101421459Y-92500000D01*
X101395683Y-92238294D01*
X101319347Y-91986646D01*
X101195382Y-91754725D01*
X101028555Y-91551445D01*
X100825275Y-91384618D01*
X100593354Y-91260653D01*
X100341706Y-91184317D01*
X100145579Y-91165000D01*
X100014421Y-91165000D01*
X99998179Y-91166600D01*
X98469650Y-89638072D01*
X99000000Y-89638072D01*
X99124482Y-89625812D01*
X99244180Y-89589502D01*
X99354494Y-89530537D01*
X99451185Y-89451185D01*
X99530537Y-89354494D01*
X99589502Y-89244180D01*
X99625812Y-89124482D01*
X99638072Y-89000000D01*
X99638072Y-88000000D01*
X99625812Y-87875518D01*
X99589502Y-87755820D01*
X99530537Y-87645506D01*
X99451185Y-87548815D01*
X99354494Y-87469463D01*
X99244180Y-87410498D01*
X99124482Y-87374188D01*
X99000000Y-87361928D01*
X98360994Y-87361928D01*
X98365000Y-87341788D01*
X98365000Y-87118212D01*
X98359236Y-87089236D01*
X98388212Y-87095000D01*
X98611788Y-87095000D01*
X98831067Y-87051383D01*
X99037624Y-86965824D01*
X99223520Y-86841612D01*
X99381612Y-86683520D01*
X99505824Y-86497624D01*
X99591383Y-86291067D01*
X99633811Y-86077768D01*
X100326579Y-85385000D01*
X103515375Y-85385000D01*
X103524188Y-85474482D01*
X103560498Y-85594180D01*
X103619463Y-85704494D01*
X103698815Y-85801185D01*
X103795506Y-85880537D01*
X103905820Y-85939502D01*
X104025518Y-85975812D01*
X104150000Y-85988072D01*
X105850000Y-85988072D01*
X105974482Y-85975812D01*
X106094180Y-85939502D01*
X106204494Y-85880537D01*
X106301185Y-85801185D01*
X106373000Y-85713678D01*
X106373000Y-99340000D01*
X76442570Y-99340000D01*
X76597588Y-99200269D01*
X76771641Y-98966920D01*
X76896825Y-98704099D01*
X76941476Y-98556890D01*
X76820155Y-98327000D01*
X75627000Y-98327000D01*
X75627000Y-98347000D01*
X75373000Y-98347000D01*
X75373000Y-98327000D01*
X75353000Y-98327000D01*
X75353000Y-98073000D01*
X75373000Y-98073000D01*
X75373000Y-98053000D01*
X75627000Y-98053000D01*
X75627000Y-98073000D01*
X76820155Y-98073000D01*
X76941476Y-97843110D01*
X76896825Y-97695901D01*
X76771641Y-97433080D01*
X76597588Y-97199731D01*
X76381355Y-97004822D01*
X76264477Y-96935201D01*
X76329014Y-96900706D01*
X76555134Y-96715134D01*
X76731690Y-96500000D01*
X85578541Y-96500000D01*
X85604317Y-96761706D01*
X85680653Y-97013354D01*
X85804618Y-97245275D01*
X85971445Y-97448555D01*
X86174725Y-97615382D01*
X86406646Y-97739347D01*
X86658294Y-97815683D01*
X86854421Y-97835000D01*
X86985579Y-97835000D01*
X87001822Y-97833400D01*
X87763470Y-98595049D01*
X87791183Y-98628817D01*
X87824951Y-98656530D01*
X87824953Y-98656532D01*
X87886397Y-98706958D01*
X87925941Y-98739411D01*
X88079687Y-98821589D01*
X88246510Y-98872195D01*
X88376523Y-98885000D01*
X88376533Y-98885000D01*
X88419999Y-98889281D01*
X88463465Y-98885000D01*
X94446480Y-98885000D01*
X94489949Y-98889281D01*
X94533418Y-98885000D01*
X94533426Y-98885000D01*
X94663439Y-98872195D01*
X94830262Y-98821589D01*
X94984008Y-98739411D01*
X95118766Y-98628817D01*
X95146483Y-98595044D01*
X95595044Y-98146483D01*
X95628817Y-98118766D01*
X95739411Y-97984008D01*
X95821589Y-97830262D01*
X95872195Y-97663439D01*
X95885000Y-97533426D01*
X95885000Y-97533416D01*
X95888326Y-97499649D01*
X96036962Y-97351013D01*
X96183061Y-97132359D01*
X96283696Y-96889405D01*
X96335000Y-96631486D01*
X96335000Y-96500000D01*
X98738541Y-96500000D01*
X98764317Y-96761706D01*
X98840653Y-97013354D01*
X98964618Y-97245275D01*
X99131445Y-97448555D01*
X99334725Y-97615382D01*
X99566646Y-97739347D01*
X99818294Y-97815683D01*
X100014421Y-97835000D01*
X100145579Y-97835000D01*
X100341706Y-97815683D01*
X100593354Y-97739347D01*
X100825275Y-97615382D01*
X101028555Y-97448555D01*
X101195382Y-97245275D01*
X101319347Y-97013354D01*
X101395683Y-96761706D01*
X101421459Y-96500000D01*
X101413400Y-96418178D01*
X101431578Y-96400000D01*
X102961928Y-96400000D01*
X102974188Y-96524482D01*
X103010498Y-96644180D01*
X103069463Y-96754494D01*
X103148815Y-96851185D01*
X103245506Y-96930537D01*
X103355820Y-96989502D01*
X103475518Y-97025812D01*
X103600000Y-97038072D01*
X104214250Y-97035000D01*
X104373000Y-96876250D01*
X104373000Y-95627000D01*
X104627000Y-95627000D01*
X104627000Y-96876250D01*
X104785750Y-97035000D01*
X105400000Y-97038072D01*
X105524482Y-97025812D01*
X105644180Y-96989502D01*
X105754494Y-96930537D01*
X105851185Y-96851185D01*
X105930537Y-96754494D01*
X105989502Y-96644180D01*
X106025812Y-96524482D01*
X106038072Y-96400000D01*
X106035000Y-95785750D01*
X105876250Y-95627000D01*
X104627000Y-95627000D01*
X104373000Y-95627000D01*
X103123750Y-95627000D01*
X102965000Y-95785750D01*
X102961928Y-96400000D01*
X101431578Y-96400000D01*
X102963270Y-94868309D01*
X102965000Y-95214250D01*
X103123750Y-95373000D01*
X104373000Y-95373000D01*
X104373000Y-95353000D01*
X104627000Y-95353000D01*
X104627000Y-95373000D01*
X105876250Y-95373000D01*
X106035000Y-95214250D01*
X106038072Y-94600000D01*
X106025812Y-94475518D01*
X105989502Y-94355820D01*
X105930537Y-94245506D01*
X105851185Y-94148815D01*
X105754494Y-94069463D01*
X105644180Y-94010498D01*
X105625873Y-94004944D01*
X105692312Y-93938505D01*
X105860299Y-93687095D01*
X105976011Y-93407743D01*
X106035000Y-93111184D01*
X106035000Y-92808816D01*
X105976011Y-92512257D01*
X105860299Y-92232905D01*
X105692312Y-91981495D01*
X105478505Y-91767688D01*
X105227095Y-91599701D01*
X104947743Y-91483989D01*
X104651184Y-91425000D01*
X104348816Y-91425000D01*
X104052257Y-91483989D01*
X103772905Y-91599701D01*
X103521495Y-91767688D01*
X103307688Y-91981495D01*
X103160147Y-92202306D01*
X103125941Y-92220589D01*
X103125939Y-92220590D01*
X103125940Y-92220590D01*
X103024953Y-92303468D01*
X103024951Y-92303470D01*
X102991183Y-92331183D01*
X102963470Y-92364951D01*
X100161822Y-95166600D01*
X100145579Y-95165000D01*
X100014421Y-95165000D01*
X99818294Y-95184317D01*
X99566646Y-95260653D01*
X99334725Y-95384618D01*
X99131445Y-95551445D01*
X98964618Y-95754725D01*
X98840653Y-95986646D01*
X98764317Y-96238294D01*
X98738541Y-96500000D01*
X96335000Y-96500000D01*
X96335000Y-96368514D01*
X96283696Y-96110595D01*
X96183061Y-95867641D01*
X96036962Y-95648987D01*
X95851013Y-95463038D01*
X95632359Y-95316939D01*
X95389405Y-95216304D01*
X95131486Y-95165000D01*
X94868514Y-95165000D01*
X94610595Y-95216304D01*
X94367641Y-95316939D01*
X94148987Y-95463038D01*
X93963038Y-95648987D01*
X93816939Y-95867641D01*
X93716304Y-96110595D01*
X93665000Y-96368514D01*
X93665000Y-96631486D01*
X93716304Y-96889405D01*
X93809749Y-97115000D01*
X93190251Y-97115000D01*
X93283696Y-96889405D01*
X93335000Y-96631486D01*
X93335000Y-96368514D01*
X93283696Y-96110595D01*
X93183061Y-95867641D01*
X93036962Y-95648987D01*
X92851013Y-95463038D01*
X92632359Y-95316939D01*
X92389405Y-95216304D01*
X92131486Y-95165000D01*
X91916579Y-95165000D01*
X90615000Y-93863422D01*
X90615000Y-89638072D01*
X91500000Y-89638072D01*
X91624482Y-89625812D01*
X91744180Y-89589502D01*
X91854494Y-89530537D01*
X91951185Y-89451185D01*
X92030537Y-89354494D01*
X92089502Y-89244180D01*
X92115001Y-89160122D01*
X92115001Y-91133420D01*
X92083421Y-91165000D01*
X91868514Y-91165000D01*
X91610595Y-91216304D01*
X91367641Y-91316939D01*
X91148987Y-91463038D01*
X90963038Y-91648987D01*
X90816939Y-91867641D01*
X90716304Y-92110595D01*
X90665000Y-92368514D01*
X90665000Y-92631486D01*
X90716304Y-92889405D01*
X90816939Y-93132359D01*
X90963038Y-93351013D01*
X91148987Y-93536962D01*
X91367641Y-93683061D01*
X91610595Y-93783696D01*
X91868514Y-93835000D01*
X92131486Y-93835000D01*
X92389405Y-93783696D01*
X92632359Y-93683061D01*
X92851013Y-93536962D01*
X93036962Y-93351013D01*
X93183061Y-93132359D01*
X93283696Y-92889405D01*
X93335000Y-92631486D01*
X93335000Y-92416579D01*
X93383065Y-92368514D01*
X93665000Y-92368514D01*
X93665000Y-92631486D01*
X93716304Y-92889405D01*
X93816939Y-93132359D01*
X93963038Y-93351013D01*
X94148987Y-93536962D01*
X94367641Y-93683061D01*
X94610595Y-93783696D01*
X94868514Y-93835000D01*
X95131486Y-93835000D01*
X95389405Y-93783696D01*
X95632359Y-93683061D01*
X95851013Y-93536962D01*
X96036962Y-93351013D01*
X96183061Y-93132359D01*
X96283696Y-92889405D01*
X96335000Y-92631486D01*
X96335000Y-92368514D01*
X96283696Y-92110595D01*
X96183061Y-91867641D01*
X96036962Y-91648987D01*
X95851013Y-91463038D01*
X95632359Y-91316939D01*
X95389405Y-91216304D01*
X95131486Y-91165000D01*
X94868514Y-91165000D01*
X94610595Y-91216304D01*
X94367641Y-91316939D01*
X94148987Y-91463038D01*
X93963038Y-91648987D01*
X93816939Y-91867641D01*
X93716304Y-92110595D01*
X93665000Y-92368514D01*
X93383065Y-92368514D01*
X93595049Y-92156530D01*
X93628817Y-92128817D01*
X93662475Y-92087806D01*
X93739411Y-91994059D01*
X93821589Y-91840314D01*
X93872195Y-91673490D01*
X93874608Y-91648987D01*
X93885000Y-91543477D01*
X93885000Y-91543469D01*
X93889281Y-91500000D01*
X93885000Y-91456531D01*
X93885000Y-85043469D01*
X93889281Y-85000000D01*
X93885000Y-84956531D01*
X93885000Y-84956523D01*
X93872195Y-84826510D01*
X93821589Y-84659687D01*
X93739411Y-84505941D01*
X93628817Y-84371183D01*
X93595045Y-84343467D01*
X93156534Y-83904956D01*
X93128817Y-83871183D01*
X92994059Y-83760589D01*
X92840313Y-83678411D01*
X92673490Y-83627805D01*
X92558008Y-83616431D01*
X91572507Y-82630931D01*
X91624482Y-82625812D01*
X91744180Y-82589502D01*
X91854494Y-82530537D01*
X91951185Y-82451185D01*
X92030537Y-82354494D01*
X92089502Y-82244180D01*
X92125812Y-82124482D01*
X92138072Y-82000000D01*
X92138072Y-81000000D01*
X92125812Y-80875518D01*
X92089502Y-80755820D01*
X92030537Y-80645506D01*
X91951185Y-80548815D01*
X91854494Y-80469463D01*
X91744180Y-80410498D01*
X91624482Y-80374188D01*
X91500000Y-80361928D01*
X90860994Y-80361928D01*
X90865000Y-80341788D01*
X90865000Y-80118212D01*
X90859737Y-80091753D01*
X91082406Y-80097511D01*
X91302740Y-80059577D01*
X91511440Y-79979387D01*
X91563450Y-79951588D01*
X91598561Y-79738166D01*
X91000000Y-79139605D01*
X90985858Y-79153748D01*
X90806253Y-78974143D01*
X90820395Y-78960000D01*
X91179605Y-78960000D01*
X91778166Y-79558561D01*
X91991588Y-79523450D01*
X92082458Y-79319174D01*
X92131731Y-79101095D01*
X92137511Y-78877594D01*
X92099577Y-78657260D01*
X92019387Y-78448560D01*
X91991588Y-78396550D01*
X91778166Y-78361439D01*
X91179605Y-78960000D01*
X90820395Y-78960000D01*
X90221834Y-78361439D01*
X90008412Y-78396550D01*
X89917542Y-78600826D01*
X89868269Y-78818905D01*
X89862489Y-79042406D01*
X89872599Y-79101129D01*
X89841788Y-79095000D01*
X89618212Y-79095000D01*
X89398933Y-79138617D01*
X89192376Y-79224176D01*
X89006480Y-79348388D01*
X88848388Y-79506480D01*
X88724176Y-79692376D01*
X88638617Y-79898933D01*
X88595000Y-80118212D01*
X88595000Y-80341788D01*
X88638617Y-80561067D01*
X88724176Y-80767624D01*
X88845000Y-80948450D01*
X88845001Y-81996523D01*
X88840719Y-82040002D01*
X88857805Y-82213492D01*
X88908412Y-82380315D01*
X88990590Y-82534061D01*
X89073468Y-82635048D01*
X89073471Y-82635051D01*
X89101184Y-82668819D01*
X89134951Y-82696531D01*
X91303348Y-84864929D01*
X91141095Y-84828269D01*
X90917594Y-84822489D01*
X90697260Y-84860423D01*
X90488560Y-84940613D01*
X90436550Y-84968412D01*
X90401439Y-85181834D01*
X91000000Y-85780395D01*
X91014143Y-85766253D01*
X91193748Y-85945858D01*
X91179605Y-85960000D01*
X91778166Y-86558561D01*
X91991588Y-86523450D01*
X92082458Y-86319174D01*
X92115000Y-86175144D01*
X92115000Y-87839877D01*
X92089502Y-87755820D01*
X92030537Y-87645506D01*
X91951185Y-87548815D01*
X91854494Y-87469463D01*
X91744180Y-87410498D01*
X91624482Y-87374188D01*
X91500000Y-87361928D01*
X90860994Y-87361928D01*
X90865000Y-87341788D01*
X90865000Y-87118212D01*
X90859737Y-87091753D01*
X91082406Y-87097511D01*
X91302740Y-87059577D01*
X91511440Y-86979387D01*
X91563450Y-86951588D01*
X91598561Y-86738166D01*
X91000000Y-86139605D01*
X90985858Y-86153748D01*
X90806253Y-85974143D01*
X90820395Y-85960000D01*
X90221834Y-85361439D01*
X90008412Y-85396550D01*
X89917542Y-85600826D01*
X89868269Y-85818905D01*
X89862489Y-86042406D01*
X89872599Y-86101129D01*
X89841788Y-86095000D01*
X89618212Y-86095000D01*
X89398933Y-86138617D01*
X89192376Y-86224176D01*
X89006480Y-86348388D01*
X88848388Y-86506480D01*
X88724176Y-86692376D01*
X88638617Y-86898933D01*
X88595000Y-87118212D01*
X88595000Y-87341788D01*
X88638617Y-87561067D01*
X88724176Y-87767624D01*
X88845000Y-87948450D01*
X88845001Y-94186521D01*
X88840719Y-94230000D01*
X88857805Y-94403490D01*
X88908412Y-94570313D01*
X88990590Y-94724059D01*
X89073468Y-94825046D01*
X89073471Y-94825049D01*
X89101184Y-94858817D01*
X89134951Y-94886529D01*
X90665000Y-96416579D01*
X90665000Y-96631486D01*
X90716304Y-96889405D01*
X90809749Y-97115000D01*
X88786579Y-97115000D01*
X88253400Y-96581822D01*
X88261459Y-96500000D01*
X88235683Y-96238294D01*
X88159347Y-95986646D01*
X88035382Y-95754725D01*
X87868555Y-95551445D01*
X87665275Y-95384618D01*
X87433354Y-95260653D01*
X87181706Y-95184317D01*
X86985579Y-95165000D01*
X86854421Y-95165000D01*
X86658294Y-95184317D01*
X86406646Y-95260653D01*
X86174725Y-95384618D01*
X85971445Y-95551445D01*
X85804618Y-95754725D01*
X85680653Y-95986646D01*
X85604317Y-96238294D01*
X85578541Y-96500000D01*
X76731690Y-96500000D01*
X76740706Y-96489014D01*
X76878599Y-96231034D01*
X76963513Y-95951111D01*
X76992185Y-95660000D01*
X76963513Y-95368889D01*
X76878599Y-95088966D01*
X76740706Y-94830986D01*
X76555134Y-94604866D01*
X76329014Y-94419294D01*
X76274209Y-94390000D01*
X76329014Y-94360706D01*
X76555134Y-94175134D01*
X76694759Y-94005000D01*
X78256531Y-94005000D01*
X78300000Y-94009281D01*
X78343469Y-94005000D01*
X78343477Y-94005000D01*
X78473490Y-93992195D01*
X78640313Y-93941589D01*
X78794059Y-93859411D01*
X78827084Y-93832308D01*
X78854421Y-93835000D01*
X78985579Y-93835000D01*
X79181706Y-93815683D01*
X79433354Y-93739347D01*
X79665275Y-93615382D01*
X79868555Y-93448555D01*
X80035382Y-93245275D01*
X80159347Y-93013354D01*
X80235683Y-92761706D01*
X80261459Y-92500000D01*
X80253400Y-92418178D01*
X84387505Y-88284074D01*
X84389405Y-88283696D01*
X84632359Y-88183061D01*
X84851013Y-88036962D01*
X85036962Y-87851013D01*
X85183061Y-87632359D01*
X85283696Y-87389405D01*
X85335000Y-87131486D01*
X85335000Y-86868514D01*
X85283696Y-86610595D01*
X85183061Y-86367641D01*
X85036962Y-86148987D01*
X84851013Y-85963038D01*
X84632359Y-85816939D01*
X84389405Y-85716304D01*
X84131486Y-85665000D01*
X83868514Y-85665000D01*
X83610595Y-85716304D01*
X83367641Y-85816939D01*
X83148987Y-85963038D01*
X82963038Y-86148987D01*
X82816939Y-86367641D01*
X82716304Y-86610595D01*
X82665000Y-86868514D01*
X82665000Y-87131486D01*
X82716304Y-87389405D01*
X82734672Y-87433749D01*
X82385000Y-87783421D01*
X82385000Y-86488915D01*
X82469411Y-86386061D01*
X82551589Y-86232315D01*
X82602195Y-86065492D01*
X82615000Y-85935479D01*
X82615000Y-85935469D01*
X82619281Y-85892003D01*
X82615000Y-85848537D01*
X82615000Y-83366578D01*
X85615001Y-86366580D01*
X85615000Y-89133421D01*
X84104950Y-90643472D01*
X84071183Y-90671184D01*
X84043470Y-90704952D01*
X84043467Y-90704955D01*
X83960589Y-90805942D01*
X83878410Y-90959688D01*
X83827804Y-91126511D01*
X83823124Y-91174029D01*
X83610595Y-91216304D01*
X83367641Y-91316939D01*
X83148987Y-91463038D01*
X82963038Y-91648987D01*
X82816939Y-91867641D01*
X82716304Y-92110595D01*
X82665000Y-92368514D01*
X82665000Y-92631486D01*
X82716304Y-92889405D01*
X82816939Y-93132359D01*
X82963038Y-93351013D01*
X83148987Y-93536962D01*
X83367641Y-93683061D01*
X83610595Y-93783696D01*
X83868514Y-93835000D01*
X84131486Y-93835000D01*
X84389405Y-93783696D01*
X84632359Y-93683061D01*
X84851013Y-93536962D01*
X85036962Y-93351013D01*
X85183061Y-93132359D01*
X85283696Y-92889405D01*
X85335000Y-92631486D01*
X85335000Y-92500000D01*
X85578541Y-92500000D01*
X85604317Y-92761706D01*
X85680653Y-93013354D01*
X85804618Y-93245275D01*
X85971445Y-93448555D01*
X86174725Y-93615382D01*
X86406646Y-93739347D01*
X86658294Y-93815683D01*
X86854421Y-93835000D01*
X86985579Y-93835000D01*
X87181706Y-93815683D01*
X87433354Y-93739347D01*
X87665275Y-93615382D01*
X87868555Y-93448555D01*
X88035382Y-93245275D01*
X88159347Y-93013354D01*
X88235683Y-92761706D01*
X88261459Y-92500000D01*
X88235683Y-92238294D01*
X88159347Y-91986646D01*
X88035382Y-91754725D01*
X87868555Y-91551445D01*
X87665275Y-91384618D01*
X87433354Y-91260653D01*
X87181706Y-91184317D01*
X86985579Y-91165000D01*
X86854421Y-91165000D01*
X86658294Y-91184317D01*
X86406646Y-91260653D01*
X86174725Y-91384618D01*
X85971445Y-91551445D01*
X85804618Y-91754725D01*
X85680653Y-91986646D01*
X85604317Y-92238294D01*
X85578541Y-92500000D01*
X85335000Y-92500000D01*
X85335000Y-92421283D01*
X85439410Y-92294060D01*
X85521588Y-92140314D01*
X85572194Y-91973491D01*
X85584999Y-91843478D01*
X85584999Y-91843468D01*
X85589280Y-91800002D01*
X85584999Y-91756535D01*
X85584999Y-91666579D01*
X87095050Y-90156529D01*
X87128817Y-90128817D01*
X87239411Y-89994059D01*
X87321589Y-89840313D01*
X87372195Y-89673490D01*
X87385000Y-89543477D01*
X87385000Y-89543469D01*
X87389281Y-89500000D01*
X87385000Y-89456531D01*
X87385000Y-86043465D01*
X87389281Y-85999999D01*
X87385000Y-85956533D01*
X87385000Y-85956523D01*
X87372195Y-85826510D01*
X87321589Y-85659687D01*
X87239411Y-85505941D01*
X87192319Y-85448560D01*
X87156532Y-85404953D01*
X87156530Y-85404951D01*
X87128817Y-85371183D01*
X87095049Y-85343470D01*
X84056848Y-82305270D01*
X84089502Y-82244180D01*
X84125812Y-82124482D01*
X84138072Y-82000000D01*
X84138072Y-81000000D01*
X84125812Y-80875518D01*
X84089502Y-80755820D01*
X84030537Y-80645506D01*
X83951185Y-80548815D01*
X83854494Y-80469463D01*
X83744180Y-80410498D01*
X83624482Y-80374188D01*
X83500000Y-80361928D01*
X82860994Y-80361928D01*
X82865000Y-80341788D01*
X82865000Y-80118212D01*
X82859737Y-80091753D01*
X83082406Y-80097511D01*
X83302740Y-80059577D01*
X83511440Y-79979387D01*
X83563450Y-79951588D01*
X83598561Y-79738166D01*
X83000000Y-79139605D01*
X82985858Y-79153748D01*
X82806253Y-78974143D01*
X82820395Y-78960000D01*
X83179605Y-78960000D01*
X83778166Y-79558561D01*
X83991588Y-79523450D01*
X84082458Y-79319174D01*
X84131731Y-79101095D01*
X84137511Y-78877594D01*
X84099577Y-78657260D01*
X84019387Y-78448560D01*
X83991588Y-78396550D01*
X83778166Y-78361439D01*
X83179605Y-78960000D01*
X82820395Y-78960000D01*
X82221834Y-78361439D01*
X82008412Y-78396550D01*
X81917542Y-78600826D01*
X81868269Y-78818905D01*
X81862489Y-79042406D01*
X81872599Y-79101129D01*
X81841788Y-79095000D01*
X81618212Y-79095000D01*
X81398933Y-79138617D01*
X81192376Y-79224176D01*
X81006480Y-79348388D01*
X80848388Y-79506480D01*
X80724176Y-79692376D01*
X80638617Y-79898933D01*
X80595000Y-80118212D01*
X80595000Y-80341788D01*
X80638617Y-80561067D01*
X80724176Y-80767624D01*
X80845000Y-80948450D01*
X80845000Y-80980582D01*
X80845001Y-80980592D01*
X80845000Y-85525090D01*
X80843471Y-85526953D01*
X80843468Y-85526956D01*
X80760590Y-85627943D01*
X80678412Y-85781689D01*
X80627805Y-85948512D01*
X80610719Y-86122002D01*
X80615001Y-86165481D01*
X80615000Y-87633421D01*
X79133422Y-89115000D01*
X77665471Y-89115000D01*
X77622002Y-89110719D01*
X77578533Y-89115000D01*
X77578525Y-89115000D01*
X77448512Y-89127805D01*
X77281689Y-89178411D01*
X77127943Y-89260589D01*
X76993185Y-89371183D01*
X76965470Y-89404954D01*
X76686044Y-89684380D01*
X76555134Y-89524866D01*
X76329014Y-89339294D01*
X76274209Y-89310000D01*
X76329014Y-89280706D01*
X76555134Y-89095134D01*
X76694759Y-88925000D01*
X77836531Y-88925000D01*
X77880000Y-88929281D01*
X77923469Y-88925000D01*
X77923477Y-88925000D01*
X78053490Y-88912195D01*
X78220313Y-88861589D01*
X78374059Y-88779411D01*
X78508817Y-88668817D01*
X78536534Y-88635044D01*
X78838178Y-88333400D01*
X78854421Y-88335000D01*
X78985579Y-88335000D01*
X79181706Y-88315683D01*
X79433354Y-88239347D01*
X79665275Y-88115382D01*
X79868555Y-87948555D01*
X80035382Y-87745275D01*
X80159347Y-87513354D01*
X80235683Y-87261706D01*
X80261459Y-87000000D01*
X80235683Y-86738294D01*
X80159347Y-86486646D01*
X80035382Y-86254725D01*
X79868555Y-86051445D01*
X79665275Y-85884618D01*
X79433354Y-85760653D01*
X79181706Y-85684317D01*
X78985579Y-85665000D01*
X78854421Y-85665000D01*
X78658294Y-85684317D01*
X78406646Y-85760653D01*
X78174725Y-85884618D01*
X77971445Y-86051445D01*
X77804618Y-86254725D01*
X77680653Y-86486646D01*
X77604317Y-86738294D01*
X77578541Y-87000000D01*
X77586600Y-87081822D01*
X77513422Y-87155000D01*
X76694759Y-87155000D01*
X76555134Y-86984866D01*
X76525313Y-86960393D01*
X76594180Y-86939502D01*
X76704494Y-86880537D01*
X76801185Y-86801185D01*
X76880537Y-86704494D01*
X76939502Y-86594180D01*
X76975812Y-86474482D01*
X76988072Y-86350000D01*
X76988072Y-84650000D01*
X76975812Y-84525518D01*
X76939502Y-84405820D01*
X76880537Y-84295506D01*
X76801185Y-84198815D01*
X76704494Y-84119463D01*
X76594180Y-84060498D01*
X76474482Y-84024188D01*
X76350000Y-84011928D01*
X74650000Y-84011928D01*
X74525518Y-84024188D01*
X74405820Y-84060498D01*
X74295506Y-84119463D01*
X74198815Y-84198815D01*
X74127000Y-84286322D01*
X74127000Y-78181834D01*
X82401439Y-78181834D01*
X83000000Y-78780395D01*
X83598561Y-78181834D01*
X90401439Y-78181834D01*
X91000000Y-78780395D01*
X91598561Y-78181834D01*
X91563450Y-77968412D01*
X91359174Y-77877542D01*
X91141095Y-77828269D01*
X90917594Y-77822489D01*
X90697260Y-77860423D01*
X90488560Y-77940613D01*
X90436550Y-77968412D01*
X90401439Y-78181834D01*
X83598561Y-78181834D01*
X83563450Y-77968412D01*
X83359174Y-77877542D01*
X83141095Y-77828269D01*
X82917594Y-77822489D01*
X82697260Y-77860423D01*
X82488560Y-77940613D01*
X82436550Y-77968412D01*
X82401439Y-78181834D01*
X74127000Y-78181834D01*
X74127000Y-76660000D01*
X106373000Y-76660000D01*
X106373000Y-78838491D01*
X106373000Y-78838491D01*
G37*
X106373000Y-78838491D02*
X106240706Y-78590986D01*
X106055134Y-78364866D01*
X105829014Y-78179294D01*
X105571034Y-78041401D01*
X105291111Y-77956487D01*
X105072950Y-77935000D01*
X104927050Y-77935000D01*
X104708889Y-77956487D01*
X104428966Y-78041401D01*
X104170986Y-78179294D01*
X103944866Y-78364866D01*
X103805241Y-78535000D01*
X101835000Y-78535000D01*
X101835000Y-78368514D01*
X101783696Y-78110595D01*
X101683061Y-77867641D01*
X101536962Y-77648987D01*
X101351013Y-77463038D01*
X101132359Y-77316939D01*
X100889405Y-77216304D01*
X100631486Y-77165000D01*
X100368514Y-77165000D01*
X100110595Y-77216304D01*
X99867641Y-77316939D01*
X99648987Y-77463038D01*
X99463038Y-77648987D01*
X99316939Y-77867641D01*
X99216304Y-78110595D01*
X99165000Y-78368514D01*
X99165000Y-78631486D01*
X99216304Y-78889405D01*
X99316939Y-79132359D01*
X99463038Y-79351013D01*
X99648987Y-79536962D01*
X99867641Y-79683061D01*
X100110595Y-79783696D01*
X100368514Y-79835000D01*
X100583421Y-79835000D01*
X100763470Y-80015049D01*
X100791183Y-80048817D01*
X100824951Y-80076530D01*
X100824953Y-80076532D01*
X100843473Y-80091731D01*
X100925941Y-80159411D01*
X101079687Y-80241589D01*
X101246510Y-80292195D01*
X101376523Y-80305000D01*
X101376533Y-80305000D01*
X101419999Y-80309281D01*
X101463465Y-80305000D01*
X103805241Y-80305000D01*
X103944866Y-80475134D01*
X104170986Y-80660706D01*
X104235523Y-80695201D01*
X104118645Y-80764822D01*
X103902412Y-80959731D01*
X103728359Y-81193080D01*
X103603175Y-81455901D01*
X103558524Y-81603110D01*
X103679845Y-81833000D01*
X104873000Y-81833000D01*
X104873000Y-81813000D01*
X105127000Y-81813000D01*
X105127000Y-81833000D01*
X105147000Y-81833000D01*
X105147000Y-82087000D01*
X105127000Y-82087000D01*
X105127000Y-82107000D01*
X104873000Y-82107000D01*
X104873000Y-82087000D01*
X103679845Y-82087000D01*
X103558524Y-82316890D01*
X103603175Y-82464099D01*
X103728359Y-82726920D01*
X103902412Y-82960269D01*
X103986466Y-83036034D01*
X103905820Y-83060498D01*
X103795506Y-83119463D01*
X103698815Y-83198815D01*
X103619463Y-83295506D01*
X103560498Y-83405820D01*
X103524188Y-83525518D01*
X103515375Y-83615000D01*
X100003469Y-83615000D01*
X99960000Y-83610719D01*
X99916531Y-83615000D01*
X99916523Y-83615000D01*
X99786510Y-83627805D01*
X99619687Y-83678411D01*
X99576324Y-83701589D01*
X99465941Y-83760589D01*
X99364953Y-83843468D01*
X99364951Y-83843470D01*
X99331183Y-83871183D01*
X99303470Y-83904951D01*
X98500000Y-84708421D01*
X96305000Y-82513422D01*
X96305000Y-79500713D01*
X96368555Y-79448555D01*
X96535382Y-79245275D01*
X96659347Y-79013354D01*
X96735683Y-78761706D01*
X96761459Y-78500000D01*
X96735683Y-78238294D01*
X96659347Y-77986646D01*
X96535382Y-77754725D01*
X96368555Y-77551445D01*
X96165275Y-77384618D01*
X95933354Y-77260653D01*
X95681706Y-77184317D01*
X95485579Y-77165000D01*
X95354421Y-77165000D01*
X95158294Y-77184317D01*
X94906646Y-77260653D01*
X94674725Y-77384618D01*
X94471445Y-77551445D01*
X94304618Y-77754725D01*
X94180653Y-77986646D01*
X94104317Y-78238294D01*
X94078541Y-78500000D01*
X94104317Y-78761706D01*
X94180653Y-79013354D01*
X94304618Y-79245275D01*
X94471445Y-79448555D01*
X94535000Y-79500713D01*
X94535001Y-82836521D01*
X94530719Y-82880000D01*
X94547805Y-83053490D01*
X94598412Y-83220313D01*
X94680590Y-83374059D01*
X94763468Y-83475046D01*
X94763471Y-83475049D01*
X94791184Y-83508817D01*
X94824951Y-83536529D01*
X97366190Y-86077768D01*
X97370764Y-86100764D01*
X97341788Y-86095000D01*
X97118212Y-86095000D01*
X96898933Y-86138617D01*
X96692376Y-86224176D01*
X96506480Y-86348388D01*
X96348388Y-86506480D01*
X96224176Y-86692376D01*
X96138617Y-86898933D01*
X96095000Y-87118212D01*
X96095000Y-87341788D01*
X96138617Y-87561067D01*
X96224176Y-87767624D01*
X96345001Y-87948451D01*
X96345000Y-89606531D01*
X96340719Y-89650000D01*
X96345000Y-89693469D01*
X96345000Y-89693476D01*
X96356212Y-89807314D01*
X96357805Y-89823490D01*
X96362909Y-89840314D01*
X96408411Y-89990312D01*
X96490589Y-90144058D01*
X96601183Y-90278817D01*
X96634956Y-90306534D01*
X98746600Y-92418179D01*
X98738541Y-92500000D01*
X98764317Y-92761706D01*
X98840653Y-93013354D01*
X98964618Y-93245275D01*
X99131445Y-93448555D01*
X99334725Y-93615382D01*
X99566646Y-93739347D01*
X99818294Y-93815683D01*
X100014421Y-93835000D01*
X100145579Y-93835000D01*
X100341706Y-93815683D01*
X100593354Y-93739347D01*
X100825275Y-93615382D01*
X101028555Y-93448555D01*
X101195382Y-93245275D01*
X101319347Y-93013354D01*
X101395683Y-92761706D01*
X101421459Y-92500000D01*
X101395683Y-92238294D01*
X101319347Y-91986646D01*
X101195382Y-91754725D01*
X101028555Y-91551445D01*
X100825275Y-91384618D01*
X100593354Y-91260653D01*
X100341706Y-91184317D01*
X100145579Y-91165000D01*
X100014421Y-91165000D01*
X99998179Y-91166600D01*
X98469650Y-89638072D01*
X99000000Y-89638072D01*
X99124482Y-89625812D01*
X99244180Y-89589502D01*
X99354494Y-89530537D01*
X99451185Y-89451185D01*
X99530537Y-89354494D01*
X99589502Y-89244180D01*
X99625812Y-89124482D01*
X99638072Y-89000000D01*
X99638072Y-88000000D01*
X99625812Y-87875518D01*
X99589502Y-87755820D01*
X99530537Y-87645506D01*
X99451185Y-87548815D01*
X99354494Y-87469463D01*
X99244180Y-87410498D01*
X99124482Y-87374188D01*
X99000000Y-87361928D01*
X98360994Y-87361928D01*
X98365000Y-87341788D01*
X98365000Y-87118212D01*
X98359236Y-87089236D01*
X98388212Y-87095000D01*
X98611788Y-87095000D01*
X98831067Y-87051383D01*
X99037624Y-86965824D01*
X99223520Y-86841612D01*
X99381612Y-86683520D01*
X99505824Y-86497624D01*
X99591383Y-86291067D01*
X99633811Y-86077768D01*
X100326579Y-85385000D01*
X103515375Y-85385000D01*
X103524188Y-85474482D01*
X103560498Y-85594180D01*
X103619463Y-85704494D01*
X103698815Y-85801185D01*
X103795506Y-85880537D01*
X103905820Y-85939502D01*
X104025518Y-85975812D01*
X104150000Y-85988072D01*
X105850000Y-85988072D01*
X105974482Y-85975812D01*
X106094180Y-85939502D01*
X106204494Y-85880537D01*
X106301185Y-85801185D01*
X106373000Y-85713678D01*
X106373000Y-99340000D01*
X76442570Y-99340000D01*
X76597588Y-99200269D01*
X76771641Y-98966920D01*
X76896825Y-98704099D01*
X76941476Y-98556890D01*
X76820155Y-98327000D01*
X75627000Y-98327000D01*
X75627000Y-98347000D01*
X75373000Y-98347000D01*
X75373000Y-98327000D01*
X75353000Y-98327000D01*
X75353000Y-98073000D01*
X75373000Y-98073000D01*
X75373000Y-98053000D01*
X75627000Y-98053000D01*
X75627000Y-98073000D01*
X76820155Y-98073000D01*
X76941476Y-97843110D01*
X76896825Y-97695901D01*
X76771641Y-97433080D01*
X76597588Y-97199731D01*
X76381355Y-97004822D01*
X76264477Y-96935201D01*
X76329014Y-96900706D01*
X76555134Y-96715134D01*
X76731690Y-96500000D01*
X85578541Y-96500000D01*
X85604317Y-96761706D01*
X85680653Y-97013354D01*
X85804618Y-97245275D01*
X85971445Y-97448555D01*
X86174725Y-97615382D01*
X86406646Y-97739347D01*
X86658294Y-97815683D01*
X86854421Y-97835000D01*
X86985579Y-97835000D01*
X87001822Y-97833400D01*
X87763470Y-98595049D01*
X87791183Y-98628817D01*
X87824951Y-98656530D01*
X87824953Y-98656532D01*
X87886397Y-98706958D01*
X87925941Y-98739411D01*
X88079687Y-98821589D01*
X88246510Y-98872195D01*
X88376523Y-98885000D01*
X88376533Y-98885000D01*
X88419999Y-98889281D01*
X88463465Y-98885000D01*
X94446480Y-98885000D01*
X94489949Y-98889281D01*
X94533418Y-98885000D01*
X94533426Y-98885000D01*
X94663439Y-98872195D01*
X94830262Y-98821589D01*
X94984008Y-98739411D01*
X95118766Y-98628817D01*
X95146483Y-98595044D01*
X95595044Y-98146483D01*
X95628817Y-98118766D01*
X95739411Y-97984008D01*
X95821589Y-97830262D01*
X95872195Y-97663439D01*
X95885000Y-97533426D01*
X95885000Y-97533416D01*
X95888326Y-97499649D01*
X96036962Y-97351013D01*
X96183061Y-97132359D01*
X96283696Y-96889405D01*
X96335000Y-96631486D01*
X96335000Y-96500000D01*
X98738541Y-96500000D01*
X98764317Y-96761706D01*
X98840653Y-97013354D01*
X98964618Y-97245275D01*
X99131445Y-97448555D01*
X99334725Y-97615382D01*
X99566646Y-97739347D01*
X99818294Y-97815683D01*
X100014421Y-97835000D01*
X100145579Y-97835000D01*
X100341706Y-97815683D01*
X100593354Y-97739347D01*
X100825275Y-97615382D01*
X101028555Y-97448555D01*
X101195382Y-97245275D01*
X101319347Y-97013354D01*
X101395683Y-96761706D01*
X101421459Y-96500000D01*
X101413400Y-96418178D01*
X101431578Y-96400000D01*
X102961928Y-96400000D01*
X102974188Y-96524482D01*
X103010498Y-96644180D01*
X103069463Y-96754494D01*
X103148815Y-96851185D01*
X103245506Y-96930537D01*
X103355820Y-96989502D01*
X103475518Y-97025812D01*
X103600000Y-97038072D01*
X104214250Y-97035000D01*
X104373000Y-96876250D01*
X104373000Y-95627000D01*
X104627000Y-95627000D01*
X104627000Y-96876250D01*
X104785750Y-97035000D01*
X105400000Y-97038072D01*
X105524482Y-97025812D01*
X105644180Y-96989502D01*
X105754494Y-96930537D01*
X105851185Y-96851185D01*
X105930537Y-96754494D01*
X105989502Y-96644180D01*
X106025812Y-96524482D01*
X106038072Y-96400000D01*
X106035000Y-95785750D01*
X105876250Y-95627000D01*
X104627000Y-95627000D01*
X104373000Y-95627000D01*
X103123750Y-95627000D01*
X102965000Y-95785750D01*
X102961928Y-96400000D01*
X101431578Y-96400000D01*
X102963270Y-94868309D01*
X102965000Y-95214250D01*
X103123750Y-95373000D01*
X104373000Y-95373000D01*
X104373000Y-95353000D01*
X104627000Y-95353000D01*
X104627000Y-95373000D01*
X105876250Y-95373000D01*
X106035000Y-95214250D01*
X106038072Y-94600000D01*
X106025812Y-94475518D01*
X105989502Y-94355820D01*
X105930537Y-94245506D01*
X105851185Y-94148815D01*
X105754494Y-94069463D01*
X105644180Y-94010498D01*
X105625873Y-94004944D01*
X105692312Y-93938505D01*
X105860299Y-93687095D01*
X105976011Y-93407743D01*
X106035000Y-93111184D01*
X106035000Y-92808816D01*
X105976011Y-92512257D01*
X105860299Y-92232905D01*
X105692312Y-91981495D01*
X105478505Y-91767688D01*
X105227095Y-91599701D01*
X104947743Y-91483989D01*
X104651184Y-91425000D01*
X104348816Y-91425000D01*
X104052257Y-91483989D01*
X103772905Y-91599701D01*
X103521495Y-91767688D01*
X103307688Y-91981495D01*
X103160147Y-92202306D01*
X103125941Y-92220589D01*
X103125939Y-92220590D01*
X103125940Y-92220590D01*
X103024953Y-92303468D01*
X103024951Y-92303470D01*
X102991183Y-92331183D01*
X102963470Y-92364951D01*
X100161822Y-95166600D01*
X100145579Y-95165000D01*
X100014421Y-95165000D01*
X99818294Y-95184317D01*
X99566646Y-95260653D01*
X99334725Y-95384618D01*
X99131445Y-95551445D01*
X98964618Y-95754725D01*
X98840653Y-95986646D01*
X98764317Y-96238294D01*
X98738541Y-96500000D01*
X96335000Y-96500000D01*
X96335000Y-96368514D01*
X96283696Y-96110595D01*
X96183061Y-95867641D01*
X96036962Y-95648987D01*
X95851013Y-95463038D01*
X95632359Y-95316939D01*
X95389405Y-95216304D01*
X95131486Y-95165000D01*
X94868514Y-95165000D01*
X94610595Y-95216304D01*
X94367641Y-95316939D01*
X94148987Y-95463038D01*
X93963038Y-95648987D01*
X93816939Y-95867641D01*
X93716304Y-96110595D01*
X93665000Y-96368514D01*
X93665000Y-96631486D01*
X93716304Y-96889405D01*
X93809749Y-97115000D01*
X93190251Y-97115000D01*
X93283696Y-96889405D01*
X93335000Y-96631486D01*
X93335000Y-96368514D01*
X93283696Y-96110595D01*
X93183061Y-95867641D01*
X93036962Y-95648987D01*
X92851013Y-95463038D01*
X92632359Y-95316939D01*
X92389405Y-95216304D01*
X92131486Y-95165000D01*
X91916579Y-95165000D01*
X90615000Y-93863422D01*
X90615000Y-89638072D01*
X91500000Y-89638072D01*
X91624482Y-89625812D01*
X91744180Y-89589502D01*
X91854494Y-89530537D01*
X91951185Y-89451185D01*
X92030537Y-89354494D01*
X92089502Y-89244180D01*
X92115001Y-89160122D01*
X92115001Y-91133420D01*
X92083421Y-91165000D01*
X91868514Y-91165000D01*
X91610595Y-91216304D01*
X91367641Y-91316939D01*
X91148987Y-91463038D01*
X90963038Y-91648987D01*
X90816939Y-91867641D01*
X90716304Y-92110595D01*
X90665000Y-92368514D01*
X90665000Y-92631486D01*
X90716304Y-92889405D01*
X90816939Y-93132359D01*
X90963038Y-93351013D01*
X91148987Y-93536962D01*
X91367641Y-93683061D01*
X91610595Y-93783696D01*
X91868514Y-93835000D01*
X92131486Y-93835000D01*
X92389405Y-93783696D01*
X92632359Y-93683061D01*
X92851013Y-93536962D01*
X93036962Y-93351013D01*
X93183061Y-93132359D01*
X93283696Y-92889405D01*
X93335000Y-92631486D01*
X93335000Y-92416579D01*
X93383065Y-92368514D01*
X93665000Y-92368514D01*
X93665000Y-92631486D01*
X93716304Y-92889405D01*
X93816939Y-93132359D01*
X93963038Y-93351013D01*
X94148987Y-93536962D01*
X94367641Y-93683061D01*
X94610595Y-93783696D01*
X94868514Y-93835000D01*
X95131486Y-93835000D01*
X95389405Y-93783696D01*
X95632359Y-93683061D01*
X95851013Y-93536962D01*
X96036962Y-93351013D01*
X96183061Y-93132359D01*
X96283696Y-92889405D01*
X96335000Y-92631486D01*
X96335000Y-92368514D01*
X96283696Y-92110595D01*
X96183061Y-91867641D01*
X96036962Y-91648987D01*
X95851013Y-91463038D01*
X95632359Y-91316939D01*
X95389405Y-91216304D01*
X95131486Y-91165000D01*
X94868514Y-91165000D01*
X94610595Y-91216304D01*
X94367641Y-91316939D01*
X94148987Y-91463038D01*
X93963038Y-91648987D01*
X93816939Y-91867641D01*
X93716304Y-92110595D01*
X93665000Y-92368514D01*
X93383065Y-92368514D01*
X93595049Y-92156530D01*
X93628817Y-92128817D01*
X93662475Y-92087806D01*
X93739411Y-91994059D01*
X93821589Y-91840314D01*
X93872195Y-91673490D01*
X93874608Y-91648987D01*
X93885000Y-91543477D01*
X93885000Y-91543469D01*
X93889281Y-91500000D01*
X93885000Y-91456531D01*
X93885000Y-85043469D01*
X93889281Y-85000000D01*
X93885000Y-84956531D01*
X93885000Y-84956523D01*
X93872195Y-84826510D01*
X93821589Y-84659687D01*
X93739411Y-84505941D01*
X93628817Y-84371183D01*
X93595045Y-84343467D01*
X93156534Y-83904956D01*
X93128817Y-83871183D01*
X92994059Y-83760589D01*
X92840313Y-83678411D01*
X92673490Y-83627805D01*
X92558008Y-83616431D01*
X91572507Y-82630931D01*
X91624482Y-82625812D01*
X91744180Y-82589502D01*
X91854494Y-82530537D01*
X91951185Y-82451185D01*
X92030537Y-82354494D01*
X92089502Y-82244180D01*
X92125812Y-82124482D01*
X92138072Y-82000000D01*
X92138072Y-81000000D01*
X92125812Y-80875518D01*
X92089502Y-80755820D01*
X92030537Y-80645506D01*
X91951185Y-80548815D01*
X91854494Y-80469463D01*
X91744180Y-80410498D01*
X91624482Y-80374188D01*
X91500000Y-80361928D01*
X90860994Y-80361928D01*
X90865000Y-80341788D01*
X90865000Y-80118212D01*
X90859737Y-80091753D01*
X91082406Y-80097511D01*
X91302740Y-80059577D01*
X91511440Y-79979387D01*
X91563450Y-79951588D01*
X91598561Y-79738166D01*
X91000000Y-79139605D01*
X90985858Y-79153748D01*
X90806253Y-78974143D01*
X90820395Y-78960000D01*
X91179605Y-78960000D01*
X91778166Y-79558561D01*
X91991588Y-79523450D01*
X92082458Y-79319174D01*
X92131731Y-79101095D01*
X92137511Y-78877594D01*
X92099577Y-78657260D01*
X92019387Y-78448560D01*
X91991588Y-78396550D01*
X91778166Y-78361439D01*
X91179605Y-78960000D01*
X90820395Y-78960000D01*
X90221834Y-78361439D01*
X90008412Y-78396550D01*
X89917542Y-78600826D01*
X89868269Y-78818905D01*
X89862489Y-79042406D01*
X89872599Y-79101129D01*
X89841788Y-79095000D01*
X89618212Y-79095000D01*
X89398933Y-79138617D01*
X89192376Y-79224176D01*
X89006480Y-79348388D01*
X88848388Y-79506480D01*
X88724176Y-79692376D01*
X88638617Y-79898933D01*
X88595000Y-80118212D01*
X88595000Y-80341788D01*
X88638617Y-80561067D01*
X88724176Y-80767624D01*
X88845000Y-80948450D01*
X88845001Y-81996523D01*
X88840719Y-82040002D01*
X88857805Y-82213492D01*
X88908412Y-82380315D01*
X88990590Y-82534061D01*
X89073468Y-82635048D01*
X89073471Y-82635051D01*
X89101184Y-82668819D01*
X89134951Y-82696531D01*
X91303348Y-84864929D01*
X91141095Y-84828269D01*
X90917594Y-84822489D01*
X90697260Y-84860423D01*
X90488560Y-84940613D01*
X90436550Y-84968412D01*
X90401439Y-85181834D01*
X91000000Y-85780395D01*
X91014143Y-85766253D01*
X91193748Y-85945858D01*
X91179605Y-85960000D01*
X91778166Y-86558561D01*
X91991588Y-86523450D01*
X92082458Y-86319174D01*
X92115000Y-86175144D01*
X92115000Y-87839877D01*
X92089502Y-87755820D01*
X92030537Y-87645506D01*
X91951185Y-87548815D01*
X91854494Y-87469463D01*
X91744180Y-87410498D01*
X91624482Y-87374188D01*
X91500000Y-87361928D01*
X90860994Y-87361928D01*
X90865000Y-87341788D01*
X90865000Y-87118212D01*
X90859737Y-87091753D01*
X91082406Y-87097511D01*
X91302740Y-87059577D01*
X91511440Y-86979387D01*
X91563450Y-86951588D01*
X91598561Y-86738166D01*
X91000000Y-86139605D01*
X90985858Y-86153748D01*
X90806253Y-85974143D01*
X90820395Y-85960000D01*
X90221834Y-85361439D01*
X90008412Y-85396550D01*
X89917542Y-85600826D01*
X89868269Y-85818905D01*
X89862489Y-86042406D01*
X89872599Y-86101129D01*
X89841788Y-86095000D01*
X89618212Y-86095000D01*
X89398933Y-86138617D01*
X89192376Y-86224176D01*
X89006480Y-86348388D01*
X88848388Y-86506480D01*
X88724176Y-86692376D01*
X88638617Y-86898933D01*
X88595000Y-87118212D01*
X88595000Y-87341788D01*
X88638617Y-87561067D01*
X88724176Y-87767624D01*
X88845000Y-87948450D01*
X88845001Y-94186521D01*
X88840719Y-94230000D01*
X88857805Y-94403490D01*
X88908412Y-94570313D01*
X88990590Y-94724059D01*
X89073468Y-94825046D01*
X89073471Y-94825049D01*
X89101184Y-94858817D01*
X89134951Y-94886529D01*
X90665000Y-96416579D01*
X90665000Y-96631486D01*
X90716304Y-96889405D01*
X90809749Y-97115000D01*
X88786579Y-97115000D01*
X88253400Y-96581822D01*
X88261459Y-96500000D01*
X88235683Y-96238294D01*
X88159347Y-95986646D01*
X88035382Y-95754725D01*
X87868555Y-95551445D01*
X87665275Y-95384618D01*
X87433354Y-95260653D01*
X87181706Y-95184317D01*
X86985579Y-95165000D01*
X86854421Y-95165000D01*
X86658294Y-95184317D01*
X86406646Y-95260653D01*
X86174725Y-95384618D01*
X85971445Y-95551445D01*
X85804618Y-95754725D01*
X85680653Y-95986646D01*
X85604317Y-96238294D01*
X85578541Y-96500000D01*
X76731690Y-96500000D01*
X76740706Y-96489014D01*
X76878599Y-96231034D01*
X76963513Y-95951111D01*
X76992185Y-95660000D01*
X76963513Y-95368889D01*
X76878599Y-95088966D01*
X76740706Y-94830986D01*
X76555134Y-94604866D01*
X76329014Y-94419294D01*
X76274209Y-94390000D01*
X76329014Y-94360706D01*
X76555134Y-94175134D01*
X76694759Y-94005000D01*
X78256531Y-94005000D01*
X78300000Y-94009281D01*
X78343469Y-94005000D01*
X78343477Y-94005000D01*
X78473490Y-93992195D01*
X78640313Y-93941589D01*
X78794059Y-93859411D01*
X78827084Y-93832308D01*
X78854421Y-93835000D01*
X78985579Y-93835000D01*
X79181706Y-93815683D01*
X79433354Y-93739347D01*
X79665275Y-93615382D01*
X79868555Y-93448555D01*
X80035382Y-93245275D01*
X80159347Y-93013354D01*
X80235683Y-92761706D01*
X80261459Y-92500000D01*
X80253400Y-92418178D01*
X84387505Y-88284074D01*
X84389405Y-88283696D01*
X84632359Y-88183061D01*
X84851013Y-88036962D01*
X85036962Y-87851013D01*
X85183061Y-87632359D01*
X85283696Y-87389405D01*
X85335000Y-87131486D01*
X85335000Y-86868514D01*
X85283696Y-86610595D01*
X85183061Y-86367641D01*
X85036962Y-86148987D01*
X84851013Y-85963038D01*
X84632359Y-85816939D01*
X84389405Y-85716304D01*
X84131486Y-85665000D01*
X83868514Y-85665000D01*
X83610595Y-85716304D01*
X83367641Y-85816939D01*
X83148987Y-85963038D01*
X82963038Y-86148987D01*
X82816939Y-86367641D01*
X82716304Y-86610595D01*
X82665000Y-86868514D01*
X82665000Y-87131486D01*
X82716304Y-87389405D01*
X82734672Y-87433749D01*
X82385000Y-87783421D01*
X82385000Y-86488915D01*
X82469411Y-86386061D01*
X82551589Y-86232315D01*
X82602195Y-86065492D01*
X82615000Y-85935479D01*
X82615000Y-85935469D01*
X82619281Y-85892003D01*
X82615000Y-85848537D01*
X82615000Y-83366578D01*
X85615001Y-86366580D01*
X85615000Y-89133421D01*
X84104950Y-90643472D01*
X84071183Y-90671184D01*
X84043470Y-90704952D01*
X84043467Y-90704955D01*
X83960589Y-90805942D01*
X83878410Y-90959688D01*
X83827804Y-91126511D01*
X83823124Y-91174029D01*
X83610595Y-91216304D01*
X83367641Y-91316939D01*
X83148987Y-91463038D01*
X82963038Y-91648987D01*
X82816939Y-91867641D01*
X82716304Y-92110595D01*
X82665000Y-92368514D01*
X82665000Y-92631486D01*
X82716304Y-92889405D01*
X82816939Y-93132359D01*
X82963038Y-93351013D01*
X83148987Y-93536962D01*
X83367641Y-93683061D01*
X83610595Y-93783696D01*
X83868514Y-93835000D01*
X84131486Y-93835000D01*
X84389405Y-93783696D01*
X84632359Y-93683061D01*
X84851013Y-93536962D01*
X85036962Y-93351013D01*
X85183061Y-93132359D01*
X85283696Y-92889405D01*
X85335000Y-92631486D01*
X85335000Y-92500000D01*
X85578541Y-92500000D01*
X85604317Y-92761706D01*
X85680653Y-93013354D01*
X85804618Y-93245275D01*
X85971445Y-93448555D01*
X86174725Y-93615382D01*
X86406646Y-93739347D01*
X86658294Y-93815683D01*
X86854421Y-93835000D01*
X86985579Y-93835000D01*
X87181706Y-93815683D01*
X87433354Y-93739347D01*
X87665275Y-93615382D01*
X87868555Y-93448555D01*
X88035382Y-93245275D01*
X88159347Y-93013354D01*
X88235683Y-92761706D01*
X88261459Y-92500000D01*
X88235683Y-92238294D01*
X88159347Y-91986646D01*
X88035382Y-91754725D01*
X87868555Y-91551445D01*
X87665275Y-91384618D01*
X87433354Y-91260653D01*
X87181706Y-91184317D01*
X86985579Y-91165000D01*
X86854421Y-91165000D01*
X86658294Y-91184317D01*
X86406646Y-91260653D01*
X86174725Y-91384618D01*
X85971445Y-91551445D01*
X85804618Y-91754725D01*
X85680653Y-91986646D01*
X85604317Y-92238294D01*
X85578541Y-92500000D01*
X85335000Y-92500000D01*
X85335000Y-92421283D01*
X85439410Y-92294060D01*
X85521588Y-92140314D01*
X85572194Y-91973491D01*
X85584999Y-91843478D01*
X85584999Y-91843468D01*
X85589280Y-91800002D01*
X85584999Y-91756535D01*
X85584999Y-91666579D01*
X87095050Y-90156529D01*
X87128817Y-90128817D01*
X87239411Y-89994059D01*
X87321589Y-89840313D01*
X87372195Y-89673490D01*
X87385000Y-89543477D01*
X87385000Y-89543469D01*
X87389281Y-89500000D01*
X87385000Y-89456531D01*
X87385000Y-86043465D01*
X87389281Y-85999999D01*
X87385000Y-85956533D01*
X87385000Y-85956523D01*
X87372195Y-85826510D01*
X87321589Y-85659687D01*
X87239411Y-85505941D01*
X87192319Y-85448560D01*
X87156532Y-85404953D01*
X87156530Y-85404951D01*
X87128817Y-85371183D01*
X87095049Y-85343470D01*
X84056848Y-82305270D01*
X84089502Y-82244180D01*
X84125812Y-82124482D01*
X84138072Y-82000000D01*
X84138072Y-81000000D01*
X84125812Y-80875518D01*
X84089502Y-80755820D01*
X84030537Y-80645506D01*
X83951185Y-80548815D01*
X83854494Y-80469463D01*
X83744180Y-80410498D01*
X83624482Y-80374188D01*
X83500000Y-80361928D01*
X82860994Y-80361928D01*
X82865000Y-80341788D01*
X82865000Y-80118212D01*
X82859737Y-80091753D01*
X83082406Y-80097511D01*
X83302740Y-80059577D01*
X83511440Y-79979387D01*
X83563450Y-79951588D01*
X83598561Y-79738166D01*
X83000000Y-79139605D01*
X82985858Y-79153748D01*
X82806253Y-78974143D01*
X82820395Y-78960000D01*
X83179605Y-78960000D01*
X83778166Y-79558561D01*
X83991588Y-79523450D01*
X84082458Y-79319174D01*
X84131731Y-79101095D01*
X84137511Y-78877594D01*
X84099577Y-78657260D01*
X84019387Y-78448560D01*
X83991588Y-78396550D01*
X83778166Y-78361439D01*
X83179605Y-78960000D01*
X82820395Y-78960000D01*
X82221834Y-78361439D01*
X82008412Y-78396550D01*
X81917542Y-78600826D01*
X81868269Y-78818905D01*
X81862489Y-79042406D01*
X81872599Y-79101129D01*
X81841788Y-79095000D01*
X81618212Y-79095000D01*
X81398933Y-79138617D01*
X81192376Y-79224176D01*
X81006480Y-79348388D01*
X80848388Y-79506480D01*
X80724176Y-79692376D01*
X80638617Y-79898933D01*
X80595000Y-80118212D01*
X80595000Y-80341788D01*
X80638617Y-80561067D01*
X80724176Y-80767624D01*
X80845000Y-80948450D01*
X80845000Y-80980582D01*
X80845001Y-80980592D01*
X80845000Y-85525090D01*
X80843471Y-85526953D01*
X80843468Y-85526956D01*
X80760590Y-85627943D01*
X80678412Y-85781689D01*
X80627805Y-85948512D01*
X80610719Y-86122002D01*
X80615001Y-86165481D01*
X80615000Y-87633421D01*
X79133422Y-89115000D01*
X77665471Y-89115000D01*
X77622002Y-89110719D01*
X77578533Y-89115000D01*
X77578525Y-89115000D01*
X77448512Y-89127805D01*
X77281689Y-89178411D01*
X77127943Y-89260589D01*
X76993185Y-89371183D01*
X76965470Y-89404954D01*
X76686044Y-89684380D01*
X76555134Y-89524866D01*
X76329014Y-89339294D01*
X76274209Y-89310000D01*
X76329014Y-89280706D01*
X76555134Y-89095134D01*
X76694759Y-88925000D01*
X77836531Y-88925000D01*
X77880000Y-88929281D01*
X77923469Y-88925000D01*
X77923477Y-88925000D01*
X78053490Y-88912195D01*
X78220313Y-88861589D01*
X78374059Y-88779411D01*
X78508817Y-88668817D01*
X78536534Y-88635044D01*
X78838178Y-88333400D01*
X78854421Y-88335000D01*
X78985579Y-88335000D01*
X79181706Y-88315683D01*
X79433354Y-88239347D01*
X79665275Y-88115382D01*
X79868555Y-87948555D01*
X80035382Y-87745275D01*
X80159347Y-87513354D01*
X80235683Y-87261706D01*
X80261459Y-87000000D01*
X80235683Y-86738294D01*
X80159347Y-86486646D01*
X80035382Y-86254725D01*
X79868555Y-86051445D01*
X79665275Y-85884618D01*
X79433354Y-85760653D01*
X79181706Y-85684317D01*
X78985579Y-85665000D01*
X78854421Y-85665000D01*
X78658294Y-85684317D01*
X78406646Y-85760653D01*
X78174725Y-85884618D01*
X77971445Y-86051445D01*
X77804618Y-86254725D01*
X77680653Y-86486646D01*
X77604317Y-86738294D01*
X77578541Y-87000000D01*
X77586600Y-87081822D01*
X77513422Y-87155000D01*
X76694759Y-87155000D01*
X76555134Y-86984866D01*
X76525313Y-86960393D01*
X76594180Y-86939502D01*
X76704494Y-86880537D01*
X76801185Y-86801185D01*
X76880537Y-86704494D01*
X76939502Y-86594180D01*
X76975812Y-86474482D01*
X76988072Y-86350000D01*
X76988072Y-84650000D01*
X76975812Y-84525518D01*
X76939502Y-84405820D01*
X76880537Y-84295506D01*
X76801185Y-84198815D01*
X76704494Y-84119463D01*
X76594180Y-84060498D01*
X76474482Y-84024188D01*
X76350000Y-84011928D01*
X74650000Y-84011928D01*
X74525518Y-84024188D01*
X74405820Y-84060498D01*
X74295506Y-84119463D01*
X74198815Y-84198815D01*
X74127000Y-84286322D01*
X74127000Y-78181834D01*
X82401439Y-78181834D01*
X83000000Y-78780395D01*
X83598561Y-78181834D01*
X90401439Y-78181834D01*
X91000000Y-78780395D01*
X91598561Y-78181834D01*
X91563450Y-77968412D01*
X91359174Y-77877542D01*
X91141095Y-77828269D01*
X90917594Y-77822489D01*
X90697260Y-77860423D01*
X90488560Y-77940613D01*
X90436550Y-77968412D01*
X90401439Y-78181834D01*
X83598561Y-78181834D01*
X83563450Y-77968412D01*
X83359174Y-77877542D01*
X83141095Y-77828269D01*
X82917594Y-77822489D01*
X82697260Y-77860423D01*
X82488560Y-77940613D01*
X82436550Y-77968412D01*
X82401439Y-78181834D01*
X74127000Y-78181834D01*
X74127000Y-76660000D01*
X106373000Y-76660000D01*
X106373000Y-78838491D01*
M02*
