G04 #@! TF.GenerationSoftware,KiCad,Pcbnew,(5.1.0)-1*
G04 #@! TF.CreationDate,2019-12-29T23:08:54+00:00*
G04 #@! TF.ProjectId,WebastoWBUSInterface,57656261-7374-46f5-9742-5553496e7465,rev?*
G04 #@! TF.SameCoordinates,Original*
G04 #@! TF.FileFunction,Legend,Top*
G04 #@! TF.FilePolarity,Positive*
%FSLAX46Y46*%
G04 Gerber Fmt 4.6, Leading zero omitted, Abs format (unit mm)*
G04 Created by KiCad (PCBNEW (5.1.0)-1) date 2019-12-29 23:08:54*
%MOMM*%
%LPD*%
G04 APERTURE LIST*
%ADD10C,0.150000*%
%ADD11C,0.120000*%
G04 APERTURE END LIST*
D10*
X78766666Y-96950000D02*
X78700000Y-96916666D01*
X78600000Y-96916666D01*
X78500000Y-96950000D01*
X78433333Y-97016666D01*
X78400000Y-97083333D01*
X78366666Y-97216666D01*
X78366666Y-97316666D01*
X78400000Y-97450000D01*
X78433333Y-97516666D01*
X78500000Y-97583333D01*
X78600000Y-97616666D01*
X78666666Y-97616666D01*
X78766666Y-97583333D01*
X78800000Y-97550000D01*
X78800000Y-97316666D01*
X78666666Y-97316666D01*
X79100000Y-97616666D02*
X79100000Y-96916666D01*
X79500000Y-97616666D01*
X79500000Y-96916666D01*
X79833333Y-97616666D02*
X79833333Y-96916666D01*
X80000000Y-96916666D01*
X80100000Y-96950000D01*
X80166666Y-97016666D01*
X80200000Y-97083333D01*
X80233333Y-97216666D01*
X80233333Y-97316666D01*
X80200000Y-97450000D01*
X80166666Y-97516666D01*
X80100000Y-97583333D01*
X80000000Y-97616666D01*
X79833333Y-97616666D01*
X98752380Y-89000000D02*
X97752380Y-89000000D01*
X97752380Y-88761904D01*
X97800000Y-88619047D01*
X97895238Y-88523809D01*
X97990476Y-88476190D01*
X98180952Y-88428571D01*
X98323809Y-88428571D01*
X98514285Y-88476190D01*
X98609523Y-88523809D01*
X98704761Y-88619047D01*
X98752380Y-88761904D01*
X98752380Y-89000000D01*
X98466666Y-88047619D02*
X98466666Y-87571428D01*
X98752380Y-88142857D02*
X97752380Y-87809523D01*
X98752380Y-87476190D01*
X97752380Y-87285714D02*
X97752380Y-86714285D01*
X98752380Y-87000000D02*
X97752380Y-87000000D01*
X98466666Y-86428571D02*
X98466666Y-85952380D01*
X98752380Y-86523809D02*
X97752380Y-86190476D01*
X98752380Y-85857142D01*
X70171428Y-84461904D02*
X70171428Y-83661904D01*
X70514285Y-84461904D02*
X70514285Y-84042857D01*
X70476190Y-83966666D01*
X70400000Y-83928571D01*
X70285714Y-83928571D01*
X70209523Y-83966666D01*
X70171428Y-84004761D01*
X70780952Y-83928571D02*
X71085714Y-83928571D01*
X70895238Y-83661904D02*
X70895238Y-84347619D01*
X70933333Y-84423809D01*
X71009523Y-84461904D01*
X71085714Y-84461904D01*
X71238095Y-83928571D02*
X71542857Y-83928571D01*
X71352380Y-83661904D02*
X71352380Y-84347619D01*
X71390476Y-84423809D01*
X71466666Y-84461904D01*
X71542857Y-84461904D01*
X71809523Y-83928571D02*
X71809523Y-84728571D01*
X71809523Y-83966666D02*
X71885714Y-83928571D01*
X72038095Y-83928571D01*
X72114285Y-83966666D01*
X72152380Y-84004761D01*
X72190476Y-84080952D01*
X72190476Y-84309523D01*
X72152380Y-84385714D01*
X72114285Y-84423809D01*
X72038095Y-84461904D01*
X71885714Y-84461904D01*
X71809523Y-84423809D01*
X72495238Y-84423809D02*
X72571428Y-84461904D01*
X72723809Y-84461904D01*
X72800000Y-84423809D01*
X72838095Y-84347619D01*
X72838095Y-84309523D01*
X72800000Y-84233333D01*
X72723809Y-84195238D01*
X72609523Y-84195238D01*
X72533333Y-84157142D01*
X72495238Y-84080952D01*
X72495238Y-84042857D01*
X72533333Y-83966666D01*
X72609523Y-83928571D01*
X72723809Y-83928571D01*
X72800000Y-83966666D01*
X73180952Y-84385714D02*
X73219047Y-84423809D01*
X73180952Y-84461904D01*
X73142857Y-84423809D01*
X73180952Y-84385714D01*
X73180952Y-84461904D01*
X73180952Y-83966666D02*
X73219047Y-84004761D01*
X73180952Y-84042857D01*
X73142857Y-84004761D01*
X73180952Y-83966666D01*
X73180952Y-84042857D01*
X74133333Y-83623809D02*
X73447619Y-84652380D01*
X74971428Y-83623809D02*
X74285714Y-84652380D01*
X75580952Y-83928571D02*
X75580952Y-84576190D01*
X75542857Y-84652380D01*
X75504761Y-84690476D01*
X75428571Y-84728571D01*
X75314285Y-84728571D01*
X75238095Y-84690476D01*
X75580952Y-84423809D02*
X75504761Y-84461904D01*
X75352380Y-84461904D01*
X75276190Y-84423809D01*
X75238095Y-84385714D01*
X75200000Y-84309523D01*
X75200000Y-84080952D01*
X75238095Y-84004761D01*
X75276190Y-83966666D01*
X75352380Y-83928571D01*
X75504761Y-83928571D01*
X75580952Y-83966666D01*
X75961904Y-84461904D02*
X75961904Y-83928571D01*
X75961904Y-83661904D02*
X75923809Y-83700000D01*
X75961904Y-83738095D01*
X76000000Y-83700000D01*
X75961904Y-83661904D01*
X75961904Y-83738095D01*
X76228571Y-83928571D02*
X76533333Y-83928571D01*
X76342857Y-83661904D02*
X76342857Y-84347619D01*
X76380952Y-84423809D01*
X76457142Y-84461904D01*
X76533333Y-84461904D01*
X76800000Y-84461904D02*
X76800000Y-83661904D01*
X77142857Y-84461904D02*
X77142857Y-84042857D01*
X77104761Y-83966666D01*
X77028571Y-83928571D01*
X76914285Y-83928571D01*
X76838095Y-83966666D01*
X76800000Y-84004761D01*
X77866666Y-83928571D02*
X77866666Y-84461904D01*
X77523809Y-83928571D02*
X77523809Y-84347619D01*
X77561904Y-84423809D01*
X77638095Y-84461904D01*
X77752380Y-84461904D01*
X77828571Y-84423809D01*
X77866666Y-84385714D01*
X78247619Y-84461904D02*
X78247619Y-83661904D01*
X78247619Y-83966666D02*
X78323809Y-83928571D01*
X78476190Y-83928571D01*
X78552380Y-83966666D01*
X78590476Y-84004761D01*
X78628571Y-84080952D01*
X78628571Y-84309523D01*
X78590476Y-84385714D01*
X78552380Y-84423809D01*
X78476190Y-84461904D01*
X78323809Y-84461904D01*
X78247619Y-84423809D01*
X78971428Y-84385714D02*
X79009523Y-84423809D01*
X78971428Y-84461904D01*
X78933333Y-84423809D01*
X78971428Y-84385714D01*
X78971428Y-84461904D01*
X79695238Y-84423809D02*
X79619047Y-84461904D01*
X79466666Y-84461904D01*
X79390476Y-84423809D01*
X79352380Y-84385714D01*
X79314285Y-84309523D01*
X79314285Y-84080952D01*
X79352380Y-84004761D01*
X79390476Y-83966666D01*
X79466666Y-83928571D01*
X79619047Y-83928571D01*
X79695238Y-83966666D01*
X80152380Y-84461904D02*
X80076190Y-84423809D01*
X80038095Y-84385714D01*
X80000000Y-84309523D01*
X80000000Y-84080952D01*
X80038095Y-84004761D01*
X80076190Y-83966666D01*
X80152380Y-83928571D01*
X80266666Y-83928571D01*
X80342857Y-83966666D01*
X80380952Y-84004761D01*
X80419047Y-84080952D01*
X80419047Y-84309523D01*
X80380952Y-84385714D01*
X80342857Y-84423809D01*
X80266666Y-84461904D01*
X80152380Y-84461904D01*
X80761904Y-84461904D02*
X80761904Y-83928571D01*
X80761904Y-84004761D02*
X80800000Y-83966666D01*
X80876190Y-83928571D01*
X80990476Y-83928571D01*
X81066666Y-83966666D01*
X81104761Y-84042857D01*
X81104761Y-84461904D01*
X81104761Y-84042857D02*
X81142857Y-83966666D01*
X81219047Y-83928571D01*
X81333333Y-83928571D01*
X81409523Y-83966666D01*
X81447619Y-84042857D01*
X81447619Y-84461904D01*
X82400000Y-83623809D02*
X81714285Y-84652380D01*
X82628571Y-84423809D02*
X82704761Y-84461904D01*
X82857142Y-84461904D01*
X82933333Y-84423809D01*
X82971428Y-84347619D01*
X82971428Y-84309523D01*
X82933333Y-84233333D01*
X82857142Y-84195238D01*
X82742857Y-84195238D01*
X82666666Y-84157142D01*
X82628571Y-84080952D01*
X82628571Y-84042857D01*
X82666666Y-83966666D01*
X82742857Y-83928571D01*
X82857142Y-83928571D01*
X82933333Y-83966666D01*
X83200000Y-83928571D02*
X83504761Y-83928571D01*
X83314285Y-83661904D02*
X83314285Y-84347619D01*
X83352380Y-84423809D01*
X83428571Y-84461904D01*
X83504761Y-84461904D01*
X84114285Y-83928571D02*
X84114285Y-84461904D01*
X83771428Y-83928571D02*
X83771428Y-84347619D01*
X83809523Y-84423809D01*
X83885714Y-84461904D01*
X84000000Y-84461904D01*
X84076190Y-84423809D01*
X84114285Y-84385714D01*
X84838095Y-84461904D02*
X84838095Y-84042857D01*
X84800000Y-83966666D01*
X84723809Y-83928571D01*
X84571428Y-83928571D01*
X84495238Y-83966666D01*
X84838095Y-84423809D02*
X84761904Y-84461904D01*
X84571428Y-84461904D01*
X84495238Y-84423809D01*
X84457142Y-84347619D01*
X84457142Y-84271428D01*
X84495238Y-84195238D01*
X84571428Y-84157142D01*
X84761904Y-84157142D01*
X84838095Y-84119047D01*
X85219047Y-84461904D02*
X85219047Y-83928571D01*
X85219047Y-84080952D02*
X85257142Y-84004761D01*
X85295238Y-83966666D01*
X85371428Y-83928571D01*
X85447619Y-83928571D01*
X85600000Y-83928571D02*
X85904761Y-83928571D01*
X85714285Y-83661904D02*
X85714285Y-84347619D01*
X85752380Y-84423809D01*
X85828571Y-84461904D01*
X85904761Y-84461904D01*
X86171428Y-83928571D02*
X86171428Y-84728571D01*
X86171428Y-83966666D02*
X86247619Y-83928571D01*
X86400000Y-83928571D01*
X86476190Y-83966666D01*
X86514285Y-84004761D01*
X86552380Y-84080952D01*
X86552380Y-84309523D01*
X86514285Y-84385714D01*
X86476190Y-84423809D01*
X86400000Y-84461904D01*
X86247619Y-84461904D01*
X86171428Y-84423809D01*
X86895238Y-84461904D02*
X86895238Y-83928571D01*
X86895238Y-83661904D02*
X86857142Y-83700000D01*
X86895238Y-83738095D01*
X86933333Y-83700000D01*
X86895238Y-83661904D01*
X86895238Y-83738095D01*
X87161904Y-83928571D02*
X87466666Y-83928571D01*
X87276190Y-83661904D02*
X87276190Y-84347619D01*
X87314285Y-84423809D01*
X87390476Y-84461904D01*
X87466666Y-84461904D01*
X87619047Y-83928571D02*
X87923809Y-83928571D01*
X87733333Y-83661904D02*
X87733333Y-84347619D01*
X87771428Y-84423809D01*
X87847619Y-84461904D01*
X87923809Y-84461904D01*
X88533333Y-84461904D02*
X88533333Y-84042857D01*
X88495238Y-83966666D01*
X88419047Y-83928571D01*
X88266666Y-83928571D01*
X88190476Y-83966666D01*
X88533333Y-84423809D02*
X88457142Y-84461904D01*
X88266666Y-84461904D01*
X88190476Y-84423809D01*
X88152380Y-84347619D01*
X88152380Y-84271428D01*
X88190476Y-84195238D01*
X88266666Y-84157142D01*
X88457142Y-84157142D01*
X88533333Y-84119047D01*
X88838095Y-83928571D02*
X88990476Y-84461904D01*
X89142857Y-84080952D01*
X89295238Y-84461904D01*
X89447619Y-83928571D01*
X90095238Y-84461904D02*
X90095238Y-84042857D01*
X90057142Y-83966666D01*
X89980952Y-83928571D01*
X89828571Y-83928571D01*
X89752380Y-83966666D01*
X90095238Y-84423809D02*
X90019047Y-84461904D01*
X89828571Y-84461904D01*
X89752380Y-84423809D01*
X89714285Y-84347619D01*
X89714285Y-84271428D01*
X89752380Y-84195238D01*
X89828571Y-84157142D01*
X90019047Y-84157142D01*
X90095238Y-84119047D01*
X90400000Y-83928571D02*
X90590476Y-84461904D01*
X90780952Y-83928571D02*
X90590476Y-84461904D01*
X90514285Y-84652380D01*
X90476190Y-84690476D01*
X90400000Y-84728571D01*
X91657142Y-83623809D02*
X90971428Y-84652380D01*
X91847619Y-83661904D02*
X92038095Y-84461904D01*
X92190476Y-83890476D01*
X92342857Y-84461904D01*
X92533333Y-83661904D01*
X93142857Y-84423809D02*
X93066666Y-84461904D01*
X92914285Y-84461904D01*
X92838095Y-84423809D01*
X92800000Y-84347619D01*
X92800000Y-84042857D01*
X92838095Y-83966666D01*
X92914285Y-83928571D01*
X93066666Y-83928571D01*
X93142857Y-83966666D01*
X93180952Y-84042857D01*
X93180952Y-84119047D01*
X92800000Y-84195238D01*
X93523809Y-84461904D02*
X93523809Y-83661904D01*
X93523809Y-83966666D02*
X93600000Y-83928571D01*
X93752380Y-83928571D01*
X93828571Y-83966666D01*
X93866666Y-84004761D01*
X93904761Y-84080952D01*
X93904761Y-84309523D01*
X93866666Y-84385714D01*
X93828571Y-84423809D01*
X93752380Y-84461904D01*
X93600000Y-84461904D01*
X93523809Y-84423809D01*
X94590476Y-84461904D02*
X94590476Y-84042857D01*
X94552380Y-83966666D01*
X94476190Y-83928571D01*
X94323809Y-83928571D01*
X94247619Y-83966666D01*
X94590476Y-84423809D02*
X94514285Y-84461904D01*
X94323809Y-84461904D01*
X94247619Y-84423809D01*
X94209523Y-84347619D01*
X94209523Y-84271428D01*
X94247619Y-84195238D01*
X94323809Y-84157142D01*
X94514285Y-84157142D01*
X94590476Y-84119047D01*
X94933333Y-84423809D02*
X95009523Y-84461904D01*
X95161904Y-84461904D01*
X95238095Y-84423809D01*
X95276190Y-84347619D01*
X95276190Y-84309523D01*
X95238095Y-84233333D01*
X95161904Y-84195238D01*
X95047619Y-84195238D01*
X94971428Y-84157142D01*
X94933333Y-84080952D01*
X94933333Y-84042857D01*
X94971428Y-83966666D01*
X95047619Y-83928571D01*
X95161904Y-83928571D01*
X95238095Y-83966666D01*
X95504761Y-83928571D02*
X95809523Y-83928571D01*
X95619047Y-83661904D02*
X95619047Y-84347619D01*
X95657142Y-84423809D01*
X95733333Y-84461904D01*
X95809523Y-84461904D01*
X96190476Y-84461904D02*
X96114285Y-84423809D01*
X96076190Y-84385714D01*
X96038095Y-84309523D01*
X96038095Y-84080952D01*
X96076190Y-84004761D01*
X96114285Y-83966666D01*
X96190476Y-83928571D01*
X96304761Y-83928571D01*
X96380952Y-83966666D01*
X96419047Y-84004761D01*
X96457142Y-84080952D01*
X96457142Y-84309523D01*
X96419047Y-84385714D01*
X96380952Y-84423809D01*
X96304761Y-84461904D01*
X96190476Y-84461904D01*
X96723809Y-83661904D02*
X96914285Y-84461904D01*
X97066666Y-83890476D01*
X97219047Y-84461904D01*
X97409523Y-83661904D01*
X97980952Y-84042857D02*
X98095238Y-84080952D01*
X98133333Y-84119047D01*
X98171428Y-84195238D01*
X98171428Y-84309523D01*
X98133333Y-84385714D01*
X98095238Y-84423809D01*
X98019047Y-84461904D01*
X97714285Y-84461904D01*
X97714285Y-83661904D01*
X97980952Y-83661904D01*
X98057142Y-83700000D01*
X98095238Y-83738095D01*
X98133333Y-83814285D01*
X98133333Y-83890476D01*
X98095238Y-83966666D01*
X98057142Y-84004761D01*
X97980952Y-84042857D01*
X97714285Y-84042857D01*
X98514285Y-83661904D02*
X98514285Y-84309523D01*
X98552380Y-84385714D01*
X98590476Y-84423809D01*
X98666666Y-84461904D01*
X98819047Y-84461904D01*
X98895238Y-84423809D01*
X98933333Y-84385714D01*
X98971428Y-84309523D01*
X98971428Y-83661904D01*
X99314285Y-84423809D02*
X99428571Y-84461904D01*
X99619047Y-84461904D01*
X99695238Y-84423809D01*
X99733333Y-84385714D01*
X99771428Y-84309523D01*
X99771428Y-84233333D01*
X99733333Y-84157142D01*
X99695238Y-84119047D01*
X99619047Y-84080952D01*
X99466666Y-84042857D01*
X99390476Y-84004761D01*
X99352380Y-83966666D01*
X99314285Y-83890476D01*
X99314285Y-83814285D01*
X99352380Y-83738095D01*
X99390476Y-83700000D01*
X99466666Y-83661904D01*
X99657142Y-83661904D01*
X99771428Y-83700000D01*
X100114285Y-84461904D02*
X100114285Y-83661904D01*
X100495238Y-83928571D02*
X100495238Y-84461904D01*
X100495238Y-84004761D02*
X100533333Y-83966666D01*
X100609523Y-83928571D01*
X100723809Y-83928571D01*
X100800000Y-83966666D01*
X100838095Y-84042857D01*
X100838095Y-84461904D01*
X101104761Y-83928571D02*
X101409523Y-83928571D01*
X101219047Y-83661904D02*
X101219047Y-84347619D01*
X101257142Y-84423809D01*
X101333333Y-84461904D01*
X101409523Y-84461904D01*
X101980952Y-84423809D02*
X101904761Y-84461904D01*
X101752380Y-84461904D01*
X101676190Y-84423809D01*
X101638095Y-84347619D01*
X101638095Y-84042857D01*
X101676190Y-83966666D01*
X101752380Y-83928571D01*
X101904761Y-83928571D01*
X101980952Y-83966666D01*
X102019047Y-84042857D01*
X102019047Y-84119047D01*
X101638095Y-84195238D01*
X102361904Y-84461904D02*
X102361904Y-83928571D01*
X102361904Y-84080952D02*
X102400000Y-84004761D01*
X102438095Y-83966666D01*
X102514285Y-83928571D01*
X102590476Y-83928571D01*
X102742857Y-83928571D02*
X103047619Y-83928571D01*
X102857142Y-84461904D02*
X102857142Y-83776190D01*
X102895238Y-83700000D01*
X102971428Y-83661904D01*
X103047619Y-83661904D01*
X103657142Y-84461904D02*
X103657142Y-84042857D01*
X103619047Y-83966666D01*
X103542857Y-83928571D01*
X103390476Y-83928571D01*
X103314285Y-83966666D01*
X103657142Y-84423809D02*
X103580952Y-84461904D01*
X103390476Y-84461904D01*
X103314285Y-84423809D01*
X103276190Y-84347619D01*
X103276190Y-84271428D01*
X103314285Y-84195238D01*
X103390476Y-84157142D01*
X103580952Y-84157142D01*
X103657142Y-84119047D01*
X104380952Y-84423809D02*
X104304761Y-84461904D01*
X104152380Y-84461904D01*
X104076190Y-84423809D01*
X104038095Y-84385714D01*
X104000000Y-84309523D01*
X104000000Y-84080952D01*
X104038095Y-84004761D01*
X104076190Y-83966666D01*
X104152380Y-83928571D01*
X104304761Y-83928571D01*
X104380952Y-83966666D01*
X105028571Y-84423809D02*
X104952380Y-84461904D01*
X104800000Y-84461904D01*
X104723809Y-84423809D01*
X104685714Y-84347619D01*
X104685714Y-84042857D01*
X104723809Y-83966666D01*
X104800000Y-83928571D01*
X104952380Y-83928571D01*
X105028571Y-83966666D01*
X105066666Y-84042857D01*
X105066666Y-84119047D01*
X104685714Y-84195238D01*
X72628571Y-89452380D02*
X72295238Y-88976190D01*
X72057142Y-89452380D02*
X72057142Y-88452380D01*
X72438095Y-88452380D01*
X72533333Y-88500000D01*
X72580952Y-88547619D01*
X72628571Y-88642857D01*
X72628571Y-88785714D01*
X72580952Y-88880952D01*
X72533333Y-88928571D01*
X72438095Y-88976190D01*
X72057142Y-88976190D01*
X72961904Y-88452380D02*
X73628571Y-89452380D01*
X73628571Y-88452380D02*
X72961904Y-89452380D01*
X72152381Y-90952380D02*
X72723809Y-90952380D01*
X72438095Y-91952380D02*
X72438095Y-90952380D01*
X72961905Y-90952380D02*
X73628571Y-91952380D01*
X73628571Y-90952380D02*
X72961905Y-91952380D01*
X68676190Y-93552380D02*
X69295238Y-93552380D01*
X68961904Y-93933333D01*
X69104761Y-93933333D01*
X69200000Y-93980952D01*
X69247619Y-94028571D01*
X69295238Y-94123809D01*
X69295238Y-94361904D01*
X69247619Y-94457142D01*
X69200000Y-94504761D01*
X69104761Y-94552380D01*
X68819047Y-94552380D01*
X68723809Y-94504761D01*
X68676190Y-94457142D01*
X69723809Y-94457142D02*
X69771428Y-94504761D01*
X69723809Y-94552380D01*
X69676190Y-94504761D01*
X69723809Y-94457142D01*
X69723809Y-94552380D01*
X70104761Y-93552380D02*
X70723809Y-93552380D01*
X70390476Y-93933333D01*
X70533333Y-93933333D01*
X70628571Y-93980952D01*
X70676190Y-94028571D01*
X70723809Y-94123809D01*
X70723809Y-94361904D01*
X70676190Y-94457142D01*
X70628571Y-94504761D01*
X70533333Y-94552380D01*
X70247619Y-94552380D01*
X70152381Y-94504761D01*
X70104761Y-94457142D01*
X71866666Y-93504761D02*
X71009523Y-94790476D01*
X72676190Y-93552380D02*
X72200000Y-93552380D01*
X72152381Y-94028571D01*
X72200000Y-93980952D01*
X72295238Y-93933333D01*
X72533333Y-93933333D01*
X72628571Y-93980952D01*
X72676190Y-94028571D01*
X72723809Y-94123809D01*
X72723809Y-94361904D01*
X72676190Y-94457142D01*
X72628571Y-94504761D01*
X72533333Y-94552380D01*
X72295238Y-94552380D01*
X72200000Y-94504761D01*
X72152381Y-94457142D01*
X73009523Y-93552380D02*
X73342857Y-94552380D01*
X73676190Y-93552380D01*
X71485714Y-99000000D02*
X71390476Y-98952380D01*
X71247619Y-98952380D01*
X71104761Y-99000000D01*
X71009523Y-99095238D01*
X70961904Y-99190476D01*
X70914285Y-99380952D01*
X70914285Y-99523809D01*
X70961904Y-99714285D01*
X71009523Y-99809523D01*
X71104761Y-99904761D01*
X71247619Y-99952380D01*
X71342857Y-99952380D01*
X71485714Y-99904761D01*
X71533333Y-99857142D01*
X71533333Y-99523809D01*
X71342857Y-99523809D01*
X71961904Y-99952380D02*
X71961904Y-98952380D01*
X72533333Y-99952380D01*
X72533333Y-98952380D01*
X73009523Y-99952380D02*
X73009523Y-98952380D01*
X73247619Y-98952380D01*
X73390476Y-99000000D01*
X73485714Y-99095238D01*
X73533333Y-99190476D01*
X73580952Y-99380952D01*
X73580952Y-99523809D01*
X73533333Y-99714285D01*
X73485714Y-99809523D01*
X73390476Y-99904761D01*
X73247619Y-99952380D01*
X73009523Y-99952380D01*
X71193764Y-82361904D02*
X71284241Y-83161904D01*
X71508050Y-82590476D01*
X71589002Y-83161904D01*
X71879479Y-82361904D01*
X72393764Y-83123809D02*
X72312812Y-83161904D01*
X72160431Y-83161904D01*
X72089002Y-83123809D01*
X72060431Y-83047619D01*
X72098526Y-82742857D01*
X72146145Y-82666666D01*
X72227098Y-82628571D01*
X72379479Y-82628571D01*
X72450907Y-82666666D01*
X72479479Y-82742857D01*
X72469955Y-82819047D01*
X72079479Y-82895238D01*
X72769955Y-83161904D02*
X72869955Y-82361904D01*
X72831860Y-82666666D02*
X72912812Y-82628571D01*
X73065193Y-82628571D01*
X73136622Y-82666666D01*
X73169955Y-82704761D01*
X73198526Y-82780952D01*
X73169955Y-83009523D01*
X73122336Y-83085714D01*
X73079479Y-83123809D01*
X72998526Y-83161904D01*
X72846145Y-83161904D01*
X72774717Y-83123809D01*
X73836622Y-83161904D02*
X73889002Y-82742857D01*
X73860431Y-82666666D01*
X73789002Y-82628571D01*
X73636622Y-82628571D01*
X73555669Y-82666666D01*
X73841383Y-83123809D02*
X73760431Y-83161904D01*
X73569955Y-83161904D01*
X73498526Y-83123809D01*
X73469955Y-83047619D01*
X73479479Y-82971428D01*
X73527098Y-82895238D01*
X73608050Y-82857142D01*
X73798526Y-82857142D01*
X73879479Y-82819047D01*
X74184241Y-83123809D02*
X74255669Y-83161904D01*
X74408050Y-83161904D01*
X74489002Y-83123809D01*
X74536622Y-83047619D01*
X74541383Y-83009523D01*
X74512812Y-82933333D01*
X74441383Y-82895238D01*
X74327098Y-82895238D01*
X74255669Y-82857142D01*
X74227098Y-82780952D01*
X74231860Y-82742857D01*
X74279479Y-82666666D01*
X74360431Y-82628571D01*
X74474717Y-82628571D01*
X74546145Y-82666666D01*
X74817574Y-82628571D02*
X75122336Y-82628571D01*
X74965193Y-82361904D02*
X74879479Y-83047619D01*
X74908050Y-83123809D01*
X74979479Y-83161904D01*
X75055669Y-83161904D01*
X75436622Y-83161904D02*
X75365193Y-83123809D01*
X75331860Y-83085714D01*
X75303288Y-83009523D01*
X75331860Y-82780952D01*
X75379479Y-82704761D01*
X75422336Y-82666666D01*
X75503288Y-82628571D01*
X75617574Y-82628571D01*
X75689002Y-82666666D01*
X75722336Y-82704761D01*
X75750907Y-82780952D01*
X75722336Y-83009523D01*
X75674717Y-83085714D01*
X75631860Y-83123809D01*
X75550907Y-83161904D01*
X75436622Y-83161904D01*
X76679479Y-82361904D02*
X76769955Y-83161904D01*
X76993764Y-82590476D01*
X77074717Y-83161904D01*
X77365193Y-82361904D01*
X77889002Y-82742857D02*
X77998526Y-82780952D01*
X78031860Y-82819047D01*
X78060431Y-82895238D01*
X78046145Y-83009523D01*
X77998526Y-83085714D01*
X77955669Y-83123809D01*
X77874717Y-83161904D01*
X77569955Y-83161904D01*
X77669955Y-82361904D01*
X77936622Y-82361904D01*
X78008050Y-82400000D01*
X78041383Y-82438095D01*
X78069955Y-82514285D01*
X78060431Y-82590476D01*
X78012812Y-82666666D01*
X77969955Y-82704761D01*
X77889002Y-82742857D01*
X77622336Y-82742857D01*
X78469955Y-82361904D02*
X78389002Y-83009523D01*
X78417574Y-83085714D01*
X78450907Y-83123809D01*
X78522336Y-83161904D01*
X78674717Y-83161904D01*
X78755669Y-83123809D01*
X78798526Y-83085714D01*
X78846145Y-83009523D01*
X78927098Y-82361904D01*
X79174717Y-83123809D02*
X79284241Y-83161904D01*
X79474717Y-83161904D01*
X79555669Y-83123809D01*
X79598526Y-83085714D01*
X79646145Y-83009523D01*
X79655669Y-82933333D01*
X79627098Y-82857142D01*
X79593764Y-82819047D01*
X79522336Y-82780952D01*
X79374717Y-82742857D01*
X79303288Y-82704761D01*
X79269955Y-82666666D01*
X79241383Y-82590476D01*
X79250907Y-82514285D01*
X79298526Y-82438095D01*
X79341383Y-82400000D01*
X79422336Y-82361904D01*
X79612812Y-82361904D01*
X79722336Y-82400000D01*
X80579479Y-83161904D02*
X80679479Y-82361904D01*
X81027098Y-82628571D02*
X80960431Y-83161904D01*
X81017574Y-82704761D02*
X81060431Y-82666666D01*
X81141383Y-82628571D01*
X81255669Y-82628571D01*
X81327098Y-82666666D01*
X81355669Y-82742857D01*
X81303288Y-83161904D01*
X81636622Y-82628571D02*
X81941383Y-82628571D01*
X81784241Y-82361904D02*
X81698526Y-83047619D01*
X81727098Y-83123809D01*
X81798526Y-83161904D01*
X81874717Y-83161904D01*
X82450907Y-83123809D02*
X82369955Y-83161904D01*
X82217574Y-83161904D01*
X82146145Y-83123809D01*
X82117574Y-83047619D01*
X82155669Y-82742857D01*
X82203288Y-82666666D01*
X82284241Y-82628571D01*
X82436622Y-82628571D01*
X82508050Y-82666666D01*
X82536622Y-82742857D01*
X82527098Y-82819047D01*
X82136622Y-82895238D01*
X82827098Y-83161904D02*
X82893764Y-82628571D01*
X82874717Y-82780952D02*
X82922336Y-82704761D01*
X82965193Y-82666666D01*
X83046145Y-82628571D01*
X83122336Y-82628571D01*
X83274717Y-82628571D02*
X83579479Y-82628571D01*
X83322336Y-83161904D02*
X83408050Y-82476190D01*
X83455669Y-82400000D01*
X83536622Y-82361904D01*
X83612812Y-82361904D01*
X84122336Y-83161904D02*
X84174717Y-82742857D01*
X84146145Y-82666666D01*
X84074717Y-82628571D01*
X83922336Y-82628571D01*
X83841383Y-82666666D01*
X84127098Y-83123809D02*
X84046145Y-83161904D01*
X83855669Y-83161904D01*
X83784241Y-83123809D01*
X83755669Y-83047619D01*
X83765193Y-82971428D01*
X83812812Y-82895238D01*
X83893764Y-82857142D01*
X84084241Y-82857142D01*
X84165193Y-82819047D01*
X84850907Y-83123809D02*
X84769955Y-83161904D01*
X84617574Y-83161904D01*
X84546145Y-83123809D01*
X84512812Y-83085714D01*
X84484241Y-83009523D01*
X84512812Y-82780952D01*
X84560431Y-82704761D01*
X84603288Y-82666666D01*
X84684241Y-82628571D01*
X84836622Y-82628571D01*
X84908050Y-82666666D01*
X85498526Y-83123809D02*
X85417574Y-83161904D01*
X85265193Y-83161904D01*
X85193764Y-83123809D01*
X85165193Y-83047619D01*
X85203288Y-82742857D01*
X85250907Y-82666666D01*
X85331860Y-82628571D01*
X85484241Y-82628571D01*
X85555669Y-82666666D01*
X85584241Y-82742857D01*
X85574717Y-82819047D01*
X85184241Y-82895238D01*
X86522336Y-82857142D02*
X87131860Y-82857142D01*
X88050907Y-83123809D02*
X88160431Y-83161904D01*
X88350907Y-83161904D01*
X88431860Y-83123809D01*
X88474717Y-83085714D01*
X88522336Y-83009523D01*
X88531860Y-82933333D01*
X88503288Y-82857142D01*
X88469955Y-82819047D01*
X88398526Y-82780952D01*
X88250907Y-82742857D01*
X88179479Y-82704761D01*
X88146145Y-82666666D01*
X88117574Y-82590476D01*
X88127098Y-82514285D01*
X88174717Y-82438095D01*
X88217574Y-82400000D01*
X88298526Y-82361904D01*
X88489002Y-82361904D01*
X88598526Y-82400000D01*
X88798526Y-82628571D02*
X89103288Y-82628571D01*
X88946145Y-82361904D02*
X88860431Y-83047619D01*
X88889002Y-83123809D01*
X88960431Y-83161904D01*
X89036622Y-83161904D01*
X89712812Y-82628571D02*
X89646145Y-83161904D01*
X89369955Y-82628571D02*
X89317574Y-83047619D01*
X89346145Y-83123809D01*
X89417574Y-83161904D01*
X89531860Y-83161904D01*
X89612812Y-83123809D01*
X89655669Y-83085714D01*
X90369955Y-83161904D02*
X90422336Y-82742857D01*
X90393764Y-82666666D01*
X90322336Y-82628571D01*
X90169955Y-82628571D01*
X90089002Y-82666666D01*
X90374717Y-83123809D02*
X90293764Y-83161904D01*
X90103288Y-83161904D01*
X90031860Y-83123809D01*
X90003288Y-83047619D01*
X90012812Y-82971428D01*
X90060431Y-82895238D01*
X90141383Y-82857142D01*
X90331860Y-82857142D01*
X90412812Y-82819047D01*
X90750907Y-83161904D02*
X90817574Y-82628571D01*
X90798526Y-82780952D02*
X90846145Y-82704761D01*
X90889002Y-82666666D01*
X90969955Y-82628571D01*
X91046145Y-82628571D01*
X91198526Y-82628571D02*
X91503288Y-82628571D01*
X91346145Y-82361904D02*
X91260431Y-83047619D01*
X91289002Y-83123809D01*
X91360431Y-83161904D01*
X91436622Y-83161904D01*
X92312812Y-83161904D02*
X92412812Y-82361904D01*
X92717574Y-82361904D01*
X92789002Y-82400000D01*
X92822336Y-82438095D01*
X92850907Y-82514285D01*
X92836622Y-82628571D01*
X92789002Y-82704761D01*
X92746145Y-82742857D01*
X92665193Y-82780952D01*
X92360431Y-82780952D01*
X93112812Y-83161904D02*
X93179479Y-82628571D01*
X93212812Y-82361904D02*
X93169955Y-82400000D01*
X93203288Y-82438095D01*
X93246145Y-82400000D01*
X93212812Y-82361904D01*
X93203288Y-82438095D01*
X93446145Y-82628571D02*
X93750907Y-82628571D01*
X93593764Y-82361904D02*
X93508050Y-83047619D01*
X93536622Y-83123809D01*
X93608050Y-83161904D01*
X93684241Y-83161904D01*
X93903288Y-82628571D02*
X94208050Y-82628571D01*
X94050907Y-82361904D02*
X93965193Y-83047619D01*
X93993764Y-83123809D01*
X94065193Y-83161904D01*
X94141383Y-83161904D01*
X94750907Y-83161904D02*
X94803288Y-82742857D01*
X94774717Y-82666666D01*
X94703288Y-82628571D01*
X94550907Y-82628571D01*
X94469955Y-82666666D01*
X94755669Y-83123809D02*
X94674717Y-83161904D01*
X94484241Y-83161904D01*
X94412812Y-83123809D01*
X94384241Y-83047619D01*
X94393764Y-82971428D01*
X94441383Y-82895238D01*
X94522336Y-82857142D01*
X94712812Y-82857142D01*
X94793764Y-82819047D01*
X95122336Y-82628571D02*
X95208050Y-83161904D01*
X95408050Y-82780952D01*
X95512812Y-83161904D01*
X95731860Y-82628571D01*
X96312812Y-83161904D02*
X96365193Y-82742857D01*
X96336622Y-82666666D01*
X96265193Y-82628571D01*
X96112812Y-82628571D01*
X96031860Y-82666666D01*
X96317574Y-83123809D02*
X96236622Y-83161904D01*
X96046145Y-83161904D01*
X95974717Y-83123809D01*
X95946145Y-83047619D01*
X95955669Y-82971428D01*
X96003288Y-82895238D01*
X96084241Y-82857142D01*
X96274717Y-82857142D01*
X96355669Y-82819047D01*
X96684241Y-82628571D02*
X96808050Y-83161904D01*
X97065193Y-82628571D02*
X96808050Y-83161904D01*
X96708050Y-83352380D01*
X96665193Y-83390476D01*
X96584241Y-83428571D01*
X97965193Y-82438095D02*
X98008050Y-82400000D01*
X98089002Y-82361904D01*
X98279479Y-82361904D01*
X98350907Y-82400000D01*
X98384241Y-82438095D01*
X98412812Y-82514285D01*
X98403288Y-82590476D01*
X98350907Y-82704761D01*
X97836622Y-83161904D01*
X98331860Y-83161904D01*
X98927098Y-82361904D02*
X99003288Y-82361904D01*
X99074717Y-82400000D01*
X99108050Y-82438095D01*
X99136622Y-82514285D01*
X99155669Y-82666666D01*
X99131860Y-82857142D01*
X99074717Y-83009523D01*
X99027098Y-83085714D01*
X98984241Y-83123809D01*
X98903288Y-83161904D01*
X98827098Y-83161904D01*
X98755669Y-83123809D01*
X98722336Y-83085714D01*
X98693764Y-83009523D01*
X98674717Y-82857142D01*
X98698526Y-82666666D01*
X98755669Y-82514285D01*
X98803288Y-82438095D01*
X98846145Y-82400000D01*
X98927098Y-82361904D01*
X99855669Y-83161904D02*
X99398526Y-83161904D01*
X99627098Y-83161904D02*
X99727098Y-82361904D01*
X99636622Y-82476190D01*
X99550907Y-82552380D01*
X99469955Y-82590476D01*
X100236622Y-83161904D02*
X100389002Y-83161904D01*
X100469955Y-83123809D01*
X100512812Y-83085714D01*
X100603288Y-82971428D01*
X100660431Y-82819047D01*
X100698526Y-82514285D01*
X100669955Y-82438095D01*
X100636622Y-82400000D01*
X100565193Y-82361904D01*
X100412812Y-82361904D01*
X100331860Y-82400000D01*
X100289002Y-82438095D01*
X100241383Y-82514285D01*
X100217574Y-82704761D01*
X100246145Y-82780952D01*
X100279479Y-82819047D01*
X100350907Y-82857142D01*
X100503288Y-82857142D01*
X100584241Y-82819047D01*
X100627098Y-82780952D01*
X100674717Y-82704761D01*
X101636622Y-82323809D02*
X100822336Y-83352380D01*
X101850907Y-82438095D02*
X101893764Y-82400000D01*
X101974717Y-82361904D01*
X102165193Y-82361904D01*
X102236622Y-82400000D01*
X102269955Y-82438095D01*
X102298526Y-82514285D01*
X102289002Y-82590476D01*
X102236622Y-82704761D01*
X101722336Y-83161904D01*
X102217574Y-83161904D01*
X102812812Y-82361904D02*
X102889002Y-82361904D01*
X102960431Y-82400000D01*
X102993764Y-82438095D01*
X103022336Y-82514285D01*
X103041383Y-82666666D01*
X103017574Y-82857142D01*
X102960431Y-83009523D01*
X102912812Y-83085714D01*
X102869955Y-83123809D01*
X102789002Y-83161904D01*
X102712812Y-83161904D01*
X102641383Y-83123809D01*
X102608050Y-83085714D01*
X102579479Y-83009523D01*
X102560431Y-82857142D01*
X102584241Y-82666666D01*
X102641383Y-82514285D01*
X102689002Y-82438095D01*
X102731860Y-82400000D01*
X102812812Y-82361904D01*
X103374717Y-82438095D02*
X103417574Y-82400000D01*
X103498526Y-82361904D01*
X103689002Y-82361904D01*
X103760431Y-82400000D01*
X103793764Y-82438095D01*
X103822336Y-82514285D01*
X103812812Y-82590476D01*
X103760431Y-82704761D01*
X103246145Y-83161904D01*
X103741383Y-83161904D01*
X104336622Y-82361904D02*
X104412812Y-82361904D01*
X104484241Y-82400000D01*
X104517574Y-82438095D01*
X104546145Y-82514285D01*
X104565193Y-82666666D01*
X104541383Y-82857142D01*
X104484241Y-83009523D01*
X104436622Y-83085714D01*
X104393764Y-83123809D01*
X104312812Y-83161904D01*
X104236622Y-83161904D01*
X104165193Y-83123809D01*
X104131860Y-83085714D01*
X104103288Y-83009523D01*
X104084241Y-82857142D01*
X104108050Y-82666666D01*
X104165193Y-82514285D01*
X104212812Y-82438095D01*
X104255669Y-82400000D01*
X104336622Y-82361904D01*
X97100000Y-94061904D02*
X97052380Y-94157142D01*
X97052380Y-94300000D01*
X97100000Y-94442857D01*
X97195238Y-94538095D01*
X97290476Y-94585714D01*
X97480952Y-94633333D01*
X97623809Y-94633333D01*
X97814285Y-94585714D01*
X97909523Y-94538095D01*
X98004761Y-94442857D01*
X98052380Y-94300000D01*
X98052380Y-94204761D01*
X98004761Y-94061904D01*
X97957142Y-94014285D01*
X97623809Y-94014285D01*
X97623809Y-94204761D01*
X98052380Y-93585714D02*
X97052380Y-93585714D01*
X98052380Y-93014285D01*
X97052380Y-93014285D01*
X98052380Y-92538095D02*
X97052380Y-92538095D01*
X97052380Y-92300000D01*
X97100000Y-92157142D01*
X97195238Y-92061904D01*
X97290476Y-92014285D01*
X97480952Y-91966666D01*
X97623809Y-91966666D01*
X97814285Y-92014285D01*
X97909523Y-92061904D01*
X98004761Y-92157142D01*
X98052380Y-92300000D01*
X98052380Y-92538095D01*
X98052380Y-98519047D02*
X98052380Y-99090476D01*
X98052380Y-98804761D02*
X97052380Y-98804761D01*
X97195238Y-98900000D01*
X97290476Y-98995238D01*
X97338095Y-99090476D01*
X97147619Y-98138095D02*
X97100000Y-98090476D01*
X97052380Y-97995238D01*
X97052380Y-97757142D01*
X97100000Y-97661904D01*
X97147619Y-97614285D01*
X97242857Y-97566666D01*
X97338095Y-97566666D01*
X97480952Y-97614285D01*
X98052380Y-98185714D01*
X98052380Y-97566666D01*
X97052380Y-97280952D02*
X98052380Y-96947619D01*
X97052380Y-96614285D01*
D11*
X78750000Y-97935000D02*
X78750000Y-99035000D01*
X78750000Y-99035000D02*
X81350000Y-99035000D01*
X78750000Y-97935000D02*
X81350000Y-97935000D01*
X74040000Y-85070000D02*
X74040000Y-87670000D01*
X74040000Y-87670000D02*
X65410000Y-87670000D01*
X65410000Y-87670000D02*
X65410000Y-85070000D01*
X65410000Y-85070000D02*
X74040000Y-85070000D01*
X74470000Y-86020000D02*
X74040000Y-86020000D01*
X74470000Y-86780000D02*
X74040000Y-86780000D01*
X74040000Y-85250000D02*
X65410000Y-85250000D01*
X74040000Y-85370000D02*
X65410000Y-85370000D01*
X74040000Y-85490000D02*
X65410000Y-85490000D01*
X74040000Y-85610000D02*
X65410000Y-85610000D01*
X74040000Y-85730000D02*
X65410000Y-85730000D01*
X74040000Y-85850000D02*
X65410000Y-85850000D01*
X74040000Y-85970000D02*
X65410000Y-85970000D01*
X74040000Y-86090000D02*
X65410000Y-86090000D01*
X74040000Y-86210000D02*
X65410000Y-86210000D01*
X74040000Y-86330000D02*
X65410000Y-86330000D01*
X74040000Y-86450000D02*
X65410000Y-86450000D01*
X74040000Y-86570000D02*
X65410000Y-86570000D01*
X74040000Y-86690000D02*
X65410000Y-86690000D01*
X74040000Y-86810000D02*
X65410000Y-86810000D01*
X74040000Y-86930000D02*
X65410000Y-86930000D01*
X74040000Y-87050000D02*
X65410000Y-87050000D01*
X74040000Y-87170000D02*
X65410000Y-87170000D01*
X74040000Y-87290000D02*
X65410000Y-87290000D01*
X74040000Y-87410000D02*
X65410000Y-87410000D01*
X74040000Y-87530000D02*
X65410000Y-87530000D01*
X74040000Y-87650000D02*
X65410000Y-87650000D01*
X74040000Y-87770000D02*
X65410000Y-87770000D01*
X74040000Y-87670000D02*
X74040000Y-90210000D01*
X74040000Y-90210000D02*
X65410000Y-90210000D01*
X65410000Y-90210000D02*
X65410000Y-87670000D01*
X65410000Y-87670000D02*
X74040000Y-87670000D01*
X74470000Y-88560000D02*
X74040000Y-88560000D01*
X74470000Y-89320000D02*
X74040000Y-89320000D01*
X74040000Y-90210000D02*
X74040000Y-92750000D01*
X74040000Y-92750000D02*
X65410000Y-92750000D01*
X65410000Y-92750000D02*
X65410000Y-90210000D01*
X65410000Y-90210000D02*
X74040000Y-90210000D01*
X74470000Y-91100000D02*
X74040000Y-91100000D01*
X74470000Y-91860000D02*
X74040000Y-91860000D01*
X74040000Y-92750000D02*
X74040000Y-95290000D01*
X74040000Y-95290000D02*
X65410000Y-95290000D01*
X65410000Y-95290000D02*
X65410000Y-92750000D01*
X65410000Y-92750000D02*
X74040000Y-92750000D01*
X74470000Y-93640000D02*
X74040000Y-93640000D01*
X74470000Y-94400000D02*
X74040000Y-94400000D01*
X74040000Y-95290000D02*
X74040000Y-97830000D01*
X74040000Y-97830000D02*
X65410000Y-97830000D01*
X65410000Y-97830000D02*
X65410000Y-95290000D01*
X65410000Y-95290000D02*
X74040000Y-95290000D01*
X74470000Y-96180000D02*
X74040000Y-96180000D01*
X74470000Y-96940000D02*
X74040000Y-96940000D01*
X74040000Y-97830000D02*
X74040000Y-100430000D01*
X74040000Y-100430000D02*
X65410000Y-100430000D01*
X65410000Y-100430000D02*
X65410000Y-97830000D01*
X65410000Y-97830000D02*
X74040000Y-97830000D01*
X74470000Y-98720000D02*
X74040000Y-98720000D01*
X74470000Y-99480000D02*
X74040000Y-99480000D01*
X75500000Y-85130000D02*
X76770000Y-85130000D01*
X76770000Y-85130000D02*
X76770000Y-86400000D01*
X95100000Y-90780000D02*
X93900000Y-90780000D01*
X93900000Y-89020000D02*
X95100000Y-89020000D01*
X88100000Y-94880000D02*
X86900000Y-94880000D01*
X86900000Y-93120000D02*
X88100000Y-93120000D01*
X81100000Y-94880000D02*
X79900000Y-94880000D01*
X79900000Y-93120000D02*
X81100000Y-93120000D01*
X80800000Y-90580000D02*
X79600000Y-90580000D01*
X79600000Y-88820000D02*
X80800000Y-88820000D01*
X86700000Y-99380000D02*
X85500000Y-99380000D01*
X85500000Y-97620000D02*
X86700000Y-97620000D01*
X95100000Y-94880000D02*
X93900000Y-94880000D01*
X93900000Y-93120000D02*
X95100000Y-93120000D01*
X87950000Y-90580000D02*
X86750000Y-90580000D01*
X86750000Y-88820000D02*
X87950000Y-88820000D01*
X97480000Y-85540000D02*
X96550000Y-85540000D01*
X94320000Y-85540000D02*
X95250000Y-85540000D01*
X94320000Y-85540000D02*
X94320000Y-87700000D01*
X97480000Y-85540000D02*
X97480000Y-87000000D01*
X92180000Y-85540000D02*
X91250000Y-85540000D01*
X89020000Y-85540000D02*
X89950000Y-85540000D01*
X89020000Y-85540000D02*
X89020000Y-87700000D01*
X92180000Y-85540000D02*
X92180000Y-87000000D01*
X86880000Y-85540000D02*
X85950000Y-85540000D01*
X83720000Y-85540000D02*
X84650000Y-85540000D01*
X83720000Y-85540000D02*
X83720000Y-87700000D01*
X86880000Y-85540000D02*
X86880000Y-87000000D01*
X81580000Y-85540000D02*
X80650000Y-85540000D01*
X78420000Y-85540000D02*
X79350000Y-85540000D01*
X78420000Y-85540000D02*
X78420000Y-87700000D01*
X81580000Y-85540000D02*
X81580000Y-87000000D01*
X106010000Y-100040000D02*
X98390000Y-100040000D01*
X106010000Y-84800000D02*
X98390000Y-84800000D01*
X104740000Y-100040000D02*
X104740000Y-84800000D01*
X98390000Y-100040000D02*
X98390000Y-84800000D01*
X106010000Y-100040000D02*
X106010000Y-84800000D01*
D10*
X80761904Y-100352380D02*
X80761904Y-99352380D01*
X81000000Y-99352380D01*
X81142857Y-99400000D01*
X81238095Y-99495238D01*
X81285714Y-99590476D01*
X81333333Y-99780952D01*
X81333333Y-99923809D01*
X81285714Y-100114285D01*
X81238095Y-100209523D01*
X81142857Y-100304761D01*
X81000000Y-100352380D01*
X80761904Y-100352380D01*
X82285714Y-100352380D02*
X81714285Y-100352380D01*
X82000000Y-100352380D02*
X82000000Y-99352380D01*
X81904761Y-99495238D01*
X81809523Y-99590476D01*
X81714285Y-99638095D01*
X77166666Y-99652380D02*
X77166666Y-100366666D01*
X77119047Y-100509523D01*
X77023809Y-100604761D01*
X76880952Y-100652380D01*
X76785714Y-100652380D01*
X78166666Y-100652380D02*
X77595238Y-100652380D01*
X77880952Y-100652380D02*
X77880952Y-99652380D01*
X77785714Y-99795238D01*
X77690476Y-99890476D01*
X77595238Y-99938095D01*
X92857142Y-92052380D02*
X92523809Y-91576190D01*
X92285714Y-92052380D02*
X92285714Y-91052380D01*
X92666666Y-91052380D01*
X92761904Y-91100000D01*
X92809523Y-91147619D01*
X92857142Y-91242857D01*
X92857142Y-91385714D01*
X92809523Y-91480952D01*
X92761904Y-91528571D01*
X92666666Y-91576190D01*
X92285714Y-91576190D01*
X93809523Y-92052380D02*
X93238095Y-92052380D01*
X93523809Y-92052380D02*
X93523809Y-91052380D01*
X93428571Y-91195238D01*
X93333333Y-91290476D01*
X93238095Y-91338095D01*
X94428571Y-91052380D02*
X94523809Y-91052380D01*
X94619047Y-91100000D01*
X94666666Y-91147619D01*
X94714285Y-91242857D01*
X94761904Y-91433333D01*
X94761904Y-91671428D01*
X94714285Y-91861904D01*
X94666666Y-91957142D01*
X94619047Y-92004761D01*
X94523809Y-92052380D01*
X94428571Y-92052380D01*
X94333333Y-92004761D01*
X94285714Y-91957142D01*
X94238095Y-91861904D01*
X94190476Y-91671428D01*
X94190476Y-91433333D01*
X94238095Y-91242857D01*
X94285714Y-91147619D01*
X94333333Y-91100000D01*
X94428571Y-91052380D01*
X89033333Y-92852380D02*
X88700000Y-92376190D01*
X88461904Y-92852380D02*
X88461904Y-91852380D01*
X88842857Y-91852380D01*
X88938095Y-91900000D01*
X88985714Y-91947619D01*
X89033333Y-92042857D01*
X89033333Y-92185714D01*
X88985714Y-92280952D01*
X88938095Y-92328571D01*
X88842857Y-92376190D01*
X88461904Y-92376190D01*
X89509523Y-92852380D02*
X89700000Y-92852380D01*
X89795238Y-92804761D01*
X89842857Y-92757142D01*
X89938095Y-92614285D01*
X89985714Y-92423809D01*
X89985714Y-92042857D01*
X89938095Y-91947619D01*
X89890476Y-91900000D01*
X89795238Y-91852380D01*
X89604761Y-91852380D01*
X89509523Y-91900000D01*
X89461904Y-91947619D01*
X89414285Y-92042857D01*
X89414285Y-92280952D01*
X89461904Y-92376190D01*
X89509523Y-92423809D01*
X89604761Y-92471428D01*
X89795238Y-92471428D01*
X89890476Y-92423809D01*
X89938095Y-92376190D01*
X89985714Y-92280952D01*
X81933333Y-96152380D02*
X81600000Y-95676190D01*
X81361904Y-96152380D02*
X81361904Y-95152380D01*
X81742857Y-95152380D01*
X81838095Y-95200000D01*
X81885714Y-95247619D01*
X81933333Y-95342857D01*
X81933333Y-95485714D01*
X81885714Y-95580952D01*
X81838095Y-95628571D01*
X81742857Y-95676190D01*
X81361904Y-95676190D01*
X82504761Y-95580952D02*
X82409523Y-95533333D01*
X82361904Y-95485714D01*
X82314285Y-95390476D01*
X82314285Y-95342857D01*
X82361904Y-95247619D01*
X82409523Y-95200000D01*
X82504761Y-95152380D01*
X82695238Y-95152380D01*
X82790476Y-95200000D01*
X82838095Y-95247619D01*
X82885714Y-95342857D01*
X82885714Y-95390476D01*
X82838095Y-95485714D01*
X82790476Y-95533333D01*
X82695238Y-95580952D01*
X82504761Y-95580952D01*
X82409523Y-95628571D01*
X82361904Y-95676190D01*
X82314285Y-95771428D01*
X82314285Y-95961904D01*
X82361904Y-96057142D01*
X82409523Y-96104761D01*
X82504761Y-96152380D01*
X82695238Y-96152380D01*
X82790476Y-96104761D01*
X82838095Y-96057142D01*
X82885714Y-95961904D01*
X82885714Y-95771428D01*
X82838095Y-95676190D01*
X82790476Y-95628571D01*
X82695238Y-95580952D01*
X81533333Y-88452380D02*
X81200000Y-87976190D01*
X80961904Y-88452380D02*
X80961904Y-87452380D01*
X81342857Y-87452380D01*
X81438095Y-87500000D01*
X81485714Y-87547619D01*
X81533333Y-87642857D01*
X81533333Y-87785714D01*
X81485714Y-87880952D01*
X81438095Y-87928571D01*
X81342857Y-87976190D01*
X80961904Y-87976190D01*
X81866666Y-87452380D02*
X82533333Y-87452380D01*
X82104761Y-88452380D01*
X85933333Y-97452380D02*
X85600000Y-96976190D01*
X85361904Y-97452380D02*
X85361904Y-96452380D01*
X85742857Y-96452380D01*
X85838095Y-96500000D01*
X85885714Y-96547619D01*
X85933333Y-96642857D01*
X85933333Y-96785714D01*
X85885714Y-96880952D01*
X85838095Y-96928571D01*
X85742857Y-96976190D01*
X85361904Y-96976190D01*
X86838095Y-96452380D02*
X86361904Y-96452380D01*
X86314285Y-96928571D01*
X86361904Y-96880952D01*
X86457142Y-96833333D01*
X86695238Y-96833333D01*
X86790476Y-96880952D01*
X86838095Y-96928571D01*
X86885714Y-97023809D01*
X86885714Y-97261904D01*
X86838095Y-97357142D01*
X86790476Y-97404761D01*
X86695238Y-97452380D01*
X86457142Y-97452380D01*
X86361904Y-97404761D01*
X86314285Y-97357142D01*
X92833333Y-96152380D02*
X92500000Y-95676190D01*
X92261904Y-96152380D02*
X92261904Y-95152380D01*
X92642857Y-95152380D01*
X92738095Y-95200000D01*
X92785714Y-95247619D01*
X92833333Y-95342857D01*
X92833333Y-95485714D01*
X92785714Y-95580952D01*
X92738095Y-95628571D01*
X92642857Y-95676190D01*
X92261904Y-95676190D01*
X93166666Y-95152380D02*
X93785714Y-95152380D01*
X93452380Y-95533333D01*
X93595238Y-95533333D01*
X93690476Y-95580952D01*
X93738095Y-95628571D01*
X93785714Y-95723809D01*
X93785714Y-95961904D01*
X93738095Y-96057142D01*
X93690476Y-96104761D01*
X93595238Y-96152380D01*
X93309523Y-96152380D01*
X93214285Y-96104761D01*
X93166666Y-96057142D01*
X85833333Y-91752380D02*
X85500000Y-91276190D01*
X85261904Y-91752380D02*
X85261904Y-90752380D01*
X85642857Y-90752380D01*
X85738095Y-90800000D01*
X85785714Y-90847619D01*
X85833333Y-90942857D01*
X85833333Y-91085714D01*
X85785714Y-91180952D01*
X85738095Y-91228571D01*
X85642857Y-91276190D01*
X85261904Y-91276190D01*
X86785714Y-91752380D02*
X86214285Y-91752380D01*
X86500000Y-91752380D02*
X86500000Y-90752380D01*
X86404761Y-90895238D01*
X86309523Y-90990476D01*
X86214285Y-91038095D01*
X93947619Y-86395238D02*
X93900000Y-86490476D01*
X93804761Y-86585714D01*
X93661904Y-86728571D01*
X93614285Y-86823809D01*
X93614285Y-86919047D01*
X93852380Y-86871428D02*
X93804761Y-86966666D01*
X93709523Y-87061904D01*
X93519047Y-87109523D01*
X93185714Y-87109523D01*
X92995238Y-87061904D01*
X92900000Y-86966666D01*
X92852380Y-86871428D01*
X92852380Y-86680952D01*
X92900000Y-86585714D01*
X92995238Y-86490476D01*
X93185714Y-86442857D01*
X93519047Y-86442857D01*
X93709523Y-86490476D01*
X93804761Y-86585714D01*
X93852380Y-86680952D01*
X93852380Y-86871428D01*
X93185714Y-85585714D02*
X93852380Y-85585714D01*
X92804761Y-85823809D02*
X93519047Y-86061904D01*
X93519047Y-85442857D01*
X88647619Y-86395238D02*
X88600000Y-86490476D01*
X88504761Y-86585714D01*
X88361904Y-86728571D01*
X88314285Y-86823809D01*
X88314285Y-86919047D01*
X88552380Y-86871428D02*
X88504761Y-86966666D01*
X88409523Y-87061904D01*
X88219047Y-87109523D01*
X87885714Y-87109523D01*
X87695238Y-87061904D01*
X87600000Y-86966666D01*
X87552380Y-86871428D01*
X87552380Y-86680952D01*
X87600000Y-86585714D01*
X87695238Y-86490476D01*
X87885714Y-86442857D01*
X88219047Y-86442857D01*
X88409523Y-86490476D01*
X88504761Y-86585714D01*
X88552380Y-86680952D01*
X88552380Y-86871428D01*
X87552380Y-86109523D02*
X87552380Y-85490476D01*
X87933333Y-85823809D01*
X87933333Y-85680952D01*
X87980952Y-85585714D01*
X88028571Y-85538095D01*
X88123809Y-85490476D01*
X88361904Y-85490476D01*
X88457142Y-85538095D01*
X88504761Y-85585714D01*
X88552380Y-85680952D01*
X88552380Y-85966666D01*
X88504761Y-86061904D01*
X88457142Y-86109523D01*
X83347619Y-86395238D02*
X83300000Y-86490476D01*
X83204761Y-86585714D01*
X83061904Y-86728571D01*
X83014285Y-86823809D01*
X83014285Y-86919047D01*
X83252380Y-86871428D02*
X83204761Y-86966666D01*
X83109523Y-87061904D01*
X82919047Y-87109523D01*
X82585714Y-87109523D01*
X82395238Y-87061904D01*
X82300000Y-86966666D01*
X82252380Y-86871428D01*
X82252380Y-86680952D01*
X82300000Y-86585714D01*
X82395238Y-86490476D01*
X82585714Y-86442857D01*
X82919047Y-86442857D01*
X83109523Y-86490476D01*
X83204761Y-86585714D01*
X83252380Y-86680952D01*
X83252380Y-86871428D01*
X82347619Y-86061904D02*
X82300000Y-86014285D01*
X82252380Y-85919047D01*
X82252380Y-85680952D01*
X82300000Y-85585714D01*
X82347619Y-85538095D01*
X82442857Y-85490476D01*
X82538095Y-85490476D01*
X82680952Y-85538095D01*
X83252380Y-86109523D01*
X83252380Y-85490476D01*
X78047619Y-86395238D02*
X78000000Y-86490476D01*
X77904761Y-86585714D01*
X77761904Y-86728571D01*
X77714285Y-86823809D01*
X77714285Y-86919047D01*
X77952380Y-86871428D02*
X77904761Y-86966666D01*
X77809523Y-87061904D01*
X77619047Y-87109523D01*
X77285714Y-87109523D01*
X77095238Y-87061904D01*
X77000000Y-86966666D01*
X76952380Y-86871428D01*
X76952380Y-86680952D01*
X77000000Y-86585714D01*
X77095238Y-86490476D01*
X77285714Y-86442857D01*
X77619047Y-86442857D01*
X77809523Y-86490476D01*
X77904761Y-86585714D01*
X77952380Y-86680952D01*
X77952380Y-86871428D01*
X77952380Y-85490476D02*
X77952380Y-86061904D01*
X77952380Y-85776190D02*
X76952380Y-85776190D01*
X77095238Y-85871428D01*
X77190476Y-85966666D01*
X77238095Y-86061904D01*
X104766666Y-98552380D02*
X104766666Y-99266666D01*
X104719047Y-99409523D01*
X104623809Y-99504761D01*
X104480952Y-99552380D01*
X104385714Y-99552380D01*
X105195238Y-98647619D02*
X105242857Y-98600000D01*
X105338095Y-98552380D01*
X105576190Y-98552380D01*
X105671428Y-98600000D01*
X105719047Y-98647619D01*
X105766666Y-98742857D01*
X105766666Y-98838095D01*
X105719047Y-98980952D01*
X105147619Y-99552380D01*
X105766666Y-99552380D01*
M02*
