G04 #@! TF.GenerationSoftware,KiCad,Pcbnew,(5.1.0)-1*
G04 #@! TF.CreationDate,2019-12-29T23:08:54+00:00*
G04 #@! TF.ProjectId,WebastoWBUSInterface,57656261-7374-46f5-9742-5553496e7465,rev?*
G04 #@! TF.SameCoordinates,Original*
G04 #@! TF.FileFunction,Copper,L2,Bot*
G04 #@! TF.FilePolarity,Positive*
%FSLAX46Y46*%
G04 Gerber Fmt 4.6, Leading zero omitted, Abs format (unit mm)*
G04 Created by KiCad (PCBNEW (5.1.0)-1) date 2019-12-29 23:08:54*
%MOMM*%
%LPD*%
G04 APERTURE LIST*
%ADD10R,1.700000X1.700000*%
%ADD11O,1.700000X1.700000*%
%ADD12R,3.000000X3.000000*%
%ADD13C,3.000000*%
%ADD14C,0.800000*%
%ADD15C,0.500000*%
%ADD16C,0.254000*%
G04 APERTURE END LIST*
D10*
X75500000Y-86400000D03*
D11*
X75500000Y-88940000D03*
X75500000Y-91480000D03*
X75500000Y-94020000D03*
X75500000Y-96560000D03*
X75500000Y-99100000D03*
D12*
X102200000Y-97500000D03*
D13*
X102200000Y-92420000D03*
X102200000Y-87340000D03*
D14*
X90100000Y-99400000D03*
X90100000Y-98300000D03*
X90100000Y-97300000D03*
X82500000Y-85300000D03*
X98300000Y-84200000D03*
X86500000Y-91300000D03*
X91400000Y-88700000D03*
X84250010Y-91999998D03*
X80228241Y-92571759D03*
X93370979Y-88416940D03*
X91100000Y-90600012D03*
D15*
X75500000Y-91480000D02*
X81680000Y-85300000D01*
X81680000Y-85300000D02*
X82500000Y-85300000D01*
X98300000Y-91600000D02*
X98300000Y-84200000D01*
X102200000Y-97500000D02*
X102200000Y-95500000D01*
X102200000Y-95500000D02*
X98300000Y-91600000D01*
X91000001Y-89099999D02*
X91400000Y-88700000D01*
X88800000Y-91300000D02*
X91000001Y-89099999D01*
X86500000Y-91300000D02*
X88800000Y-91300000D01*
X80793926Y-92571759D02*
X80228241Y-92571759D01*
X83678249Y-92571759D02*
X80793926Y-92571759D01*
X84250010Y-91999998D02*
X83678249Y-92571759D01*
X93370979Y-88416940D02*
X91187907Y-90600012D01*
X91187907Y-90600012D02*
X91100000Y-90600012D01*
D16*
G36*
X104673000Y-100823603D02*
G01*
X96456588Y-100862758D01*
X96458363Y-100860983D01*
X96692012Y-100511302D01*
X96852953Y-100122756D01*
X96935000Y-99710279D01*
X96935000Y-99289721D01*
X96852953Y-98877244D01*
X96692012Y-98488698D01*
X96458363Y-98139017D01*
X96160983Y-97841637D01*
X95811302Y-97607988D01*
X95422756Y-97447047D01*
X95010279Y-97365000D01*
X94589721Y-97365000D01*
X94177244Y-97447047D01*
X93788698Y-97607988D01*
X93439017Y-97841637D01*
X93141637Y-98139017D01*
X92907988Y-98488698D01*
X92747047Y-98877244D01*
X92665000Y-99289721D01*
X92665000Y-99710279D01*
X92747047Y-100122756D01*
X92907988Y-100511302D01*
X93141637Y-100860983D01*
X93159125Y-100878471D01*
X70861736Y-100984727D01*
X70876938Y-99456890D01*
X74058524Y-99456890D01*
X74103175Y-99604099D01*
X74228359Y-99866920D01*
X74402412Y-100100269D01*
X74618645Y-100295178D01*
X74868748Y-100444157D01*
X75143109Y-100541481D01*
X75373000Y-100420814D01*
X75373000Y-99227000D01*
X75627000Y-99227000D01*
X75627000Y-100420814D01*
X75856891Y-100541481D01*
X76131252Y-100444157D01*
X76381355Y-100295178D01*
X76597588Y-100100269D01*
X76771641Y-99866920D01*
X76896825Y-99604099D01*
X76941476Y-99456890D01*
X76820155Y-99227000D01*
X75627000Y-99227000D01*
X75373000Y-99227000D01*
X74179845Y-99227000D01*
X74058524Y-99456890D01*
X70876938Y-99456890D01*
X70981583Y-88940000D01*
X74007815Y-88940000D01*
X74036487Y-89231111D01*
X74121401Y-89511034D01*
X74259294Y-89769014D01*
X74444866Y-89995134D01*
X74670986Y-90180706D01*
X74725791Y-90210000D01*
X74670986Y-90239294D01*
X74444866Y-90424866D01*
X74259294Y-90650986D01*
X74121401Y-90908966D01*
X74036487Y-91188889D01*
X74007815Y-91480000D01*
X74036487Y-91771111D01*
X74121401Y-92051034D01*
X74259294Y-92309014D01*
X74444866Y-92535134D01*
X74670986Y-92720706D01*
X74725791Y-92750000D01*
X74670986Y-92779294D01*
X74444866Y-92964866D01*
X74259294Y-93190986D01*
X74121401Y-93448966D01*
X74036487Y-93728889D01*
X74007815Y-94020000D01*
X74036487Y-94311111D01*
X74121401Y-94591034D01*
X74259294Y-94849014D01*
X74444866Y-95075134D01*
X74670986Y-95260706D01*
X74725791Y-95290000D01*
X74670986Y-95319294D01*
X74444866Y-95504866D01*
X74259294Y-95730986D01*
X74121401Y-95988966D01*
X74036487Y-96268889D01*
X74007815Y-96560000D01*
X74036487Y-96851111D01*
X74121401Y-97131034D01*
X74259294Y-97389014D01*
X74444866Y-97615134D01*
X74670986Y-97800706D01*
X74735523Y-97835201D01*
X74618645Y-97904822D01*
X74402412Y-98099731D01*
X74228359Y-98333080D01*
X74103175Y-98595901D01*
X74058524Y-98743110D01*
X74179845Y-98973000D01*
X75373000Y-98973000D01*
X75373000Y-98953000D01*
X75627000Y-98953000D01*
X75627000Y-98973000D01*
X76820155Y-98973000D01*
X76941476Y-98743110D01*
X76896825Y-98595901D01*
X76771641Y-98333080D01*
X76597588Y-98099731D01*
X76381355Y-97904822D01*
X76264477Y-97835201D01*
X76329014Y-97800706D01*
X76555134Y-97615134D01*
X76740706Y-97389014D01*
X76878599Y-97131034D01*
X76963513Y-96851111D01*
X76992185Y-96560000D01*
X76963513Y-96268889D01*
X76878599Y-95988966D01*
X76740706Y-95730986D01*
X76555134Y-95504866D01*
X76329014Y-95319294D01*
X76274209Y-95290000D01*
X76329014Y-95260706D01*
X76555134Y-95075134D01*
X76740706Y-94849014D01*
X76878599Y-94591034D01*
X76963513Y-94311111D01*
X76992185Y-94020000D01*
X76963513Y-93728889D01*
X76878599Y-93448966D01*
X76740706Y-93190986D01*
X76555134Y-92964866D01*
X76329014Y-92779294D01*
X76274209Y-92750000D01*
X76329014Y-92720706D01*
X76555134Y-92535134D01*
X76608735Y-92469820D01*
X79193241Y-92469820D01*
X79193241Y-92673698D01*
X79233015Y-92873657D01*
X79311036Y-93062015D01*
X79424304Y-93231533D01*
X79568467Y-93375696D01*
X79737985Y-93488964D01*
X79926343Y-93566985D01*
X80126302Y-93606759D01*
X80330180Y-93606759D01*
X80530139Y-93566985D01*
X80718497Y-93488964D01*
X80766695Y-93456759D01*
X83634780Y-93456759D01*
X83678249Y-93461040D01*
X83721718Y-93456759D01*
X83721726Y-93456759D01*
X83851739Y-93443954D01*
X84018562Y-93393348D01*
X84172308Y-93311170D01*
X84307066Y-93200576D01*
X84334783Y-93166803D01*
X84495053Y-93006533D01*
X84551908Y-92995224D01*
X84740266Y-92917203D01*
X84909784Y-92803935D01*
X85053947Y-92659772D01*
X85167215Y-92490254D01*
X85245236Y-92301896D01*
X85285010Y-92101937D01*
X85285010Y-91898059D01*
X85245236Y-91698100D01*
X85167215Y-91509742D01*
X85053947Y-91340224D01*
X84911784Y-91198061D01*
X85465000Y-91198061D01*
X85465000Y-91401939D01*
X85504774Y-91601898D01*
X85582795Y-91790256D01*
X85696063Y-91959774D01*
X85840226Y-92103937D01*
X86009744Y-92217205D01*
X86198102Y-92295226D01*
X86398061Y-92335000D01*
X86601939Y-92335000D01*
X86801898Y-92295226D01*
X86990256Y-92217205D01*
X87038454Y-92185000D01*
X88756531Y-92185000D01*
X88800000Y-92189281D01*
X88843469Y-92185000D01*
X88843477Y-92185000D01*
X88973490Y-92172195D01*
X89140313Y-92121589D01*
X89294059Y-92039411D01*
X89428817Y-91928817D01*
X89456534Y-91895044D01*
X90214244Y-91137335D01*
X90296063Y-91259786D01*
X90440226Y-91403949D01*
X90609744Y-91517217D01*
X90798102Y-91595238D01*
X90998061Y-91635012D01*
X91201939Y-91635012D01*
X91401898Y-91595238D01*
X91590256Y-91517217D01*
X91759774Y-91403949D01*
X91903937Y-91259786D01*
X92017205Y-91090268D01*
X92065272Y-90974225D01*
X93616023Y-89423475D01*
X93672877Y-89412166D01*
X93861235Y-89334145D01*
X94030753Y-89220877D01*
X94174916Y-89076714D01*
X94288184Y-88907196D01*
X94366205Y-88718838D01*
X94405979Y-88518879D01*
X94405979Y-88315001D01*
X94366205Y-88115042D01*
X94288184Y-87926684D01*
X94174916Y-87757166D01*
X94030753Y-87613003D01*
X93861235Y-87499735D01*
X93672877Y-87421714D01*
X93472918Y-87381940D01*
X93269040Y-87381940D01*
X93069081Y-87421714D01*
X92880723Y-87499735D01*
X92711205Y-87613003D01*
X92567042Y-87757166D01*
X92453774Y-87926684D01*
X92375753Y-88115042D01*
X92364444Y-88171896D01*
X92319956Y-88216385D01*
X92317205Y-88209744D01*
X92203937Y-88040226D01*
X92059774Y-87896063D01*
X91890256Y-87782795D01*
X91701898Y-87704774D01*
X91501939Y-87665000D01*
X91298061Y-87665000D01*
X91098102Y-87704774D01*
X90909744Y-87782795D01*
X90740226Y-87896063D01*
X90596063Y-88040226D01*
X90482795Y-88209744D01*
X90404774Y-88398102D01*
X90393465Y-88454956D01*
X88433422Y-90415000D01*
X87038454Y-90415000D01*
X86990256Y-90382795D01*
X86801898Y-90304774D01*
X86601939Y-90265000D01*
X86398061Y-90265000D01*
X86198102Y-90304774D01*
X86009744Y-90382795D01*
X85840226Y-90496063D01*
X85696063Y-90640226D01*
X85582795Y-90809744D01*
X85504774Y-90998102D01*
X85465000Y-91198061D01*
X84911784Y-91198061D01*
X84909784Y-91196061D01*
X84740266Y-91082793D01*
X84551908Y-91004772D01*
X84351949Y-90964998D01*
X84148071Y-90964998D01*
X83948112Y-91004772D01*
X83759754Y-91082793D01*
X83590236Y-91196061D01*
X83446073Y-91340224D01*
X83332805Y-91509742D01*
X83259482Y-91686759D01*
X80766695Y-91686759D01*
X80718497Y-91654554D01*
X80530139Y-91576533D01*
X80330180Y-91536759D01*
X80126302Y-91536759D01*
X79926343Y-91576533D01*
X79737985Y-91654554D01*
X79568467Y-91767822D01*
X79424304Y-91911985D01*
X79311036Y-92081503D01*
X79233015Y-92269861D01*
X79193241Y-92469820D01*
X76608735Y-92469820D01*
X76740706Y-92309014D01*
X76878599Y-92051034D01*
X76963513Y-91771111D01*
X76992185Y-91480000D01*
X76970612Y-91260966D01*
X82013018Y-86218561D01*
X82198102Y-86295226D01*
X82398061Y-86335000D01*
X82601939Y-86335000D01*
X82801898Y-86295226D01*
X82990256Y-86217205D01*
X83159774Y-86103937D01*
X83303937Y-85959774D01*
X83417205Y-85790256D01*
X83495226Y-85601898D01*
X83535000Y-85401939D01*
X83535000Y-85198061D01*
X83495226Y-84998102D01*
X83417205Y-84809744D01*
X83303937Y-84640226D01*
X83159774Y-84496063D01*
X82990256Y-84382795D01*
X82801898Y-84304774D01*
X82601939Y-84265000D01*
X82398061Y-84265000D01*
X82198102Y-84304774D01*
X82009744Y-84382795D01*
X81961546Y-84415000D01*
X81723469Y-84415000D01*
X81680000Y-84410719D01*
X81636531Y-84415000D01*
X81636523Y-84415000D01*
X81506510Y-84427805D01*
X81339687Y-84478411D01*
X81185941Y-84560589D01*
X81084953Y-84643468D01*
X81084951Y-84643470D01*
X81051183Y-84671183D01*
X81023470Y-84704951D01*
X76973915Y-88754506D01*
X76963513Y-88648889D01*
X76878599Y-88368966D01*
X76740706Y-88110986D01*
X76555134Y-87884866D01*
X76525313Y-87860393D01*
X76594180Y-87839502D01*
X76704494Y-87780537D01*
X76801185Y-87701185D01*
X76880537Y-87604494D01*
X76939502Y-87494180D01*
X76975812Y-87374482D01*
X76988072Y-87250000D01*
X76988072Y-85550000D01*
X76975812Y-85425518D01*
X76939502Y-85305820D01*
X76880537Y-85195506D01*
X76801185Y-85098815D01*
X76704494Y-85019463D01*
X76594180Y-84960498D01*
X76474482Y-84924188D01*
X76350000Y-84911928D01*
X74650000Y-84911928D01*
X74525518Y-84924188D01*
X74405820Y-84960498D01*
X74295506Y-85019463D01*
X74198815Y-85098815D01*
X74119463Y-85195506D01*
X74060498Y-85305820D01*
X74024188Y-85425518D01*
X74011928Y-85550000D01*
X74011928Y-87250000D01*
X74024188Y-87374482D01*
X74060498Y-87494180D01*
X74119463Y-87604494D01*
X74198815Y-87701185D01*
X74295506Y-87780537D01*
X74405820Y-87839502D01*
X74474687Y-87860393D01*
X74444866Y-87884866D01*
X74259294Y-88110986D01*
X74121401Y-88368966D01*
X74036487Y-88648889D01*
X74007815Y-88940000D01*
X70981583Y-88940000D01*
X71029762Y-84098061D01*
X97265000Y-84098061D01*
X97265000Y-84301939D01*
X97304774Y-84501898D01*
X97382795Y-84690256D01*
X97415001Y-84738456D01*
X97415000Y-91556531D01*
X97410719Y-91600000D01*
X97415000Y-91643469D01*
X97415000Y-91643476D01*
X97427805Y-91773489D01*
X97478411Y-91940312D01*
X97560589Y-92094058D01*
X97671183Y-92228817D01*
X97704956Y-92256534D01*
X100810349Y-95361928D01*
X100700000Y-95361928D01*
X100575518Y-95374188D01*
X100455820Y-95410498D01*
X100345506Y-95469463D01*
X100248815Y-95548815D01*
X100169463Y-95645506D01*
X100110498Y-95755820D01*
X100074188Y-95875518D01*
X100061928Y-96000000D01*
X100061928Y-99000000D01*
X100074188Y-99124482D01*
X100110498Y-99244180D01*
X100169463Y-99354494D01*
X100248815Y-99451185D01*
X100345506Y-99530537D01*
X100455820Y-99589502D01*
X100575518Y-99625812D01*
X100700000Y-99638072D01*
X103700000Y-99638072D01*
X103824482Y-99625812D01*
X103944180Y-99589502D01*
X104054494Y-99530537D01*
X104151185Y-99451185D01*
X104230537Y-99354494D01*
X104289502Y-99244180D01*
X104325812Y-99124482D01*
X104338072Y-99000000D01*
X104338072Y-96000000D01*
X104325812Y-95875518D01*
X104289502Y-95755820D01*
X104230537Y-95645506D01*
X104151185Y-95548815D01*
X104054494Y-95469463D01*
X103944180Y-95410498D01*
X103824482Y-95374188D01*
X103700000Y-95361928D01*
X103075683Y-95361928D01*
X103072195Y-95326510D01*
X103021589Y-95159687D01*
X102939411Y-95005941D01*
X102828817Y-94871183D01*
X102795049Y-94843470D01*
X102487447Y-94535868D01*
X102660451Y-94515334D01*
X103060383Y-94385243D01*
X103356038Y-94227214D01*
X103512048Y-93911653D01*
X102200000Y-92599605D01*
X102185858Y-92613748D01*
X102006253Y-92434143D01*
X102020395Y-92420000D01*
X102379605Y-92420000D01*
X103691653Y-93732048D01*
X104007214Y-93576038D01*
X104198020Y-93201255D01*
X104312044Y-92796449D01*
X104344902Y-92377176D01*
X104295334Y-91959549D01*
X104165243Y-91559617D01*
X104007214Y-91263962D01*
X103691653Y-91107952D01*
X102379605Y-92420000D01*
X102020395Y-92420000D01*
X100708347Y-91107952D01*
X100392786Y-91263962D01*
X100201980Y-91638745D01*
X100087956Y-92043551D01*
X100081210Y-92129632D01*
X99185000Y-91233422D01*
X99185000Y-90928347D01*
X100887952Y-90928347D01*
X102200000Y-92240395D01*
X103512048Y-90928347D01*
X103356038Y-90612786D01*
X102981255Y-90421980D01*
X102576449Y-90307956D01*
X102157176Y-90275098D01*
X101739549Y-90324666D01*
X101339617Y-90454757D01*
X101043962Y-90612786D01*
X100887952Y-90928347D01*
X99185000Y-90928347D01*
X99185000Y-87129721D01*
X100065000Y-87129721D01*
X100065000Y-87550279D01*
X100147047Y-87962756D01*
X100307988Y-88351302D01*
X100541637Y-88700983D01*
X100839017Y-88998363D01*
X101188698Y-89232012D01*
X101577244Y-89392953D01*
X101989721Y-89475000D01*
X102410279Y-89475000D01*
X102822756Y-89392953D01*
X103211302Y-89232012D01*
X103560983Y-88998363D01*
X103858363Y-88700983D01*
X104092012Y-88351302D01*
X104252953Y-87962756D01*
X104335000Y-87550279D01*
X104335000Y-87129721D01*
X104252953Y-86717244D01*
X104092012Y-86328698D01*
X103858363Y-85979017D01*
X103560983Y-85681637D01*
X103211302Y-85447988D01*
X102822756Y-85287047D01*
X102410279Y-85205000D01*
X101989721Y-85205000D01*
X101577244Y-85287047D01*
X101188698Y-85447988D01*
X100839017Y-85681637D01*
X100541637Y-85979017D01*
X100307988Y-86328698D01*
X100147047Y-86717244D01*
X100065000Y-87129721D01*
X99185000Y-87129721D01*
X99185000Y-84738454D01*
X99217205Y-84690256D01*
X99295226Y-84501898D01*
X99335000Y-84301939D01*
X99335000Y-84098061D01*
X99295226Y-83898102D01*
X99217205Y-83709744D01*
X99103937Y-83540226D01*
X98959774Y-83396063D01*
X98790256Y-83282795D01*
X98601898Y-83204774D01*
X98401939Y-83165000D01*
X98198061Y-83165000D01*
X97998102Y-83204774D01*
X97809744Y-83282795D01*
X97640226Y-83396063D01*
X97496063Y-83540226D01*
X97382795Y-83709744D01*
X97304774Y-83898102D01*
X97265000Y-84098061D01*
X71029762Y-84098061D01*
X71038570Y-83212889D01*
X104673000Y-83052607D01*
X104673000Y-100823603D01*
X104673000Y-100823603D01*
G37*
X104673000Y-100823603D02*
X96456588Y-100862758D01*
X96458363Y-100860983D01*
X96692012Y-100511302D01*
X96852953Y-100122756D01*
X96935000Y-99710279D01*
X96935000Y-99289721D01*
X96852953Y-98877244D01*
X96692012Y-98488698D01*
X96458363Y-98139017D01*
X96160983Y-97841637D01*
X95811302Y-97607988D01*
X95422756Y-97447047D01*
X95010279Y-97365000D01*
X94589721Y-97365000D01*
X94177244Y-97447047D01*
X93788698Y-97607988D01*
X93439017Y-97841637D01*
X93141637Y-98139017D01*
X92907988Y-98488698D01*
X92747047Y-98877244D01*
X92665000Y-99289721D01*
X92665000Y-99710279D01*
X92747047Y-100122756D01*
X92907988Y-100511302D01*
X93141637Y-100860983D01*
X93159125Y-100878471D01*
X70861736Y-100984727D01*
X70876938Y-99456890D01*
X74058524Y-99456890D01*
X74103175Y-99604099D01*
X74228359Y-99866920D01*
X74402412Y-100100269D01*
X74618645Y-100295178D01*
X74868748Y-100444157D01*
X75143109Y-100541481D01*
X75373000Y-100420814D01*
X75373000Y-99227000D01*
X75627000Y-99227000D01*
X75627000Y-100420814D01*
X75856891Y-100541481D01*
X76131252Y-100444157D01*
X76381355Y-100295178D01*
X76597588Y-100100269D01*
X76771641Y-99866920D01*
X76896825Y-99604099D01*
X76941476Y-99456890D01*
X76820155Y-99227000D01*
X75627000Y-99227000D01*
X75373000Y-99227000D01*
X74179845Y-99227000D01*
X74058524Y-99456890D01*
X70876938Y-99456890D01*
X70981583Y-88940000D01*
X74007815Y-88940000D01*
X74036487Y-89231111D01*
X74121401Y-89511034D01*
X74259294Y-89769014D01*
X74444866Y-89995134D01*
X74670986Y-90180706D01*
X74725791Y-90210000D01*
X74670986Y-90239294D01*
X74444866Y-90424866D01*
X74259294Y-90650986D01*
X74121401Y-90908966D01*
X74036487Y-91188889D01*
X74007815Y-91480000D01*
X74036487Y-91771111D01*
X74121401Y-92051034D01*
X74259294Y-92309014D01*
X74444866Y-92535134D01*
X74670986Y-92720706D01*
X74725791Y-92750000D01*
X74670986Y-92779294D01*
X74444866Y-92964866D01*
X74259294Y-93190986D01*
X74121401Y-93448966D01*
X74036487Y-93728889D01*
X74007815Y-94020000D01*
X74036487Y-94311111D01*
X74121401Y-94591034D01*
X74259294Y-94849014D01*
X74444866Y-95075134D01*
X74670986Y-95260706D01*
X74725791Y-95290000D01*
X74670986Y-95319294D01*
X74444866Y-95504866D01*
X74259294Y-95730986D01*
X74121401Y-95988966D01*
X74036487Y-96268889D01*
X74007815Y-96560000D01*
X74036487Y-96851111D01*
X74121401Y-97131034D01*
X74259294Y-97389014D01*
X74444866Y-97615134D01*
X74670986Y-97800706D01*
X74735523Y-97835201D01*
X74618645Y-97904822D01*
X74402412Y-98099731D01*
X74228359Y-98333080D01*
X74103175Y-98595901D01*
X74058524Y-98743110D01*
X74179845Y-98973000D01*
X75373000Y-98973000D01*
X75373000Y-98953000D01*
X75627000Y-98953000D01*
X75627000Y-98973000D01*
X76820155Y-98973000D01*
X76941476Y-98743110D01*
X76896825Y-98595901D01*
X76771641Y-98333080D01*
X76597588Y-98099731D01*
X76381355Y-97904822D01*
X76264477Y-97835201D01*
X76329014Y-97800706D01*
X76555134Y-97615134D01*
X76740706Y-97389014D01*
X76878599Y-97131034D01*
X76963513Y-96851111D01*
X76992185Y-96560000D01*
X76963513Y-96268889D01*
X76878599Y-95988966D01*
X76740706Y-95730986D01*
X76555134Y-95504866D01*
X76329014Y-95319294D01*
X76274209Y-95290000D01*
X76329014Y-95260706D01*
X76555134Y-95075134D01*
X76740706Y-94849014D01*
X76878599Y-94591034D01*
X76963513Y-94311111D01*
X76992185Y-94020000D01*
X76963513Y-93728889D01*
X76878599Y-93448966D01*
X76740706Y-93190986D01*
X76555134Y-92964866D01*
X76329014Y-92779294D01*
X76274209Y-92750000D01*
X76329014Y-92720706D01*
X76555134Y-92535134D01*
X76608735Y-92469820D01*
X79193241Y-92469820D01*
X79193241Y-92673698D01*
X79233015Y-92873657D01*
X79311036Y-93062015D01*
X79424304Y-93231533D01*
X79568467Y-93375696D01*
X79737985Y-93488964D01*
X79926343Y-93566985D01*
X80126302Y-93606759D01*
X80330180Y-93606759D01*
X80530139Y-93566985D01*
X80718497Y-93488964D01*
X80766695Y-93456759D01*
X83634780Y-93456759D01*
X83678249Y-93461040D01*
X83721718Y-93456759D01*
X83721726Y-93456759D01*
X83851739Y-93443954D01*
X84018562Y-93393348D01*
X84172308Y-93311170D01*
X84307066Y-93200576D01*
X84334783Y-93166803D01*
X84495053Y-93006533D01*
X84551908Y-92995224D01*
X84740266Y-92917203D01*
X84909784Y-92803935D01*
X85053947Y-92659772D01*
X85167215Y-92490254D01*
X85245236Y-92301896D01*
X85285010Y-92101937D01*
X85285010Y-91898059D01*
X85245236Y-91698100D01*
X85167215Y-91509742D01*
X85053947Y-91340224D01*
X84911784Y-91198061D01*
X85465000Y-91198061D01*
X85465000Y-91401939D01*
X85504774Y-91601898D01*
X85582795Y-91790256D01*
X85696063Y-91959774D01*
X85840226Y-92103937D01*
X86009744Y-92217205D01*
X86198102Y-92295226D01*
X86398061Y-92335000D01*
X86601939Y-92335000D01*
X86801898Y-92295226D01*
X86990256Y-92217205D01*
X87038454Y-92185000D01*
X88756531Y-92185000D01*
X88800000Y-92189281D01*
X88843469Y-92185000D01*
X88843477Y-92185000D01*
X88973490Y-92172195D01*
X89140313Y-92121589D01*
X89294059Y-92039411D01*
X89428817Y-91928817D01*
X89456534Y-91895044D01*
X90214244Y-91137335D01*
X90296063Y-91259786D01*
X90440226Y-91403949D01*
X90609744Y-91517217D01*
X90798102Y-91595238D01*
X90998061Y-91635012D01*
X91201939Y-91635012D01*
X91401898Y-91595238D01*
X91590256Y-91517217D01*
X91759774Y-91403949D01*
X91903937Y-91259786D01*
X92017205Y-91090268D01*
X92065272Y-90974225D01*
X93616023Y-89423475D01*
X93672877Y-89412166D01*
X93861235Y-89334145D01*
X94030753Y-89220877D01*
X94174916Y-89076714D01*
X94288184Y-88907196D01*
X94366205Y-88718838D01*
X94405979Y-88518879D01*
X94405979Y-88315001D01*
X94366205Y-88115042D01*
X94288184Y-87926684D01*
X94174916Y-87757166D01*
X94030753Y-87613003D01*
X93861235Y-87499735D01*
X93672877Y-87421714D01*
X93472918Y-87381940D01*
X93269040Y-87381940D01*
X93069081Y-87421714D01*
X92880723Y-87499735D01*
X92711205Y-87613003D01*
X92567042Y-87757166D01*
X92453774Y-87926684D01*
X92375753Y-88115042D01*
X92364444Y-88171896D01*
X92319956Y-88216385D01*
X92317205Y-88209744D01*
X92203937Y-88040226D01*
X92059774Y-87896063D01*
X91890256Y-87782795D01*
X91701898Y-87704774D01*
X91501939Y-87665000D01*
X91298061Y-87665000D01*
X91098102Y-87704774D01*
X90909744Y-87782795D01*
X90740226Y-87896063D01*
X90596063Y-88040226D01*
X90482795Y-88209744D01*
X90404774Y-88398102D01*
X90393465Y-88454956D01*
X88433422Y-90415000D01*
X87038454Y-90415000D01*
X86990256Y-90382795D01*
X86801898Y-90304774D01*
X86601939Y-90265000D01*
X86398061Y-90265000D01*
X86198102Y-90304774D01*
X86009744Y-90382795D01*
X85840226Y-90496063D01*
X85696063Y-90640226D01*
X85582795Y-90809744D01*
X85504774Y-90998102D01*
X85465000Y-91198061D01*
X84911784Y-91198061D01*
X84909784Y-91196061D01*
X84740266Y-91082793D01*
X84551908Y-91004772D01*
X84351949Y-90964998D01*
X84148071Y-90964998D01*
X83948112Y-91004772D01*
X83759754Y-91082793D01*
X83590236Y-91196061D01*
X83446073Y-91340224D01*
X83332805Y-91509742D01*
X83259482Y-91686759D01*
X80766695Y-91686759D01*
X80718497Y-91654554D01*
X80530139Y-91576533D01*
X80330180Y-91536759D01*
X80126302Y-91536759D01*
X79926343Y-91576533D01*
X79737985Y-91654554D01*
X79568467Y-91767822D01*
X79424304Y-91911985D01*
X79311036Y-92081503D01*
X79233015Y-92269861D01*
X79193241Y-92469820D01*
X76608735Y-92469820D01*
X76740706Y-92309014D01*
X76878599Y-92051034D01*
X76963513Y-91771111D01*
X76992185Y-91480000D01*
X76970612Y-91260966D01*
X82013018Y-86218561D01*
X82198102Y-86295226D01*
X82398061Y-86335000D01*
X82601939Y-86335000D01*
X82801898Y-86295226D01*
X82990256Y-86217205D01*
X83159774Y-86103937D01*
X83303937Y-85959774D01*
X83417205Y-85790256D01*
X83495226Y-85601898D01*
X83535000Y-85401939D01*
X83535000Y-85198061D01*
X83495226Y-84998102D01*
X83417205Y-84809744D01*
X83303937Y-84640226D01*
X83159774Y-84496063D01*
X82990256Y-84382795D01*
X82801898Y-84304774D01*
X82601939Y-84265000D01*
X82398061Y-84265000D01*
X82198102Y-84304774D01*
X82009744Y-84382795D01*
X81961546Y-84415000D01*
X81723469Y-84415000D01*
X81680000Y-84410719D01*
X81636531Y-84415000D01*
X81636523Y-84415000D01*
X81506510Y-84427805D01*
X81339687Y-84478411D01*
X81185941Y-84560589D01*
X81084953Y-84643468D01*
X81084951Y-84643470D01*
X81051183Y-84671183D01*
X81023470Y-84704951D01*
X76973915Y-88754506D01*
X76963513Y-88648889D01*
X76878599Y-88368966D01*
X76740706Y-88110986D01*
X76555134Y-87884866D01*
X76525313Y-87860393D01*
X76594180Y-87839502D01*
X76704494Y-87780537D01*
X76801185Y-87701185D01*
X76880537Y-87604494D01*
X76939502Y-87494180D01*
X76975812Y-87374482D01*
X76988072Y-87250000D01*
X76988072Y-85550000D01*
X76975812Y-85425518D01*
X76939502Y-85305820D01*
X76880537Y-85195506D01*
X76801185Y-85098815D01*
X76704494Y-85019463D01*
X76594180Y-84960498D01*
X76474482Y-84924188D01*
X76350000Y-84911928D01*
X74650000Y-84911928D01*
X74525518Y-84924188D01*
X74405820Y-84960498D01*
X74295506Y-85019463D01*
X74198815Y-85098815D01*
X74119463Y-85195506D01*
X74060498Y-85305820D01*
X74024188Y-85425518D01*
X74011928Y-85550000D01*
X74011928Y-87250000D01*
X74024188Y-87374482D01*
X74060498Y-87494180D01*
X74119463Y-87604494D01*
X74198815Y-87701185D01*
X74295506Y-87780537D01*
X74405820Y-87839502D01*
X74474687Y-87860393D01*
X74444866Y-87884866D01*
X74259294Y-88110986D01*
X74121401Y-88368966D01*
X74036487Y-88648889D01*
X74007815Y-88940000D01*
X70981583Y-88940000D01*
X71029762Y-84098061D01*
X97265000Y-84098061D01*
X97265000Y-84301939D01*
X97304774Y-84501898D01*
X97382795Y-84690256D01*
X97415001Y-84738456D01*
X97415000Y-91556531D01*
X97410719Y-91600000D01*
X97415000Y-91643469D01*
X97415000Y-91643476D01*
X97427805Y-91773489D01*
X97478411Y-91940312D01*
X97560589Y-92094058D01*
X97671183Y-92228817D01*
X97704956Y-92256534D01*
X100810349Y-95361928D01*
X100700000Y-95361928D01*
X100575518Y-95374188D01*
X100455820Y-95410498D01*
X100345506Y-95469463D01*
X100248815Y-95548815D01*
X100169463Y-95645506D01*
X100110498Y-95755820D01*
X100074188Y-95875518D01*
X100061928Y-96000000D01*
X100061928Y-99000000D01*
X100074188Y-99124482D01*
X100110498Y-99244180D01*
X100169463Y-99354494D01*
X100248815Y-99451185D01*
X100345506Y-99530537D01*
X100455820Y-99589502D01*
X100575518Y-99625812D01*
X100700000Y-99638072D01*
X103700000Y-99638072D01*
X103824482Y-99625812D01*
X103944180Y-99589502D01*
X104054494Y-99530537D01*
X104151185Y-99451185D01*
X104230537Y-99354494D01*
X104289502Y-99244180D01*
X104325812Y-99124482D01*
X104338072Y-99000000D01*
X104338072Y-96000000D01*
X104325812Y-95875518D01*
X104289502Y-95755820D01*
X104230537Y-95645506D01*
X104151185Y-95548815D01*
X104054494Y-95469463D01*
X103944180Y-95410498D01*
X103824482Y-95374188D01*
X103700000Y-95361928D01*
X103075683Y-95361928D01*
X103072195Y-95326510D01*
X103021589Y-95159687D01*
X102939411Y-95005941D01*
X102828817Y-94871183D01*
X102795049Y-94843470D01*
X102487447Y-94535868D01*
X102660451Y-94515334D01*
X103060383Y-94385243D01*
X103356038Y-94227214D01*
X103512048Y-93911653D01*
X102200000Y-92599605D01*
X102185858Y-92613748D01*
X102006253Y-92434143D01*
X102020395Y-92420000D01*
X102379605Y-92420000D01*
X103691653Y-93732048D01*
X104007214Y-93576038D01*
X104198020Y-93201255D01*
X104312044Y-92796449D01*
X104344902Y-92377176D01*
X104295334Y-91959549D01*
X104165243Y-91559617D01*
X104007214Y-91263962D01*
X103691653Y-91107952D01*
X102379605Y-92420000D01*
X102020395Y-92420000D01*
X100708347Y-91107952D01*
X100392786Y-91263962D01*
X100201980Y-91638745D01*
X100087956Y-92043551D01*
X100081210Y-92129632D01*
X99185000Y-91233422D01*
X99185000Y-90928347D01*
X100887952Y-90928347D01*
X102200000Y-92240395D01*
X103512048Y-90928347D01*
X103356038Y-90612786D01*
X102981255Y-90421980D01*
X102576449Y-90307956D01*
X102157176Y-90275098D01*
X101739549Y-90324666D01*
X101339617Y-90454757D01*
X101043962Y-90612786D01*
X100887952Y-90928347D01*
X99185000Y-90928347D01*
X99185000Y-87129721D01*
X100065000Y-87129721D01*
X100065000Y-87550279D01*
X100147047Y-87962756D01*
X100307988Y-88351302D01*
X100541637Y-88700983D01*
X100839017Y-88998363D01*
X101188698Y-89232012D01*
X101577244Y-89392953D01*
X101989721Y-89475000D01*
X102410279Y-89475000D01*
X102822756Y-89392953D01*
X103211302Y-89232012D01*
X103560983Y-88998363D01*
X103858363Y-88700983D01*
X104092012Y-88351302D01*
X104252953Y-87962756D01*
X104335000Y-87550279D01*
X104335000Y-87129721D01*
X104252953Y-86717244D01*
X104092012Y-86328698D01*
X103858363Y-85979017D01*
X103560983Y-85681637D01*
X103211302Y-85447988D01*
X102822756Y-85287047D01*
X102410279Y-85205000D01*
X101989721Y-85205000D01*
X101577244Y-85287047D01*
X101188698Y-85447988D01*
X100839017Y-85681637D01*
X100541637Y-85979017D01*
X100307988Y-86328698D01*
X100147047Y-86717244D01*
X100065000Y-87129721D01*
X99185000Y-87129721D01*
X99185000Y-84738454D01*
X99217205Y-84690256D01*
X99295226Y-84501898D01*
X99335000Y-84301939D01*
X99335000Y-84098061D01*
X99295226Y-83898102D01*
X99217205Y-83709744D01*
X99103937Y-83540226D01*
X98959774Y-83396063D01*
X98790256Y-83282795D01*
X98601898Y-83204774D01*
X98401939Y-83165000D01*
X98198061Y-83165000D01*
X97998102Y-83204774D01*
X97809744Y-83282795D01*
X97640226Y-83396063D01*
X97496063Y-83540226D01*
X97382795Y-83709744D01*
X97304774Y-83898102D01*
X97265000Y-84098061D01*
X71029762Y-84098061D01*
X71038570Y-83212889D01*
X104673000Y-83052607D01*
X104673000Y-100823603D01*
M02*
