G04 #@! TF.GenerationSoftware,KiCad,Pcbnew,(5.1.0)-1*
G04 #@! TF.CreationDate,2019-12-29T21:42:19+00:00*
G04 #@! TF.ProjectId,WebastoWBUSInterface,57656261-7374-46f5-9742-5553496e7465,rev?*
G04 #@! TF.SameCoordinates,Original*
G04 #@! TF.FileFunction,Soldermask,Bot*
G04 #@! TF.FilePolarity,Negative*
%FSLAX46Y46*%
G04 Gerber Fmt 4.6, Leading zero omitted, Abs format (unit mm)*
G04 Created by KiCad (PCBNEW (5.1.0)-1) date 2019-12-29 21:42:19*
%MOMM*%
%LPD*%
G04 APERTURE LIST*
%ADD10C,0.100000*%
G04 APERTURE END LIST*
D10*
G36*
X75610443Y-97305519D02*
G01*
X75676627Y-97312037D01*
X75846466Y-97363557D01*
X76002991Y-97447222D01*
X76007594Y-97451000D01*
X76140186Y-97559814D01*
X76212744Y-97648228D01*
X76252778Y-97697009D01*
X76336443Y-97853534D01*
X76387963Y-98023373D01*
X76405359Y-98200000D01*
X76387963Y-98376627D01*
X76336443Y-98546466D01*
X76252778Y-98702991D01*
X76223448Y-98738729D01*
X76140186Y-98840186D01*
X76038729Y-98923448D01*
X76002991Y-98952778D01*
X75846466Y-99036443D01*
X75676627Y-99087963D01*
X75610443Y-99094481D01*
X75544260Y-99101000D01*
X75455740Y-99101000D01*
X75389557Y-99094481D01*
X75323373Y-99087963D01*
X75153534Y-99036443D01*
X74997009Y-98952778D01*
X74961271Y-98923448D01*
X74859814Y-98840186D01*
X74776552Y-98738729D01*
X74747222Y-98702991D01*
X74663557Y-98546466D01*
X74612037Y-98376627D01*
X74594641Y-98200000D01*
X74612037Y-98023373D01*
X74663557Y-97853534D01*
X74747222Y-97697009D01*
X74787256Y-97648228D01*
X74859814Y-97559814D01*
X74992406Y-97451000D01*
X74997009Y-97447222D01*
X75153534Y-97363557D01*
X75323373Y-97312037D01*
X75389557Y-97305519D01*
X75455740Y-97299000D01*
X75544260Y-97299000D01*
X75610443Y-97305519D01*
X75610443Y-97305519D01*
G37*
G36*
X90248228Y-96681703D02*
G01*
X90403100Y-96745853D01*
X90542481Y-96838985D01*
X90661015Y-96957519D01*
X90754147Y-97096900D01*
X90818297Y-97251772D01*
X90851000Y-97416184D01*
X90851000Y-97583816D01*
X90818297Y-97748228D01*
X90754147Y-97903100D01*
X90661015Y-98042481D01*
X90542481Y-98161015D01*
X90403100Y-98254147D01*
X90248228Y-98318297D01*
X90083816Y-98351000D01*
X89916184Y-98351000D01*
X89751772Y-98318297D01*
X89596900Y-98254147D01*
X89457519Y-98161015D01*
X89338985Y-98042481D01*
X89245853Y-97903100D01*
X89181703Y-97748228D01*
X89149000Y-97583816D01*
X89149000Y-97416184D01*
X89181703Y-97251772D01*
X89245853Y-97096900D01*
X89338985Y-96957519D01*
X89457519Y-96838985D01*
X89596900Y-96745853D01*
X89751772Y-96681703D01*
X89916184Y-96649000D01*
X90083816Y-96649000D01*
X90248228Y-96681703D01*
X90248228Y-96681703D01*
G37*
G36*
X82546823Y-96661313D02*
G01*
X82707242Y-96709976D01*
X82774361Y-96745852D01*
X82855078Y-96788996D01*
X82984659Y-96895341D01*
X83091004Y-97024922D01*
X83091005Y-97024924D01*
X83170024Y-97172758D01*
X83218687Y-97333177D01*
X83235117Y-97500000D01*
X83218687Y-97666823D01*
X83170024Y-97827242D01*
X83129477Y-97903100D01*
X83091004Y-97975078D01*
X82984659Y-98104659D01*
X82855078Y-98211004D01*
X82855076Y-98211005D01*
X82707242Y-98290024D01*
X82546823Y-98338687D01*
X82421804Y-98351000D01*
X82338196Y-98351000D01*
X82213177Y-98338687D01*
X82052758Y-98290024D01*
X81904924Y-98211005D01*
X81904922Y-98211004D01*
X81775341Y-98104659D01*
X81668996Y-97975078D01*
X81630523Y-97903100D01*
X81589976Y-97827242D01*
X81541313Y-97666823D01*
X81524883Y-97500000D01*
X81541313Y-97333177D01*
X81589976Y-97172758D01*
X81668995Y-97024924D01*
X81668996Y-97024922D01*
X81775341Y-96895341D01*
X81904922Y-96788996D01*
X81985639Y-96745852D01*
X82052758Y-96709976D01*
X82213177Y-96661313D01*
X82338196Y-96649000D01*
X82421804Y-96649000D01*
X82546823Y-96661313D01*
X82546823Y-96661313D01*
G37*
G36*
X93448228Y-96581703D02*
G01*
X93603100Y-96645853D01*
X93742481Y-96738985D01*
X93861015Y-96857519D01*
X93954147Y-96996900D01*
X94018297Y-97151772D01*
X94051000Y-97316184D01*
X94051000Y-97483816D01*
X94018297Y-97648228D01*
X93954147Y-97803100D01*
X93861015Y-97942481D01*
X93742481Y-98061015D01*
X93603100Y-98154147D01*
X93448228Y-98218297D01*
X93283816Y-98251000D01*
X93116184Y-98251000D01*
X92951772Y-98218297D01*
X92796900Y-98154147D01*
X92657519Y-98061015D01*
X92538985Y-97942481D01*
X92445853Y-97803100D01*
X92381703Y-97648228D01*
X92349000Y-97483816D01*
X92349000Y-97316184D01*
X92381703Y-97151772D01*
X92445853Y-96996900D01*
X92538985Y-96857519D01*
X92657519Y-96738985D01*
X92796900Y-96645853D01*
X92951772Y-96581703D01*
X93116184Y-96549000D01*
X93283816Y-96549000D01*
X93448228Y-96581703D01*
X93448228Y-96581703D01*
G37*
G36*
X100986823Y-96561313D02*
G01*
X101147242Y-96609976D01*
X101279906Y-96680886D01*
X101295078Y-96688996D01*
X101424659Y-96795341D01*
X101531004Y-96924922D01*
X101531005Y-96924924D01*
X101610024Y-97072758D01*
X101658687Y-97233177D01*
X101675117Y-97400000D01*
X101658687Y-97566823D01*
X101610024Y-97727242D01*
X101542519Y-97853534D01*
X101531004Y-97875078D01*
X101424659Y-98004659D01*
X101295078Y-98111004D01*
X101295076Y-98111005D01*
X101147242Y-98190024D01*
X100986823Y-98238687D01*
X100861804Y-98251000D01*
X100778196Y-98251000D01*
X100653177Y-98238687D01*
X100492758Y-98190024D01*
X100344924Y-98111005D01*
X100344922Y-98111004D01*
X100215341Y-98004659D01*
X100108996Y-97875078D01*
X100097481Y-97853534D01*
X100029976Y-97727242D01*
X99981313Y-97566823D01*
X99964883Y-97400000D01*
X99981313Y-97233177D01*
X100029976Y-97072758D01*
X100108995Y-96924924D01*
X100108996Y-96924922D01*
X100215341Y-96795341D01*
X100344922Y-96688996D01*
X100360094Y-96680886D01*
X100492758Y-96609976D01*
X100653177Y-96561313D01*
X100778196Y-96549000D01*
X100861804Y-96549000D01*
X100986823Y-96561313D01*
X100986823Y-96561313D01*
G37*
G36*
X111802585Y-94978802D02*
G01*
X111952410Y-95008604D01*
X112234674Y-95125521D01*
X112488705Y-95295259D01*
X112704741Y-95511295D01*
X112874479Y-95765326D01*
X112991396Y-96047590D01*
X112991396Y-96047591D01*
X113051000Y-96347239D01*
X113051000Y-96652761D01*
X113043792Y-96688996D01*
X112991396Y-96952410D01*
X112874479Y-97234674D01*
X112704741Y-97488705D01*
X112488705Y-97704741D01*
X112234674Y-97874479D01*
X111952410Y-97991396D01*
X111885732Y-98004659D01*
X111652761Y-98051000D01*
X111347239Y-98051000D01*
X111114268Y-98004659D01*
X111047590Y-97991396D01*
X110765326Y-97874479D01*
X110511295Y-97704741D01*
X110295259Y-97488705D01*
X110125521Y-97234674D01*
X110008604Y-96952410D01*
X109956208Y-96688996D01*
X109949000Y-96652761D01*
X109949000Y-96347239D01*
X110008604Y-96047591D01*
X110008604Y-96047590D01*
X110125521Y-95765326D01*
X110295259Y-95511295D01*
X110511295Y-95295259D01*
X110765326Y-95125521D01*
X111047590Y-95008604D01*
X111197415Y-94978802D01*
X111347239Y-94949000D01*
X111652761Y-94949000D01*
X111802585Y-94978802D01*
X111802585Y-94978802D01*
G37*
G36*
X105351000Y-97451000D02*
G01*
X103449000Y-97451000D01*
X103449000Y-95549000D01*
X105351000Y-95549000D01*
X105351000Y-97451000D01*
X105351000Y-97451000D01*
G37*
G36*
X75610442Y-94765518D02*
G01*
X75676627Y-94772037D01*
X75846466Y-94823557D01*
X76002991Y-94907222D01*
X76007594Y-94911000D01*
X76140186Y-95019814D01*
X76223448Y-95121271D01*
X76252778Y-95157009D01*
X76336443Y-95313534D01*
X76387963Y-95483373D01*
X76405359Y-95660000D01*
X76387963Y-95836627D01*
X76336443Y-96006466D01*
X76252778Y-96162991D01*
X76223448Y-96198729D01*
X76140186Y-96300186D01*
X76038729Y-96383448D01*
X76002991Y-96412778D01*
X75846466Y-96496443D01*
X75676627Y-96547963D01*
X75610443Y-96554481D01*
X75544260Y-96561000D01*
X75455740Y-96561000D01*
X75389557Y-96554481D01*
X75323373Y-96547963D01*
X75153534Y-96496443D01*
X74997009Y-96412778D01*
X74961271Y-96383448D01*
X74859814Y-96300186D01*
X74776552Y-96198729D01*
X74747222Y-96162991D01*
X74663557Y-96006466D01*
X74612037Y-95836627D01*
X74594641Y-95660000D01*
X74612037Y-95483373D01*
X74663557Y-95313534D01*
X74747222Y-95157009D01*
X74776552Y-95121271D01*
X74859814Y-95019814D01*
X74992406Y-94911000D01*
X74997009Y-94907222D01*
X75153534Y-94823557D01*
X75323373Y-94772037D01*
X75389558Y-94765518D01*
X75455740Y-94759000D01*
X75544260Y-94759000D01*
X75610442Y-94765518D01*
X75610442Y-94765518D01*
G37*
G36*
X104677395Y-93045546D02*
G01*
X104850466Y-93117234D01*
X104865444Y-93127242D01*
X105006227Y-93221310D01*
X105138690Y-93353773D01*
X105138691Y-93353775D01*
X105242766Y-93509534D01*
X105314454Y-93682605D01*
X105351000Y-93866333D01*
X105351000Y-94053667D01*
X105314454Y-94237395D01*
X105242766Y-94410466D01*
X105242765Y-94410467D01*
X105138690Y-94566227D01*
X105006227Y-94698690D01*
X104927818Y-94751081D01*
X104850466Y-94802766D01*
X104677395Y-94874454D01*
X104493667Y-94911000D01*
X104306333Y-94911000D01*
X104122605Y-94874454D01*
X103949534Y-94802766D01*
X103872182Y-94751081D01*
X103793773Y-94698690D01*
X103661310Y-94566227D01*
X103557235Y-94410467D01*
X103557234Y-94410466D01*
X103485546Y-94237395D01*
X103449000Y-94053667D01*
X103449000Y-93866333D01*
X103485546Y-93682605D01*
X103557234Y-93509534D01*
X103661309Y-93353775D01*
X103661310Y-93353773D01*
X103793773Y-93221310D01*
X103934556Y-93127242D01*
X103949534Y-93117234D01*
X104122605Y-93045546D01*
X104306333Y-93009000D01*
X104493667Y-93009000D01*
X104677395Y-93045546D01*
X104677395Y-93045546D01*
G37*
G36*
X75610443Y-92225519D02*
G01*
X75676627Y-92232037D01*
X75846466Y-92283557D01*
X76002991Y-92367222D01*
X76038729Y-92396552D01*
X76140186Y-92479814D01*
X76223448Y-92581271D01*
X76252778Y-92617009D01*
X76336443Y-92773534D01*
X76387963Y-92943373D01*
X76405359Y-93120000D01*
X76387963Y-93296627D01*
X76336443Y-93466466D01*
X76336442Y-93466468D01*
X76312637Y-93511004D01*
X76252778Y-93622991D01*
X76229791Y-93651000D01*
X76140186Y-93760186D01*
X76038729Y-93843448D01*
X76002991Y-93872778D01*
X75846466Y-93956443D01*
X75676627Y-94007963D01*
X75610442Y-94014482D01*
X75544260Y-94021000D01*
X75455740Y-94021000D01*
X75389558Y-94014482D01*
X75323373Y-94007963D01*
X75153534Y-93956443D01*
X74997009Y-93872778D01*
X74961271Y-93843448D01*
X74859814Y-93760186D01*
X74770209Y-93651000D01*
X74747222Y-93622991D01*
X74687363Y-93511004D01*
X74663558Y-93466468D01*
X74663557Y-93466466D01*
X74612037Y-93296627D01*
X74594641Y-93120000D01*
X74612037Y-92943373D01*
X74663557Y-92773534D01*
X74747222Y-92617009D01*
X74776552Y-92581271D01*
X74859814Y-92479814D01*
X74961271Y-92396552D01*
X74997009Y-92367222D01*
X75153534Y-92283557D01*
X75323373Y-92232037D01*
X75389557Y-92225519D01*
X75455740Y-92219000D01*
X75544260Y-92219000D01*
X75610443Y-92225519D01*
X75610443Y-92225519D01*
G37*
G36*
X96348228Y-91981703D02*
G01*
X96503100Y-92045853D01*
X96642481Y-92138985D01*
X96761015Y-92257519D01*
X96854147Y-92396900D01*
X96918297Y-92551772D01*
X96951000Y-92716184D01*
X96951000Y-92883816D01*
X96918297Y-93048228D01*
X96854147Y-93203100D01*
X96761015Y-93342481D01*
X96642481Y-93461015D01*
X96503100Y-93554147D01*
X96348228Y-93618297D01*
X96183816Y-93651000D01*
X96016184Y-93651000D01*
X95851772Y-93618297D01*
X95696900Y-93554147D01*
X95557519Y-93461015D01*
X95438985Y-93342481D01*
X95345853Y-93203100D01*
X95281703Y-93048228D01*
X95249000Y-92883816D01*
X95249000Y-92716184D01*
X95281703Y-92551772D01*
X95345853Y-92396900D01*
X95438985Y-92257519D01*
X95557519Y-92138985D01*
X95696900Y-92045853D01*
X95851772Y-91981703D01*
X96016184Y-91949000D01*
X96183816Y-91949000D01*
X96348228Y-91981703D01*
X96348228Y-91981703D01*
G37*
G36*
X78546823Y-91961313D02*
G01*
X78707242Y-92009976D01*
X78774361Y-92045852D01*
X78855078Y-92088996D01*
X78984659Y-92195341D01*
X79091004Y-92324922D01*
X79091005Y-92324924D01*
X79170024Y-92472758D01*
X79170025Y-92472761D01*
X79172165Y-92479815D01*
X79218687Y-92633177D01*
X79235117Y-92800000D01*
X79218687Y-92966823D01*
X79170024Y-93127242D01*
X79099114Y-93259906D01*
X79091004Y-93275078D01*
X78984659Y-93404659D01*
X78855078Y-93511004D01*
X78855076Y-93511005D01*
X78707242Y-93590024D01*
X78546823Y-93638687D01*
X78421804Y-93651000D01*
X78338196Y-93651000D01*
X78213177Y-93638687D01*
X78052758Y-93590024D01*
X77904924Y-93511005D01*
X77904922Y-93511004D01*
X77775341Y-93404659D01*
X77668996Y-93275078D01*
X77660886Y-93259906D01*
X77589976Y-93127242D01*
X77541313Y-92966823D01*
X77524883Y-92800000D01*
X77541313Y-92633177D01*
X77587835Y-92479815D01*
X77589975Y-92472761D01*
X77589976Y-92472758D01*
X77668995Y-92324924D01*
X77668996Y-92324922D01*
X77775341Y-92195341D01*
X77904922Y-92088996D01*
X77985639Y-92045852D01*
X78052758Y-92009976D01*
X78213177Y-91961313D01*
X78338196Y-91949000D01*
X78421804Y-91949000D01*
X78546823Y-91961313D01*
X78546823Y-91961313D01*
G37*
G36*
X88646823Y-91961313D02*
G01*
X88807242Y-92009976D01*
X88874361Y-92045852D01*
X88955078Y-92088996D01*
X89084659Y-92195341D01*
X89191004Y-92324922D01*
X89191005Y-92324924D01*
X89270024Y-92472758D01*
X89270025Y-92472761D01*
X89272165Y-92479815D01*
X89318687Y-92633177D01*
X89335117Y-92800000D01*
X89318687Y-92966823D01*
X89270024Y-93127242D01*
X89199114Y-93259906D01*
X89191004Y-93275078D01*
X89084659Y-93404659D01*
X88955078Y-93511004D01*
X88955076Y-93511005D01*
X88807242Y-93590024D01*
X88646823Y-93638687D01*
X88521804Y-93651000D01*
X88438196Y-93651000D01*
X88313177Y-93638687D01*
X88152758Y-93590024D01*
X88004924Y-93511005D01*
X88004922Y-93511004D01*
X87875341Y-93404659D01*
X87768996Y-93275078D01*
X87760886Y-93259906D01*
X87689976Y-93127242D01*
X87641313Y-92966823D01*
X87624883Y-92800000D01*
X87641313Y-92633177D01*
X87687835Y-92479815D01*
X87689975Y-92472761D01*
X87689976Y-92472758D01*
X87768995Y-92324924D01*
X87768996Y-92324922D01*
X87875341Y-92195341D01*
X88004922Y-92088996D01*
X88085639Y-92045852D01*
X88152758Y-92009976D01*
X88313177Y-91961313D01*
X88438196Y-91949000D01*
X88521804Y-91949000D01*
X88646823Y-91961313D01*
X88646823Y-91961313D01*
G37*
G36*
X86248228Y-91981703D02*
G01*
X86403100Y-92045853D01*
X86542481Y-92138985D01*
X86661015Y-92257519D01*
X86754147Y-92396900D01*
X86818297Y-92551772D01*
X86851000Y-92716184D01*
X86851000Y-92883816D01*
X86818297Y-93048228D01*
X86754147Y-93203100D01*
X86661015Y-93342481D01*
X86542481Y-93461015D01*
X86403100Y-93554147D01*
X86248228Y-93618297D01*
X86083816Y-93651000D01*
X85916184Y-93651000D01*
X85751772Y-93618297D01*
X85596900Y-93554147D01*
X85457519Y-93461015D01*
X85338985Y-93342481D01*
X85245853Y-93203100D01*
X85181703Y-93048228D01*
X85149000Y-92883816D01*
X85149000Y-92716184D01*
X85181703Y-92551772D01*
X85245853Y-92396900D01*
X85338985Y-92257519D01*
X85457519Y-92138985D01*
X85596900Y-92045853D01*
X85751772Y-91981703D01*
X85916184Y-91949000D01*
X86083816Y-91949000D01*
X86248228Y-91981703D01*
X86248228Y-91981703D01*
G37*
G36*
X75610443Y-89685519D02*
G01*
X75676627Y-89692037D01*
X75846466Y-89743557D01*
X76002991Y-89827222D01*
X76038729Y-89856552D01*
X76140186Y-89939814D01*
X76204594Y-90018297D01*
X76252778Y-90077009D01*
X76336443Y-90233534D01*
X76387963Y-90403373D01*
X76405359Y-90580000D01*
X76387963Y-90756627D01*
X76336443Y-90926466D01*
X76252778Y-91082991D01*
X76223448Y-91118729D01*
X76140186Y-91220186D01*
X76038729Y-91303448D01*
X76002991Y-91332778D01*
X75846466Y-91416443D01*
X75676627Y-91467963D01*
X75610442Y-91474482D01*
X75544260Y-91481000D01*
X75455740Y-91481000D01*
X75389558Y-91474482D01*
X75323373Y-91467963D01*
X75153534Y-91416443D01*
X74997009Y-91332778D01*
X74961271Y-91303448D01*
X74859814Y-91220186D01*
X74776552Y-91118729D01*
X74747222Y-91082991D01*
X74663557Y-90926466D01*
X74612037Y-90756627D01*
X74594641Y-90580000D01*
X74612037Y-90403373D01*
X74663557Y-90233534D01*
X74747222Y-90077009D01*
X74795406Y-90018297D01*
X74859814Y-89939814D01*
X74961271Y-89856552D01*
X74997009Y-89827222D01*
X75153534Y-89743557D01*
X75323373Y-89692037D01*
X75389557Y-89685519D01*
X75455740Y-89679000D01*
X75544260Y-89679000D01*
X75610443Y-89685519D01*
X75610443Y-89685519D01*
G37*
G36*
X112251000Y-90651000D02*
G01*
X109149000Y-90651000D01*
X109149000Y-87549000D01*
X112251000Y-87549000D01*
X112251000Y-90651000D01*
X112251000Y-90651000D01*
G37*
G36*
X96648228Y-88381703D02*
G01*
X96803100Y-88445853D01*
X96942481Y-88538985D01*
X97061015Y-88657519D01*
X97154147Y-88796900D01*
X97218297Y-88951772D01*
X97251000Y-89116184D01*
X97251000Y-89283816D01*
X97218297Y-89448228D01*
X97154147Y-89603100D01*
X97061015Y-89742481D01*
X96942481Y-89861015D01*
X96803100Y-89954147D01*
X96648228Y-90018297D01*
X96483816Y-90051000D01*
X96316184Y-90051000D01*
X96151772Y-90018297D01*
X95996900Y-89954147D01*
X95857519Y-89861015D01*
X95738985Y-89742481D01*
X95645853Y-89603100D01*
X95581703Y-89448228D01*
X95549000Y-89283816D01*
X95549000Y-89116184D01*
X95581703Y-88951772D01*
X95645853Y-88796900D01*
X95738985Y-88657519D01*
X95857519Y-88538985D01*
X95996900Y-88445853D01*
X96151772Y-88381703D01*
X96316184Y-88349000D01*
X96483816Y-88349000D01*
X96648228Y-88381703D01*
X96648228Y-88381703D01*
G37*
G36*
X104186823Y-88361313D02*
G01*
X104347242Y-88409976D01*
X104414361Y-88445852D01*
X104495078Y-88488996D01*
X104624659Y-88595341D01*
X104731004Y-88724922D01*
X104731005Y-88724924D01*
X104810024Y-88872758D01*
X104858687Y-89033177D01*
X104875117Y-89200000D01*
X104858687Y-89366823D01*
X104810024Y-89527242D01*
X104769477Y-89603100D01*
X104731004Y-89675078D01*
X104624659Y-89804659D01*
X104495078Y-89911004D01*
X104495076Y-89911005D01*
X104347242Y-89990024D01*
X104186823Y-90038687D01*
X104061804Y-90051000D01*
X103978196Y-90051000D01*
X103853177Y-90038687D01*
X103692758Y-89990024D01*
X103544924Y-89911005D01*
X103544922Y-89911004D01*
X103415341Y-89804659D01*
X103308996Y-89675078D01*
X103270523Y-89603100D01*
X103229976Y-89527242D01*
X103181313Y-89366823D01*
X103164883Y-89200000D01*
X103181313Y-89033177D01*
X103229976Y-88872758D01*
X103308995Y-88724924D01*
X103308996Y-88724922D01*
X103415341Y-88595341D01*
X103544922Y-88488996D01*
X103625639Y-88445852D01*
X103692758Y-88409976D01*
X103853177Y-88361313D01*
X103978196Y-88349000D01*
X104061804Y-88349000D01*
X104186823Y-88361313D01*
X104186823Y-88361313D01*
G37*
G36*
X91551000Y-89051000D02*
G01*
X90449000Y-89051000D01*
X90449000Y-87949000D01*
X91551000Y-87949000D01*
X91551000Y-89051000D01*
X91551000Y-89051000D01*
G37*
G36*
X75610442Y-87145518D02*
G01*
X75676627Y-87152037D01*
X75846466Y-87203557D01*
X76002991Y-87287222D01*
X76038729Y-87316552D01*
X76140186Y-87399814D01*
X76215015Y-87490995D01*
X76252778Y-87537009D01*
X76336443Y-87693534D01*
X76387963Y-87863373D01*
X76405359Y-88040000D01*
X76387963Y-88216627D01*
X76336443Y-88386466D01*
X76252778Y-88542991D01*
X76223448Y-88578729D01*
X76140186Y-88680186D01*
X76038729Y-88763448D01*
X76002991Y-88792778D01*
X76002989Y-88792779D01*
X75853355Y-88872761D01*
X75846466Y-88876443D01*
X75676627Y-88927963D01*
X75610442Y-88934482D01*
X75544260Y-88941000D01*
X75455740Y-88941000D01*
X75389558Y-88934482D01*
X75323373Y-88927963D01*
X75153534Y-88876443D01*
X75146646Y-88872761D01*
X74997011Y-88792779D01*
X74997009Y-88792778D01*
X74961271Y-88763448D01*
X74859814Y-88680186D01*
X74776552Y-88578729D01*
X74747222Y-88542991D01*
X74663557Y-88386466D01*
X74612037Y-88216627D01*
X74594641Y-88040000D01*
X74612037Y-87863373D01*
X74663557Y-87693534D01*
X74747222Y-87537009D01*
X74784985Y-87490995D01*
X74859814Y-87399814D01*
X74961271Y-87316552D01*
X74997009Y-87287222D01*
X75153534Y-87203557D01*
X75323373Y-87152037D01*
X75389558Y-87145518D01*
X75455740Y-87139000D01*
X75544260Y-87139000D01*
X75610442Y-87145518D01*
X75610442Y-87145518D01*
G37*
G36*
X86448228Y-86181703D02*
G01*
X86603100Y-86245853D01*
X86742481Y-86338985D01*
X86861015Y-86457519D01*
X86954147Y-86596900D01*
X87018297Y-86751772D01*
X87051000Y-86916184D01*
X87051000Y-87083816D01*
X87018297Y-87248228D01*
X86954147Y-87403100D01*
X86861015Y-87542481D01*
X86742481Y-87661015D01*
X86603100Y-87754147D01*
X86448228Y-87818297D01*
X86283816Y-87851000D01*
X86116184Y-87851000D01*
X85951772Y-87818297D01*
X85796900Y-87754147D01*
X85657519Y-87661015D01*
X85538985Y-87542481D01*
X85445853Y-87403100D01*
X85381703Y-87248228D01*
X85349000Y-87083816D01*
X85349000Y-86916184D01*
X85381703Y-86751772D01*
X85445853Y-86596900D01*
X85538985Y-86457519D01*
X85657519Y-86338985D01*
X85796900Y-86245853D01*
X85951772Y-86181703D01*
X86116184Y-86149000D01*
X86283816Y-86149000D01*
X86448228Y-86181703D01*
X86448228Y-86181703D01*
G37*
G36*
X78746823Y-86161313D02*
G01*
X78907242Y-86209976D01*
X78974361Y-86245852D01*
X79055078Y-86288996D01*
X79184659Y-86395341D01*
X79291004Y-86524922D01*
X79291005Y-86524924D01*
X79370024Y-86672758D01*
X79418687Y-86833177D01*
X79435117Y-87000000D01*
X79418687Y-87166823D01*
X79370024Y-87327242D01*
X79329477Y-87403100D01*
X79291004Y-87475078D01*
X79184659Y-87604659D01*
X79055078Y-87711004D01*
X79055076Y-87711005D01*
X78907242Y-87790024D01*
X78746823Y-87838687D01*
X78621804Y-87851000D01*
X78538196Y-87851000D01*
X78413177Y-87838687D01*
X78252758Y-87790024D01*
X78104924Y-87711005D01*
X78104922Y-87711004D01*
X77975341Y-87604659D01*
X77868996Y-87475078D01*
X77830523Y-87403100D01*
X77789976Y-87327242D01*
X77741313Y-87166823D01*
X77724883Y-87000000D01*
X77741313Y-86833177D01*
X77789976Y-86672758D01*
X77868995Y-86524924D01*
X77868996Y-86524922D01*
X77975341Y-86395341D01*
X78104922Y-86288996D01*
X78185639Y-86245852D01*
X78252758Y-86209976D01*
X78413177Y-86161313D01*
X78538196Y-86149000D01*
X78621804Y-86149000D01*
X78746823Y-86161313D01*
X78746823Y-86161313D01*
G37*
G36*
X89890721Y-86700174D02*
G01*
X89990995Y-86741709D01*
X90006055Y-86751772D01*
X90081242Y-86802010D01*
X90157990Y-86878758D01*
X90157991Y-86878760D01*
X90218291Y-86969005D01*
X90259826Y-87069279D01*
X90281000Y-87175730D01*
X90281000Y-87284270D01*
X90259826Y-87390721D01*
X90218291Y-87490995D01*
X90218290Y-87490996D01*
X90157990Y-87581242D01*
X90081242Y-87657990D01*
X90035812Y-87688345D01*
X89990995Y-87718291D01*
X89890721Y-87759826D01*
X89784270Y-87781000D01*
X89675730Y-87781000D01*
X89569279Y-87759826D01*
X89469005Y-87718291D01*
X89424188Y-87688345D01*
X89378758Y-87657990D01*
X89302010Y-87581242D01*
X89241710Y-87490996D01*
X89241709Y-87490995D01*
X89200174Y-87390721D01*
X89179000Y-87284270D01*
X89179000Y-87175730D01*
X89200174Y-87069279D01*
X89241709Y-86969005D01*
X89302009Y-86878760D01*
X89302010Y-86878758D01*
X89378758Y-86802010D01*
X89453945Y-86751772D01*
X89469005Y-86741709D01*
X89569279Y-86700174D01*
X89675730Y-86679000D01*
X89784270Y-86679000D01*
X89890721Y-86700174D01*
X89890721Y-86700174D01*
G37*
G36*
X91160721Y-85430174D02*
G01*
X91260995Y-85471709D01*
X91260996Y-85471710D01*
X91351242Y-85532010D01*
X91427990Y-85608758D01*
X91427991Y-85608760D01*
X91488291Y-85699005D01*
X91529826Y-85799279D01*
X91551000Y-85905730D01*
X91551000Y-86014270D01*
X91529826Y-86120721D01*
X91488291Y-86220995D01*
X91488290Y-86220996D01*
X91427990Y-86311242D01*
X91351242Y-86387990D01*
X91340240Y-86395341D01*
X91260995Y-86448291D01*
X91160721Y-86489826D01*
X91054270Y-86511000D01*
X90945730Y-86511000D01*
X90839279Y-86489826D01*
X90739005Y-86448291D01*
X90659760Y-86395341D01*
X90648758Y-86387990D01*
X90572010Y-86311242D01*
X90511710Y-86220996D01*
X90511709Y-86220995D01*
X90470174Y-86120721D01*
X90449000Y-86014270D01*
X90449000Y-85905730D01*
X90470174Y-85799279D01*
X90511709Y-85699005D01*
X90572009Y-85608760D01*
X90572010Y-85608758D01*
X90648758Y-85532010D01*
X90739004Y-85471710D01*
X90739005Y-85471709D01*
X90839279Y-85430174D01*
X90945730Y-85409000D01*
X91054270Y-85409000D01*
X91160721Y-85430174D01*
X91160721Y-85430174D01*
G37*
G36*
X76401000Y-86401000D02*
G01*
X74599000Y-86401000D01*
X74599000Y-84599000D01*
X76401000Y-84599000D01*
X76401000Y-86401000D01*
X76401000Y-86401000D01*
G37*
G36*
X102651000Y-85951000D02*
G01*
X101549000Y-85951000D01*
X101549000Y-84849000D01*
X102651000Y-84849000D01*
X102651000Y-85951000D01*
X102651000Y-85951000D01*
G37*
G36*
X111002585Y-82498802D02*
G01*
X111152410Y-82528604D01*
X111434674Y-82645521D01*
X111688705Y-82815259D01*
X111904741Y-83031295D01*
X112074479Y-83285326D01*
X112191396Y-83567590D01*
X112251000Y-83867240D01*
X112251000Y-84172760D01*
X112191396Y-84472410D01*
X112074479Y-84754674D01*
X111904741Y-85008705D01*
X111688705Y-85224741D01*
X111434674Y-85394479D01*
X111152410Y-85511396D01*
X111048781Y-85532009D01*
X110852761Y-85571000D01*
X110547239Y-85571000D01*
X110351219Y-85532009D01*
X110247590Y-85511396D01*
X109965326Y-85394479D01*
X109711295Y-85224741D01*
X109495259Y-85008705D01*
X109325521Y-84754674D01*
X109208604Y-84472410D01*
X109149000Y-84172760D01*
X109149000Y-83867240D01*
X109208604Y-83567590D01*
X109325521Y-83285326D01*
X109495259Y-83031295D01*
X109711295Y-82815259D01*
X109965326Y-82645521D01*
X110247590Y-82528604D01*
X110397415Y-82498802D01*
X110547239Y-82469000D01*
X110852761Y-82469000D01*
X111002585Y-82498802D01*
X111002585Y-82498802D01*
G37*
G36*
X100990721Y-83600174D02*
G01*
X101090995Y-83641709D01*
X101090996Y-83641710D01*
X101181242Y-83702010D01*
X101257990Y-83778758D01*
X101257991Y-83778760D01*
X101318291Y-83869005D01*
X101359826Y-83969279D01*
X101381000Y-84075730D01*
X101381000Y-84184270D01*
X101359826Y-84290721D01*
X101318291Y-84390995D01*
X101318290Y-84390996D01*
X101257990Y-84481242D01*
X101181242Y-84557990D01*
X101135812Y-84588345D01*
X101090995Y-84618291D01*
X100990721Y-84659826D01*
X100884270Y-84681000D01*
X100775730Y-84681000D01*
X100669279Y-84659826D01*
X100569005Y-84618291D01*
X100524188Y-84588345D01*
X100478758Y-84557990D01*
X100402010Y-84481242D01*
X100341710Y-84390996D01*
X100341709Y-84390995D01*
X100300174Y-84290721D01*
X100279000Y-84184270D01*
X100279000Y-84075730D01*
X100300174Y-83969279D01*
X100341709Y-83869005D01*
X100402009Y-83778760D01*
X100402010Y-83778758D01*
X100478758Y-83702010D01*
X100569004Y-83641710D01*
X100569005Y-83641709D01*
X100669279Y-83600174D01*
X100775730Y-83579000D01*
X100884270Y-83579000D01*
X100990721Y-83600174D01*
X100990721Y-83600174D01*
G37*
G36*
X102260721Y-82330174D02*
G01*
X102360995Y-82371709D01*
X102360996Y-82371710D01*
X102451242Y-82432010D01*
X102527990Y-82508758D01*
X102558345Y-82554188D01*
X102588291Y-82599005D01*
X102629826Y-82699279D01*
X102651000Y-82805730D01*
X102651000Y-82914270D01*
X102629826Y-83020721D01*
X102588291Y-83120995D01*
X102588290Y-83120996D01*
X102527990Y-83211242D01*
X102451242Y-83287990D01*
X102405812Y-83318345D01*
X102360995Y-83348291D01*
X102260721Y-83389826D01*
X102154270Y-83411000D01*
X102045730Y-83411000D01*
X101939279Y-83389826D01*
X101839005Y-83348291D01*
X101794188Y-83318345D01*
X101748758Y-83287990D01*
X101672010Y-83211242D01*
X101611710Y-83120996D01*
X101611709Y-83120995D01*
X101570174Y-83020721D01*
X101549000Y-82914270D01*
X101549000Y-82805730D01*
X101570174Y-82699279D01*
X101611709Y-82599005D01*
X101641655Y-82554188D01*
X101672010Y-82508758D01*
X101748758Y-82432010D01*
X101839004Y-82371710D01*
X101839005Y-82371709D01*
X101939279Y-82330174D01*
X102045730Y-82309000D01*
X102154270Y-82309000D01*
X102260721Y-82330174D01*
X102260721Y-82330174D01*
G37*
G36*
X83551000Y-82051000D02*
G01*
X82449000Y-82051000D01*
X82449000Y-80949000D01*
X83551000Y-80949000D01*
X83551000Y-82051000D01*
X83551000Y-82051000D01*
G37*
G36*
X91551000Y-82051000D02*
G01*
X90449000Y-82051000D01*
X90449000Y-80949000D01*
X91551000Y-80949000D01*
X91551000Y-82051000D01*
X91551000Y-82051000D01*
G37*
G36*
X68802585Y-77978802D02*
G01*
X68952410Y-78008604D01*
X69234674Y-78125521D01*
X69488705Y-78295259D01*
X69704741Y-78511295D01*
X69874479Y-78765326D01*
X69991396Y-79047590D01*
X69998602Y-79083816D01*
X70051000Y-79347239D01*
X70051000Y-79652761D01*
X70046641Y-79674674D01*
X69991396Y-79952410D01*
X69874479Y-80234674D01*
X69704741Y-80488705D01*
X69488705Y-80704741D01*
X69234674Y-80874479D01*
X68952410Y-80991396D01*
X68802585Y-81021198D01*
X68652761Y-81051000D01*
X68347239Y-81051000D01*
X68197415Y-81021198D01*
X68047590Y-80991396D01*
X67765326Y-80874479D01*
X67511295Y-80704741D01*
X67295259Y-80488705D01*
X67125521Y-80234674D01*
X67008604Y-79952410D01*
X66953359Y-79674674D01*
X66949000Y-79652761D01*
X66949000Y-79347239D01*
X67001398Y-79083816D01*
X67008604Y-79047590D01*
X67125521Y-78765326D01*
X67295259Y-78511295D01*
X67511295Y-78295259D01*
X67765326Y-78125521D01*
X68047590Y-78008604D01*
X68197415Y-77978802D01*
X68347239Y-77949000D01*
X68652761Y-77949000D01*
X68802585Y-77978802D01*
X68802585Y-77978802D01*
G37*
G36*
X81890721Y-79700174D02*
G01*
X81990995Y-79741709D01*
X82009611Y-79754148D01*
X82081242Y-79802010D01*
X82157990Y-79878758D01*
X82157991Y-79878760D01*
X82218291Y-79969005D01*
X82259826Y-80069279D01*
X82281000Y-80175730D01*
X82281000Y-80284270D01*
X82259826Y-80390721D01*
X82218291Y-80490995D01*
X82188345Y-80535812D01*
X82157990Y-80581242D01*
X82081242Y-80657990D01*
X82035812Y-80688345D01*
X81990995Y-80718291D01*
X81890721Y-80759826D01*
X81784270Y-80781000D01*
X81675730Y-80781000D01*
X81569279Y-80759826D01*
X81469005Y-80718291D01*
X81424188Y-80688345D01*
X81378758Y-80657990D01*
X81302010Y-80581242D01*
X81271655Y-80535812D01*
X81241709Y-80490995D01*
X81200174Y-80390721D01*
X81179000Y-80284270D01*
X81179000Y-80175730D01*
X81200174Y-80069279D01*
X81241709Y-79969005D01*
X81302009Y-79878760D01*
X81302010Y-79878758D01*
X81378758Y-79802010D01*
X81450389Y-79754148D01*
X81469005Y-79741709D01*
X81569279Y-79700174D01*
X81675730Y-79679000D01*
X81784270Y-79679000D01*
X81890721Y-79700174D01*
X81890721Y-79700174D01*
G37*
G36*
X89890721Y-79700174D02*
G01*
X89990995Y-79741709D01*
X90009611Y-79754148D01*
X90081242Y-79802010D01*
X90157990Y-79878758D01*
X90157991Y-79878760D01*
X90218291Y-79969005D01*
X90259826Y-80069279D01*
X90281000Y-80175730D01*
X90281000Y-80284270D01*
X90259826Y-80390721D01*
X90218291Y-80490995D01*
X90188345Y-80535812D01*
X90157990Y-80581242D01*
X90081242Y-80657990D01*
X90035812Y-80688345D01*
X89990995Y-80718291D01*
X89890721Y-80759826D01*
X89784270Y-80781000D01*
X89675730Y-80781000D01*
X89569279Y-80759826D01*
X89469005Y-80718291D01*
X89424188Y-80688345D01*
X89378758Y-80657990D01*
X89302010Y-80581242D01*
X89271655Y-80535812D01*
X89241709Y-80490995D01*
X89200174Y-80390721D01*
X89179000Y-80284270D01*
X89179000Y-80175730D01*
X89200174Y-80069279D01*
X89241709Y-79969005D01*
X89302009Y-79878760D01*
X89302010Y-79878758D01*
X89378758Y-79802010D01*
X89450389Y-79754148D01*
X89469005Y-79741709D01*
X89569279Y-79700174D01*
X89675730Y-79679000D01*
X89784270Y-79679000D01*
X89890721Y-79700174D01*
X89890721Y-79700174D01*
G37*
G36*
X111002585Y-77418802D02*
G01*
X111152410Y-77448604D01*
X111434674Y-77565521D01*
X111688705Y-77735259D01*
X111904741Y-77951295D01*
X112074479Y-78205326D01*
X112184818Y-78471710D01*
X112191396Y-78487591D01*
X112246642Y-78765328D01*
X112251000Y-78787240D01*
X112251000Y-79092760D01*
X112191396Y-79392410D01*
X112074479Y-79674674D01*
X111904741Y-79928705D01*
X111688705Y-80144741D01*
X111434674Y-80314479D01*
X111152410Y-80431396D01*
X111002585Y-80461198D01*
X110852761Y-80491000D01*
X110547239Y-80491000D01*
X110397415Y-80461198D01*
X110247590Y-80431396D01*
X109965326Y-80314479D01*
X109711295Y-80144741D01*
X109495259Y-79928705D01*
X109325521Y-79674674D01*
X109208604Y-79392410D01*
X109149000Y-79092760D01*
X109149000Y-78787240D01*
X109153359Y-78765328D01*
X109208604Y-78487591D01*
X109215182Y-78471710D01*
X109325521Y-78205326D01*
X109495259Y-77951295D01*
X109711295Y-77735259D01*
X109965326Y-77565521D01*
X110247590Y-77448604D01*
X110397415Y-77418802D01*
X110547239Y-77389000D01*
X110852761Y-77389000D01*
X111002585Y-77418802D01*
X111002585Y-77418802D01*
G37*
G36*
X96646823Y-78161313D02*
G01*
X96807242Y-78209976D01*
X96874361Y-78245852D01*
X96955078Y-78288996D01*
X97084659Y-78395341D01*
X97191004Y-78524922D01*
X97191005Y-78524924D01*
X97270024Y-78672758D01*
X97318687Y-78833177D01*
X97335117Y-79000000D01*
X97318687Y-79166823D01*
X97270024Y-79327242D01*
X97229477Y-79403100D01*
X97191004Y-79475078D01*
X97084659Y-79604659D01*
X96955078Y-79711004D01*
X96955076Y-79711005D01*
X96807242Y-79790024D01*
X96646823Y-79838687D01*
X96521804Y-79851000D01*
X96438196Y-79851000D01*
X96313177Y-79838687D01*
X96152758Y-79790024D01*
X96004924Y-79711005D01*
X96004922Y-79711004D01*
X95875341Y-79604659D01*
X95768996Y-79475078D01*
X95730523Y-79403100D01*
X95689976Y-79327242D01*
X95641313Y-79166823D01*
X95624883Y-79000000D01*
X95641313Y-78833177D01*
X95689976Y-78672758D01*
X95768995Y-78524924D01*
X95768996Y-78524922D01*
X95875341Y-78395341D01*
X96004922Y-78288996D01*
X96085639Y-78245852D01*
X96152758Y-78209976D01*
X96313177Y-78161313D01*
X96438196Y-78149000D01*
X96521804Y-78149000D01*
X96646823Y-78161313D01*
X96646823Y-78161313D01*
G37*
G36*
X104348228Y-78181703D02*
G01*
X104503100Y-78245853D01*
X104642481Y-78338985D01*
X104761015Y-78457519D01*
X104854147Y-78596900D01*
X104918297Y-78751772D01*
X104951000Y-78916184D01*
X104951000Y-79083816D01*
X104918297Y-79248228D01*
X104854147Y-79403100D01*
X104761015Y-79542481D01*
X104642481Y-79661015D01*
X104503100Y-79754147D01*
X104348228Y-79818297D01*
X104183816Y-79851000D01*
X104016184Y-79851000D01*
X103851772Y-79818297D01*
X103696900Y-79754147D01*
X103557519Y-79661015D01*
X103438985Y-79542481D01*
X103345853Y-79403100D01*
X103281703Y-79248228D01*
X103249000Y-79083816D01*
X103249000Y-78916184D01*
X103281703Y-78751772D01*
X103345853Y-78596900D01*
X103438985Y-78457519D01*
X103557519Y-78338985D01*
X103696900Y-78245853D01*
X103851772Y-78181703D01*
X104016184Y-78149000D01*
X104183816Y-78149000D01*
X104348228Y-78181703D01*
X104348228Y-78181703D01*
G37*
G36*
X83160721Y-78430174D02*
G01*
X83260995Y-78471709D01*
X83284764Y-78487591D01*
X83351242Y-78532010D01*
X83427990Y-78608758D01*
X83427991Y-78608760D01*
X83488291Y-78699005D01*
X83529826Y-78799279D01*
X83551000Y-78905730D01*
X83551000Y-79014270D01*
X83529826Y-79120721D01*
X83488291Y-79220995D01*
X83488290Y-79220996D01*
X83427990Y-79311242D01*
X83351242Y-79387990D01*
X83328628Y-79403100D01*
X83260995Y-79448291D01*
X83160721Y-79489826D01*
X83054270Y-79511000D01*
X82945730Y-79511000D01*
X82839279Y-79489826D01*
X82739005Y-79448291D01*
X82671372Y-79403100D01*
X82648758Y-79387990D01*
X82572010Y-79311242D01*
X82511710Y-79220996D01*
X82511709Y-79220995D01*
X82470174Y-79120721D01*
X82449000Y-79014270D01*
X82449000Y-78905730D01*
X82470174Y-78799279D01*
X82511709Y-78699005D01*
X82572009Y-78608760D01*
X82572010Y-78608758D01*
X82648758Y-78532010D01*
X82715236Y-78487591D01*
X82739005Y-78471709D01*
X82839279Y-78430174D01*
X82945730Y-78409000D01*
X83054270Y-78409000D01*
X83160721Y-78430174D01*
X83160721Y-78430174D01*
G37*
G36*
X91160721Y-78430174D02*
G01*
X91260995Y-78471709D01*
X91284764Y-78487591D01*
X91351242Y-78532010D01*
X91427990Y-78608758D01*
X91427991Y-78608760D01*
X91488291Y-78699005D01*
X91529826Y-78799279D01*
X91551000Y-78905730D01*
X91551000Y-79014270D01*
X91529826Y-79120721D01*
X91488291Y-79220995D01*
X91488290Y-79220996D01*
X91427990Y-79311242D01*
X91351242Y-79387990D01*
X91328628Y-79403100D01*
X91260995Y-79448291D01*
X91160721Y-79489826D01*
X91054270Y-79511000D01*
X90945730Y-79511000D01*
X90839279Y-79489826D01*
X90739005Y-79448291D01*
X90671372Y-79403100D01*
X90648758Y-79387990D01*
X90572010Y-79311242D01*
X90511710Y-79220996D01*
X90511709Y-79220995D01*
X90470174Y-79120721D01*
X90449000Y-79014270D01*
X90449000Y-78905730D01*
X90470174Y-78799279D01*
X90511709Y-78699005D01*
X90572009Y-78608760D01*
X90572010Y-78608758D01*
X90648758Y-78532010D01*
X90715236Y-78487591D01*
X90739005Y-78471709D01*
X90839279Y-78430174D01*
X90945730Y-78409000D01*
X91054270Y-78409000D01*
X91160721Y-78430174D01*
X91160721Y-78430174D01*
G37*
M02*
