G04 #@! TF.GenerationSoftware,KiCad,Pcbnew,(5.1.0)-1*
G04 #@! TF.CreationDate,2019-11-24T19:02:04+00:00*
G04 #@! TF.ProjectId,WebastoWBUSInterface,57656261-7374-46f5-9742-5553496e7465,rev?*
G04 #@! TF.SameCoordinates,Original*
G04 #@! TF.FileFunction,Legend,Bot*
G04 #@! TF.FilePolarity,Positive*
%FSLAX46Y46*%
G04 Gerber Fmt 4.6, Leading zero omitted, Abs format (unit mm)*
G04 Created by KiCad (PCBNEW (5.1.0)-1) date 2019-11-24 19:02:04*
%MOMM*%
%LPD*%
G04 APERTURE LIST*
%ADD10C,0.150000*%
G04 APERTURE END LIST*
D10*
X114547619Y-78952380D02*
X114309523Y-79952380D01*
X114119047Y-79238095D01*
X113928571Y-79952380D01*
X113690476Y-78952380D01*
X112976190Y-79428571D02*
X112833333Y-79476190D01*
X112785714Y-79523809D01*
X112738095Y-79619047D01*
X112738095Y-79761904D01*
X112785714Y-79857142D01*
X112833333Y-79904761D01*
X112928571Y-79952380D01*
X113309523Y-79952380D01*
X113309523Y-78952380D01*
X112976190Y-78952380D01*
X112880952Y-79000000D01*
X112833333Y-79047619D01*
X112785714Y-79142857D01*
X112785714Y-79238095D01*
X112833333Y-79333333D01*
X112880952Y-79380952D01*
X112976190Y-79428571D01*
X113309523Y-79428571D01*
X112309523Y-78952380D02*
X112309523Y-79761904D01*
X112261904Y-79857142D01*
X112214285Y-79904761D01*
X112119047Y-79952380D01*
X111928571Y-79952380D01*
X111833333Y-79904761D01*
X111785714Y-79857142D01*
X111738095Y-79761904D01*
X111738095Y-78952380D01*
X111309523Y-79904761D02*
X111166666Y-79952380D01*
X110928571Y-79952380D01*
X110833333Y-79904761D01*
X110785714Y-79857142D01*
X110738095Y-79761904D01*
X110738095Y-79666666D01*
X110785714Y-79571428D01*
X110833333Y-79523809D01*
X110928571Y-79476190D01*
X111119047Y-79428571D01*
X111214285Y-79380952D01*
X111261904Y-79333333D01*
X111309523Y-79238095D01*
X111309523Y-79142857D01*
X111261904Y-79047619D01*
X111214285Y-79000000D01*
X111119047Y-78952380D01*
X110880952Y-78952380D01*
X110738095Y-79000000D01*
X109547619Y-79952380D02*
X109547619Y-78952380D01*
X109309523Y-78952380D01*
X109166666Y-79000000D01*
X109071428Y-79095238D01*
X109023809Y-79190476D01*
X108976190Y-79380952D01*
X108976190Y-79523809D01*
X109023809Y-79714285D01*
X109071428Y-79809523D01*
X109166666Y-79904761D01*
X109309523Y-79952380D01*
X109547619Y-79952380D01*
X108595238Y-79666666D02*
X108119047Y-79666666D01*
X108690476Y-79952380D02*
X108357142Y-78952380D01*
X108023809Y-79952380D01*
X107833333Y-78952380D02*
X107261904Y-78952380D01*
X107547619Y-79952380D02*
X107547619Y-78952380D01*
X106976190Y-79666666D02*
X106500000Y-79666666D01*
X107071428Y-79952380D02*
X106738095Y-78952380D01*
X106404761Y-79952380D01*
X113928571Y-90861904D02*
X113928571Y-90061904D01*
X113585714Y-90861904D02*
X113585714Y-90442857D01*
X113623809Y-90366666D01*
X113700000Y-90328571D01*
X113814285Y-90328571D01*
X113890476Y-90366666D01*
X113928571Y-90404761D01*
X113319047Y-90328571D02*
X113014285Y-90328571D01*
X113204761Y-90061904D02*
X113204761Y-90747619D01*
X113166666Y-90823809D01*
X113090476Y-90861904D01*
X113014285Y-90861904D01*
X112861904Y-90328571D02*
X112557142Y-90328571D01*
X112747619Y-90061904D02*
X112747619Y-90747619D01*
X112709523Y-90823809D01*
X112633333Y-90861904D01*
X112557142Y-90861904D01*
X112290476Y-90328571D02*
X112290476Y-91128571D01*
X112290476Y-90366666D02*
X112214285Y-90328571D01*
X112061904Y-90328571D01*
X111985714Y-90366666D01*
X111947619Y-90404761D01*
X111909523Y-90480952D01*
X111909523Y-90709523D01*
X111947619Y-90785714D01*
X111985714Y-90823809D01*
X112061904Y-90861904D01*
X112214285Y-90861904D01*
X112290476Y-90823809D01*
X111604761Y-90823809D02*
X111528571Y-90861904D01*
X111376190Y-90861904D01*
X111300000Y-90823809D01*
X111261904Y-90747619D01*
X111261904Y-90709523D01*
X111300000Y-90633333D01*
X111376190Y-90595238D01*
X111490476Y-90595238D01*
X111566666Y-90557142D01*
X111604761Y-90480952D01*
X111604761Y-90442857D01*
X111566666Y-90366666D01*
X111490476Y-90328571D01*
X111376190Y-90328571D01*
X111300000Y-90366666D01*
X110919047Y-90785714D02*
X110880952Y-90823809D01*
X110919047Y-90861904D01*
X110957142Y-90823809D01*
X110919047Y-90785714D01*
X110919047Y-90861904D01*
X110919047Y-90366666D02*
X110880952Y-90404761D01*
X110919047Y-90442857D01*
X110957142Y-90404761D01*
X110919047Y-90366666D01*
X110919047Y-90442857D01*
X109966666Y-90023809D02*
X110652380Y-91052380D01*
X109128571Y-90023809D02*
X109814285Y-91052380D01*
X108519047Y-90328571D02*
X108519047Y-90976190D01*
X108557142Y-91052380D01*
X108595238Y-91090476D01*
X108671428Y-91128571D01*
X108785714Y-91128571D01*
X108861904Y-91090476D01*
X108519047Y-90823809D02*
X108595238Y-90861904D01*
X108747619Y-90861904D01*
X108823809Y-90823809D01*
X108861904Y-90785714D01*
X108900000Y-90709523D01*
X108900000Y-90480952D01*
X108861904Y-90404761D01*
X108823809Y-90366666D01*
X108747619Y-90328571D01*
X108595238Y-90328571D01*
X108519047Y-90366666D01*
X108138095Y-90861904D02*
X108138095Y-90328571D01*
X108138095Y-90061904D02*
X108176190Y-90100000D01*
X108138095Y-90138095D01*
X108100000Y-90100000D01*
X108138095Y-90061904D01*
X108138095Y-90138095D01*
X107871428Y-90328571D02*
X107566666Y-90328571D01*
X107757142Y-90061904D02*
X107757142Y-90747619D01*
X107719047Y-90823809D01*
X107642857Y-90861904D01*
X107566666Y-90861904D01*
X107300000Y-90861904D02*
X107300000Y-90061904D01*
X106957142Y-90861904D02*
X106957142Y-90442857D01*
X106995238Y-90366666D01*
X107071428Y-90328571D01*
X107185714Y-90328571D01*
X107261904Y-90366666D01*
X107300000Y-90404761D01*
X106233333Y-90328571D02*
X106233333Y-90861904D01*
X106576190Y-90328571D02*
X106576190Y-90747619D01*
X106538095Y-90823809D01*
X106461904Y-90861904D01*
X106347619Y-90861904D01*
X106271428Y-90823809D01*
X106233333Y-90785714D01*
X105852380Y-90861904D02*
X105852380Y-90061904D01*
X105852380Y-90366666D02*
X105776190Y-90328571D01*
X105623809Y-90328571D01*
X105547619Y-90366666D01*
X105509523Y-90404761D01*
X105471428Y-90480952D01*
X105471428Y-90709523D01*
X105509523Y-90785714D01*
X105547619Y-90823809D01*
X105623809Y-90861904D01*
X105776190Y-90861904D01*
X105852380Y-90823809D01*
X105128571Y-90785714D02*
X105090476Y-90823809D01*
X105128571Y-90861904D01*
X105166666Y-90823809D01*
X105128571Y-90785714D01*
X105128571Y-90861904D01*
X104404761Y-90823809D02*
X104480952Y-90861904D01*
X104633333Y-90861904D01*
X104709523Y-90823809D01*
X104747619Y-90785714D01*
X104785714Y-90709523D01*
X104785714Y-90480952D01*
X104747619Y-90404761D01*
X104709523Y-90366666D01*
X104633333Y-90328571D01*
X104480952Y-90328571D01*
X104404761Y-90366666D01*
X103947619Y-90861904D02*
X104023809Y-90823809D01*
X104061904Y-90785714D01*
X104100000Y-90709523D01*
X104100000Y-90480952D01*
X104061904Y-90404761D01*
X104023809Y-90366666D01*
X103947619Y-90328571D01*
X103833333Y-90328571D01*
X103757142Y-90366666D01*
X103719047Y-90404761D01*
X103680952Y-90480952D01*
X103680952Y-90709523D01*
X103719047Y-90785714D01*
X103757142Y-90823809D01*
X103833333Y-90861904D01*
X103947619Y-90861904D01*
X103338095Y-90861904D02*
X103338095Y-90328571D01*
X103338095Y-90404761D02*
X103300000Y-90366666D01*
X103223809Y-90328571D01*
X103109523Y-90328571D01*
X103033333Y-90366666D01*
X102995238Y-90442857D01*
X102995238Y-90861904D01*
X102995238Y-90442857D02*
X102957142Y-90366666D01*
X102880952Y-90328571D01*
X102766666Y-90328571D01*
X102690476Y-90366666D01*
X102652380Y-90442857D01*
X102652380Y-90861904D01*
X101700000Y-90023809D02*
X102385714Y-91052380D01*
X101471428Y-90823809D02*
X101395238Y-90861904D01*
X101242857Y-90861904D01*
X101166666Y-90823809D01*
X101128571Y-90747619D01*
X101128571Y-90709523D01*
X101166666Y-90633333D01*
X101242857Y-90595238D01*
X101357142Y-90595238D01*
X101433333Y-90557142D01*
X101471428Y-90480952D01*
X101471428Y-90442857D01*
X101433333Y-90366666D01*
X101357142Y-90328571D01*
X101242857Y-90328571D01*
X101166666Y-90366666D01*
X100900000Y-90328571D02*
X100595238Y-90328571D01*
X100785714Y-90061904D02*
X100785714Y-90747619D01*
X100747619Y-90823809D01*
X100671428Y-90861904D01*
X100595238Y-90861904D01*
X99985714Y-90328571D02*
X99985714Y-90861904D01*
X100328571Y-90328571D02*
X100328571Y-90747619D01*
X100290476Y-90823809D01*
X100214285Y-90861904D01*
X100100000Y-90861904D01*
X100023809Y-90823809D01*
X99985714Y-90785714D01*
X99261904Y-90861904D02*
X99261904Y-90442857D01*
X99300000Y-90366666D01*
X99376190Y-90328571D01*
X99528571Y-90328571D01*
X99604761Y-90366666D01*
X99261904Y-90823809D02*
X99338095Y-90861904D01*
X99528571Y-90861904D01*
X99604761Y-90823809D01*
X99642857Y-90747619D01*
X99642857Y-90671428D01*
X99604761Y-90595238D01*
X99528571Y-90557142D01*
X99338095Y-90557142D01*
X99261904Y-90519047D01*
X98880952Y-90861904D02*
X98880952Y-90328571D01*
X98880952Y-90480952D02*
X98842857Y-90404761D01*
X98804761Y-90366666D01*
X98728571Y-90328571D01*
X98652380Y-90328571D01*
X98500000Y-90328571D02*
X98195238Y-90328571D01*
X98385714Y-90061904D02*
X98385714Y-90747619D01*
X98347619Y-90823809D01*
X98271428Y-90861904D01*
X98195238Y-90861904D01*
X97928571Y-90328571D02*
X97928571Y-91128571D01*
X97928571Y-90366666D02*
X97852380Y-90328571D01*
X97700000Y-90328571D01*
X97623809Y-90366666D01*
X97585714Y-90404761D01*
X97547619Y-90480952D01*
X97547619Y-90709523D01*
X97585714Y-90785714D01*
X97623809Y-90823809D01*
X97700000Y-90861904D01*
X97852380Y-90861904D01*
X97928571Y-90823809D01*
X97204761Y-90861904D02*
X97204761Y-90328571D01*
X97204761Y-90061904D02*
X97242857Y-90100000D01*
X97204761Y-90138095D01*
X97166666Y-90100000D01*
X97204761Y-90061904D01*
X97204761Y-90138095D01*
X96938095Y-90328571D02*
X96633333Y-90328571D01*
X96823809Y-90061904D02*
X96823809Y-90747619D01*
X96785714Y-90823809D01*
X96709523Y-90861904D01*
X96633333Y-90861904D01*
X96480952Y-90328571D02*
X96176190Y-90328571D01*
X96366666Y-90061904D02*
X96366666Y-90747619D01*
X96328571Y-90823809D01*
X96252380Y-90861904D01*
X96176190Y-90861904D01*
X95566666Y-90861904D02*
X95566666Y-90442857D01*
X95604761Y-90366666D01*
X95680952Y-90328571D01*
X95833333Y-90328571D01*
X95909523Y-90366666D01*
X95566666Y-90823809D02*
X95642857Y-90861904D01*
X95833333Y-90861904D01*
X95909523Y-90823809D01*
X95947619Y-90747619D01*
X95947619Y-90671428D01*
X95909523Y-90595238D01*
X95833333Y-90557142D01*
X95642857Y-90557142D01*
X95566666Y-90519047D01*
X95261904Y-90328571D02*
X95109523Y-90861904D01*
X94957142Y-90480952D01*
X94804761Y-90861904D01*
X94652380Y-90328571D01*
X94004761Y-90861904D02*
X94004761Y-90442857D01*
X94042857Y-90366666D01*
X94119047Y-90328571D01*
X94271428Y-90328571D01*
X94347619Y-90366666D01*
X94004761Y-90823809D02*
X94080952Y-90861904D01*
X94271428Y-90861904D01*
X94347619Y-90823809D01*
X94385714Y-90747619D01*
X94385714Y-90671428D01*
X94347619Y-90595238D01*
X94271428Y-90557142D01*
X94080952Y-90557142D01*
X94004761Y-90519047D01*
X93700000Y-90328571D02*
X93509523Y-90861904D01*
X93319047Y-90328571D02*
X93509523Y-90861904D01*
X93585714Y-91052380D01*
X93623809Y-91090476D01*
X93700000Y-91128571D01*
X92442857Y-90023809D02*
X93128571Y-91052380D01*
X92252380Y-90061904D02*
X92061904Y-90861904D01*
X91909523Y-90290476D01*
X91757142Y-90861904D01*
X91566666Y-90061904D01*
X90957142Y-90823809D02*
X91033333Y-90861904D01*
X91185714Y-90861904D01*
X91261904Y-90823809D01*
X91300000Y-90747619D01*
X91300000Y-90442857D01*
X91261904Y-90366666D01*
X91185714Y-90328571D01*
X91033333Y-90328571D01*
X90957142Y-90366666D01*
X90919047Y-90442857D01*
X90919047Y-90519047D01*
X91300000Y-90595238D01*
X90576190Y-90861904D02*
X90576190Y-90061904D01*
X90576190Y-90366666D02*
X90500000Y-90328571D01*
X90347619Y-90328571D01*
X90271428Y-90366666D01*
X90233333Y-90404761D01*
X90195238Y-90480952D01*
X90195238Y-90709523D01*
X90233333Y-90785714D01*
X90271428Y-90823809D01*
X90347619Y-90861904D01*
X90500000Y-90861904D01*
X90576190Y-90823809D01*
X89509523Y-90861904D02*
X89509523Y-90442857D01*
X89547619Y-90366666D01*
X89623809Y-90328571D01*
X89776190Y-90328571D01*
X89852380Y-90366666D01*
X89509523Y-90823809D02*
X89585714Y-90861904D01*
X89776190Y-90861904D01*
X89852380Y-90823809D01*
X89890476Y-90747619D01*
X89890476Y-90671428D01*
X89852380Y-90595238D01*
X89776190Y-90557142D01*
X89585714Y-90557142D01*
X89509523Y-90519047D01*
X89166666Y-90823809D02*
X89090476Y-90861904D01*
X88938095Y-90861904D01*
X88861904Y-90823809D01*
X88823809Y-90747619D01*
X88823809Y-90709523D01*
X88861904Y-90633333D01*
X88938095Y-90595238D01*
X89052380Y-90595238D01*
X89128571Y-90557142D01*
X89166666Y-90480952D01*
X89166666Y-90442857D01*
X89128571Y-90366666D01*
X89052380Y-90328571D01*
X88938095Y-90328571D01*
X88861904Y-90366666D01*
X88595238Y-90328571D02*
X88290476Y-90328571D01*
X88480952Y-90061904D02*
X88480952Y-90747619D01*
X88442857Y-90823809D01*
X88366666Y-90861904D01*
X88290476Y-90861904D01*
X87909523Y-90861904D02*
X87985714Y-90823809D01*
X88023809Y-90785714D01*
X88061904Y-90709523D01*
X88061904Y-90480952D01*
X88023809Y-90404761D01*
X87985714Y-90366666D01*
X87909523Y-90328571D01*
X87795238Y-90328571D01*
X87719047Y-90366666D01*
X87680952Y-90404761D01*
X87642857Y-90480952D01*
X87642857Y-90709523D01*
X87680952Y-90785714D01*
X87719047Y-90823809D01*
X87795238Y-90861904D01*
X87909523Y-90861904D01*
X87376190Y-90061904D02*
X87185714Y-90861904D01*
X87033333Y-90290476D01*
X86880952Y-90861904D01*
X86690476Y-90061904D01*
X86119047Y-90442857D02*
X86004761Y-90480952D01*
X85966666Y-90519047D01*
X85928571Y-90595238D01*
X85928571Y-90709523D01*
X85966666Y-90785714D01*
X86004761Y-90823809D01*
X86080952Y-90861904D01*
X86385714Y-90861904D01*
X86385714Y-90061904D01*
X86119047Y-90061904D01*
X86042857Y-90100000D01*
X86004761Y-90138095D01*
X85966666Y-90214285D01*
X85966666Y-90290476D01*
X86004761Y-90366666D01*
X86042857Y-90404761D01*
X86119047Y-90442857D01*
X86385714Y-90442857D01*
X85585714Y-90061904D02*
X85585714Y-90709523D01*
X85547619Y-90785714D01*
X85509523Y-90823809D01*
X85433333Y-90861904D01*
X85280952Y-90861904D01*
X85204761Y-90823809D01*
X85166666Y-90785714D01*
X85128571Y-90709523D01*
X85128571Y-90061904D01*
X84785714Y-90823809D02*
X84671428Y-90861904D01*
X84480952Y-90861904D01*
X84404761Y-90823809D01*
X84366666Y-90785714D01*
X84328571Y-90709523D01*
X84328571Y-90633333D01*
X84366666Y-90557142D01*
X84404761Y-90519047D01*
X84480952Y-90480952D01*
X84633333Y-90442857D01*
X84709523Y-90404761D01*
X84747619Y-90366666D01*
X84785714Y-90290476D01*
X84785714Y-90214285D01*
X84747619Y-90138095D01*
X84709523Y-90100000D01*
X84633333Y-90061904D01*
X84442857Y-90061904D01*
X84328571Y-90100000D01*
X83985714Y-90861904D02*
X83985714Y-90061904D01*
X83604761Y-90328571D02*
X83604761Y-90861904D01*
X83604761Y-90404761D02*
X83566666Y-90366666D01*
X83490476Y-90328571D01*
X83376190Y-90328571D01*
X83300000Y-90366666D01*
X83261904Y-90442857D01*
X83261904Y-90861904D01*
X82995238Y-90328571D02*
X82690476Y-90328571D01*
X82880952Y-90061904D02*
X82880952Y-90747619D01*
X82842857Y-90823809D01*
X82766666Y-90861904D01*
X82690476Y-90861904D01*
X82119047Y-90823809D02*
X82195238Y-90861904D01*
X82347619Y-90861904D01*
X82423809Y-90823809D01*
X82461904Y-90747619D01*
X82461904Y-90442857D01*
X82423809Y-90366666D01*
X82347619Y-90328571D01*
X82195238Y-90328571D01*
X82119047Y-90366666D01*
X82080952Y-90442857D01*
X82080952Y-90519047D01*
X82461904Y-90595238D01*
X81738095Y-90861904D02*
X81738095Y-90328571D01*
X81738095Y-90480952D02*
X81700000Y-90404761D01*
X81661904Y-90366666D01*
X81585714Y-90328571D01*
X81509523Y-90328571D01*
X81357142Y-90328571D02*
X81052380Y-90328571D01*
X81242857Y-90861904D02*
X81242857Y-90176190D01*
X81204761Y-90100000D01*
X81128571Y-90061904D01*
X81052380Y-90061904D01*
X80442857Y-90861904D02*
X80442857Y-90442857D01*
X80480952Y-90366666D01*
X80557142Y-90328571D01*
X80709523Y-90328571D01*
X80785714Y-90366666D01*
X80442857Y-90823809D02*
X80519047Y-90861904D01*
X80709523Y-90861904D01*
X80785714Y-90823809D01*
X80823809Y-90747619D01*
X80823809Y-90671428D01*
X80785714Y-90595238D01*
X80709523Y-90557142D01*
X80519047Y-90557142D01*
X80442857Y-90519047D01*
X79719047Y-90823809D02*
X79795238Y-90861904D01*
X79947619Y-90861904D01*
X80023809Y-90823809D01*
X80061904Y-90785714D01*
X80100000Y-90709523D01*
X80100000Y-90480952D01*
X80061904Y-90404761D01*
X80023809Y-90366666D01*
X79947619Y-90328571D01*
X79795238Y-90328571D01*
X79719047Y-90366666D01*
X79071428Y-90823809D02*
X79147619Y-90861904D01*
X79300000Y-90861904D01*
X79376190Y-90823809D01*
X79414285Y-90747619D01*
X79414285Y-90442857D01*
X79376190Y-90366666D01*
X79300000Y-90328571D01*
X79147619Y-90328571D01*
X79071428Y-90366666D01*
X79033333Y-90442857D01*
X79033333Y-90519047D01*
X79414285Y-90595238D01*
X71666666Y-88452380D02*
X72000000Y-87976190D01*
X72238095Y-88452380D02*
X72238095Y-87452380D01*
X71857142Y-87452380D01*
X71761904Y-87500000D01*
X71714285Y-87547619D01*
X71666666Y-87642857D01*
X71666666Y-87785714D01*
X71714285Y-87880952D01*
X71761904Y-87928571D01*
X71857142Y-87976190D01*
X72238095Y-87976190D01*
X71333333Y-87452380D02*
X70666666Y-88452380D01*
X70666666Y-87452380D02*
X71333333Y-88452380D01*
X72261904Y-89952380D02*
X71690476Y-89952380D01*
X71976190Y-90952380D02*
X71976190Y-89952380D01*
X71452380Y-89952380D02*
X70785714Y-90952380D01*
X70785714Y-89952380D02*
X71452380Y-90952380D01*
X71690476Y-92452380D02*
X72166666Y-92452380D01*
X72214285Y-92928571D01*
X72166666Y-92880952D01*
X72071428Y-92833333D01*
X71833333Y-92833333D01*
X71738095Y-92880952D01*
X71690476Y-92928571D01*
X71642857Y-93023809D01*
X71642857Y-93261904D01*
X71690476Y-93357142D01*
X71738095Y-93404761D01*
X71833333Y-93452380D01*
X72071428Y-93452380D01*
X72166666Y-93404761D01*
X72214285Y-93357142D01*
X71357142Y-92452380D02*
X71023809Y-93452380D01*
X70690476Y-92452380D01*
X72761904Y-98000000D02*
X72857142Y-97952380D01*
X73000000Y-97952380D01*
X73142857Y-98000000D01*
X73238095Y-98095238D01*
X73285714Y-98190476D01*
X73333333Y-98380952D01*
X73333333Y-98523809D01*
X73285714Y-98714285D01*
X73238095Y-98809523D01*
X73142857Y-98904761D01*
X73000000Y-98952380D01*
X72904761Y-98952380D01*
X72761904Y-98904761D01*
X72714285Y-98857142D01*
X72714285Y-98523809D01*
X72904761Y-98523809D01*
X72285714Y-98952380D02*
X72285714Y-97952380D01*
X71714285Y-98952380D01*
X71714285Y-97952380D01*
X71238095Y-98952380D02*
X71238095Y-97952380D01*
X71000000Y-97952380D01*
X70857142Y-98000000D01*
X70761904Y-98095238D01*
X70714285Y-98190476D01*
X70666666Y-98380952D01*
X70666666Y-98523809D01*
X70714285Y-98714285D01*
X70761904Y-98809523D01*
X70857142Y-98904761D01*
X71000000Y-98952380D01*
X71238095Y-98952380D01*
X108761904Y-81500000D02*
X108857142Y-81452380D01*
X109000000Y-81452380D01*
X109142857Y-81500000D01*
X109238095Y-81595238D01*
X109285714Y-81690476D01*
X109333333Y-81880952D01*
X109333333Y-82023809D01*
X109285714Y-82214285D01*
X109238095Y-82309523D01*
X109142857Y-82404761D01*
X109000000Y-82452380D01*
X108904761Y-82452380D01*
X108761904Y-82404761D01*
X108714285Y-82357142D01*
X108714285Y-82023809D01*
X108904761Y-82023809D01*
X108285714Y-82452380D02*
X108285714Y-81452380D01*
X107714285Y-82452380D01*
X107714285Y-81452380D01*
X107238095Y-82452380D02*
X107238095Y-81452380D01*
X107000000Y-81452380D01*
X106857142Y-81500000D01*
X106761904Y-81595238D01*
X106714285Y-81690476D01*
X106666666Y-81880952D01*
X106666666Y-82023809D01*
X106714285Y-82214285D01*
X106761904Y-82309523D01*
X106857142Y-82404761D01*
X107000000Y-82452380D01*
X107238095Y-82452380D01*
X108619047Y-84952380D02*
X109190476Y-84952380D01*
X108904761Y-84952380D02*
X108904761Y-83952380D01*
X109000000Y-84095238D01*
X109095238Y-84190476D01*
X109190476Y-84238095D01*
X108238095Y-84047619D02*
X108190476Y-84000000D01*
X108095238Y-83952380D01*
X107857142Y-83952380D01*
X107761904Y-84000000D01*
X107714285Y-84047619D01*
X107666666Y-84142857D01*
X107666666Y-84238095D01*
X107714285Y-84380952D01*
X108285714Y-84952380D01*
X107666666Y-84952380D01*
X107380952Y-83952380D02*
X107047619Y-84952380D01*
X106714285Y-83952380D01*
X66928571Y-87833333D02*
X66928571Y-87500000D01*
X67452380Y-87500000D02*
X66452380Y-87500000D01*
X66452380Y-87976190D01*
X66452380Y-88214285D02*
X66452380Y-88785714D01*
X67452380Y-88500000D02*
X66452380Y-88500000D01*
X67452380Y-89119047D02*
X66452380Y-89119047D01*
X66452380Y-89357142D01*
X66500000Y-89500000D01*
X66595238Y-89595238D01*
X66690476Y-89642857D01*
X66880952Y-89690476D01*
X67023809Y-89690476D01*
X67214285Y-89642857D01*
X67309523Y-89595238D01*
X67404761Y-89500000D01*
X67452380Y-89357142D01*
X67452380Y-89119047D01*
X67452380Y-90119047D02*
X66452380Y-90119047D01*
X67452380Y-91357142D02*
X66452380Y-91357142D01*
X66785714Y-91833333D02*
X67452380Y-91833333D01*
X66880952Y-91833333D02*
X66833333Y-91880952D01*
X66785714Y-91976190D01*
X66785714Y-92119047D01*
X66833333Y-92214285D01*
X66928571Y-92261904D01*
X67452380Y-92261904D01*
X66785714Y-92595238D02*
X66785714Y-92976190D01*
X66452380Y-92738095D02*
X67309523Y-92738095D01*
X67404761Y-92785714D01*
X67452380Y-92880952D01*
X67452380Y-92976190D01*
X67404761Y-93690476D02*
X67452380Y-93595238D01*
X67452380Y-93404761D01*
X67404761Y-93309523D01*
X67309523Y-93261904D01*
X66928571Y-93261904D01*
X66833333Y-93309523D01*
X66785714Y-93404761D01*
X66785714Y-93595238D01*
X66833333Y-93690476D01*
X66928571Y-93738095D01*
X67023809Y-93738095D01*
X67119047Y-93261904D01*
X67452380Y-94166666D02*
X66785714Y-94166666D01*
X66976190Y-94166666D02*
X66880952Y-94214285D01*
X66833333Y-94261904D01*
X66785714Y-94357142D01*
X66785714Y-94452380D01*
X66785714Y-94642857D02*
X66785714Y-95023809D01*
X67452380Y-94785714D02*
X66595238Y-94785714D01*
X66500000Y-94833333D01*
X66452380Y-94928571D01*
X66452380Y-95023809D01*
X67452380Y-95785714D02*
X66928571Y-95785714D01*
X66833333Y-95738095D01*
X66785714Y-95642857D01*
X66785714Y-95452380D01*
X66833333Y-95357142D01*
X67404761Y-95785714D02*
X67452380Y-95690476D01*
X67452380Y-95452380D01*
X67404761Y-95357142D01*
X67309523Y-95309523D01*
X67214285Y-95309523D01*
X67119047Y-95357142D01*
X67071428Y-95452380D01*
X67071428Y-95690476D01*
X67023809Y-95785714D01*
X67404761Y-96690476D02*
X67452380Y-96595238D01*
X67452380Y-96404761D01*
X67404761Y-96309523D01*
X67357142Y-96261904D01*
X67261904Y-96214285D01*
X66976190Y-96214285D01*
X66880952Y-96261904D01*
X66833333Y-96309523D01*
X66785714Y-96404761D01*
X66785714Y-96595238D01*
X66833333Y-96690476D01*
X67404761Y-97500000D02*
X67452380Y-97404761D01*
X67452380Y-97214285D01*
X67404761Y-97119047D01*
X67309523Y-97071428D01*
X66928571Y-97071428D01*
X66833333Y-97119047D01*
X66785714Y-97214285D01*
X66785714Y-97404761D01*
X66833333Y-97500000D01*
X66928571Y-97547619D01*
X67023809Y-97547619D01*
X67119047Y-97071428D01*
M02*
