M48
; DRILL file {KiCad (5.1.0)-1} date 29/12/2019 23:08:55
; FORMAT={3:3/ absolute / metric / suppress leading zeros}
; #@! TF.CreationDate,2019-12-29T23:08:55+00:00
; #@! TF.GenerationSoftware,Kicad,Pcbnew,(5.1.0)-1
; #@! TF.FileFunction,Plated,1,2,PTH
FMAT,2
METRIC,TZ
T1C0.400
T2C1.000
T3C1.520
%
G90
G05
T1
X80228Y-92572
X82500Y-85300
X84250Y-92000
X86500Y-91300
X90100Y-97300
X90100Y-98300
X90100Y-99400
X91100Y-90600
X91400Y-88700
X93371Y-88417
X98300Y-84200
T2
X75500Y-86400
X75500Y-88940
X75500Y-91480
X75500Y-94020
X75500Y-96560
X75500Y-99100
T3
X102200Y-87340
X102200Y-92420
X102200Y-97500
T0
M30
