G04 #@! TF.GenerationSoftware,KiCad,Pcbnew,(5.1.0)-1*
G04 #@! TF.CreationDate,2019-12-29T21:42:18+00:00*
G04 #@! TF.ProjectId,WebastoWBUSInterface,57656261-7374-46f5-9742-5553496e7465,rev?*
G04 #@! TF.SameCoordinates,Original*
G04 #@! TF.FileFunction,Copper,L2,Bot*
G04 #@! TF.FilePolarity,Positive*
%FSLAX46Y46*%
G04 Gerber Fmt 4.6, Leading zero omitted, Abs format (unit mm)*
G04 Created by KiCad (PCBNEW (5.1.0)-1) date 2019-12-29 21:42:18*
%MOMM*%
%LPD*%
G04 APERTURE LIST*
%ADD10C,1.600000*%
%ADD11O,1.600000X1.600000*%
%ADD12R,3.000000X3.000000*%
%ADD13C,3.000000*%
%ADD14C,1.000000*%
%ADD15R,1.000000X1.000000*%
%ADD16R,1.700000X1.700000*%
%ADD17O,1.700000X1.700000*%
%ADD18R,1.800000X1.800000*%
%ADD19C,1.800000*%
%ADD20C,0.800000*%
%ADD21C,0.500000*%
%ADD22C,0.254000*%
G04 APERTURE END LIST*
D10*
X96100000Y-92800000D03*
D11*
X88480000Y-92800000D03*
D10*
X96400000Y-89200000D03*
D11*
X104020000Y-89200000D03*
D10*
X90000000Y-97500000D03*
D11*
X82380000Y-97500000D03*
D10*
X86000000Y-92800000D03*
D11*
X78380000Y-92800000D03*
D10*
X86200000Y-87000000D03*
D11*
X78580000Y-87000000D03*
D10*
X93200000Y-97400000D03*
D11*
X100820000Y-97400000D03*
D10*
X104100000Y-79000000D03*
D11*
X96480000Y-79000000D03*
D12*
X110700000Y-89100000D03*
D13*
X110700000Y-84020000D03*
X110700000Y-78940000D03*
D14*
X100830000Y-84130000D03*
X102100000Y-82860000D03*
D15*
X102100000Y-85400000D03*
D14*
X89730000Y-80230000D03*
X91000000Y-78960000D03*
D15*
X91000000Y-81500000D03*
D14*
X81730000Y-80230000D03*
X83000000Y-78960000D03*
D15*
X83000000Y-81500000D03*
D14*
X89730000Y-87230000D03*
X91000000Y-85960000D03*
D15*
X91000000Y-88500000D03*
D16*
X75500000Y-85500000D03*
D17*
X75500000Y-88040000D03*
X75500000Y-90580000D03*
X75500000Y-93120000D03*
X75500000Y-95660000D03*
X75500000Y-98200000D03*
D18*
X104400000Y-96500000D03*
D19*
X104400000Y-93960000D03*
D20*
X103400000Y-99200000D03*
X104400000Y-99200000D03*
X105400000Y-99200000D03*
X106400000Y-99200000D03*
X79100000Y-83700000D03*
X78100000Y-83700000D03*
X79100000Y-82700000D03*
X78100000Y-82700000D03*
X81700000Y-83700000D03*
X82900000Y-83700000D03*
D21*
X90500000Y-89000000D02*
X91000000Y-88500000D01*
X84300000Y-89000000D02*
X90500000Y-89000000D01*
X78580000Y-87000000D02*
X82300000Y-87000000D01*
X82300000Y-87000000D02*
X84300000Y-89000000D01*
X86000000Y-92800000D02*
X86300000Y-92500000D01*
D22*
G36*
X113662540Y-76679102D02*
G01*
X113818894Y-76726308D01*
X113963096Y-76802982D01*
X114089663Y-76906207D01*
X114193769Y-77032051D01*
X114271447Y-77175711D01*
X114319742Y-77331729D01*
X114340000Y-77524473D01*
X114340001Y-81967572D01*
X114340000Y-81967582D01*
X114340001Y-92673000D01*
X107469296Y-92673000D01*
X107443791Y-92675587D01*
X107420010Y-92682954D01*
X107398122Y-92694818D01*
X107378970Y-92710724D01*
X107363288Y-92730061D01*
X107351681Y-92752086D01*
X107344593Y-92775952D01*
X107342298Y-92800743D01*
X107380546Y-99340000D01*
X76442570Y-99340000D01*
X76597588Y-99200269D01*
X76771641Y-98966920D01*
X76896825Y-98704099D01*
X76941476Y-98556890D01*
X76820155Y-98327000D01*
X75627000Y-98327000D01*
X75627000Y-98347000D01*
X75373000Y-98347000D01*
X75373000Y-98327000D01*
X74179845Y-98327000D01*
X74058524Y-98556890D01*
X74103175Y-98704099D01*
X74228359Y-98966920D01*
X74402412Y-99200269D01*
X74557430Y-99340000D01*
X72527000Y-99340000D01*
X72527000Y-88040000D01*
X74007815Y-88040000D01*
X74036487Y-88331111D01*
X74121401Y-88611034D01*
X74259294Y-88869014D01*
X74444866Y-89095134D01*
X74670986Y-89280706D01*
X74725791Y-89310000D01*
X74670986Y-89339294D01*
X74444866Y-89524866D01*
X74259294Y-89750986D01*
X74121401Y-90008966D01*
X74036487Y-90288889D01*
X74007815Y-90580000D01*
X74036487Y-90871111D01*
X74121401Y-91151034D01*
X74259294Y-91409014D01*
X74444866Y-91635134D01*
X74670986Y-91820706D01*
X74725791Y-91850000D01*
X74670986Y-91879294D01*
X74444866Y-92064866D01*
X74259294Y-92290986D01*
X74121401Y-92548966D01*
X74036487Y-92828889D01*
X74007815Y-93120000D01*
X74036487Y-93411111D01*
X74121401Y-93691034D01*
X74259294Y-93949014D01*
X74444866Y-94175134D01*
X74670986Y-94360706D01*
X74725791Y-94390000D01*
X74670986Y-94419294D01*
X74444866Y-94604866D01*
X74259294Y-94830986D01*
X74121401Y-95088966D01*
X74036487Y-95368889D01*
X74007815Y-95660000D01*
X74036487Y-95951111D01*
X74121401Y-96231034D01*
X74259294Y-96489014D01*
X74444866Y-96715134D01*
X74670986Y-96900706D01*
X74735523Y-96935201D01*
X74618645Y-97004822D01*
X74402412Y-97199731D01*
X74228359Y-97433080D01*
X74103175Y-97695901D01*
X74058524Y-97843110D01*
X74179845Y-98073000D01*
X75373000Y-98073000D01*
X75373000Y-98053000D01*
X75627000Y-98053000D01*
X75627000Y-98073000D01*
X76820155Y-98073000D01*
X76941476Y-97843110D01*
X76896825Y-97695901D01*
X76803516Y-97500000D01*
X80938057Y-97500000D01*
X80965764Y-97781309D01*
X81047818Y-98051808D01*
X81181068Y-98301101D01*
X81360392Y-98519608D01*
X81578899Y-98698932D01*
X81828192Y-98832182D01*
X82098691Y-98914236D01*
X82309508Y-98935000D01*
X82450492Y-98935000D01*
X82661309Y-98914236D01*
X82931808Y-98832182D01*
X83181101Y-98698932D01*
X83399608Y-98519608D01*
X83578932Y-98301101D01*
X83712182Y-98051808D01*
X83794236Y-97781309D01*
X83821943Y-97500000D01*
X83808023Y-97358665D01*
X88565000Y-97358665D01*
X88565000Y-97641335D01*
X88620147Y-97918574D01*
X88728320Y-98179727D01*
X88885363Y-98414759D01*
X89085241Y-98614637D01*
X89320273Y-98771680D01*
X89581426Y-98879853D01*
X89858665Y-98935000D01*
X90141335Y-98935000D01*
X90418574Y-98879853D01*
X90679727Y-98771680D01*
X90914759Y-98614637D01*
X91114637Y-98414759D01*
X91271680Y-98179727D01*
X91379853Y-97918574D01*
X91435000Y-97641335D01*
X91435000Y-97358665D01*
X91415109Y-97258665D01*
X91765000Y-97258665D01*
X91765000Y-97541335D01*
X91820147Y-97818574D01*
X91928320Y-98079727D01*
X92085363Y-98314759D01*
X92285241Y-98514637D01*
X92520273Y-98671680D01*
X92781426Y-98779853D01*
X93058665Y-98835000D01*
X93341335Y-98835000D01*
X93618574Y-98779853D01*
X93879727Y-98671680D01*
X94114759Y-98514637D01*
X94314637Y-98314759D01*
X94471680Y-98079727D01*
X94579853Y-97818574D01*
X94635000Y-97541335D01*
X94635000Y-97400000D01*
X99378057Y-97400000D01*
X99405764Y-97681309D01*
X99487818Y-97951808D01*
X99621068Y-98201101D01*
X99800392Y-98419608D01*
X100018899Y-98598932D01*
X100268192Y-98732182D01*
X100538691Y-98814236D01*
X100749508Y-98835000D01*
X100890492Y-98835000D01*
X101101309Y-98814236D01*
X101371808Y-98732182D01*
X101621101Y-98598932D01*
X101839608Y-98419608D01*
X102018932Y-98201101D01*
X102152182Y-97951808D01*
X102234236Y-97681309D01*
X102261943Y-97400000D01*
X102861928Y-97400000D01*
X102874188Y-97524482D01*
X102910498Y-97644180D01*
X102969463Y-97754494D01*
X103048815Y-97851185D01*
X103145506Y-97930537D01*
X103255820Y-97989502D01*
X103375518Y-98025812D01*
X103500000Y-98038072D01*
X104114250Y-98035000D01*
X104273000Y-97876250D01*
X104273000Y-96627000D01*
X104527000Y-96627000D01*
X104527000Y-97876250D01*
X104685750Y-98035000D01*
X105300000Y-98038072D01*
X105424482Y-98025812D01*
X105544180Y-97989502D01*
X105654494Y-97930537D01*
X105751185Y-97851185D01*
X105830537Y-97754494D01*
X105889502Y-97644180D01*
X105925812Y-97524482D01*
X105938072Y-97400000D01*
X105935000Y-96785750D01*
X105776250Y-96627000D01*
X104527000Y-96627000D01*
X104273000Y-96627000D01*
X103023750Y-96627000D01*
X102865000Y-96785750D01*
X102861928Y-97400000D01*
X102261943Y-97400000D01*
X102234236Y-97118691D01*
X102152182Y-96848192D01*
X102018932Y-96598899D01*
X101839608Y-96380392D01*
X101621101Y-96201068D01*
X101371808Y-96067818D01*
X101101309Y-95985764D01*
X100890492Y-95965000D01*
X100749508Y-95965000D01*
X100538691Y-95985764D01*
X100268192Y-96067818D01*
X100018899Y-96201068D01*
X99800392Y-96380392D01*
X99621068Y-96598899D01*
X99487818Y-96848192D01*
X99405764Y-97118691D01*
X99378057Y-97400000D01*
X94635000Y-97400000D01*
X94635000Y-97258665D01*
X94579853Y-96981426D01*
X94471680Y-96720273D01*
X94314637Y-96485241D01*
X94114759Y-96285363D01*
X93879727Y-96128320D01*
X93618574Y-96020147D01*
X93341335Y-95965000D01*
X93058665Y-95965000D01*
X92781426Y-96020147D01*
X92520273Y-96128320D01*
X92285241Y-96285363D01*
X92085363Y-96485241D01*
X91928320Y-96720273D01*
X91820147Y-96981426D01*
X91765000Y-97258665D01*
X91415109Y-97258665D01*
X91379853Y-97081426D01*
X91271680Y-96820273D01*
X91114637Y-96585241D01*
X90914759Y-96385363D01*
X90679727Y-96228320D01*
X90418574Y-96120147D01*
X90141335Y-96065000D01*
X89858665Y-96065000D01*
X89581426Y-96120147D01*
X89320273Y-96228320D01*
X89085241Y-96385363D01*
X88885363Y-96585241D01*
X88728320Y-96820273D01*
X88620147Y-97081426D01*
X88565000Y-97358665D01*
X83808023Y-97358665D01*
X83794236Y-97218691D01*
X83712182Y-96948192D01*
X83578932Y-96698899D01*
X83399608Y-96480392D01*
X83181101Y-96301068D01*
X82931808Y-96167818D01*
X82661309Y-96085764D01*
X82450492Y-96065000D01*
X82309508Y-96065000D01*
X82098691Y-96085764D01*
X81828192Y-96167818D01*
X81578899Y-96301068D01*
X81360392Y-96480392D01*
X81181068Y-96698899D01*
X81047818Y-96948192D01*
X80965764Y-97218691D01*
X80938057Y-97500000D01*
X76803516Y-97500000D01*
X76771641Y-97433080D01*
X76597588Y-97199731D01*
X76381355Y-97004822D01*
X76264477Y-96935201D01*
X76329014Y-96900706D01*
X76555134Y-96715134D01*
X76740706Y-96489014D01*
X76878599Y-96231034D01*
X76963513Y-95951111D01*
X76992185Y-95660000D01*
X76986276Y-95600000D01*
X102861928Y-95600000D01*
X102865000Y-96214250D01*
X103023750Y-96373000D01*
X104273000Y-96373000D01*
X104273000Y-96353000D01*
X104527000Y-96353000D01*
X104527000Y-96373000D01*
X105776250Y-96373000D01*
X105935000Y-96214250D01*
X105938072Y-95600000D01*
X105925812Y-95475518D01*
X105889502Y-95355820D01*
X105830537Y-95245506D01*
X105751185Y-95148815D01*
X105654494Y-95069463D01*
X105544180Y-95010498D01*
X105525873Y-95004944D01*
X105592312Y-94938505D01*
X105760299Y-94687095D01*
X105876011Y-94407743D01*
X105935000Y-94111184D01*
X105935000Y-93808816D01*
X105876011Y-93512257D01*
X105760299Y-93232905D01*
X105592312Y-92981495D01*
X105378505Y-92767688D01*
X105127095Y-92599701D01*
X104847743Y-92483989D01*
X104551184Y-92425000D01*
X104248816Y-92425000D01*
X103952257Y-92483989D01*
X103672905Y-92599701D01*
X103421495Y-92767688D01*
X103207688Y-92981495D01*
X103039701Y-93232905D01*
X102923989Y-93512257D01*
X102865000Y-93808816D01*
X102865000Y-94111184D01*
X102923989Y-94407743D01*
X103039701Y-94687095D01*
X103207688Y-94938505D01*
X103274127Y-95004944D01*
X103255820Y-95010498D01*
X103145506Y-95069463D01*
X103048815Y-95148815D01*
X102969463Y-95245506D01*
X102910498Y-95355820D01*
X102874188Y-95475518D01*
X102861928Y-95600000D01*
X76986276Y-95600000D01*
X76963513Y-95368889D01*
X76878599Y-95088966D01*
X76740706Y-94830986D01*
X76555134Y-94604866D01*
X76329014Y-94419294D01*
X76274209Y-94390000D01*
X76329014Y-94360706D01*
X76555134Y-94175134D01*
X76740706Y-93949014D01*
X76878599Y-93691034D01*
X76963513Y-93411111D01*
X76988586Y-93156543D01*
X77047818Y-93351808D01*
X77181068Y-93601101D01*
X77360392Y-93819608D01*
X77578899Y-93998932D01*
X77828192Y-94132182D01*
X78098691Y-94214236D01*
X78309508Y-94235000D01*
X78450492Y-94235000D01*
X78661309Y-94214236D01*
X78931808Y-94132182D01*
X79181101Y-93998932D01*
X79399608Y-93819608D01*
X79578932Y-93601101D01*
X79712182Y-93351808D01*
X79794236Y-93081309D01*
X79821943Y-92800000D01*
X79808023Y-92658665D01*
X84565000Y-92658665D01*
X84565000Y-92941335D01*
X84620147Y-93218574D01*
X84728320Y-93479727D01*
X84885363Y-93714759D01*
X85085241Y-93914637D01*
X85320273Y-94071680D01*
X85581426Y-94179853D01*
X85858665Y-94235000D01*
X86141335Y-94235000D01*
X86418574Y-94179853D01*
X86679727Y-94071680D01*
X86914759Y-93914637D01*
X87114637Y-93714759D01*
X87240853Y-93525863D01*
X87281068Y-93601101D01*
X87460392Y-93819608D01*
X87678899Y-93998932D01*
X87928192Y-94132182D01*
X88198691Y-94214236D01*
X88409508Y-94235000D01*
X88550492Y-94235000D01*
X88761309Y-94214236D01*
X89031808Y-94132182D01*
X89281101Y-93998932D01*
X89499608Y-93819608D01*
X89678932Y-93601101D01*
X89812182Y-93351808D01*
X89894236Y-93081309D01*
X89921943Y-92800000D01*
X89908023Y-92658665D01*
X94665000Y-92658665D01*
X94665000Y-92941335D01*
X94720147Y-93218574D01*
X94828320Y-93479727D01*
X94985363Y-93714759D01*
X95185241Y-93914637D01*
X95420273Y-94071680D01*
X95681426Y-94179853D01*
X95958665Y-94235000D01*
X96241335Y-94235000D01*
X96518574Y-94179853D01*
X96779727Y-94071680D01*
X97014759Y-93914637D01*
X97214637Y-93714759D01*
X97371680Y-93479727D01*
X97479853Y-93218574D01*
X97535000Y-92941335D01*
X97535000Y-92658665D01*
X97479853Y-92381426D01*
X97371680Y-92120273D01*
X97214637Y-91885241D01*
X97014759Y-91685363D01*
X96779727Y-91528320D01*
X96518574Y-91420147D01*
X96241335Y-91365000D01*
X95958665Y-91365000D01*
X95681426Y-91420147D01*
X95420273Y-91528320D01*
X95185241Y-91685363D01*
X94985363Y-91885241D01*
X94828320Y-92120273D01*
X94720147Y-92381426D01*
X94665000Y-92658665D01*
X89908023Y-92658665D01*
X89894236Y-92518691D01*
X89812182Y-92248192D01*
X89678932Y-91998899D01*
X89499608Y-91780392D01*
X89281101Y-91601068D01*
X89031808Y-91467818D01*
X88761309Y-91385764D01*
X88550492Y-91365000D01*
X88409508Y-91365000D01*
X88198691Y-91385764D01*
X87928192Y-91467818D01*
X87678899Y-91601068D01*
X87460392Y-91780392D01*
X87281068Y-91998899D01*
X87240853Y-92074137D01*
X87114637Y-91885241D01*
X86914759Y-91685363D01*
X86679727Y-91528320D01*
X86418574Y-91420147D01*
X86141335Y-91365000D01*
X85858665Y-91365000D01*
X85581426Y-91420147D01*
X85320273Y-91528320D01*
X85085241Y-91685363D01*
X84885363Y-91885241D01*
X84728320Y-92120273D01*
X84620147Y-92381426D01*
X84565000Y-92658665D01*
X79808023Y-92658665D01*
X79794236Y-92518691D01*
X79712182Y-92248192D01*
X79578932Y-91998899D01*
X79399608Y-91780392D01*
X79181101Y-91601068D01*
X78931808Y-91467818D01*
X78661309Y-91385764D01*
X78450492Y-91365000D01*
X78309508Y-91365000D01*
X78098691Y-91385764D01*
X77828192Y-91467818D01*
X77578899Y-91601068D01*
X77360392Y-91780392D01*
X77181068Y-91998899D01*
X77047818Y-92248192D01*
X76965764Y-92518691D01*
X76942148Y-92758460D01*
X76878599Y-92548966D01*
X76740706Y-92290986D01*
X76555134Y-92064866D01*
X76329014Y-91879294D01*
X76274209Y-91850000D01*
X76329014Y-91820706D01*
X76555134Y-91635134D01*
X76740706Y-91409014D01*
X76878599Y-91151034D01*
X76963513Y-90871111D01*
X76992185Y-90580000D01*
X76963513Y-90288889D01*
X76878599Y-90008966D01*
X76740706Y-89750986D01*
X76555134Y-89524866D01*
X76329014Y-89339294D01*
X76274209Y-89310000D01*
X76329014Y-89280706D01*
X76555134Y-89095134D01*
X76740706Y-88869014D01*
X76878599Y-88611034D01*
X76963513Y-88331111D01*
X76992185Y-88040000D01*
X76963513Y-87748889D01*
X76878599Y-87468966D01*
X76740706Y-87210986D01*
X76567555Y-87000000D01*
X77138057Y-87000000D01*
X77165764Y-87281309D01*
X77247818Y-87551808D01*
X77381068Y-87801101D01*
X77560392Y-88019608D01*
X77778899Y-88198932D01*
X78028192Y-88332182D01*
X78298691Y-88414236D01*
X78509508Y-88435000D01*
X78650492Y-88435000D01*
X78861309Y-88414236D01*
X79131808Y-88332182D01*
X79381101Y-88198932D01*
X79599608Y-88019608D01*
X79710078Y-87885000D01*
X81933422Y-87885000D01*
X83643470Y-89595049D01*
X83671183Y-89628817D01*
X83704951Y-89656530D01*
X83704953Y-89656532D01*
X83776452Y-89715210D01*
X83805941Y-89739411D01*
X83959687Y-89821589D01*
X84126510Y-89872195D01*
X84256523Y-89885000D01*
X84256533Y-89885000D01*
X84299999Y-89889281D01*
X84343465Y-89885000D01*
X90456531Y-89885000D01*
X90500000Y-89889281D01*
X90543469Y-89885000D01*
X90543477Y-89885000D01*
X90673490Y-89872195D01*
X90840313Y-89821589D01*
X90994059Y-89739411D01*
X91117540Y-89638072D01*
X91500000Y-89638072D01*
X91624482Y-89625812D01*
X91744180Y-89589502D01*
X91854494Y-89530537D01*
X91951185Y-89451185D01*
X92030537Y-89354494D01*
X92089502Y-89244180D01*
X92125812Y-89124482D01*
X92132294Y-89058665D01*
X94965000Y-89058665D01*
X94965000Y-89341335D01*
X95020147Y-89618574D01*
X95128320Y-89879727D01*
X95285363Y-90114759D01*
X95485241Y-90314637D01*
X95720273Y-90471680D01*
X95981426Y-90579853D01*
X96258665Y-90635000D01*
X96541335Y-90635000D01*
X96818574Y-90579853D01*
X97079727Y-90471680D01*
X97314759Y-90314637D01*
X97514637Y-90114759D01*
X97671680Y-89879727D01*
X97779853Y-89618574D01*
X97835000Y-89341335D01*
X97835000Y-89200000D01*
X102578057Y-89200000D01*
X102605764Y-89481309D01*
X102687818Y-89751808D01*
X102821068Y-90001101D01*
X103000392Y-90219608D01*
X103218899Y-90398932D01*
X103468192Y-90532182D01*
X103738691Y-90614236D01*
X103949508Y-90635000D01*
X104090492Y-90635000D01*
X104301309Y-90614236D01*
X104571808Y-90532182D01*
X104821101Y-90398932D01*
X105039608Y-90219608D01*
X105218932Y-90001101D01*
X105352182Y-89751808D01*
X105434236Y-89481309D01*
X105461943Y-89200000D01*
X105434236Y-88918691D01*
X105352182Y-88648192D01*
X105218932Y-88398899D01*
X105039608Y-88180392D01*
X104821101Y-88001068D01*
X104571808Y-87867818D01*
X104301309Y-87785764D01*
X104090492Y-87765000D01*
X103949508Y-87765000D01*
X103738691Y-87785764D01*
X103468192Y-87867818D01*
X103218899Y-88001068D01*
X103000392Y-88180392D01*
X102821068Y-88398899D01*
X102687818Y-88648192D01*
X102605764Y-88918691D01*
X102578057Y-89200000D01*
X97835000Y-89200000D01*
X97835000Y-89058665D01*
X97779853Y-88781426D01*
X97671680Y-88520273D01*
X97514637Y-88285241D01*
X97314759Y-88085363D01*
X97079727Y-87928320D01*
X96818574Y-87820147D01*
X96541335Y-87765000D01*
X96258665Y-87765000D01*
X95981426Y-87820147D01*
X95720273Y-87928320D01*
X95485241Y-88085363D01*
X95285363Y-88285241D01*
X95128320Y-88520273D01*
X95020147Y-88781426D01*
X94965000Y-89058665D01*
X92132294Y-89058665D01*
X92138072Y-89000000D01*
X92138072Y-88000000D01*
X92125812Y-87875518D01*
X92089502Y-87755820D01*
X92030537Y-87645506D01*
X91993192Y-87600000D01*
X108561928Y-87600000D01*
X108561928Y-90600000D01*
X108574188Y-90724482D01*
X108610498Y-90844180D01*
X108669463Y-90954494D01*
X108748815Y-91051185D01*
X108845506Y-91130537D01*
X108955820Y-91189502D01*
X109075518Y-91225812D01*
X109200000Y-91238072D01*
X112200000Y-91238072D01*
X112324482Y-91225812D01*
X112444180Y-91189502D01*
X112554494Y-91130537D01*
X112651185Y-91051185D01*
X112730537Y-90954494D01*
X112789502Y-90844180D01*
X112825812Y-90724482D01*
X112838072Y-90600000D01*
X112838072Y-87600000D01*
X112825812Y-87475518D01*
X112789502Y-87355820D01*
X112730537Y-87245506D01*
X112651185Y-87148815D01*
X112554494Y-87069463D01*
X112444180Y-87010498D01*
X112324482Y-86974188D01*
X112200000Y-86961928D01*
X109200000Y-86961928D01*
X109075518Y-86974188D01*
X108955820Y-87010498D01*
X108845506Y-87069463D01*
X108748815Y-87148815D01*
X108669463Y-87245506D01*
X108610498Y-87355820D01*
X108574188Y-87475518D01*
X108561928Y-87600000D01*
X91993192Y-87600000D01*
X91951185Y-87548815D01*
X91854494Y-87469463D01*
X91744180Y-87410498D01*
X91624482Y-87374188D01*
X91500000Y-87361928D01*
X90860994Y-87361928D01*
X90865000Y-87341788D01*
X90865000Y-87118212D01*
X90859737Y-87091753D01*
X91082406Y-87097511D01*
X91302740Y-87059577D01*
X91511440Y-86979387D01*
X91563450Y-86951588D01*
X91598561Y-86738166D01*
X91000000Y-86139605D01*
X90985858Y-86153748D01*
X90806253Y-85974143D01*
X90820395Y-85960000D01*
X91179605Y-85960000D01*
X91778166Y-86558561D01*
X91991588Y-86523450D01*
X92082458Y-86319174D01*
X92131731Y-86101095D01*
X92137511Y-85877594D01*
X92099577Y-85657260D01*
X92019387Y-85448560D01*
X91991588Y-85396550D01*
X91778166Y-85361439D01*
X91179605Y-85960000D01*
X90820395Y-85960000D01*
X90221834Y-85361439D01*
X90008412Y-85396550D01*
X89917542Y-85600826D01*
X89868269Y-85818905D01*
X89862489Y-86042406D01*
X89872599Y-86101129D01*
X89841788Y-86095000D01*
X89618212Y-86095000D01*
X89398933Y-86138617D01*
X89192376Y-86224176D01*
X89006480Y-86348388D01*
X88848388Y-86506480D01*
X88724176Y-86692376D01*
X88638617Y-86898933D01*
X88595000Y-87118212D01*
X88595000Y-87341788D01*
X88638617Y-87561067D01*
X88724176Y-87767624D01*
X88848388Y-87953520D01*
X89006480Y-88111612D01*
X89011550Y-88115000D01*
X87114216Y-88115000D01*
X87114759Y-88114637D01*
X87314637Y-87914759D01*
X87471680Y-87679727D01*
X87579853Y-87418574D01*
X87635000Y-87141335D01*
X87635000Y-86858665D01*
X87579853Y-86581426D01*
X87471680Y-86320273D01*
X87314637Y-86085241D01*
X87114759Y-85885363D01*
X86879727Y-85728320D01*
X86618574Y-85620147D01*
X86341335Y-85565000D01*
X86058665Y-85565000D01*
X85781426Y-85620147D01*
X85520273Y-85728320D01*
X85285241Y-85885363D01*
X85085363Y-86085241D01*
X84928320Y-86320273D01*
X84820147Y-86581426D01*
X84765000Y-86858665D01*
X84765000Y-87141335D01*
X84820147Y-87418574D01*
X84928320Y-87679727D01*
X85085363Y-87914759D01*
X85285241Y-88114637D01*
X85285784Y-88115000D01*
X84666579Y-88115000D01*
X82956534Y-86404956D01*
X82928817Y-86371183D01*
X82794059Y-86260589D01*
X82640313Y-86178411D01*
X82473490Y-86127805D01*
X82343477Y-86115000D01*
X82343469Y-86115000D01*
X82300000Y-86110719D01*
X82256531Y-86115000D01*
X79710078Y-86115000D01*
X79599608Y-85980392D01*
X79381101Y-85801068D01*
X79131808Y-85667818D01*
X78861309Y-85585764D01*
X78650492Y-85565000D01*
X78509508Y-85565000D01*
X78298691Y-85585764D01*
X78028192Y-85667818D01*
X77778899Y-85801068D01*
X77560392Y-85980392D01*
X77381068Y-86198899D01*
X77247818Y-86448192D01*
X77165764Y-86718691D01*
X77138057Y-87000000D01*
X76567555Y-87000000D01*
X76555134Y-86984866D01*
X76525313Y-86960393D01*
X76594180Y-86939502D01*
X76704494Y-86880537D01*
X76801185Y-86801185D01*
X76880537Y-86704494D01*
X76939502Y-86594180D01*
X76975812Y-86474482D01*
X76988072Y-86350000D01*
X76988072Y-85181834D01*
X90401439Y-85181834D01*
X91000000Y-85780395D01*
X91598561Y-85181834D01*
X91563450Y-84968412D01*
X91359174Y-84877542D01*
X91141095Y-84828269D01*
X90917594Y-84822489D01*
X90697260Y-84860423D01*
X90488560Y-84940613D01*
X90436550Y-84968412D01*
X90401439Y-85181834D01*
X76988072Y-85181834D01*
X76988072Y-84650000D01*
X76975812Y-84525518D01*
X76939502Y-84405820D01*
X76880537Y-84295506D01*
X76801185Y-84198815D01*
X76704494Y-84119463D01*
X76594180Y-84060498D01*
X76474482Y-84024188D01*
X76413805Y-84018212D01*
X99695000Y-84018212D01*
X99695000Y-84241788D01*
X99738617Y-84461067D01*
X99824176Y-84667624D01*
X99948388Y-84853520D01*
X100106480Y-85011612D01*
X100292376Y-85135824D01*
X100498933Y-85221383D01*
X100718212Y-85265000D01*
X100941788Y-85265000D01*
X100961928Y-85260994D01*
X100961928Y-85900000D01*
X100974188Y-86024482D01*
X101010498Y-86144180D01*
X101069463Y-86254494D01*
X101148815Y-86351185D01*
X101245506Y-86430537D01*
X101355820Y-86489502D01*
X101475518Y-86525812D01*
X101600000Y-86538072D01*
X102600000Y-86538072D01*
X102724482Y-86525812D01*
X102844180Y-86489502D01*
X102954494Y-86430537D01*
X103051185Y-86351185D01*
X103130537Y-86254494D01*
X103189502Y-86144180D01*
X103225812Y-86024482D01*
X103238072Y-85900000D01*
X103238072Y-85511653D01*
X109387952Y-85511653D01*
X109543962Y-85827214D01*
X109918745Y-86018020D01*
X110323551Y-86132044D01*
X110742824Y-86164902D01*
X111160451Y-86115334D01*
X111560383Y-85985243D01*
X111856038Y-85827214D01*
X112012048Y-85511653D01*
X110700000Y-84199605D01*
X109387952Y-85511653D01*
X103238072Y-85511653D01*
X103238072Y-84900000D01*
X103225812Y-84775518D01*
X103189502Y-84655820D01*
X103130537Y-84545506D01*
X103051185Y-84448815D01*
X102954494Y-84369463D01*
X102844180Y-84310498D01*
X102724482Y-84274188D01*
X102600000Y-84261928D01*
X101960994Y-84261928D01*
X101965000Y-84241788D01*
X101965000Y-84062824D01*
X108555098Y-84062824D01*
X108604666Y-84480451D01*
X108734757Y-84880383D01*
X108892786Y-85176038D01*
X109208347Y-85332048D01*
X110520395Y-84020000D01*
X110879605Y-84020000D01*
X112191653Y-85332048D01*
X112507214Y-85176038D01*
X112698020Y-84801255D01*
X112812044Y-84396449D01*
X112844902Y-83977176D01*
X112795334Y-83559549D01*
X112665243Y-83159617D01*
X112507214Y-82863962D01*
X112191653Y-82707952D01*
X110879605Y-84020000D01*
X110520395Y-84020000D01*
X109208347Y-82707952D01*
X108892786Y-82863962D01*
X108701980Y-83238745D01*
X108587956Y-83643551D01*
X108555098Y-84062824D01*
X101965000Y-84062824D01*
X101965000Y-84018212D01*
X101959236Y-83989236D01*
X101988212Y-83995000D01*
X102211788Y-83995000D01*
X102431067Y-83951383D01*
X102637624Y-83865824D01*
X102823520Y-83741612D01*
X102981612Y-83583520D01*
X103105824Y-83397624D01*
X103191383Y-83191067D01*
X103235000Y-82971788D01*
X103235000Y-82748212D01*
X103191383Y-82528933D01*
X103191141Y-82528347D01*
X109387952Y-82528347D01*
X110700000Y-83840395D01*
X112012048Y-82528347D01*
X111856038Y-82212786D01*
X111481255Y-82021980D01*
X111076449Y-81907956D01*
X110657176Y-81875098D01*
X110239549Y-81924666D01*
X109839617Y-82054757D01*
X109543962Y-82212786D01*
X109387952Y-82528347D01*
X103191141Y-82528347D01*
X103105824Y-82322376D01*
X102981612Y-82136480D01*
X102823520Y-81978388D01*
X102637624Y-81854176D01*
X102431067Y-81768617D01*
X102211788Y-81725000D01*
X101988212Y-81725000D01*
X101768933Y-81768617D01*
X101562376Y-81854176D01*
X101376480Y-81978388D01*
X101218388Y-82136480D01*
X101094176Y-82322376D01*
X101008617Y-82528933D01*
X100965000Y-82748212D01*
X100965000Y-82971788D01*
X100970764Y-83000764D01*
X100941788Y-82995000D01*
X100718212Y-82995000D01*
X100498933Y-83038617D01*
X100292376Y-83124176D01*
X100106480Y-83248388D01*
X99948388Y-83406480D01*
X99824176Y-83592376D01*
X99738617Y-83798933D01*
X99695000Y-84018212D01*
X76413805Y-84018212D01*
X76350000Y-84011928D01*
X74650000Y-84011928D01*
X74525518Y-84024188D01*
X74405820Y-84060498D01*
X74295506Y-84119463D01*
X74198815Y-84198815D01*
X74119463Y-84295506D01*
X74060498Y-84405820D01*
X74024188Y-84525518D01*
X74011928Y-84650000D01*
X74011928Y-86350000D01*
X74024188Y-86474482D01*
X74060498Y-86594180D01*
X74119463Y-86704494D01*
X74198815Y-86801185D01*
X74295506Y-86880537D01*
X74405820Y-86939502D01*
X74474687Y-86960393D01*
X74444866Y-86984866D01*
X74259294Y-87210986D01*
X74121401Y-87468966D01*
X74036487Y-87748889D01*
X74007815Y-88040000D01*
X72527000Y-88040000D01*
X72527000Y-80118212D01*
X80595000Y-80118212D01*
X80595000Y-80341788D01*
X80638617Y-80561067D01*
X80724176Y-80767624D01*
X80848388Y-80953520D01*
X81006480Y-81111612D01*
X81192376Y-81235824D01*
X81398933Y-81321383D01*
X81618212Y-81365000D01*
X81841788Y-81365000D01*
X81861928Y-81360994D01*
X81861928Y-82000000D01*
X81874188Y-82124482D01*
X81910498Y-82244180D01*
X81969463Y-82354494D01*
X82048815Y-82451185D01*
X82145506Y-82530537D01*
X82255820Y-82589502D01*
X82375518Y-82625812D01*
X82500000Y-82638072D01*
X83500000Y-82638072D01*
X83624482Y-82625812D01*
X83744180Y-82589502D01*
X83854494Y-82530537D01*
X83951185Y-82451185D01*
X84030537Y-82354494D01*
X84089502Y-82244180D01*
X84125812Y-82124482D01*
X84138072Y-82000000D01*
X84138072Y-81000000D01*
X84125812Y-80875518D01*
X84089502Y-80755820D01*
X84030537Y-80645506D01*
X83951185Y-80548815D01*
X83854494Y-80469463D01*
X83744180Y-80410498D01*
X83624482Y-80374188D01*
X83500000Y-80361928D01*
X82860994Y-80361928D01*
X82865000Y-80341788D01*
X82865000Y-80118212D01*
X88595000Y-80118212D01*
X88595000Y-80341788D01*
X88638617Y-80561067D01*
X88724176Y-80767624D01*
X88848388Y-80953520D01*
X89006480Y-81111612D01*
X89192376Y-81235824D01*
X89398933Y-81321383D01*
X89618212Y-81365000D01*
X89841788Y-81365000D01*
X89861928Y-81360994D01*
X89861928Y-82000000D01*
X89874188Y-82124482D01*
X89910498Y-82244180D01*
X89969463Y-82354494D01*
X90048815Y-82451185D01*
X90145506Y-82530537D01*
X90255820Y-82589502D01*
X90375518Y-82625812D01*
X90500000Y-82638072D01*
X91500000Y-82638072D01*
X91624482Y-82625812D01*
X91744180Y-82589502D01*
X91854494Y-82530537D01*
X91951185Y-82451185D01*
X92030537Y-82354494D01*
X92089502Y-82244180D01*
X92125812Y-82124482D01*
X92138072Y-82000000D01*
X92138072Y-81000000D01*
X92125812Y-80875518D01*
X92089502Y-80755820D01*
X92030537Y-80645506D01*
X91951185Y-80548815D01*
X91854494Y-80469463D01*
X91744180Y-80410498D01*
X91624482Y-80374188D01*
X91500000Y-80361928D01*
X90860994Y-80361928D01*
X90865000Y-80341788D01*
X90865000Y-80118212D01*
X90859737Y-80091753D01*
X91082406Y-80097511D01*
X91302740Y-80059577D01*
X91511440Y-79979387D01*
X91563450Y-79951588D01*
X91598561Y-79738166D01*
X91000000Y-79139605D01*
X90985858Y-79153748D01*
X90806253Y-78974143D01*
X90820395Y-78960000D01*
X91179605Y-78960000D01*
X91778166Y-79558561D01*
X91991588Y-79523450D01*
X92082458Y-79319174D01*
X92131731Y-79101095D01*
X92134345Y-79000000D01*
X95038057Y-79000000D01*
X95065764Y-79281309D01*
X95147818Y-79551808D01*
X95281068Y-79801101D01*
X95460392Y-80019608D01*
X95678899Y-80198932D01*
X95928192Y-80332182D01*
X96198691Y-80414236D01*
X96409508Y-80435000D01*
X96550492Y-80435000D01*
X96761309Y-80414236D01*
X97031808Y-80332182D01*
X97281101Y-80198932D01*
X97499608Y-80019608D01*
X97678932Y-79801101D01*
X97812182Y-79551808D01*
X97894236Y-79281309D01*
X97921943Y-79000000D01*
X97908023Y-78858665D01*
X102665000Y-78858665D01*
X102665000Y-79141335D01*
X102720147Y-79418574D01*
X102828320Y-79679727D01*
X102985363Y-79914759D01*
X103185241Y-80114637D01*
X103420273Y-80271680D01*
X103681426Y-80379853D01*
X103958665Y-80435000D01*
X104241335Y-80435000D01*
X104518574Y-80379853D01*
X104779727Y-80271680D01*
X105014759Y-80114637D01*
X105214637Y-79914759D01*
X105371680Y-79679727D01*
X105479853Y-79418574D01*
X105535000Y-79141335D01*
X105535000Y-78858665D01*
X105509352Y-78729721D01*
X108565000Y-78729721D01*
X108565000Y-79150279D01*
X108647047Y-79562756D01*
X108807988Y-79951302D01*
X109041637Y-80300983D01*
X109339017Y-80598363D01*
X109688698Y-80832012D01*
X110077244Y-80992953D01*
X110489721Y-81075000D01*
X110910279Y-81075000D01*
X111322756Y-80992953D01*
X111711302Y-80832012D01*
X112060983Y-80598363D01*
X112358363Y-80300983D01*
X112592012Y-79951302D01*
X112752953Y-79562756D01*
X112835000Y-79150279D01*
X112835000Y-78729721D01*
X112752953Y-78317244D01*
X112592012Y-77928698D01*
X112358363Y-77579017D01*
X112060983Y-77281637D01*
X111711302Y-77047988D01*
X111322756Y-76887047D01*
X110910279Y-76805000D01*
X110489721Y-76805000D01*
X110077244Y-76887047D01*
X109688698Y-77047988D01*
X109339017Y-77281637D01*
X109041637Y-77579017D01*
X108807988Y-77928698D01*
X108647047Y-78317244D01*
X108565000Y-78729721D01*
X105509352Y-78729721D01*
X105479853Y-78581426D01*
X105371680Y-78320273D01*
X105214637Y-78085241D01*
X105014759Y-77885363D01*
X104779727Y-77728320D01*
X104518574Y-77620147D01*
X104241335Y-77565000D01*
X103958665Y-77565000D01*
X103681426Y-77620147D01*
X103420273Y-77728320D01*
X103185241Y-77885363D01*
X102985363Y-78085241D01*
X102828320Y-78320273D01*
X102720147Y-78581426D01*
X102665000Y-78858665D01*
X97908023Y-78858665D01*
X97894236Y-78718691D01*
X97812182Y-78448192D01*
X97678932Y-78198899D01*
X97499608Y-77980392D01*
X97281101Y-77801068D01*
X97031808Y-77667818D01*
X96761309Y-77585764D01*
X96550492Y-77565000D01*
X96409508Y-77565000D01*
X96198691Y-77585764D01*
X95928192Y-77667818D01*
X95678899Y-77801068D01*
X95460392Y-77980392D01*
X95281068Y-78198899D01*
X95147818Y-78448192D01*
X95065764Y-78718691D01*
X95038057Y-79000000D01*
X92134345Y-79000000D01*
X92137511Y-78877594D01*
X92099577Y-78657260D01*
X92019387Y-78448560D01*
X91991588Y-78396550D01*
X91778166Y-78361439D01*
X91179605Y-78960000D01*
X90820395Y-78960000D01*
X90221834Y-78361439D01*
X90008412Y-78396550D01*
X89917542Y-78600826D01*
X89868269Y-78818905D01*
X89862489Y-79042406D01*
X89872599Y-79101129D01*
X89841788Y-79095000D01*
X89618212Y-79095000D01*
X89398933Y-79138617D01*
X89192376Y-79224176D01*
X89006480Y-79348388D01*
X88848388Y-79506480D01*
X88724176Y-79692376D01*
X88638617Y-79898933D01*
X88595000Y-80118212D01*
X82865000Y-80118212D01*
X82859737Y-80091753D01*
X83082406Y-80097511D01*
X83302740Y-80059577D01*
X83511440Y-79979387D01*
X83563450Y-79951588D01*
X83598561Y-79738166D01*
X83000000Y-79139605D01*
X82985858Y-79153748D01*
X82806253Y-78974143D01*
X82820395Y-78960000D01*
X83179605Y-78960000D01*
X83778166Y-79558561D01*
X83991588Y-79523450D01*
X84082458Y-79319174D01*
X84131731Y-79101095D01*
X84137511Y-78877594D01*
X84099577Y-78657260D01*
X84019387Y-78448560D01*
X83991588Y-78396550D01*
X83778166Y-78361439D01*
X83179605Y-78960000D01*
X82820395Y-78960000D01*
X82221834Y-78361439D01*
X82008412Y-78396550D01*
X81917542Y-78600826D01*
X81868269Y-78818905D01*
X81862489Y-79042406D01*
X81872599Y-79101129D01*
X81841788Y-79095000D01*
X81618212Y-79095000D01*
X81398933Y-79138617D01*
X81192376Y-79224176D01*
X81006480Y-79348388D01*
X80848388Y-79506480D01*
X80724176Y-79692376D01*
X80638617Y-79898933D01*
X80595000Y-80118212D01*
X72527000Y-80118212D01*
X72527000Y-78181834D01*
X82401439Y-78181834D01*
X83000000Y-78780395D01*
X83598561Y-78181834D01*
X90401439Y-78181834D01*
X91000000Y-78780395D01*
X91598561Y-78181834D01*
X91563450Y-77968412D01*
X91359174Y-77877542D01*
X91141095Y-77828269D01*
X90917594Y-77822489D01*
X90697260Y-77860423D01*
X90488560Y-77940613D01*
X90436550Y-77968412D01*
X90401439Y-78181834D01*
X83598561Y-78181834D01*
X83563450Y-77968412D01*
X83359174Y-77877542D01*
X83141095Y-77828269D01*
X82917594Y-77822489D01*
X82697260Y-77860423D01*
X82488560Y-77940613D01*
X82436550Y-77968412D01*
X82401439Y-78181834D01*
X72527000Y-78181834D01*
X72527000Y-76660000D01*
X113467723Y-76660000D01*
X113662540Y-76679102D01*
X113662540Y-76679102D01*
G37*
X113662540Y-76679102D02*
X113818894Y-76726308D01*
X113963096Y-76802982D01*
X114089663Y-76906207D01*
X114193769Y-77032051D01*
X114271447Y-77175711D01*
X114319742Y-77331729D01*
X114340000Y-77524473D01*
X114340001Y-81967572D01*
X114340000Y-81967582D01*
X114340001Y-92673000D01*
X107469296Y-92673000D01*
X107443791Y-92675587D01*
X107420010Y-92682954D01*
X107398122Y-92694818D01*
X107378970Y-92710724D01*
X107363288Y-92730061D01*
X107351681Y-92752086D01*
X107344593Y-92775952D01*
X107342298Y-92800743D01*
X107380546Y-99340000D01*
X76442570Y-99340000D01*
X76597588Y-99200269D01*
X76771641Y-98966920D01*
X76896825Y-98704099D01*
X76941476Y-98556890D01*
X76820155Y-98327000D01*
X75627000Y-98327000D01*
X75627000Y-98347000D01*
X75373000Y-98347000D01*
X75373000Y-98327000D01*
X74179845Y-98327000D01*
X74058524Y-98556890D01*
X74103175Y-98704099D01*
X74228359Y-98966920D01*
X74402412Y-99200269D01*
X74557430Y-99340000D01*
X72527000Y-99340000D01*
X72527000Y-88040000D01*
X74007815Y-88040000D01*
X74036487Y-88331111D01*
X74121401Y-88611034D01*
X74259294Y-88869014D01*
X74444866Y-89095134D01*
X74670986Y-89280706D01*
X74725791Y-89310000D01*
X74670986Y-89339294D01*
X74444866Y-89524866D01*
X74259294Y-89750986D01*
X74121401Y-90008966D01*
X74036487Y-90288889D01*
X74007815Y-90580000D01*
X74036487Y-90871111D01*
X74121401Y-91151034D01*
X74259294Y-91409014D01*
X74444866Y-91635134D01*
X74670986Y-91820706D01*
X74725791Y-91850000D01*
X74670986Y-91879294D01*
X74444866Y-92064866D01*
X74259294Y-92290986D01*
X74121401Y-92548966D01*
X74036487Y-92828889D01*
X74007815Y-93120000D01*
X74036487Y-93411111D01*
X74121401Y-93691034D01*
X74259294Y-93949014D01*
X74444866Y-94175134D01*
X74670986Y-94360706D01*
X74725791Y-94390000D01*
X74670986Y-94419294D01*
X74444866Y-94604866D01*
X74259294Y-94830986D01*
X74121401Y-95088966D01*
X74036487Y-95368889D01*
X74007815Y-95660000D01*
X74036487Y-95951111D01*
X74121401Y-96231034D01*
X74259294Y-96489014D01*
X74444866Y-96715134D01*
X74670986Y-96900706D01*
X74735523Y-96935201D01*
X74618645Y-97004822D01*
X74402412Y-97199731D01*
X74228359Y-97433080D01*
X74103175Y-97695901D01*
X74058524Y-97843110D01*
X74179845Y-98073000D01*
X75373000Y-98073000D01*
X75373000Y-98053000D01*
X75627000Y-98053000D01*
X75627000Y-98073000D01*
X76820155Y-98073000D01*
X76941476Y-97843110D01*
X76896825Y-97695901D01*
X76803516Y-97500000D01*
X80938057Y-97500000D01*
X80965764Y-97781309D01*
X81047818Y-98051808D01*
X81181068Y-98301101D01*
X81360392Y-98519608D01*
X81578899Y-98698932D01*
X81828192Y-98832182D01*
X82098691Y-98914236D01*
X82309508Y-98935000D01*
X82450492Y-98935000D01*
X82661309Y-98914236D01*
X82931808Y-98832182D01*
X83181101Y-98698932D01*
X83399608Y-98519608D01*
X83578932Y-98301101D01*
X83712182Y-98051808D01*
X83794236Y-97781309D01*
X83821943Y-97500000D01*
X83808023Y-97358665D01*
X88565000Y-97358665D01*
X88565000Y-97641335D01*
X88620147Y-97918574D01*
X88728320Y-98179727D01*
X88885363Y-98414759D01*
X89085241Y-98614637D01*
X89320273Y-98771680D01*
X89581426Y-98879853D01*
X89858665Y-98935000D01*
X90141335Y-98935000D01*
X90418574Y-98879853D01*
X90679727Y-98771680D01*
X90914759Y-98614637D01*
X91114637Y-98414759D01*
X91271680Y-98179727D01*
X91379853Y-97918574D01*
X91435000Y-97641335D01*
X91435000Y-97358665D01*
X91415109Y-97258665D01*
X91765000Y-97258665D01*
X91765000Y-97541335D01*
X91820147Y-97818574D01*
X91928320Y-98079727D01*
X92085363Y-98314759D01*
X92285241Y-98514637D01*
X92520273Y-98671680D01*
X92781426Y-98779853D01*
X93058665Y-98835000D01*
X93341335Y-98835000D01*
X93618574Y-98779853D01*
X93879727Y-98671680D01*
X94114759Y-98514637D01*
X94314637Y-98314759D01*
X94471680Y-98079727D01*
X94579853Y-97818574D01*
X94635000Y-97541335D01*
X94635000Y-97400000D01*
X99378057Y-97400000D01*
X99405764Y-97681309D01*
X99487818Y-97951808D01*
X99621068Y-98201101D01*
X99800392Y-98419608D01*
X100018899Y-98598932D01*
X100268192Y-98732182D01*
X100538691Y-98814236D01*
X100749508Y-98835000D01*
X100890492Y-98835000D01*
X101101309Y-98814236D01*
X101371808Y-98732182D01*
X101621101Y-98598932D01*
X101839608Y-98419608D01*
X102018932Y-98201101D01*
X102152182Y-97951808D01*
X102234236Y-97681309D01*
X102261943Y-97400000D01*
X102861928Y-97400000D01*
X102874188Y-97524482D01*
X102910498Y-97644180D01*
X102969463Y-97754494D01*
X103048815Y-97851185D01*
X103145506Y-97930537D01*
X103255820Y-97989502D01*
X103375518Y-98025812D01*
X103500000Y-98038072D01*
X104114250Y-98035000D01*
X104273000Y-97876250D01*
X104273000Y-96627000D01*
X104527000Y-96627000D01*
X104527000Y-97876250D01*
X104685750Y-98035000D01*
X105300000Y-98038072D01*
X105424482Y-98025812D01*
X105544180Y-97989502D01*
X105654494Y-97930537D01*
X105751185Y-97851185D01*
X105830537Y-97754494D01*
X105889502Y-97644180D01*
X105925812Y-97524482D01*
X105938072Y-97400000D01*
X105935000Y-96785750D01*
X105776250Y-96627000D01*
X104527000Y-96627000D01*
X104273000Y-96627000D01*
X103023750Y-96627000D01*
X102865000Y-96785750D01*
X102861928Y-97400000D01*
X102261943Y-97400000D01*
X102234236Y-97118691D01*
X102152182Y-96848192D01*
X102018932Y-96598899D01*
X101839608Y-96380392D01*
X101621101Y-96201068D01*
X101371808Y-96067818D01*
X101101309Y-95985764D01*
X100890492Y-95965000D01*
X100749508Y-95965000D01*
X100538691Y-95985764D01*
X100268192Y-96067818D01*
X100018899Y-96201068D01*
X99800392Y-96380392D01*
X99621068Y-96598899D01*
X99487818Y-96848192D01*
X99405764Y-97118691D01*
X99378057Y-97400000D01*
X94635000Y-97400000D01*
X94635000Y-97258665D01*
X94579853Y-96981426D01*
X94471680Y-96720273D01*
X94314637Y-96485241D01*
X94114759Y-96285363D01*
X93879727Y-96128320D01*
X93618574Y-96020147D01*
X93341335Y-95965000D01*
X93058665Y-95965000D01*
X92781426Y-96020147D01*
X92520273Y-96128320D01*
X92285241Y-96285363D01*
X92085363Y-96485241D01*
X91928320Y-96720273D01*
X91820147Y-96981426D01*
X91765000Y-97258665D01*
X91415109Y-97258665D01*
X91379853Y-97081426D01*
X91271680Y-96820273D01*
X91114637Y-96585241D01*
X90914759Y-96385363D01*
X90679727Y-96228320D01*
X90418574Y-96120147D01*
X90141335Y-96065000D01*
X89858665Y-96065000D01*
X89581426Y-96120147D01*
X89320273Y-96228320D01*
X89085241Y-96385363D01*
X88885363Y-96585241D01*
X88728320Y-96820273D01*
X88620147Y-97081426D01*
X88565000Y-97358665D01*
X83808023Y-97358665D01*
X83794236Y-97218691D01*
X83712182Y-96948192D01*
X83578932Y-96698899D01*
X83399608Y-96480392D01*
X83181101Y-96301068D01*
X82931808Y-96167818D01*
X82661309Y-96085764D01*
X82450492Y-96065000D01*
X82309508Y-96065000D01*
X82098691Y-96085764D01*
X81828192Y-96167818D01*
X81578899Y-96301068D01*
X81360392Y-96480392D01*
X81181068Y-96698899D01*
X81047818Y-96948192D01*
X80965764Y-97218691D01*
X80938057Y-97500000D01*
X76803516Y-97500000D01*
X76771641Y-97433080D01*
X76597588Y-97199731D01*
X76381355Y-97004822D01*
X76264477Y-96935201D01*
X76329014Y-96900706D01*
X76555134Y-96715134D01*
X76740706Y-96489014D01*
X76878599Y-96231034D01*
X76963513Y-95951111D01*
X76992185Y-95660000D01*
X76986276Y-95600000D01*
X102861928Y-95600000D01*
X102865000Y-96214250D01*
X103023750Y-96373000D01*
X104273000Y-96373000D01*
X104273000Y-96353000D01*
X104527000Y-96353000D01*
X104527000Y-96373000D01*
X105776250Y-96373000D01*
X105935000Y-96214250D01*
X105938072Y-95600000D01*
X105925812Y-95475518D01*
X105889502Y-95355820D01*
X105830537Y-95245506D01*
X105751185Y-95148815D01*
X105654494Y-95069463D01*
X105544180Y-95010498D01*
X105525873Y-95004944D01*
X105592312Y-94938505D01*
X105760299Y-94687095D01*
X105876011Y-94407743D01*
X105935000Y-94111184D01*
X105935000Y-93808816D01*
X105876011Y-93512257D01*
X105760299Y-93232905D01*
X105592312Y-92981495D01*
X105378505Y-92767688D01*
X105127095Y-92599701D01*
X104847743Y-92483989D01*
X104551184Y-92425000D01*
X104248816Y-92425000D01*
X103952257Y-92483989D01*
X103672905Y-92599701D01*
X103421495Y-92767688D01*
X103207688Y-92981495D01*
X103039701Y-93232905D01*
X102923989Y-93512257D01*
X102865000Y-93808816D01*
X102865000Y-94111184D01*
X102923989Y-94407743D01*
X103039701Y-94687095D01*
X103207688Y-94938505D01*
X103274127Y-95004944D01*
X103255820Y-95010498D01*
X103145506Y-95069463D01*
X103048815Y-95148815D01*
X102969463Y-95245506D01*
X102910498Y-95355820D01*
X102874188Y-95475518D01*
X102861928Y-95600000D01*
X76986276Y-95600000D01*
X76963513Y-95368889D01*
X76878599Y-95088966D01*
X76740706Y-94830986D01*
X76555134Y-94604866D01*
X76329014Y-94419294D01*
X76274209Y-94390000D01*
X76329014Y-94360706D01*
X76555134Y-94175134D01*
X76740706Y-93949014D01*
X76878599Y-93691034D01*
X76963513Y-93411111D01*
X76988586Y-93156543D01*
X77047818Y-93351808D01*
X77181068Y-93601101D01*
X77360392Y-93819608D01*
X77578899Y-93998932D01*
X77828192Y-94132182D01*
X78098691Y-94214236D01*
X78309508Y-94235000D01*
X78450492Y-94235000D01*
X78661309Y-94214236D01*
X78931808Y-94132182D01*
X79181101Y-93998932D01*
X79399608Y-93819608D01*
X79578932Y-93601101D01*
X79712182Y-93351808D01*
X79794236Y-93081309D01*
X79821943Y-92800000D01*
X79808023Y-92658665D01*
X84565000Y-92658665D01*
X84565000Y-92941335D01*
X84620147Y-93218574D01*
X84728320Y-93479727D01*
X84885363Y-93714759D01*
X85085241Y-93914637D01*
X85320273Y-94071680D01*
X85581426Y-94179853D01*
X85858665Y-94235000D01*
X86141335Y-94235000D01*
X86418574Y-94179853D01*
X86679727Y-94071680D01*
X86914759Y-93914637D01*
X87114637Y-93714759D01*
X87240853Y-93525863D01*
X87281068Y-93601101D01*
X87460392Y-93819608D01*
X87678899Y-93998932D01*
X87928192Y-94132182D01*
X88198691Y-94214236D01*
X88409508Y-94235000D01*
X88550492Y-94235000D01*
X88761309Y-94214236D01*
X89031808Y-94132182D01*
X89281101Y-93998932D01*
X89499608Y-93819608D01*
X89678932Y-93601101D01*
X89812182Y-93351808D01*
X89894236Y-93081309D01*
X89921943Y-92800000D01*
X89908023Y-92658665D01*
X94665000Y-92658665D01*
X94665000Y-92941335D01*
X94720147Y-93218574D01*
X94828320Y-93479727D01*
X94985363Y-93714759D01*
X95185241Y-93914637D01*
X95420273Y-94071680D01*
X95681426Y-94179853D01*
X95958665Y-94235000D01*
X96241335Y-94235000D01*
X96518574Y-94179853D01*
X96779727Y-94071680D01*
X97014759Y-93914637D01*
X97214637Y-93714759D01*
X97371680Y-93479727D01*
X97479853Y-93218574D01*
X97535000Y-92941335D01*
X97535000Y-92658665D01*
X97479853Y-92381426D01*
X97371680Y-92120273D01*
X97214637Y-91885241D01*
X97014759Y-91685363D01*
X96779727Y-91528320D01*
X96518574Y-91420147D01*
X96241335Y-91365000D01*
X95958665Y-91365000D01*
X95681426Y-91420147D01*
X95420273Y-91528320D01*
X95185241Y-91685363D01*
X94985363Y-91885241D01*
X94828320Y-92120273D01*
X94720147Y-92381426D01*
X94665000Y-92658665D01*
X89908023Y-92658665D01*
X89894236Y-92518691D01*
X89812182Y-92248192D01*
X89678932Y-91998899D01*
X89499608Y-91780392D01*
X89281101Y-91601068D01*
X89031808Y-91467818D01*
X88761309Y-91385764D01*
X88550492Y-91365000D01*
X88409508Y-91365000D01*
X88198691Y-91385764D01*
X87928192Y-91467818D01*
X87678899Y-91601068D01*
X87460392Y-91780392D01*
X87281068Y-91998899D01*
X87240853Y-92074137D01*
X87114637Y-91885241D01*
X86914759Y-91685363D01*
X86679727Y-91528320D01*
X86418574Y-91420147D01*
X86141335Y-91365000D01*
X85858665Y-91365000D01*
X85581426Y-91420147D01*
X85320273Y-91528320D01*
X85085241Y-91685363D01*
X84885363Y-91885241D01*
X84728320Y-92120273D01*
X84620147Y-92381426D01*
X84565000Y-92658665D01*
X79808023Y-92658665D01*
X79794236Y-92518691D01*
X79712182Y-92248192D01*
X79578932Y-91998899D01*
X79399608Y-91780392D01*
X79181101Y-91601068D01*
X78931808Y-91467818D01*
X78661309Y-91385764D01*
X78450492Y-91365000D01*
X78309508Y-91365000D01*
X78098691Y-91385764D01*
X77828192Y-91467818D01*
X77578899Y-91601068D01*
X77360392Y-91780392D01*
X77181068Y-91998899D01*
X77047818Y-92248192D01*
X76965764Y-92518691D01*
X76942148Y-92758460D01*
X76878599Y-92548966D01*
X76740706Y-92290986D01*
X76555134Y-92064866D01*
X76329014Y-91879294D01*
X76274209Y-91850000D01*
X76329014Y-91820706D01*
X76555134Y-91635134D01*
X76740706Y-91409014D01*
X76878599Y-91151034D01*
X76963513Y-90871111D01*
X76992185Y-90580000D01*
X76963513Y-90288889D01*
X76878599Y-90008966D01*
X76740706Y-89750986D01*
X76555134Y-89524866D01*
X76329014Y-89339294D01*
X76274209Y-89310000D01*
X76329014Y-89280706D01*
X76555134Y-89095134D01*
X76740706Y-88869014D01*
X76878599Y-88611034D01*
X76963513Y-88331111D01*
X76992185Y-88040000D01*
X76963513Y-87748889D01*
X76878599Y-87468966D01*
X76740706Y-87210986D01*
X76567555Y-87000000D01*
X77138057Y-87000000D01*
X77165764Y-87281309D01*
X77247818Y-87551808D01*
X77381068Y-87801101D01*
X77560392Y-88019608D01*
X77778899Y-88198932D01*
X78028192Y-88332182D01*
X78298691Y-88414236D01*
X78509508Y-88435000D01*
X78650492Y-88435000D01*
X78861309Y-88414236D01*
X79131808Y-88332182D01*
X79381101Y-88198932D01*
X79599608Y-88019608D01*
X79710078Y-87885000D01*
X81933422Y-87885000D01*
X83643470Y-89595049D01*
X83671183Y-89628817D01*
X83704951Y-89656530D01*
X83704953Y-89656532D01*
X83776452Y-89715210D01*
X83805941Y-89739411D01*
X83959687Y-89821589D01*
X84126510Y-89872195D01*
X84256523Y-89885000D01*
X84256533Y-89885000D01*
X84299999Y-89889281D01*
X84343465Y-89885000D01*
X90456531Y-89885000D01*
X90500000Y-89889281D01*
X90543469Y-89885000D01*
X90543477Y-89885000D01*
X90673490Y-89872195D01*
X90840313Y-89821589D01*
X90994059Y-89739411D01*
X91117540Y-89638072D01*
X91500000Y-89638072D01*
X91624482Y-89625812D01*
X91744180Y-89589502D01*
X91854494Y-89530537D01*
X91951185Y-89451185D01*
X92030537Y-89354494D01*
X92089502Y-89244180D01*
X92125812Y-89124482D01*
X92132294Y-89058665D01*
X94965000Y-89058665D01*
X94965000Y-89341335D01*
X95020147Y-89618574D01*
X95128320Y-89879727D01*
X95285363Y-90114759D01*
X95485241Y-90314637D01*
X95720273Y-90471680D01*
X95981426Y-90579853D01*
X96258665Y-90635000D01*
X96541335Y-90635000D01*
X96818574Y-90579853D01*
X97079727Y-90471680D01*
X97314759Y-90314637D01*
X97514637Y-90114759D01*
X97671680Y-89879727D01*
X97779853Y-89618574D01*
X97835000Y-89341335D01*
X97835000Y-89200000D01*
X102578057Y-89200000D01*
X102605764Y-89481309D01*
X102687818Y-89751808D01*
X102821068Y-90001101D01*
X103000392Y-90219608D01*
X103218899Y-90398932D01*
X103468192Y-90532182D01*
X103738691Y-90614236D01*
X103949508Y-90635000D01*
X104090492Y-90635000D01*
X104301309Y-90614236D01*
X104571808Y-90532182D01*
X104821101Y-90398932D01*
X105039608Y-90219608D01*
X105218932Y-90001101D01*
X105352182Y-89751808D01*
X105434236Y-89481309D01*
X105461943Y-89200000D01*
X105434236Y-88918691D01*
X105352182Y-88648192D01*
X105218932Y-88398899D01*
X105039608Y-88180392D01*
X104821101Y-88001068D01*
X104571808Y-87867818D01*
X104301309Y-87785764D01*
X104090492Y-87765000D01*
X103949508Y-87765000D01*
X103738691Y-87785764D01*
X103468192Y-87867818D01*
X103218899Y-88001068D01*
X103000392Y-88180392D01*
X102821068Y-88398899D01*
X102687818Y-88648192D01*
X102605764Y-88918691D01*
X102578057Y-89200000D01*
X97835000Y-89200000D01*
X97835000Y-89058665D01*
X97779853Y-88781426D01*
X97671680Y-88520273D01*
X97514637Y-88285241D01*
X97314759Y-88085363D01*
X97079727Y-87928320D01*
X96818574Y-87820147D01*
X96541335Y-87765000D01*
X96258665Y-87765000D01*
X95981426Y-87820147D01*
X95720273Y-87928320D01*
X95485241Y-88085363D01*
X95285363Y-88285241D01*
X95128320Y-88520273D01*
X95020147Y-88781426D01*
X94965000Y-89058665D01*
X92132294Y-89058665D01*
X92138072Y-89000000D01*
X92138072Y-88000000D01*
X92125812Y-87875518D01*
X92089502Y-87755820D01*
X92030537Y-87645506D01*
X91993192Y-87600000D01*
X108561928Y-87600000D01*
X108561928Y-90600000D01*
X108574188Y-90724482D01*
X108610498Y-90844180D01*
X108669463Y-90954494D01*
X108748815Y-91051185D01*
X108845506Y-91130537D01*
X108955820Y-91189502D01*
X109075518Y-91225812D01*
X109200000Y-91238072D01*
X112200000Y-91238072D01*
X112324482Y-91225812D01*
X112444180Y-91189502D01*
X112554494Y-91130537D01*
X112651185Y-91051185D01*
X112730537Y-90954494D01*
X112789502Y-90844180D01*
X112825812Y-90724482D01*
X112838072Y-90600000D01*
X112838072Y-87600000D01*
X112825812Y-87475518D01*
X112789502Y-87355820D01*
X112730537Y-87245506D01*
X112651185Y-87148815D01*
X112554494Y-87069463D01*
X112444180Y-87010498D01*
X112324482Y-86974188D01*
X112200000Y-86961928D01*
X109200000Y-86961928D01*
X109075518Y-86974188D01*
X108955820Y-87010498D01*
X108845506Y-87069463D01*
X108748815Y-87148815D01*
X108669463Y-87245506D01*
X108610498Y-87355820D01*
X108574188Y-87475518D01*
X108561928Y-87600000D01*
X91993192Y-87600000D01*
X91951185Y-87548815D01*
X91854494Y-87469463D01*
X91744180Y-87410498D01*
X91624482Y-87374188D01*
X91500000Y-87361928D01*
X90860994Y-87361928D01*
X90865000Y-87341788D01*
X90865000Y-87118212D01*
X90859737Y-87091753D01*
X91082406Y-87097511D01*
X91302740Y-87059577D01*
X91511440Y-86979387D01*
X91563450Y-86951588D01*
X91598561Y-86738166D01*
X91000000Y-86139605D01*
X90985858Y-86153748D01*
X90806253Y-85974143D01*
X90820395Y-85960000D01*
X91179605Y-85960000D01*
X91778166Y-86558561D01*
X91991588Y-86523450D01*
X92082458Y-86319174D01*
X92131731Y-86101095D01*
X92137511Y-85877594D01*
X92099577Y-85657260D01*
X92019387Y-85448560D01*
X91991588Y-85396550D01*
X91778166Y-85361439D01*
X91179605Y-85960000D01*
X90820395Y-85960000D01*
X90221834Y-85361439D01*
X90008412Y-85396550D01*
X89917542Y-85600826D01*
X89868269Y-85818905D01*
X89862489Y-86042406D01*
X89872599Y-86101129D01*
X89841788Y-86095000D01*
X89618212Y-86095000D01*
X89398933Y-86138617D01*
X89192376Y-86224176D01*
X89006480Y-86348388D01*
X88848388Y-86506480D01*
X88724176Y-86692376D01*
X88638617Y-86898933D01*
X88595000Y-87118212D01*
X88595000Y-87341788D01*
X88638617Y-87561067D01*
X88724176Y-87767624D01*
X88848388Y-87953520D01*
X89006480Y-88111612D01*
X89011550Y-88115000D01*
X87114216Y-88115000D01*
X87114759Y-88114637D01*
X87314637Y-87914759D01*
X87471680Y-87679727D01*
X87579853Y-87418574D01*
X87635000Y-87141335D01*
X87635000Y-86858665D01*
X87579853Y-86581426D01*
X87471680Y-86320273D01*
X87314637Y-86085241D01*
X87114759Y-85885363D01*
X86879727Y-85728320D01*
X86618574Y-85620147D01*
X86341335Y-85565000D01*
X86058665Y-85565000D01*
X85781426Y-85620147D01*
X85520273Y-85728320D01*
X85285241Y-85885363D01*
X85085363Y-86085241D01*
X84928320Y-86320273D01*
X84820147Y-86581426D01*
X84765000Y-86858665D01*
X84765000Y-87141335D01*
X84820147Y-87418574D01*
X84928320Y-87679727D01*
X85085363Y-87914759D01*
X85285241Y-88114637D01*
X85285784Y-88115000D01*
X84666579Y-88115000D01*
X82956534Y-86404956D01*
X82928817Y-86371183D01*
X82794059Y-86260589D01*
X82640313Y-86178411D01*
X82473490Y-86127805D01*
X82343477Y-86115000D01*
X82343469Y-86115000D01*
X82300000Y-86110719D01*
X82256531Y-86115000D01*
X79710078Y-86115000D01*
X79599608Y-85980392D01*
X79381101Y-85801068D01*
X79131808Y-85667818D01*
X78861309Y-85585764D01*
X78650492Y-85565000D01*
X78509508Y-85565000D01*
X78298691Y-85585764D01*
X78028192Y-85667818D01*
X77778899Y-85801068D01*
X77560392Y-85980392D01*
X77381068Y-86198899D01*
X77247818Y-86448192D01*
X77165764Y-86718691D01*
X77138057Y-87000000D01*
X76567555Y-87000000D01*
X76555134Y-86984866D01*
X76525313Y-86960393D01*
X76594180Y-86939502D01*
X76704494Y-86880537D01*
X76801185Y-86801185D01*
X76880537Y-86704494D01*
X76939502Y-86594180D01*
X76975812Y-86474482D01*
X76988072Y-86350000D01*
X76988072Y-85181834D01*
X90401439Y-85181834D01*
X91000000Y-85780395D01*
X91598561Y-85181834D01*
X91563450Y-84968412D01*
X91359174Y-84877542D01*
X91141095Y-84828269D01*
X90917594Y-84822489D01*
X90697260Y-84860423D01*
X90488560Y-84940613D01*
X90436550Y-84968412D01*
X90401439Y-85181834D01*
X76988072Y-85181834D01*
X76988072Y-84650000D01*
X76975812Y-84525518D01*
X76939502Y-84405820D01*
X76880537Y-84295506D01*
X76801185Y-84198815D01*
X76704494Y-84119463D01*
X76594180Y-84060498D01*
X76474482Y-84024188D01*
X76413805Y-84018212D01*
X99695000Y-84018212D01*
X99695000Y-84241788D01*
X99738617Y-84461067D01*
X99824176Y-84667624D01*
X99948388Y-84853520D01*
X100106480Y-85011612D01*
X100292376Y-85135824D01*
X100498933Y-85221383D01*
X100718212Y-85265000D01*
X100941788Y-85265000D01*
X100961928Y-85260994D01*
X100961928Y-85900000D01*
X100974188Y-86024482D01*
X101010498Y-86144180D01*
X101069463Y-86254494D01*
X101148815Y-86351185D01*
X101245506Y-86430537D01*
X101355820Y-86489502D01*
X101475518Y-86525812D01*
X101600000Y-86538072D01*
X102600000Y-86538072D01*
X102724482Y-86525812D01*
X102844180Y-86489502D01*
X102954494Y-86430537D01*
X103051185Y-86351185D01*
X103130537Y-86254494D01*
X103189502Y-86144180D01*
X103225812Y-86024482D01*
X103238072Y-85900000D01*
X103238072Y-85511653D01*
X109387952Y-85511653D01*
X109543962Y-85827214D01*
X109918745Y-86018020D01*
X110323551Y-86132044D01*
X110742824Y-86164902D01*
X111160451Y-86115334D01*
X111560383Y-85985243D01*
X111856038Y-85827214D01*
X112012048Y-85511653D01*
X110700000Y-84199605D01*
X109387952Y-85511653D01*
X103238072Y-85511653D01*
X103238072Y-84900000D01*
X103225812Y-84775518D01*
X103189502Y-84655820D01*
X103130537Y-84545506D01*
X103051185Y-84448815D01*
X102954494Y-84369463D01*
X102844180Y-84310498D01*
X102724482Y-84274188D01*
X102600000Y-84261928D01*
X101960994Y-84261928D01*
X101965000Y-84241788D01*
X101965000Y-84062824D01*
X108555098Y-84062824D01*
X108604666Y-84480451D01*
X108734757Y-84880383D01*
X108892786Y-85176038D01*
X109208347Y-85332048D01*
X110520395Y-84020000D01*
X110879605Y-84020000D01*
X112191653Y-85332048D01*
X112507214Y-85176038D01*
X112698020Y-84801255D01*
X112812044Y-84396449D01*
X112844902Y-83977176D01*
X112795334Y-83559549D01*
X112665243Y-83159617D01*
X112507214Y-82863962D01*
X112191653Y-82707952D01*
X110879605Y-84020000D01*
X110520395Y-84020000D01*
X109208347Y-82707952D01*
X108892786Y-82863962D01*
X108701980Y-83238745D01*
X108587956Y-83643551D01*
X108555098Y-84062824D01*
X101965000Y-84062824D01*
X101965000Y-84018212D01*
X101959236Y-83989236D01*
X101988212Y-83995000D01*
X102211788Y-83995000D01*
X102431067Y-83951383D01*
X102637624Y-83865824D01*
X102823520Y-83741612D01*
X102981612Y-83583520D01*
X103105824Y-83397624D01*
X103191383Y-83191067D01*
X103235000Y-82971788D01*
X103235000Y-82748212D01*
X103191383Y-82528933D01*
X103191141Y-82528347D01*
X109387952Y-82528347D01*
X110700000Y-83840395D01*
X112012048Y-82528347D01*
X111856038Y-82212786D01*
X111481255Y-82021980D01*
X111076449Y-81907956D01*
X110657176Y-81875098D01*
X110239549Y-81924666D01*
X109839617Y-82054757D01*
X109543962Y-82212786D01*
X109387952Y-82528347D01*
X103191141Y-82528347D01*
X103105824Y-82322376D01*
X102981612Y-82136480D01*
X102823520Y-81978388D01*
X102637624Y-81854176D01*
X102431067Y-81768617D01*
X102211788Y-81725000D01*
X101988212Y-81725000D01*
X101768933Y-81768617D01*
X101562376Y-81854176D01*
X101376480Y-81978388D01*
X101218388Y-82136480D01*
X101094176Y-82322376D01*
X101008617Y-82528933D01*
X100965000Y-82748212D01*
X100965000Y-82971788D01*
X100970764Y-83000764D01*
X100941788Y-82995000D01*
X100718212Y-82995000D01*
X100498933Y-83038617D01*
X100292376Y-83124176D01*
X100106480Y-83248388D01*
X99948388Y-83406480D01*
X99824176Y-83592376D01*
X99738617Y-83798933D01*
X99695000Y-84018212D01*
X76413805Y-84018212D01*
X76350000Y-84011928D01*
X74650000Y-84011928D01*
X74525518Y-84024188D01*
X74405820Y-84060498D01*
X74295506Y-84119463D01*
X74198815Y-84198815D01*
X74119463Y-84295506D01*
X74060498Y-84405820D01*
X74024188Y-84525518D01*
X74011928Y-84650000D01*
X74011928Y-86350000D01*
X74024188Y-86474482D01*
X74060498Y-86594180D01*
X74119463Y-86704494D01*
X74198815Y-86801185D01*
X74295506Y-86880537D01*
X74405820Y-86939502D01*
X74474687Y-86960393D01*
X74444866Y-86984866D01*
X74259294Y-87210986D01*
X74121401Y-87468966D01*
X74036487Y-87748889D01*
X74007815Y-88040000D01*
X72527000Y-88040000D01*
X72527000Y-80118212D01*
X80595000Y-80118212D01*
X80595000Y-80341788D01*
X80638617Y-80561067D01*
X80724176Y-80767624D01*
X80848388Y-80953520D01*
X81006480Y-81111612D01*
X81192376Y-81235824D01*
X81398933Y-81321383D01*
X81618212Y-81365000D01*
X81841788Y-81365000D01*
X81861928Y-81360994D01*
X81861928Y-82000000D01*
X81874188Y-82124482D01*
X81910498Y-82244180D01*
X81969463Y-82354494D01*
X82048815Y-82451185D01*
X82145506Y-82530537D01*
X82255820Y-82589502D01*
X82375518Y-82625812D01*
X82500000Y-82638072D01*
X83500000Y-82638072D01*
X83624482Y-82625812D01*
X83744180Y-82589502D01*
X83854494Y-82530537D01*
X83951185Y-82451185D01*
X84030537Y-82354494D01*
X84089502Y-82244180D01*
X84125812Y-82124482D01*
X84138072Y-82000000D01*
X84138072Y-81000000D01*
X84125812Y-80875518D01*
X84089502Y-80755820D01*
X84030537Y-80645506D01*
X83951185Y-80548815D01*
X83854494Y-80469463D01*
X83744180Y-80410498D01*
X83624482Y-80374188D01*
X83500000Y-80361928D01*
X82860994Y-80361928D01*
X82865000Y-80341788D01*
X82865000Y-80118212D01*
X88595000Y-80118212D01*
X88595000Y-80341788D01*
X88638617Y-80561067D01*
X88724176Y-80767624D01*
X88848388Y-80953520D01*
X89006480Y-81111612D01*
X89192376Y-81235824D01*
X89398933Y-81321383D01*
X89618212Y-81365000D01*
X89841788Y-81365000D01*
X89861928Y-81360994D01*
X89861928Y-82000000D01*
X89874188Y-82124482D01*
X89910498Y-82244180D01*
X89969463Y-82354494D01*
X90048815Y-82451185D01*
X90145506Y-82530537D01*
X90255820Y-82589502D01*
X90375518Y-82625812D01*
X90500000Y-82638072D01*
X91500000Y-82638072D01*
X91624482Y-82625812D01*
X91744180Y-82589502D01*
X91854494Y-82530537D01*
X91951185Y-82451185D01*
X92030537Y-82354494D01*
X92089502Y-82244180D01*
X92125812Y-82124482D01*
X92138072Y-82000000D01*
X92138072Y-81000000D01*
X92125812Y-80875518D01*
X92089502Y-80755820D01*
X92030537Y-80645506D01*
X91951185Y-80548815D01*
X91854494Y-80469463D01*
X91744180Y-80410498D01*
X91624482Y-80374188D01*
X91500000Y-80361928D01*
X90860994Y-80361928D01*
X90865000Y-80341788D01*
X90865000Y-80118212D01*
X90859737Y-80091753D01*
X91082406Y-80097511D01*
X91302740Y-80059577D01*
X91511440Y-79979387D01*
X91563450Y-79951588D01*
X91598561Y-79738166D01*
X91000000Y-79139605D01*
X90985858Y-79153748D01*
X90806253Y-78974143D01*
X90820395Y-78960000D01*
X91179605Y-78960000D01*
X91778166Y-79558561D01*
X91991588Y-79523450D01*
X92082458Y-79319174D01*
X92131731Y-79101095D01*
X92134345Y-79000000D01*
X95038057Y-79000000D01*
X95065764Y-79281309D01*
X95147818Y-79551808D01*
X95281068Y-79801101D01*
X95460392Y-80019608D01*
X95678899Y-80198932D01*
X95928192Y-80332182D01*
X96198691Y-80414236D01*
X96409508Y-80435000D01*
X96550492Y-80435000D01*
X96761309Y-80414236D01*
X97031808Y-80332182D01*
X97281101Y-80198932D01*
X97499608Y-80019608D01*
X97678932Y-79801101D01*
X97812182Y-79551808D01*
X97894236Y-79281309D01*
X97921943Y-79000000D01*
X97908023Y-78858665D01*
X102665000Y-78858665D01*
X102665000Y-79141335D01*
X102720147Y-79418574D01*
X102828320Y-79679727D01*
X102985363Y-79914759D01*
X103185241Y-80114637D01*
X103420273Y-80271680D01*
X103681426Y-80379853D01*
X103958665Y-80435000D01*
X104241335Y-80435000D01*
X104518574Y-80379853D01*
X104779727Y-80271680D01*
X105014759Y-80114637D01*
X105214637Y-79914759D01*
X105371680Y-79679727D01*
X105479853Y-79418574D01*
X105535000Y-79141335D01*
X105535000Y-78858665D01*
X105509352Y-78729721D01*
X108565000Y-78729721D01*
X108565000Y-79150279D01*
X108647047Y-79562756D01*
X108807988Y-79951302D01*
X109041637Y-80300983D01*
X109339017Y-80598363D01*
X109688698Y-80832012D01*
X110077244Y-80992953D01*
X110489721Y-81075000D01*
X110910279Y-81075000D01*
X111322756Y-80992953D01*
X111711302Y-80832012D01*
X112060983Y-80598363D01*
X112358363Y-80300983D01*
X112592012Y-79951302D01*
X112752953Y-79562756D01*
X112835000Y-79150279D01*
X112835000Y-78729721D01*
X112752953Y-78317244D01*
X112592012Y-77928698D01*
X112358363Y-77579017D01*
X112060983Y-77281637D01*
X111711302Y-77047988D01*
X111322756Y-76887047D01*
X110910279Y-76805000D01*
X110489721Y-76805000D01*
X110077244Y-76887047D01*
X109688698Y-77047988D01*
X109339017Y-77281637D01*
X109041637Y-77579017D01*
X108807988Y-77928698D01*
X108647047Y-78317244D01*
X108565000Y-78729721D01*
X105509352Y-78729721D01*
X105479853Y-78581426D01*
X105371680Y-78320273D01*
X105214637Y-78085241D01*
X105014759Y-77885363D01*
X104779727Y-77728320D01*
X104518574Y-77620147D01*
X104241335Y-77565000D01*
X103958665Y-77565000D01*
X103681426Y-77620147D01*
X103420273Y-77728320D01*
X103185241Y-77885363D01*
X102985363Y-78085241D01*
X102828320Y-78320273D01*
X102720147Y-78581426D01*
X102665000Y-78858665D01*
X97908023Y-78858665D01*
X97894236Y-78718691D01*
X97812182Y-78448192D01*
X97678932Y-78198899D01*
X97499608Y-77980392D01*
X97281101Y-77801068D01*
X97031808Y-77667818D01*
X96761309Y-77585764D01*
X96550492Y-77565000D01*
X96409508Y-77565000D01*
X96198691Y-77585764D01*
X95928192Y-77667818D01*
X95678899Y-77801068D01*
X95460392Y-77980392D01*
X95281068Y-78198899D01*
X95147818Y-78448192D01*
X95065764Y-78718691D01*
X95038057Y-79000000D01*
X92134345Y-79000000D01*
X92137511Y-78877594D01*
X92099577Y-78657260D01*
X92019387Y-78448560D01*
X91991588Y-78396550D01*
X91778166Y-78361439D01*
X91179605Y-78960000D01*
X90820395Y-78960000D01*
X90221834Y-78361439D01*
X90008412Y-78396550D01*
X89917542Y-78600826D01*
X89868269Y-78818905D01*
X89862489Y-79042406D01*
X89872599Y-79101129D01*
X89841788Y-79095000D01*
X89618212Y-79095000D01*
X89398933Y-79138617D01*
X89192376Y-79224176D01*
X89006480Y-79348388D01*
X88848388Y-79506480D01*
X88724176Y-79692376D01*
X88638617Y-79898933D01*
X88595000Y-80118212D01*
X82865000Y-80118212D01*
X82859737Y-80091753D01*
X83082406Y-80097511D01*
X83302740Y-80059577D01*
X83511440Y-79979387D01*
X83563450Y-79951588D01*
X83598561Y-79738166D01*
X83000000Y-79139605D01*
X82985858Y-79153748D01*
X82806253Y-78974143D01*
X82820395Y-78960000D01*
X83179605Y-78960000D01*
X83778166Y-79558561D01*
X83991588Y-79523450D01*
X84082458Y-79319174D01*
X84131731Y-79101095D01*
X84137511Y-78877594D01*
X84099577Y-78657260D01*
X84019387Y-78448560D01*
X83991588Y-78396550D01*
X83778166Y-78361439D01*
X83179605Y-78960000D01*
X82820395Y-78960000D01*
X82221834Y-78361439D01*
X82008412Y-78396550D01*
X81917542Y-78600826D01*
X81868269Y-78818905D01*
X81862489Y-79042406D01*
X81872599Y-79101129D01*
X81841788Y-79095000D01*
X81618212Y-79095000D01*
X81398933Y-79138617D01*
X81192376Y-79224176D01*
X81006480Y-79348388D01*
X80848388Y-79506480D01*
X80724176Y-79692376D01*
X80638617Y-79898933D01*
X80595000Y-80118212D01*
X72527000Y-80118212D01*
X72527000Y-78181834D01*
X82401439Y-78181834D01*
X83000000Y-78780395D01*
X83598561Y-78181834D01*
X90401439Y-78181834D01*
X91000000Y-78780395D01*
X91598561Y-78181834D01*
X91563450Y-77968412D01*
X91359174Y-77877542D01*
X91141095Y-77828269D01*
X90917594Y-77822489D01*
X90697260Y-77860423D01*
X90488560Y-77940613D01*
X90436550Y-77968412D01*
X90401439Y-78181834D01*
X83598561Y-78181834D01*
X83563450Y-77968412D01*
X83359174Y-77877542D01*
X83141095Y-77828269D01*
X82917594Y-77822489D01*
X82697260Y-77860423D01*
X82488560Y-77940613D01*
X82436550Y-77968412D01*
X82401439Y-78181834D01*
X72527000Y-78181834D01*
X72527000Y-76660000D01*
X113467723Y-76660000D01*
X113662540Y-76679102D01*
M02*
