G04 #@! TF.GenerationSoftware,KiCad,Pcbnew,(5.1.0)-1*
G04 #@! TF.CreationDate,2019-12-29T21:42:19+00:00*
G04 #@! TF.ProjectId,WebastoWBUSInterface,57656261-7374-46f5-9742-5553496e7465,rev?*
G04 #@! TF.SameCoordinates,Original*
G04 #@! TF.FileFunction,Legend,Top*
G04 #@! TF.FilePolarity,Positive*
%FSLAX46Y46*%
G04 Gerber Fmt 4.6, Leading zero omitted, Abs format (unit mm)*
G04 Created by KiCad (PCBNEW (5.1.0)-1) date 2019-12-29 21:42:19*
%MOMM*%
%LPD*%
G04 APERTURE LIST*
%ADD10C,0.150000*%
%ADD11C,0.120000*%
G04 APERTURE END LIST*
D10*
X103866666Y-97950000D02*
X103800000Y-97916666D01*
X103700000Y-97916666D01*
X103600000Y-97950000D01*
X103533333Y-98016666D01*
X103500000Y-98083333D01*
X103466666Y-98216666D01*
X103466666Y-98316666D01*
X103500000Y-98450000D01*
X103533333Y-98516666D01*
X103600000Y-98583333D01*
X103700000Y-98616666D01*
X103766666Y-98616666D01*
X103866666Y-98583333D01*
X103900000Y-98550000D01*
X103900000Y-98316666D01*
X103766666Y-98316666D01*
X104200000Y-98616666D02*
X104200000Y-97916666D01*
X104600000Y-98616666D01*
X104600000Y-97916666D01*
X104933333Y-98616666D02*
X104933333Y-97916666D01*
X105100000Y-97916666D01*
X105200000Y-97950000D01*
X105266666Y-98016666D01*
X105300000Y-98083333D01*
X105333333Y-98216666D01*
X105333333Y-98316666D01*
X105300000Y-98450000D01*
X105266666Y-98516666D01*
X105200000Y-98583333D01*
X105100000Y-98616666D01*
X104933333Y-98616666D01*
X106552380Y-80200000D02*
X105552380Y-80200000D01*
X105552380Y-79961904D01*
X105600000Y-79819047D01*
X105695238Y-79723809D01*
X105790476Y-79676190D01*
X105980952Y-79628571D01*
X106123809Y-79628571D01*
X106314285Y-79676190D01*
X106409523Y-79723809D01*
X106504761Y-79819047D01*
X106552380Y-79961904D01*
X106552380Y-80200000D01*
X106266666Y-79247619D02*
X106266666Y-78771428D01*
X106552380Y-79342857D02*
X105552380Y-79009523D01*
X106552380Y-78676190D01*
X105552380Y-78485714D02*
X105552380Y-77914285D01*
X106552380Y-78200000D02*
X105552380Y-78200000D01*
X106266666Y-77628571D02*
X106266666Y-77152380D01*
X106552380Y-77723809D02*
X105552380Y-77390476D01*
X106552380Y-77057142D01*
X68733333Y-88552380D02*
X68400000Y-88076190D01*
X68161904Y-88552380D02*
X68161904Y-87552380D01*
X68542857Y-87552380D01*
X68638095Y-87600000D01*
X68685714Y-87647619D01*
X68733333Y-87742857D01*
X68733333Y-87885714D01*
X68685714Y-87980952D01*
X68638095Y-88028571D01*
X68542857Y-88076190D01*
X68161904Y-88076190D01*
X69066666Y-87552380D02*
X69733333Y-88552380D01*
X69733333Y-87552380D02*
X69066666Y-88552380D01*
X68019048Y-90052380D02*
X68590476Y-90052380D01*
X68304762Y-91052380D02*
X68304762Y-90052380D01*
X68828572Y-90052380D02*
X69495238Y-91052380D01*
X69495238Y-90052380D02*
X68828572Y-91052380D01*
X68066666Y-92652380D02*
X68685714Y-92652380D01*
X68352380Y-93033333D01*
X68495237Y-93033333D01*
X68590476Y-93080952D01*
X68638095Y-93128571D01*
X68685714Y-93223809D01*
X68685714Y-93461904D01*
X68638095Y-93557142D01*
X68590476Y-93604761D01*
X68495237Y-93652380D01*
X68209523Y-93652380D01*
X68114285Y-93604761D01*
X68066666Y-93557142D01*
X69114285Y-93557142D02*
X69161904Y-93604761D01*
X69114285Y-93652380D01*
X69066666Y-93604761D01*
X69114285Y-93557142D01*
X69114285Y-93652380D01*
X69495237Y-92652380D02*
X70114285Y-92652380D01*
X69780952Y-93033333D01*
X69923809Y-93033333D01*
X70019047Y-93080952D01*
X70066666Y-93128571D01*
X70114285Y-93223809D01*
X70114285Y-93461904D01*
X70066666Y-93557142D01*
X70019047Y-93604761D01*
X69923809Y-93652380D01*
X69638095Y-93652380D01*
X69542857Y-93604761D01*
X69495237Y-93557142D01*
X71257142Y-92604761D02*
X70399999Y-93890476D01*
X72066666Y-92652380D02*
X71590476Y-92652380D01*
X71542857Y-93128571D01*
X71590476Y-93080952D01*
X71685714Y-93033333D01*
X71923809Y-93033333D01*
X72019047Y-93080952D01*
X72066666Y-93128571D01*
X72114285Y-93223809D01*
X72114285Y-93461904D01*
X72066666Y-93557142D01*
X72019047Y-93604761D01*
X71923809Y-93652380D01*
X71685714Y-93652380D01*
X71590476Y-93604761D01*
X71542857Y-93557142D01*
X72399999Y-92652380D02*
X72733333Y-93652380D01*
X73066666Y-92652380D01*
X68685714Y-98100000D02*
X68590476Y-98052380D01*
X68447619Y-98052380D01*
X68304761Y-98100000D01*
X68209523Y-98195238D01*
X68161904Y-98290476D01*
X68114285Y-98480952D01*
X68114285Y-98623809D01*
X68161904Y-98814285D01*
X68209523Y-98909523D01*
X68304761Y-99004761D01*
X68447619Y-99052380D01*
X68542857Y-99052380D01*
X68685714Y-99004761D01*
X68733333Y-98957142D01*
X68733333Y-98623809D01*
X68542857Y-98623809D01*
X69161904Y-99052380D02*
X69161904Y-98052380D01*
X69733333Y-99052380D01*
X69733333Y-98052380D01*
X70209523Y-99052380D02*
X70209523Y-98052380D01*
X70447619Y-98052380D01*
X70590476Y-98100000D01*
X70685714Y-98195238D01*
X70733333Y-98290476D01*
X70780952Y-98480952D01*
X70780952Y-98623809D01*
X70733333Y-98814285D01*
X70685714Y-98909523D01*
X70590476Y-99004761D01*
X70447619Y-99052380D01*
X70209523Y-99052380D01*
X70876190Y-76461904D02*
X71066666Y-77261904D01*
X71219047Y-76690476D01*
X71371428Y-77261904D01*
X71561904Y-76461904D01*
X72171428Y-77223809D02*
X72095238Y-77261904D01*
X71942857Y-77261904D01*
X71866666Y-77223809D01*
X71828571Y-77147619D01*
X71828571Y-76842857D01*
X71866666Y-76766666D01*
X71942857Y-76728571D01*
X72095238Y-76728571D01*
X72171428Y-76766666D01*
X72209523Y-76842857D01*
X72209523Y-76919047D01*
X71828571Y-76995238D01*
X72552380Y-77261904D02*
X72552380Y-76461904D01*
X72552380Y-76766666D02*
X72628571Y-76728571D01*
X72780952Y-76728571D01*
X72857142Y-76766666D01*
X72895238Y-76804761D01*
X72933333Y-76880952D01*
X72933333Y-77109523D01*
X72895238Y-77185714D01*
X72857142Y-77223809D01*
X72780952Y-77261904D01*
X72628571Y-77261904D01*
X72552380Y-77223809D01*
X73619047Y-77261904D02*
X73619047Y-76842857D01*
X73580952Y-76766666D01*
X73504761Y-76728571D01*
X73352380Y-76728571D01*
X73276190Y-76766666D01*
X73619047Y-77223809D02*
X73542857Y-77261904D01*
X73352380Y-77261904D01*
X73276190Y-77223809D01*
X73238095Y-77147619D01*
X73238095Y-77071428D01*
X73276190Y-76995238D01*
X73352380Y-76957142D01*
X73542857Y-76957142D01*
X73619047Y-76919047D01*
X73961904Y-77223809D02*
X74038095Y-77261904D01*
X74190476Y-77261904D01*
X74266666Y-77223809D01*
X74304761Y-77147619D01*
X74304761Y-77109523D01*
X74266666Y-77033333D01*
X74190476Y-76995238D01*
X74076190Y-76995238D01*
X74000000Y-76957142D01*
X73961904Y-76880952D01*
X73961904Y-76842857D01*
X74000000Y-76766666D01*
X74076190Y-76728571D01*
X74190476Y-76728571D01*
X74266666Y-76766666D01*
X74533333Y-76728571D02*
X74838095Y-76728571D01*
X74647619Y-76461904D02*
X74647619Y-77147619D01*
X74685714Y-77223809D01*
X74761904Y-77261904D01*
X74838095Y-77261904D01*
X75219047Y-77261904D02*
X75142857Y-77223809D01*
X75104761Y-77185714D01*
X75066666Y-77109523D01*
X75066666Y-76880952D01*
X75104761Y-76804761D01*
X75142857Y-76766666D01*
X75219047Y-76728571D01*
X75333333Y-76728571D01*
X75409523Y-76766666D01*
X75447619Y-76804761D01*
X75485714Y-76880952D01*
X75485714Y-77109523D01*
X75447619Y-77185714D01*
X75409523Y-77223809D01*
X75333333Y-77261904D01*
X75219047Y-77261904D01*
X76361904Y-76461904D02*
X76552380Y-77261904D01*
X76704761Y-76690476D01*
X76857142Y-77261904D01*
X77047619Y-76461904D01*
X77619047Y-76842857D02*
X77733333Y-76880952D01*
X77771428Y-76919047D01*
X77809523Y-76995238D01*
X77809523Y-77109523D01*
X77771428Y-77185714D01*
X77733333Y-77223809D01*
X77657142Y-77261904D01*
X77352380Y-77261904D01*
X77352380Y-76461904D01*
X77619047Y-76461904D01*
X77695238Y-76500000D01*
X77733333Y-76538095D01*
X77771428Y-76614285D01*
X77771428Y-76690476D01*
X77733333Y-76766666D01*
X77695238Y-76804761D01*
X77619047Y-76842857D01*
X77352380Y-76842857D01*
X78152380Y-76461904D02*
X78152380Y-77109523D01*
X78190476Y-77185714D01*
X78228571Y-77223809D01*
X78304761Y-77261904D01*
X78457142Y-77261904D01*
X78533333Y-77223809D01*
X78571428Y-77185714D01*
X78609523Y-77109523D01*
X78609523Y-76461904D01*
X78952380Y-77223809D02*
X79066666Y-77261904D01*
X79257142Y-77261904D01*
X79333333Y-77223809D01*
X79371428Y-77185714D01*
X79409523Y-77109523D01*
X79409523Y-77033333D01*
X79371428Y-76957142D01*
X79333333Y-76919047D01*
X79257142Y-76880952D01*
X79104761Y-76842857D01*
X79028571Y-76804761D01*
X78990476Y-76766666D01*
X78952380Y-76690476D01*
X78952380Y-76614285D01*
X78990476Y-76538095D01*
X79028571Y-76500000D01*
X79104761Y-76461904D01*
X79295238Y-76461904D01*
X79409523Y-76500000D01*
X80361904Y-77261904D02*
X80361904Y-76461904D01*
X80742857Y-76728571D02*
X80742857Y-77261904D01*
X80742857Y-76804761D02*
X80780952Y-76766666D01*
X80857142Y-76728571D01*
X80971428Y-76728571D01*
X81047619Y-76766666D01*
X81085714Y-76842857D01*
X81085714Y-77261904D01*
X81352380Y-76728571D02*
X81657142Y-76728571D01*
X81466666Y-76461904D02*
X81466666Y-77147619D01*
X81504761Y-77223809D01*
X81580952Y-77261904D01*
X81657142Y-77261904D01*
X82228571Y-77223809D02*
X82152380Y-77261904D01*
X82000000Y-77261904D01*
X81923809Y-77223809D01*
X81885714Y-77147619D01*
X81885714Y-76842857D01*
X81923809Y-76766666D01*
X82000000Y-76728571D01*
X82152380Y-76728571D01*
X82228571Y-76766666D01*
X82266666Y-76842857D01*
X82266666Y-76919047D01*
X81885714Y-76995238D01*
X82609523Y-77261904D02*
X82609523Y-76728571D01*
X82609523Y-76880952D02*
X82647619Y-76804761D01*
X82685714Y-76766666D01*
X82761904Y-76728571D01*
X82838095Y-76728571D01*
X82990476Y-76728571D02*
X83295238Y-76728571D01*
X83104761Y-77261904D02*
X83104761Y-76576190D01*
X83142857Y-76500000D01*
X83219047Y-76461904D01*
X83295238Y-76461904D01*
X83904761Y-77261904D02*
X83904761Y-76842857D01*
X83866666Y-76766666D01*
X83790476Y-76728571D01*
X83638095Y-76728571D01*
X83561904Y-76766666D01*
X83904761Y-77223809D02*
X83828571Y-77261904D01*
X83638095Y-77261904D01*
X83561904Y-77223809D01*
X83523809Y-77147619D01*
X83523809Y-77071428D01*
X83561904Y-76995238D01*
X83638095Y-76957142D01*
X83828571Y-76957142D01*
X83904761Y-76919047D01*
X84628571Y-77223809D02*
X84552380Y-77261904D01*
X84400000Y-77261904D01*
X84323809Y-77223809D01*
X84285714Y-77185714D01*
X84247619Y-77109523D01*
X84247619Y-76880952D01*
X84285714Y-76804761D01*
X84323809Y-76766666D01*
X84400000Y-76728571D01*
X84552380Y-76728571D01*
X84628571Y-76766666D01*
X85276190Y-77223809D02*
X85200000Y-77261904D01*
X85047619Y-77261904D01*
X84971428Y-77223809D01*
X84933333Y-77147619D01*
X84933333Y-76842857D01*
X84971428Y-76766666D01*
X85047619Y-76728571D01*
X85200000Y-76728571D01*
X85276190Y-76766666D01*
X85314285Y-76842857D01*
X85314285Y-76919047D01*
X84933333Y-76995238D01*
X86266666Y-76957142D02*
X86876190Y-76957142D01*
X87828571Y-77223809D02*
X87942857Y-77261904D01*
X88133333Y-77261904D01*
X88209523Y-77223809D01*
X88247619Y-77185714D01*
X88285714Y-77109523D01*
X88285714Y-77033333D01*
X88247619Y-76957142D01*
X88209523Y-76919047D01*
X88133333Y-76880952D01*
X87980952Y-76842857D01*
X87904761Y-76804761D01*
X87866666Y-76766666D01*
X87828571Y-76690476D01*
X87828571Y-76614285D01*
X87866666Y-76538095D01*
X87904761Y-76500000D01*
X87980952Y-76461904D01*
X88171428Y-76461904D01*
X88285714Y-76500000D01*
X88514285Y-76728571D02*
X88819047Y-76728571D01*
X88628571Y-76461904D02*
X88628571Y-77147619D01*
X88666666Y-77223809D01*
X88742857Y-77261904D01*
X88819047Y-77261904D01*
X89428571Y-76728571D02*
X89428571Y-77261904D01*
X89085714Y-76728571D02*
X89085714Y-77147619D01*
X89123809Y-77223809D01*
X89200000Y-77261904D01*
X89314285Y-77261904D01*
X89390476Y-77223809D01*
X89428571Y-77185714D01*
X90152380Y-77261904D02*
X90152380Y-76842857D01*
X90114285Y-76766666D01*
X90038095Y-76728571D01*
X89885714Y-76728571D01*
X89809523Y-76766666D01*
X90152380Y-77223809D02*
X90076190Y-77261904D01*
X89885714Y-77261904D01*
X89809523Y-77223809D01*
X89771428Y-77147619D01*
X89771428Y-77071428D01*
X89809523Y-76995238D01*
X89885714Y-76957142D01*
X90076190Y-76957142D01*
X90152380Y-76919047D01*
X90533333Y-77261904D02*
X90533333Y-76728571D01*
X90533333Y-76880952D02*
X90571428Y-76804761D01*
X90609523Y-76766666D01*
X90685714Y-76728571D01*
X90761904Y-76728571D01*
X90914285Y-76728571D02*
X91219047Y-76728571D01*
X91028571Y-76461904D02*
X91028571Y-77147619D01*
X91066666Y-77223809D01*
X91142857Y-77261904D01*
X91219047Y-77261904D01*
X92095238Y-77261904D02*
X92095238Y-76461904D01*
X92400000Y-76461904D01*
X92476190Y-76500000D01*
X92514285Y-76538095D01*
X92552380Y-76614285D01*
X92552380Y-76728571D01*
X92514285Y-76804761D01*
X92476190Y-76842857D01*
X92400000Y-76880952D01*
X92095238Y-76880952D01*
X92895238Y-77261904D02*
X92895238Y-76728571D01*
X92895238Y-76461904D02*
X92857142Y-76500000D01*
X92895238Y-76538095D01*
X92933333Y-76500000D01*
X92895238Y-76461904D01*
X92895238Y-76538095D01*
X93161904Y-76728571D02*
X93466666Y-76728571D01*
X93276190Y-76461904D02*
X93276190Y-77147619D01*
X93314285Y-77223809D01*
X93390476Y-77261904D01*
X93466666Y-77261904D01*
X93619047Y-76728571D02*
X93923809Y-76728571D01*
X93733333Y-76461904D02*
X93733333Y-77147619D01*
X93771428Y-77223809D01*
X93847619Y-77261904D01*
X93923809Y-77261904D01*
X94533333Y-77261904D02*
X94533333Y-76842857D01*
X94495238Y-76766666D01*
X94419047Y-76728571D01*
X94266666Y-76728571D01*
X94190476Y-76766666D01*
X94533333Y-77223809D02*
X94457142Y-77261904D01*
X94266666Y-77261904D01*
X94190476Y-77223809D01*
X94152380Y-77147619D01*
X94152380Y-77071428D01*
X94190476Y-76995238D01*
X94266666Y-76957142D01*
X94457142Y-76957142D01*
X94533333Y-76919047D01*
X94838095Y-76728571D02*
X94990476Y-77261904D01*
X95142857Y-76880952D01*
X95295238Y-77261904D01*
X95447619Y-76728571D01*
X96095238Y-77261904D02*
X96095238Y-76842857D01*
X96057142Y-76766666D01*
X95980952Y-76728571D01*
X95828571Y-76728571D01*
X95752380Y-76766666D01*
X96095238Y-77223809D02*
X96019047Y-77261904D01*
X95828571Y-77261904D01*
X95752380Y-77223809D01*
X95714285Y-77147619D01*
X95714285Y-77071428D01*
X95752380Y-76995238D01*
X95828571Y-76957142D01*
X96019047Y-76957142D01*
X96095238Y-76919047D01*
X96400000Y-76728571D02*
X96590476Y-77261904D01*
X96780952Y-76728571D02*
X96590476Y-77261904D01*
X96514285Y-77452380D01*
X96476190Y-77490476D01*
X96400000Y-77528571D01*
X97657142Y-76538095D02*
X97695238Y-76500000D01*
X97771428Y-76461904D01*
X97961904Y-76461904D01*
X98038095Y-76500000D01*
X98076190Y-76538095D01*
X98114285Y-76614285D01*
X98114285Y-76690476D01*
X98076190Y-76804761D01*
X97619047Y-77261904D01*
X98114285Y-77261904D01*
X98609523Y-76461904D02*
X98685714Y-76461904D01*
X98761904Y-76500000D01*
X98800000Y-76538095D01*
X98838095Y-76614285D01*
X98876190Y-76766666D01*
X98876190Y-76957142D01*
X98838095Y-77109523D01*
X98800000Y-77185714D01*
X98761904Y-77223809D01*
X98685714Y-77261904D01*
X98609523Y-77261904D01*
X98533333Y-77223809D01*
X98495238Y-77185714D01*
X98457142Y-77109523D01*
X98419047Y-76957142D01*
X98419047Y-76766666D01*
X98457142Y-76614285D01*
X98495238Y-76538095D01*
X98533333Y-76500000D01*
X98609523Y-76461904D01*
X99638095Y-77261904D02*
X99180952Y-77261904D01*
X99409523Y-77261904D02*
X99409523Y-76461904D01*
X99333333Y-76576190D01*
X99257142Y-76652380D01*
X99180952Y-76690476D01*
X100019047Y-77261904D02*
X100171428Y-77261904D01*
X100247619Y-77223809D01*
X100285714Y-77185714D01*
X100361904Y-77071428D01*
X100400000Y-76919047D01*
X100400000Y-76614285D01*
X100361904Y-76538095D01*
X100323809Y-76500000D01*
X100247619Y-76461904D01*
X100095238Y-76461904D01*
X100019047Y-76500000D01*
X99980952Y-76538095D01*
X99942857Y-76614285D01*
X99942857Y-76804761D01*
X99980952Y-76880952D01*
X100019047Y-76919047D01*
X100095238Y-76957142D01*
X100247619Y-76957142D01*
X100323809Y-76919047D01*
X100361904Y-76880952D01*
X100400000Y-76804761D01*
X101314285Y-76423809D02*
X100628571Y-77452380D01*
X101542857Y-76538095D02*
X101580952Y-76500000D01*
X101657142Y-76461904D01*
X101847619Y-76461904D01*
X101923809Y-76500000D01*
X101961904Y-76538095D01*
X102000000Y-76614285D01*
X102000000Y-76690476D01*
X101961904Y-76804761D01*
X101504761Y-77261904D01*
X102000000Y-77261904D01*
X102495238Y-76461904D02*
X102571428Y-76461904D01*
X102647619Y-76500000D01*
X102685714Y-76538095D01*
X102723809Y-76614285D01*
X102761904Y-76766666D01*
X102761904Y-76957142D01*
X102723809Y-77109523D01*
X102685714Y-77185714D01*
X102647619Y-77223809D01*
X102571428Y-77261904D01*
X102495238Y-77261904D01*
X102419047Y-77223809D01*
X102380952Y-77185714D01*
X102342857Y-77109523D01*
X102304761Y-76957142D01*
X102304761Y-76766666D01*
X102342857Y-76614285D01*
X102380952Y-76538095D01*
X102419047Y-76500000D01*
X102495238Y-76461904D01*
X103066666Y-76538095D02*
X103104761Y-76500000D01*
X103180952Y-76461904D01*
X103371428Y-76461904D01*
X103447619Y-76500000D01*
X103485714Y-76538095D01*
X103523809Y-76614285D01*
X103523809Y-76690476D01*
X103485714Y-76804761D01*
X103028571Y-77261904D01*
X103523809Y-77261904D01*
X104019047Y-76461904D02*
X104095238Y-76461904D01*
X104171428Y-76500000D01*
X104209523Y-76538095D01*
X104247619Y-76614285D01*
X104285714Y-76766666D01*
X104285714Y-76957142D01*
X104247619Y-77109523D01*
X104209523Y-77185714D01*
X104171428Y-77223809D01*
X104095238Y-77261904D01*
X104019047Y-77261904D01*
X103942857Y-77223809D01*
X103904761Y-77185714D01*
X103866666Y-77109523D01*
X103828571Y-76957142D01*
X103828571Y-76766666D01*
X103866666Y-76614285D01*
X103904761Y-76538095D01*
X103942857Y-76500000D01*
X104019047Y-76461904D01*
X105600000Y-85261904D02*
X105552380Y-85357142D01*
X105552380Y-85500000D01*
X105600000Y-85642857D01*
X105695238Y-85738095D01*
X105790476Y-85785714D01*
X105980952Y-85833333D01*
X106123809Y-85833333D01*
X106314285Y-85785714D01*
X106409523Y-85738095D01*
X106504761Y-85642857D01*
X106552380Y-85500000D01*
X106552380Y-85404761D01*
X106504761Y-85261904D01*
X106457142Y-85214285D01*
X106123809Y-85214285D01*
X106123809Y-85404761D01*
X106552380Y-84785714D02*
X105552380Y-84785714D01*
X106552380Y-84214285D01*
X105552380Y-84214285D01*
X106552380Y-83738095D02*
X105552380Y-83738095D01*
X105552380Y-83500000D01*
X105600000Y-83357142D01*
X105695238Y-83261904D01*
X105790476Y-83214285D01*
X105980952Y-83166666D01*
X106123809Y-83166666D01*
X106314285Y-83214285D01*
X106409523Y-83261904D01*
X106504761Y-83357142D01*
X106552380Y-83500000D01*
X106552380Y-83738095D01*
X106552380Y-89719047D02*
X106552380Y-90290476D01*
X106552380Y-90004761D02*
X105552380Y-90004761D01*
X105695238Y-90100000D01*
X105790476Y-90195238D01*
X105838095Y-90290476D01*
X105647619Y-89338095D02*
X105600000Y-89290476D01*
X105552380Y-89195238D01*
X105552380Y-88957142D01*
X105600000Y-88861904D01*
X105647619Y-88814285D01*
X105742857Y-88766666D01*
X105838095Y-88766666D01*
X105980952Y-88814285D01*
X106552380Y-89385714D01*
X106552380Y-88766666D01*
X105552380Y-88480952D02*
X106552380Y-88147619D01*
X105552380Y-87814285D01*
D11*
X95500000Y-93780000D02*
X95500000Y-94110000D01*
X95500000Y-94110000D02*
X89080000Y-94110000D01*
X89080000Y-94110000D02*
X89080000Y-93780000D01*
X95500000Y-91820000D02*
X95500000Y-91490000D01*
X95500000Y-91490000D02*
X89080000Y-91490000D01*
X89080000Y-91490000D02*
X89080000Y-91820000D01*
X97000000Y-88220000D02*
X97000000Y-87890000D01*
X97000000Y-87890000D02*
X103420000Y-87890000D01*
X103420000Y-87890000D02*
X103420000Y-88220000D01*
X97000000Y-90180000D02*
X97000000Y-90510000D01*
X97000000Y-90510000D02*
X103420000Y-90510000D01*
X103420000Y-90510000D02*
X103420000Y-90180000D01*
X89400000Y-98480000D02*
X89400000Y-98810000D01*
X89400000Y-98810000D02*
X82980000Y-98810000D01*
X82980000Y-98810000D02*
X82980000Y-98480000D01*
X89400000Y-96520000D02*
X89400000Y-96190000D01*
X89400000Y-96190000D02*
X82980000Y-96190000D01*
X82980000Y-96190000D02*
X82980000Y-96520000D01*
X85400000Y-93780000D02*
X85400000Y-94110000D01*
X85400000Y-94110000D02*
X78980000Y-94110000D01*
X78980000Y-94110000D02*
X78980000Y-93780000D01*
X85400000Y-91820000D02*
X85400000Y-91490000D01*
X85400000Y-91490000D02*
X78980000Y-91490000D01*
X78980000Y-91490000D02*
X78980000Y-91820000D01*
X85600000Y-87980000D02*
X85600000Y-88310000D01*
X85600000Y-88310000D02*
X79180000Y-88310000D01*
X79180000Y-88310000D02*
X79180000Y-87980000D01*
X85600000Y-86020000D02*
X85600000Y-85690000D01*
X85600000Y-85690000D02*
X79180000Y-85690000D01*
X79180000Y-85690000D02*
X79180000Y-86020000D01*
X93800000Y-96420000D02*
X93800000Y-96090000D01*
X93800000Y-96090000D02*
X100220000Y-96090000D01*
X100220000Y-96090000D02*
X100220000Y-96420000D01*
X93800000Y-98380000D02*
X93800000Y-98710000D01*
X93800000Y-98710000D02*
X100220000Y-98710000D01*
X100220000Y-98710000D02*
X100220000Y-98380000D01*
X103500000Y-79980000D02*
X103500000Y-80310000D01*
X103500000Y-80310000D02*
X97080000Y-80310000D01*
X97080000Y-80310000D02*
X97080000Y-79980000D01*
X103500000Y-78020000D02*
X103500000Y-77690000D01*
X103500000Y-77690000D02*
X97080000Y-77690000D01*
X97080000Y-77690000D02*
X97080000Y-78020000D01*
X114510000Y-91640000D02*
X106890000Y-91640000D01*
X114510000Y-76400000D02*
X106890000Y-76400000D01*
X113240000Y-91640000D02*
X113240000Y-76400000D01*
X106890000Y-91640000D02*
X106890000Y-76400000D01*
X114510000Y-91640000D02*
X114510000Y-76400000D01*
X103950000Y-85930000D02*
X103950000Y-82330000D01*
X103938478Y-85968478D02*
G75*
G02X99500000Y-84130000I-1838478J1838478D01*
G01*
X103938478Y-82291522D02*
G75*
G03X99500000Y-84130000I-1838478J-1838478D01*
G01*
X92850000Y-82030000D02*
X92850000Y-78430000D01*
X92838478Y-82068478D02*
G75*
G02X88400000Y-80230000I-1838478J1838478D01*
G01*
X92838478Y-78391522D02*
G75*
G03X88400000Y-80230000I-1838478J-1838478D01*
G01*
X84850000Y-82030000D02*
X84850000Y-78430000D01*
X84838478Y-82068478D02*
G75*
G02X80400000Y-80230000I-1838478J1838478D01*
G01*
X84838478Y-78391522D02*
G75*
G03X80400000Y-80230000I-1838478J-1838478D01*
G01*
X92850000Y-89030000D02*
X92850000Y-85430000D01*
X92838478Y-89068478D02*
G75*
G02X88400000Y-87230000I-1838478J1838478D01*
G01*
X92838478Y-85391522D02*
G75*
G03X88400000Y-87230000I-1838478J-1838478D01*
G01*
X74040000Y-84170000D02*
X74040000Y-86770000D01*
X74040000Y-86770000D02*
X65410000Y-86770000D01*
X65410000Y-86770000D02*
X65410000Y-84170000D01*
X65410000Y-84170000D02*
X74040000Y-84170000D01*
X74470000Y-85120000D02*
X74040000Y-85120000D01*
X74470000Y-85880000D02*
X74040000Y-85880000D01*
X74040000Y-84350000D02*
X65410000Y-84350000D01*
X74040000Y-84470000D02*
X65410000Y-84470000D01*
X74040000Y-84590000D02*
X65410000Y-84590000D01*
X74040000Y-84710000D02*
X65410000Y-84710000D01*
X74040000Y-84830000D02*
X65410000Y-84830000D01*
X74040000Y-84950000D02*
X65410000Y-84950000D01*
X74040000Y-85070000D02*
X65410000Y-85070000D01*
X74040000Y-85190000D02*
X65410000Y-85190000D01*
X74040000Y-85310000D02*
X65410000Y-85310000D01*
X74040000Y-85430000D02*
X65410000Y-85430000D01*
X74040000Y-85550000D02*
X65410000Y-85550000D01*
X74040000Y-85670000D02*
X65410000Y-85670000D01*
X74040000Y-85790000D02*
X65410000Y-85790000D01*
X74040000Y-85910000D02*
X65410000Y-85910000D01*
X74040000Y-86030000D02*
X65410000Y-86030000D01*
X74040000Y-86150000D02*
X65410000Y-86150000D01*
X74040000Y-86270000D02*
X65410000Y-86270000D01*
X74040000Y-86390000D02*
X65410000Y-86390000D01*
X74040000Y-86510000D02*
X65410000Y-86510000D01*
X74040000Y-86630000D02*
X65410000Y-86630000D01*
X74040000Y-86750000D02*
X65410000Y-86750000D01*
X74040000Y-86870000D02*
X65410000Y-86870000D01*
X74040000Y-86770000D02*
X74040000Y-89310000D01*
X74040000Y-89310000D02*
X65410000Y-89310000D01*
X65410000Y-89310000D02*
X65410000Y-86770000D01*
X65410000Y-86770000D02*
X74040000Y-86770000D01*
X74470000Y-87660000D02*
X74040000Y-87660000D01*
X74470000Y-88420000D02*
X74040000Y-88420000D01*
X74040000Y-89310000D02*
X74040000Y-91850000D01*
X74040000Y-91850000D02*
X65410000Y-91850000D01*
X65410000Y-91850000D02*
X65410000Y-89310000D01*
X65410000Y-89310000D02*
X74040000Y-89310000D01*
X74470000Y-90200000D02*
X74040000Y-90200000D01*
X74470000Y-90960000D02*
X74040000Y-90960000D01*
X74040000Y-91850000D02*
X74040000Y-94390000D01*
X74040000Y-94390000D02*
X65410000Y-94390000D01*
X65410000Y-94390000D02*
X65410000Y-91850000D01*
X65410000Y-91850000D02*
X74040000Y-91850000D01*
X74470000Y-92740000D02*
X74040000Y-92740000D01*
X74470000Y-93500000D02*
X74040000Y-93500000D01*
X74040000Y-94390000D02*
X74040000Y-96930000D01*
X74040000Y-96930000D02*
X65410000Y-96930000D01*
X65410000Y-96930000D02*
X65410000Y-94390000D01*
X65410000Y-94390000D02*
X74040000Y-94390000D01*
X74470000Y-95280000D02*
X74040000Y-95280000D01*
X74470000Y-96040000D02*
X74040000Y-96040000D01*
X74040000Y-96930000D02*
X74040000Y-99530000D01*
X74040000Y-99530000D02*
X65410000Y-99530000D01*
X65410000Y-99530000D02*
X65410000Y-96930000D01*
X65410000Y-96930000D02*
X74040000Y-96930000D01*
X74470000Y-97820000D02*
X74040000Y-97820000D01*
X74470000Y-98580000D02*
X74040000Y-98580000D01*
X75500000Y-84230000D02*
X76770000Y-84230000D01*
X76770000Y-84230000D02*
X76770000Y-85500000D01*
X103321392Y-93557665D02*
G75*
G03X103164484Y-96790000I1078608J-1672335D01*
G01*
X105478608Y-93557665D02*
G75*
G02X105635516Y-96790000I-1078608J-1672335D01*
G01*
X103320163Y-94188870D02*
G75*
G03X103320000Y-96270961I1079837J-1041130D01*
G01*
X105479837Y-94188870D02*
G75*
G02X105480000Y-96270961I-1079837J-1041130D01*
G01*
X103164000Y-96790000D02*
X103320000Y-96790000D01*
X105480000Y-96790000D02*
X105636000Y-96790000D01*
D10*
X92123333Y-95562380D02*
X91790000Y-95086190D01*
X91551904Y-95562380D02*
X91551904Y-94562380D01*
X91932857Y-94562380D01*
X92028095Y-94610000D01*
X92075714Y-94657619D01*
X92123333Y-94752857D01*
X92123333Y-94895714D01*
X92075714Y-94990952D01*
X92028095Y-95038571D01*
X91932857Y-95086190D01*
X91551904Y-95086190D01*
X93075714Y-95562380D02*
X92504285Y-95562380D01*
X92790000Y-95562380D02*
X92790000Y-94562380D01*
X92694761Y-94705238D01*
X92599523Y-94800476D01*
X92504285Y-94848095D01*
X91909523Y-93152380D02*
X91338095Y-93152380D01*
X91623809Y-93152380D02*
X91623809Y-92152380D01*
X91528571Y-92295238D01*
X91433333Y-92390476D01*
X91338095Y-92438095D01*
X92528571Y-92152380D02*
X92623809Y-92152380D01*
X92719047Y-92200000D01*
X92766666Y-92247619D01*
X92814285Y-92342857D01*
X92861904Y-92533333D01*
X92861904Y-92771428D01*
X92814285Y-92961904D01*
X92766666Y-93057142D01*
X92719047Y-93104761D01*
X92623809Y-93152380D01*
X92528571Y-93152380D01*
X92433333Y-93104761D01*
X92385714Y-93057142D01*
X92338095Y-92961904D01*
X92290476Y-92771428D01*
X92290476Y-92533333D01*
X92338095Y-92342857D01*
X92385714Y-92247619D01*
X92433333Y-92200000D01*
X92528571Y-92152380D01*
X93290476Y-93152380D02*
X93290476Y-92152380D01*
X93861904Y-93152380D02*
X93433333Y-92580952D01*
X93861904Y-92152380D02*
X93290476Y-92723809D01*
X99157142Y-91952380D02*
X98823809Y-91476190D01*
X98585714Y-91952380D02*
X98585714Y-90952380D01*
X98966666Y-90952380D01*
X99061904Y-91000000D01*
X99109523Y-91047619D01*
X99157142Y-91142857D01*
X99157142Y-91285714D01*
X99109523Y-91380952D01*
X99061904Y-91428571D01*
X98966666Y-91476190D01*
X98585714Y-91476190D01*
X100109523Y-91952380D02*
X99538095Y-91952380D01*
X99823809Y-91952380D02*
X99823809Y-90952380D01*
X99728571Y-91095238D01*
X99633333Y-91190476D01*
X99538095Y-91238095D01*
X100728571Y-90952380D02*
X100823809Y-90952380D01*
X100919047Y-91000000D01*
X100966666Y-91047619D01*
X101014285Y-91142857D01*
X101061904Y-91333333D01*
X101061904Y-91571428D01*
X101014285Y-91761904D01*
X100966666Y-91857142D01*
X100919047Y-91904761D01*
X100823809Y-91952380D01*
X100728571Y-91952380D01*
X100633333Y-91904761D01*
X100585714Y-91857142D01*
X100538095Y-91761904D01*
X100490476Y-91571428D01*
X100490476Y-91333333D01*
X100538095Y-91142857D01*
X100585714Y-91047619D01*
X100633333Y-91000000D01*
X100728571Y-90952380D01*
X99509523Y-89652380D02*
X98938095Y-89652380D01*
X99223809Y-89652380D02*
X99223809Y-88652380D01*
X99128571Y-88795238D01*
X99033333Y-88890476D01*
X98938095Y-88938095D01*
X100128571Y-88652380D02*
X100223809Y-88652380D01*
X100319047Y-88700000D01*
X100366666Y-88747619D01*
X100414285Y-88842857D01*
X100461904Y-89033333D01*
X100461904Y-89271428D01*
X100414285Y-89461904D01*
X100366666Y-89557142D01*
X100319047Y-89604761D01*
X100223809Y-89652380D01*
X100128571Y-89652380D01*
X100033333Y-89604761D01*
X99985714Y-89557142D01*
X99938095Y-89461904D01*
X99890476Y-89271428D01*
X99890476Y-89033333D01*
X99938095Y-88842857D01*
X99985714Y-88747619D01*
X100033333Y-88700000D01*
X100128571Y-88652380D01*
X100890476Y-89652380D02*
X100890476Y-88652380D01*
X101461904Y-89652380D02*
X101033333Y-89080952D01*
X101461904Y-88652380D02*
X100890476Y-89223809D01*
X79933333Y-97952380D02*
X79600000Y-97476190D01*
X79361904Y-97952380D02*
X79361904Y-96952380D01*
X79742857Y-96952380D01*
X79838095Y-97000000D01*
X79885714Y-97047619D01*
X79933333Y-97142857D01*
X79933333Y-97285714D01*
X79885714Y-97380952D01*
X79838095Y-97428571D01*
X79742857Y-97476190D01*
X79361904Y-97476190D01*
X80409523Y-97952380D02*
X80600000Y-97952380D01*
X80695238Y-97904761D01*
X80742857Y-97857142D01*
X80838095Y-97714285D01*
X80885714Y-97523809D01*
X80885714Y-97142857D01*
X80838095Y-97047619D01*
X80790476Y-97000000D01*
X80695238Y-96952380D01*
X80504761Y-96952380D01*
X80409523Y-97000000D01*
X80361904Y-97047619D01*
X80314285Y-97142857D01*
X80314285Y-97380952D01*
X80361904Y-97476190D01*
X80409523Y-97523809D01*
X80504761Y-97571428D01*
X80695238Y-97571428D01*
X80790476Y-97523809D01*
X80838095Y-97476190D01*
X80885714Y-97380952D01*
X86185714Y-97752380D02*
X85614285Y-97752380D01*
X85900000Y-97752380D02*
X85900000Y-96752380D01*
X85804761Y-96895238D01*
X85709523Y-96990476D01*
X85614285Y-97038095D01*
X86614285Y-97752380D02*
X86614285Y-96752380D01*
X87185714Y-97752380D02*
X86757142Y-97180952D01*
X87185714Y-96752380D02*
X86614285Y-97323809D01*
X78233333Y-95552380D02*
X77900000Y-95076190D01*
X77661904Y-95552380D02*
X77661904Y-94552380D01*
X78042857Y-94552380D01*
X78138095Y-94600000D01*
X78185714Y-94647619D01*
X78233333Y-94742857D01*
X78233333Y-94885714D01*
X78185714Y-94980952D01*
X78138095Y-95028571D01*
X78042857Y-95076190D01*
X77661904Y-95076190D01*
X78804761Y-94980952D02*
X78709523Y-94933333D01*
X78661904Y-94885714D01*
X78614285Y-94790476D01*
X78614285Y-94742857D01*
X78661904Y-94647619D01*
X78709523Y-94600000D01*
X78804761Y-94552380D01*
X78995238Y-94552380D01*
X79090476Y-94600000D01*
X79138095Y-94647619D01*
X79185714Y-94742857D01*
X79185714Y-94790476D01*
X79138095Y-94885714D01*
X79090476Y-94933333D01*
X78995238Y-94980952D01*
X78804761Y-94980952D01*
X78709523Y-95028571D01*
X78661904Y-95076190D01*
X78614285Y-95171428D01*
X78614285Y-95361904D01*
X78661904Y-95457142D01*
X78709523Y-95504761D01*
X78804761Y-95552380D01*
X78995238Y-95552380D01*
X79090476Y-95504761D01*
X79138095Y-95457142D01*
X79185714Y-95361904D01*
X79185714Y-95171428D01*
X79138095Y-95076190D01*
X79090476Y-95028571D01*
X78995238Y-94980952D01*
X81609523Y-93152380D02*
X81038095Y-93152380D01*
X81323809Y-93152380D02*
X81323809Y-92152380D01*
X81228571Y-92295238D01*
X81133333Y-92390476D01*
X81038095Y-92438095D01*
X82228571Y-92152380D02*
X82323809Y-92152380D01*
X82419047Y-92200000D01*
X82466666Y-92247619D01*
X82514285Y-92342857D01*
X82561904Y-92533333D01*
X82561904Y-92771428D01*
X82514285Y-92961904D01*
X82466666Y-93057142D01*
X82419047Y-93104761D01*
X82323809Y-93152380D01*
X82228571Y-93152380D01*
X82133333Y-93104761D01*
X82085714Y-93057142D01*
X82038095Y-92961904D01*
X81990476Y-92771428D01*
X81990476Y-92533333D01*
X82038095Y-92342857D01*
X82085714Y-92247619D01*
X82133333Y-92200000D01*
X82228571Y-92152380D01*
X82990476Y-93152380D02*
X82990476Y-92152380D01*
X83561904Y-93152380D02*
X83133333Y-92580952D01*
X83561904Y-92152380D02*
X82990476Y-92723809D01*
X82223333Y-89762380D02*
X81890000Y-89286190D01*
X81651904Y-89762380D02*
X81651904Y-88762380D01*
X82032857Y-88762380D01*
X82128095Y-88810000D01*
X82175714Y-88857619D01*
X82223333Y-88952857D01*
X82223333Y-89095714D01*
X82175714Y-89190952D01*
X82128095Y-89238571D01*
X82032857Y-89286190D01*
X81651904Y-89286190D01*
X82556666Y-88762380D02*
X83223333Y-88762380D01*
X82794761Y-89762380D01*
X81699523Y-87452380D02*
X81128095Y-87452380D01*
X81413809Y-87452380D02*
X81413809Y-86452380D01*
X81318571Y-86595238D01*
X81223333Y-86690476D01*
X81128095Y-86738095D01*
X82318571Y-86452380D02*
X82413809Y-86452380D01*
X82509047Y-86500000D01*
X82556666Y-86547619D01*
X82604285Y-86642857D01*
X82651904Y-86833333D01*
X82651904Y-87071428D01*
X82604285Y-87261904D01*
X82556666Y-87357142D01*
X82509047Y-87404761D01*
X82413809Y-87452380D01*
X82318571Y-87452380D01*
X82223333Y-87404761D01*
X82175714Y-87357142D01*
X82128095Y-87261904D01*
X82080476Y-87071428D01*
X82080476Y-86833333D01*
X82128095Y-86642857D01*
X82175714Y-86547619D01*
X82223333Y-86500000D01*
X82318571Y-86452380D01*
X83080476Y-87452380D02*
X83080476Y-86452380D01*
X83651904Y-87452380D02*
X83223333Y-86880952D01*
X83651904Y-86452380D02*
X83080476Y-87023809D01*
X96843333Y-95542380D02*
X96510000Y-95066190D01*
X96271904Y-95542380D02*
X96271904Y-94542380D01*
X96652857Y-94542380D01*
X96748095Y-94590000D01*
X96795714Y-94637619D01*
X96843333Y-94732857D01*
X96843333Y-94875714D01*
X96795714Y-94970952D01*
X96748095Y-95018571D01*
X96652857Y-95066190D01*
X96271904Y-95066190D01*
X97748095Y-94542380D02*
X97271904Y-94542380D01*
X97224285Y-95018571D01*
X97271904Y-94970952D01*
X97367142Y-94923333D01*
X97605238Y-94923333D01*
X97700476Y-94970952D01*
X97748095Y-95018571D01*
X97795714Y-95113809D01*
X97795714Y-95351904D01*
X97748095Y-95447142D01*
X97700476Y-95494761D01*
X97605238Y-95542380D01*
X97367142Y-95542380D01*
X97271904Y-95494761D01*
X97224285Y-95447142D01*
X96685714Y-97752380D02*
X96114285Y-97752380D01*
X96400000Y-97752380D02*
X96400000Y-96752380D01*
X96304761Y-96895238D01*
X96209523Y-96990476D01*
X96114285Y-97038095D01*
X97114285Y-97752380D02*
X97114285Y-96752380D01*
X97685714Y-97752380D02*
X97257142Y-97180952D01*
X97685714Y-96752380D02*
X97114285Y-97323809D01*
X96233333Y-81762380D02*
X95900000Y-81286190D01*
X95661904Y-81762380D02*
X95661904Y-80762380D01*
X96042857Y-80762380D01*
X96138095Y-80810000D01*
X96185714Y-80857619D01*
X96233333Y-80952857D01*
X96233333Y-81095714D01*
X96185714Y-81190952D01*
X96138095Y-81238571D01*
X96042857Y-81286190D01*
X95661904Y-81286190D01*
X96566666Y-80762380D02*
X97185714Y-80762380D01*
X96852380Y-81143333D01*
X96995238Y-81143333D01*
X97090476Y-81190952D01*
X97138095Y-81238571D01*
X97185714Y-81333809D01*
X97185714Y-81571904D01*
X97138095Y-81667142D01*
X97090476Y-81714761D01*
X96995238Y-81762380D01*
X96709523Y-81762380D01*
X96614285Y-81714761D01*
X96566666Y-81667142D01*
X99985714Y-79452380D02*
X99414285Y-79452380D01*
X99700000Y-79452380D02*
X99700000Y-78452380D01*
X99604761Y-78595238D01*
X99509523Y-78690476D01*
X99414285Y-78738095D01*
X100414285Y-79452380D02*
X100414285Y-78452380D01*
X100985714Y-79452380D02*
X100557142Y-78880952D01*
X100985714Y-78452380D02*
X100414285Y-79023809D01*
X107566666Y-92052380D02*
X107566666Y-92766666D01*
X107519047Y-92909523D01*
X107423809Y-93004761D01*
X107280952Y-93052380D01*
X107185714Y-93052380D01*
X107995238Y-92147619D02*
X108042857Y-92100000D01*
X108138095Y-92052380D01*
X108376190Y-92052380D01*
X108471428Y-92100000D01*
X108519047Y-92147619D01*
X108566666Y-92242857D01*
X108566666Y-92338095D01*
X108519047Y-92480952D01*
X107947619Y-93052380D01*
X108566666Y-93052380D01*
X99087619Y-84225238D02*
X99040000Y-84320476D01*
X98944761Y-84415714D01*
X98801904Y-84558571D01*
X98754285Y-84653809D01*
X98754285Y-84749047D01*
X98992380Y-84701428D02*
X98944761Y-84796666D01*
X98849523Y-84891904D01*
X98659047Y-84939523D01*
X98325714Y-84939523D01*
X98135238Y-84891904D01*
X98040000Y-84796666D01*
X97992380Y-84701428D01*
X97992380Y-84510952D01*
X98040000Y-84415714D01*
X98135238Y-84320476D01*
X98325714Y-84272857D01*
X98659047Y-84272857D01*
X98849523Y-84320476D01*
X98944761Y-84415714D01*
X98992380Y-84510952D01*
X98992380Y-84701428D01*
X98325714Y-83415714D02*
X98992380Y-83415714D01*
X97944761Y-83653809D02*
X98659047Y-83891904D01*
X98659047Y-83272857D01*
X104728571Y-86057142D02*
X104776190Y-85914285D01*
X104823809Y-85866666D01*
X104919047Y-85819047D01*
X105061904Y-85819047D01*
X105157142Y-85866666D01*
X105204761Y-85914285D01*
X105252380Y-86009523D01*
X105252380Y-86390476D01*
X104252380Y-86390476D01*
X104252380Y-86057142D01*
X104300000Y-85961904D01*
X104347619Y-85914285D01*
X104442857Y-85866666D01*
X104538095Y-85866666D01*
X104633333Y-85914285D01*
X104680952Y-85961904D01*
X104728571Y-86057142D01*
X104728571Y-86390476D01*
X105157142Y-84819047D02*
X105204761Y-84866666D01*
X105252380Y-85009523D01*
X105252380Y-85104761D01*
X105204761Y-85247619D01*
X105109523Y-85342857D01*
X105014285Y-85390476D01*
X104823809Y-85438095D01*
X104680952Y-85438095D01*
X104490476Y-85390476D01*
X104395238Y-85342857D01*
X104300000Y-85247619D01*
X104252380Y-85104761D01*
X104252380Y-85009523D01*
X104300000Y-84866666D01*
X104347619Y-84819047D01*
X104252380Y-83914285D02*
X104252380Y-84390476D01*
X104728571Y-84438095D01*
X104680952Y-84390476D01*
X104633333Y-84295238D01*
X104633333Y-84057142D01*
X104680952Y-83961904D01*
X104728571Y-83914285D01*
X104823809Y-83866666D01*
X105061904Y-83866666D01*
X105157142Y-83914285D01*
X105204761Y-83961904D01*
X105252380Y-84057142D01*
X105252380Y-84295238D01*
X105204761Y-84390476D01*
X105157142Y-84438095D01*
X104252380Y-82961904D02*
X104252380Y-83438095D01*
X104728571Y-83485714D01*
X104680952Y-83438095D01*
X104633333Y-83342857D01*
X104633333Y-83104761D01*
X104680952Y-83009523D01*
X104728571Y-82961904D01*
X104823809Y-82914285D01*
X105061904Y-82914285D01*
X105157142Y-82961904D01*
X105204761Y-83009523D01*
X105252380Y-83104761D01*
X105252380Y-83342857D01*
X105204761Y-83438095D01*
X105157142Y-83485714D01*
X104252380Y-82580952D02*
X104252380Y-81914285D01*
X105252380Y-82342857D01*
X87987619Y-80325238D02*
X87940000Y-80420476D01*
X87844761Y-80515714D01*
X87701904Y-80658571D01*
X87654285Y-80753809D01*
X87654285Y-80849047D01*
X87892380Y-80801428D02*
X87844761Y-80896666D01*
X87749523Y-80991904D01*
X87559047Y-81039523D01*
X87225714Y-81039523D01*
X87035238Y-80991904D01*
X86940000Y-80896666D01*
X86892380Y-80801428D01*
X86892380Y-80610952D01*
X86940000Y-80515714D01*
X87035238Y-80420476D01*
X87225714Y-80372857D01*
X87559047Y-80372857D01*
X87749523Y-80420476D01*
X87844761Y-80515714D01*
X87892380Y-80610952D01*
X87892380Y-80801428D01*
X86892380Y-80039523D02*
X86892380Y-79420476D01*
X87273333Y-79753809D01*
X87273333Y-79610952D01*
X87320952Y-79515714D01*
X87368571Y-79468095D01*
X87463809Y-79420476D01*
X87701904Y-79420476D01*
X87797142Y-79468095D01*
X87844761Y-79515714D01*
X87892380Y-79610952D01*
X87892380Y-79896666D01*
X87844761Y-79991904D01*
X87797142Y-80039523D01*
X93718571Y-82087142D02*
X93766190Y-81944285D01*
X93813809Y-81896666D01*
X93909047Y-81849047D01*
X94051904Y-81849047D01*
X94147142Y-81896666D01*
X94194761Y-81944285D01*
X94242380Y-82039523D01*
X94242380Y-82420476D01*
X93242380Y-82420476D01*
X93242380Y-82087142D01*
X93290000Y-81991904D01*
X93337619Y-81944285D01*
X93432857Y-81896666D01*
X93528095Y-81896666D01*
X93623333Y-81944285D01*
X93670952Y-81991904D01*
X93718571Y-82087142D01*
X93718571Y-82420476D01*
X94147142Y-80849047D02*
X94194761Y-80896666D01*
X94242380Y-81039523D01*
X94242380Y-81134761D01*
X94194761Y-81277619D01*
X94099523Y-81372857D01*
X94004285Y-81420476D01*
X93813809Y-81468095D01*
X93670952Y-81468095D01*
X93480476Y-81420476D01*
X93385238Y-81372857D01*
X93290000Y-81277619D01*
X93242380Y-81134761D01*
X93242380Y-81039523D01*
X93290000Y-80896666D01*
X93337619Y-80849047D01*
X93242380Y-79944285D02*
X93242380Y-80420476D01*
X93718571Y-80468095D01*
X93670952Y-80420476D01*
X93623333Y-80325238D01*
X93623333Y-80087142D01*
X93670952Y-79991904D01*
X93718571Y-79944285D01*
X93813809Y-79896666D01*
X94051904Y-79896666D01*
X94147142Y-79944285D01*
X94194761Y-79991904D01*
X94242380Y-80087142D01*
X94242380Y-80325238D01*
X94194761Y-80420476D01*
X94147142Y-80468095D01*
X93575714Y-79039523D02*
X94242380Y-79039523D01*
X93194761Y-79277619D02*
X93909047Y-79515714D01*
X93909047Y-78896666D01*
X93670952Y-78372857D02*
X93623333Y-78468095D01*
X93575714Y-78515714D01*
X93480476Y-78563333D01*
X93432857Y-78563333D01*
X93337619Y-78515714D01*
X93290000Y-78468095D01*
X93242380Y-78372857D01*
X93242380Y-78182380D01*
X93290000Y-78087142D01*
X93337619Y-78039523D01*
X93432857Y-77991904D01*
X93480476Y-77991904D01*
X93575714Y-78039523D01*
X93623333Y-78087142D01*
X93670952Y-78182380D01*
X93670952Y-78372857D01*
X93718571Y-78468095D01*
X93766190Y-78515714D01*
X93861428Y-78563333D01*
X94051904Y-78563333D01*
X94147142Y-78515714D01*
X94194761Y-78468095D01*
X94242380Y-78372857D01*
X94242380Y-78182380D01*
X94194761Y-78087142D01*
X94147142Y-78039523D01*
X94051904Y-77991904D01*
X93861428Y-77991904D01*
X93766190Y-78039523D01*
X93718571Y-78087142D01*
X93670952Y-78182380D01*
X80047619Y-79895238D02*
X80000000Y-79990476D01*
X79904761Y-80085714D01*
X79761904Y-80228571D01*
X79714285Y-80323809D01*
X79714285Y-80419047D01*
X79952380Y-80371428D02*
X79904761Y-80466666D01*
X79809523Y-80561904D01*
X79619047Y-80609523D01*
X79285714Y-80609523D01*
X79095238Y-80561904D01*
X79000000Y-80466666D01*
X78952380Y-80371428D01*
X78952380Y-80180952D01*
X79000000Y-80085714D01*
X79095238Y-79990476D01*
X79285714Y-79942857D01*
X79619047Y-79942857D01*
X79809523Y-79990476D01*
X79904761Y-80085714D01*
X79952380Y-80180952D01*
X79952380Y-80371428D01*
X79047619Y-79561904D02*
X79000000Y-79514285D01*
X78952380Y-79419047D01*
X78952380Y-79180952D01*
X79000000Y-79085714D01*
X79047619Y-79038095D01*
X79142857Y-78990476D01*
X79238095Y-78990476D01*
X79380952Y-79038095D01*
X79952380Y-79609523D01*
X79952380Y-78990476D01*
X85718571Y-82087142D02*
X85766190Y-81944285D01*
X85813809Y-81896666D01*
X85909047Y-81849047D01*
X86051904Y-81849047D01*
X86147142Y-81896666D01*
X86194761Y-81944285D01*
X86242380Y-82039523D01*
X86242380Y-82420476D01*
X85242380Y-82420476D01*
X85242380Y-82087142D01*
X85290000Y-81991904D01*
X85337619Y-81944285D01*
X85432857Y-81896666D01*
X85528095Y-81896666D01*
X85623333Y-81944285D01*
X85670952Y-81991904D01*
X85718571Y-82087142D01*
X85718571Y-82420476D01*
X86147142Y-80849047D02*
X86194761Y-80896666D01*
X86242380Y-81039523D01*
X86242380Y-81134761D01*
X86194761Y-81277619D01*
X86099523Y-81372857D01*
X86004285Y-81420476D01*
X85813809Y-81468095D01*
X85670952Y-81468095D01*
X85480476Y-81420476D01*
X85385238Y-81372857D01*
X85290000Y-81277619D01*
X85242380Y-81134761D01*
X85242380Y-81039523D01*
X85290000Y-80896666D01*
X85337619Y-80849047D01*
X85242380Y-79944285D02*
X85242380Y-80420476D01*
X85718571Y-80468095D01*
X85670952Y-80420476D01*
X85623333Y-80325238D01*
X85623333Y-80087142D01*
X85670952Y-79991904D01*
X85718571Y-79944285D01*
X85813809Y-79896666D01*
X86051904Y-79896666D01*
X86147142Y-79944285D01*
X86194761Y-79991904D01*
X86242380Y-80087142D01*
X86242380Y-80325238D01*
X86194761Y-80420476D01*
X86147142Y-80468095D01*
X85575714Y-79039523D02*
X86242380Y-79039523D01*
X85194761Y-79277619D02*
X85909047Y-79515714D01*
X85909047Y-78896666D01*
X85670952Y-78372857D02*
X85623333Y-78468095D01*
X85575714Y-78515714D01*
X85480476Y-78563333D01*
X85432857Y-78563333D01*
X85337619Y-78515714D01*
X85290000Y-78468095D01*
X85242380Y-78372857D01*
X85242380Y-78182380D01*
X85290000Y-78087142D01*
X85337619Y-78039523D01*
X85432857Y-77991904D01*
X85480476Y-77991904D01*
X85575714Y-78039523D01*
X85623333Y-78087142D01*
X85670952Y-78182380D01*
X85670952Y-78372857D01*
X85718571Y-78468095D01*
X85766190Y-78515714D01*
X85861428Y-78563333D01*
X86051904Y-78563333D01*
X86147142Y-78515714D01*
X86194761Y-78468095D01*
X86242380Y-78372857D01*
X86242380Y-78182380D01*
X86194761Y-78087142D01*
X86147142Y-78039523D01*
X86051904Y-77991904D01*
X85861428Y-77991904D01*
X85766190Y-78039523D01*
X85718571Y-78087142D01*
X85670952Y-78182380D01*
X88547619Y-89695238D02*
X88500000Y-89790476D01*
X88404761Y-89885714D01*
X88261904Y-90028571D01*
X88214285Y-90123809D01*
X88214285Y-90219047D01*
X88452380Y-90171428D02*
X88404761Y-90266666D01*
X88309523Y-90361904D01*
X88119047Y-90409523D01*
X87785714Y-90409523D01*
X87595238Y-90361904D01*
X87500000Y-90266666D01*
X87452380Y-90171428D01*
X87452380Y-89980952D01*
X87500000Y-89885714D01*
X87595238Y-89790476D01*
X87785714Y-89742857D01*
X88119047Y-89742857D01*
X88309523Y-89790476D01*
X88404761Y-89885714D01*
X88452380Y-89980952D01*
X88452380Y-90171428D01*
X88452380Y-88790476D02*
X88452380Y-89361904D01*
X88452380Y-89076190D02*
X87452380Y-89076190D01*
X87595238Y-89171428D01*
X87690476Y-89266666D01*
X87738095Y-89361904D01*
X93718571Y-89087142D02*
X93766190Y-88944285D01*
X93813809Y-88896666D01*
X93909047Y-88849047D01*
X94051904Y-88849047D01*
X94147142Y-88896666D01*
X94194761Y-88944285D01*
X94242380Y-89039523D01*
X94242380Y-89420476D01*
X93242380Y-89420476D01*
X93242380Y-89087142D01*
X93290000Y-88991904D01*
X93337619Y-88944285D01*
X93432857Y-88896666D01*
X93528095Y-88896666D01*
X93623333Y-88944285D01*
X93670952Y-88991904D01*
X93718571Y-89087142D01*
X93718571Y-89420476D01*
X94147142Y-87849047D02*
X94194761Y-87896666D01*
X94242380Y-88039523D01*
X94242380Y-88134761D01*
X94194761Y-88277619D01*
X94099523Y-88372857D01*
X94004285Y-88420476D01*
X93813809Y-88468095D01*
X93670952Y-88468095D01*
X93480476Y-88420476D01*
X93385238Y-88372857D01*
X93290000Y-88277619D01*
X93242380Y-88134761D01*
X93242380Y-88039523D01*
X93290000Y-87896666D01*
X93337619Y-87849047D01*
X93242380Y-86944285D02*
X93242380Y-87420476D01*
X93718571Y-87468095D01*
X93670952Y-87420476D01*
X93623333Y-87325238D01*
X93623333Y-87087142D01*
X93670952Y-86991904D01*
X93718571Y-86944285D01*
X93813809Y-86896666D01*
X94051904Y-86896666D01*
X94147142Y-86944285D01*
X94194761Y-86991904D01*
X94242380Y-87087142D01*
X94242380Y-87325238D01*
X94194761Y-87420476D01*
X94147142Y-87468095D01*
X93575714Y-86039523D02*
X94242380Y-86039523D01*
X93194761Y-86277619D02*
X93909047Y-86515714D01*
X93909047Y-85896666D01*
X93670952Y-85372857D02*
X93623333Y-85468095D01*
X93575714Y-85515714D01*
X93480476Y-85563333D01*
X93432857Y-85563333D01*
X93337619Y-85515714D01*
X93290000Y-85468095D01*
X93242380Y-85372857D01*
X93242380Y-85182380D01*
X93290000Y-85087142D01*
X93337619Y-85039523D01*
X93432857Y-84991904D01*
X93480476Y-84991904D01*
X93575714Y-85039523D01*
X93623333Y-85087142D01*
X93670952Y-85182380D01*
X93670952Y-85372857D01*
X93718571Y-85468095D01*
X93766190Y-85515714D01*
X93861428Y-85563333D01*
X94051904Y-85563333D01*
X94147142Y-85515714D01*
X94194761Y-85468095D01*
X94242380Y-85372857D01*
X94242380Y-85182380D01*
X94194761Y-85087142D01*
X94147142Y-85039523D01*
X94051904Y-84991904D01*
X93861428Y-84991904D01*
X93766190Y-85039523D01*
X93718571Y-85087142D01*
X93670952Y-85182380D01*
X65666666Y-82452380D02*
X65666666Y-83166666D01*
X65619047Y-83309523D01*
X65523809Y-83404761D01*
X65380952Y-83452380D01*
X65285714Y-83452380D01*
X66666666Y-83452380D02*
X66095238Y-83452380D01*
X66380952Y-83452380D02*
X66380952Y-82452380D01*
X66285714Y-82595238D01*
X66190476Y-82690476D01*
X66095238Y-82738095D01*
X100461904Y-93752380D02*
X100461904Y-92752380D01*
X100700000Y-92752380D01*
X100842857Y-92800000D01*
X100938095Y-92895238D01*
X100985714Y-92990476D01*
X101033333Y-93180952D01*
X101033333Y-93323809D01*
X100985714Y-93514285D01*
X100938095Y-93609523D01*
X100842857Y-93704761D01*
X100700000Y-93752380D01*
X100461904Y-93752380D01*
X101985714Y-93752380D02*
X101414285Y-93752380D01*
X101700000Y-93752380D02*
X101700000Y-92752380D01*
X101604761Y-92895238D01*
X101509523Y-92990476D01*
X101414285Y-93038095D01*
X100157142Y-95152380D02*
X99680952Y-95152380D01*
X99680952Y-94152380D01*
X100490476Y-94628571D02*
X100823809Y-94628571D01*
X100966666Y-95152380D02*
X100490476Y-95152380D01*
X100490476Y-94152380D01*
X100966666Y-94152380D01*
X101395238Y-95152380D02*
X101395238Y-94152380D01*
X101633333Y-94152380D01*
X101776190Y-94200000D01*
X101871428Y-94295238D01*
X101919047Y-94390476D01*
X101966666Y-94580952D01*
X101966666Y-94723809D01*
X101919047Y-94914285D01*
X101871428Y-95009523D01*
X101776190Y-95104761D01*
X101633333Y-95152380D01*
X101395238Y-95152380D01*
M02*
