G04 #@! TF.GenerationSoftware,KiCad,Pcbnew,(5.1.0)-1*
G04 #@! TF.CreationDate,2019-12-29T23:08:54+00:00*
G04 #@! TF.ProjectId,WebastoWBUSInterface,57656261-7374-46f5-9742-5553496e7465,rev?*
G04 #@! TF.SameCoordinates,Original*
G04 #@! TF.FileFunction,Soldermask,Bot*
G04 #@! TF.FilePolarity,Negative*
%FSLAX46Y46*%
G04 Gerber Fmt 4.6, Leading zero omitted, Abs format (unit mm)*
G04 Created by KiCad (PCBNEW (5.1.0)-1) date 2019-12-29 23:08:54*
%MOMM*%
%LPD*%
G04 APERTURE LIST*
%ADD10C,0.100000*%
G04 APERTURE END LIST*
D10*
G36*
X95102585Y-97978802D02*
G01*
X95252410Y-98008604D01*
X95534674Y-98125521D01*
X95788705Y-98295259D01*
X96004741Y-98511295D01*
X96174479Y-98765326D01*
X96291396Y-99047590D01*
X96351000Y-99347240D01*
X96351000Y-99652760D01*
X96291396Y-99952410D01*
X96174479Y-100234674D01*
X96004741Y-100488705D01*
X95788705Y-100704741D01*
X95534674Y-100874479D01*
X95252410Y-100991396D01*
X95102585Y-101021198D01*
X94952761Y-101051000D01*
X94647239Y-101051000D01*
X94497415Y-101021198D01*
X94347590Y-100991396D01*
X94065326Y-100874479D01*
X93811295Y-100704741D01*
X93595259Y-100488705D01*
X93425521Y-100234674D01*
X93308604Y-99952410D01*
X93249000Y-99652760D01*
X93249000Y-99347240D01*
X93308604Y-99047590D01*
X93425521Y-98765326D01*
X93595259Y-98511295D01*
X93811295Y-98295259D01*
X94065326Y-98125521D01*
X94347590Y-98008604D01*
X94497415Y-97978802D01*
X94647239Y-97949000D01*
X94952761Y-97949000D01*
X95102585Y-97978802D01*
X95102585Y-97978802D01*
G37*
G36*
X75610443Y-98205519D02*
G01*
X75676627Y-98212037D01*
X75846466Y-98263557D01*
X76002991Y-98347222D01*
X76038729Y-98376552D01*
X76140186Y-98459814D01*
X76223448Y-98561271D01*
X76252778Y-98597009D01*
X76336443Y-98753534D01*
X76387963Y-98923373D01*
X76405359Y-99100000D01*
X76387963Y-99276627D01*
X76336443Y-99446466D01*
X76252778Y-99602991D01*
X76223448Y-99638729D01*
X76140186Y-99740186D01*
X76038729Y-99823448D01*
X76002991Y-99852778D01*
X75846466Y-99936443D01*
X75676627Y-99987963D01*
X75610442Y-99994482D01*
X75544260Y-100001000D01*
X75455740Y-100001000D01*
X75389558Y-99994482D01*
X75323373Y-99987963D01*
X75153534Y-99936443D01*
X74997009Y-99852778D01*
X74961271Y-99823448D01*
X74859814Y-99740186D01*
X74776552Y-99638729D01*
X74747222Y-99602991D01*
X74663557Y-99446466D01*
X74612037Y-99276627D01*
X74594641Y-99100000D01*
X74612037Y-98923373D01*
X74663557Y-98753534D01*
X74747222Y-98597009D01*
X74776552Y-98561271D01*
X74859814Y-98459814D01*
X74961271Y-98376552D01*
X74997009Y-98347222D01*
X75153534Y-98263557D01*
X75323373Y-98212037D01*
X75389557Y-98205519D01*
X75455740Y-98199000D01*
X75544260Y-98199000D01*
X75610443Y-98205519D01*
X75610443Y-98205519D01*
G37*
G36*
X103751000Y-99051000D02*
G01*
X100649000Y-99051000D01*
X100649000Y-95949000D01*
X103751000Y-95949000D01*
X103751000Y-99051000D01*
X103751000Y-99051000D01*
G37*
G36*
X75610442Y-95665518D02*
G01*
X75676627Y-95672037D01*
X75846466Y-95723557D01*
X76002991Y-95807222D01*
X76038729Y-95836552D01*
X76140186Y-95919814D01*
X76223448Y-96021271D01*
X76252778Y-96057009D01*
X76336443Y-96213534D01*
X76387963Y-96383373D01*
X76405359Y-96560000D01*
X76387963Y-96736627D01*
X76336443Y-96906466D01*
X76252778Y-97062991D01*
X76223448Y-97098729D01*
X76140186Y-97200186D01*
X76038729Y-97283448D01*
X76002991Y-97312778D01*
X75846466Y-97396443D01*
X75676627Y-97447963D01*
X75610443Y-97454481D01*
X75544260Y-97461000D01*
X75455740Y-97461000D01*
X75389557Y-97454481D01*
X75323373Y-97447963D01*
X75153534Y-97396443D01*
X74997009Y-97312778D01*
X74961271Y-97283448D01*
X74859814Y-97200186D01*
X74776552Y-97098729D01*
X74747222Y-97062991D01*
X74663557Y-96906466D01*
X74612037Y-96736627D01*
X74594641Y-96560000D01*
X74612037Y-96383373D01*
X74663557Y-96213534D01*
X74747222Y-96057009D01*
X74776552Y-96021271D01*
X74859814Y-95919814D01*
X74961271Y-95836552D01*
X74997009Y-95807222D01*
X75153534Y-95723557D01*
X75323373Y-95672037D01*
X75389558Y-95665518D01*
X75455740Y-95659000D01*
X75544260Y-95659000D01*
X75610442Y-95665518D01*
X75610442Y-95665518D01*
G37*
G36*
X75610443Y-93125519D02*
G01*
X75676627Y-93132037D01*
X75846466Y-93183557D01*
X76002991Y-93267222D01*
X76038729Y-93296552D01*
X76140186Y-93379814D01*
X76223448Y-93481271D01*
X76252778Y-93517009D01*
X76336443Y-93673534D01*
X76387963Y-93843373D01*
X76405359Y-94020000D01*
X76387963Y-94196627D01*
X76336443Y-94366466D01*
X76252778Y-94522991D01*
X76223448Y-94558729D01*
X76140186Y-94660186D01*
X76038729Y-94743448D01*
X76002991Y-94772778D01*
X75846466Y-94856443D01*
X75676627Y-94907963D01*
X75610443Y-94914481D01*
X75544260Y-94921000D01*
X75455740Y-94921000D01*
X75389557Y-94914481D01*
X75323373Y-94907963D01*
X75153534Y-94856443D01*
X74997009Y-94772778D01*
X74961271Y-94743448D01*
X74859814Y-94660186D01*
X74776552Y-94558729D01*
X74747222Y-94522991D01*
X74663557Y-94366466D01*
X74612037Y-94196627D01*
X74594641Y-94020000D01*
X74612037Y-93843373D01*
X74663557Y-93673534D01*
X74747222Y-93517009D01*
X74776552Y-93481271D01*
X74859814Y-93379814D01*
X74961271Y-93296552D01*
X74997009Y-93267222D01*
X75153534Y-93183557D01*
X75323373Y-93132037D01*
X75389557Y-93125519D01*
X75455740Y-93119000D01*
X75544260Y-93119000D01*
X75610443Y-93125519D01*
X75610443Y-93125519D01*
G37*
G36*
X102502585Y-90898802D02*
G01*
X102652410Y-90928604D01*
X102934674Y-91045521D01*
X103188705Y-91215259D01*
X103404741Y-91431295D01*
X103574479Y-91685326D01*
X103691396Y-91967590D01*
X103751000Y-92267240D01*
X103751000Y-92572760D01*
X103691396Y-92872410D01*
X103574479Y-93154674D01*
X103404741Y-93408705D01*
X103188705Y-93624741D01*
X102934674Y-93794479D01*
X102652410Y-93911396D01*
X102502585Y-93941198D01*
X102352761Y-93971000D01*
X102047239Y-93971000D01*
X101897415Y-93941198D01*
X101747590Y-93911396D01*
X101465326Y-93794479D01*
X101211295Y-93624741D01*
X100995259Y-93408705D01*
X100825521Y-93154674D01*
X100708604Y-92872410D01*
X100649000Y-92572760D01*
X100649000Y-92267240D01*
X100708604Y-91967590D01*
X100825521Y-91685326D01*
X100995259Y-91431295D01*
X101211295Y-91215259D01*
X101465326Y-91045521D01*
X101747590Y-90928604D01*
X101897415Y-90898802D01*
X102047239Y-90869000D01*
X102352761Y-90869000D01*
X102502585Y-90898802D01*
X102502585Y-90898802D01*
G37*
G36*
X75610442Y-90585518D02*
G01*
X75676627Y-90592037D01*
X75846466Y-90643557D01*
X76002991Y-90727222D01*
X76038729Y-90756552D01*
X76140186Y-90839814D01*
X76213053Y-90928604D01*
X76252778Y-90977009D01*
X76336443Y-91133534D01*
X76387963Y-91303373D01*
X76405359Y-91480000D01*
X76387963Y-91656627D01*
X76336443Y-91826466D01*
X76252778Y-91982991D01*
X76223448Y-92018729D01*
X76140186Y-92120186D01*
X76038729Y-92203448D01*
X76002991Y-92232778D01*
X75846466Y-92316443D01*
X75676627Y-92367963D01*
X75610442Y-92374482D01*
X75544260Y-92381000D01*
X75455740Y-92381000D01*
X75389558Y-92374482D01*
X75323373Y-92367963D01*
X75153534Y-92316443D01*
X74997009Y-92232778D01*
X74961271Y-92203448D01*
X74859814Y-92120186D01*
X74776552Y-92018729D01*
X74747222Y-91982991D01*
X74663557Y-91826466D01*
X74612037Y-91656627D01*
X74594641Y-91480000D01*
X74612037Y-91303373D01*
X74663557Y-91133534D01*
X74747222Y-90977009D01*
X74786947Y-90928604D01*
X74859814Y-90839814D01*
X74961271Y-90756552D01*
X74997009Y-90727222D01*
X75153534Y-90643557D01*
X75323373Y-90592037D01*
X75389558Y-90585518D01*
X75455740Y-90579000D01*
X75544260Y-90579000D01*
X75610442Y-90585518D01*
X75610442Y-90585518D01*
G37*
G36*
X75610443Y-88045519D02*
G01*
X75676627Y-88052037D01*
X75846466Y-88103557D01*
X76002991Y-88187222D01*
X76038729Y-88216552D01*
X76140186Y-88299814D01*
X76223448Y-88401271D01*
X76252778Y-88437009D01*
X76336443Y-88593534D01*
X76387963Y-88763373D01*
X76405359Y-88940000D01*
X76387963Y-89116627D01*
X76336443Y-89286466D01*
X76252778Y-89442991D01*
X76223448Y-89478729D01*
X76140186Y-89580186D01*
X76038729Y-89663448D01*
X76002991Y-89692778D01*
X75846466Y-89776443D01*
X75676627Y-89827963D01*
X75610443Y-89834481D01*
X75544260Y-89841000D01*
X75455740Y-89841000D01*
X75389557Y-89834481D01*
X75323373Y-89827963D01*
X75153534Y-89776443D01*
X74997009Y-89692778D01*
X74961271Y-89663448D01*
X74859814Y-89580186D01*
X74776552Y-89478729D01*
X74747222Y-89442991D01*
X74663557Y-89286466D01*
X74612037Y-89116627D01*
X74594641Y-88940000D01*
X74612037Y-88763373D01*
X74663557Y-88593534D01*
X74747222Y-88437009D01*
X74776552Y-88401271D01*
X74859814Y-88299814D01*
X74961271Y-88216552D01*
X74997009Y-88187222D01*
X75153534Y-88103557D01*
X75323373Y-88052037D01*
X75389557Y-88045519D01*
X75455740Y-88039000D01*
X75544260Y-88039000D01*
X75610443Y-88045519D01*
X75610443Y-88045519D01*
G37*
G36*
X102502585Y-85818802D02*
G01*
X102652410Y-85848604D01*
X102934674Y-85965521D01*
X103188705Y-86135259D01*
X103404741Y-86351295D01*
X103574479Y-86605326D01*
X103691396Y-86887590D01*
X103751000Y-87187240D01*
X103751000Y-87492760D01*
X103691396Y-87792410D01*
X103574479Y-88074674D01*
X103404741Y-88328705D01*
X103188705Y-88544741D01*
X102934674Y-88714479D01*
X102652410Y-88831396D01*
X102502585Y-88861198D01*
X102352761Y-88891000D01*
X102047239Y-88891000D01*
X101897415Y-88861198D01*
X101747590Y-88831396D01*
X101465326Y-88714479D01*
X101211295Y-88544741D01*
X100995259Y-88328705D01*
X100825521Y-88074674D01*
X100708604Y-87792410D01*
X100649000Y-87492760D01*
X100649000Y-87187240D01*
X100708604Y-86887590D01*
X100825521Y-86605326D01*
X100995259Y-86351295D01*
X101211295Y-86135259D01*
X101465326Y-85965521D01*
X101747590Y-85848604D01*
X101897415Y-85818802D01*
X102047239Y-85789000D01*
X102352761Y-85789000D01*
X102502585Y-85818802D01*
X102502585Y-85818802D01*
G37*
G36*
X76401000Y-87301000D02*
G01*
X74599000Y-87301000D01*
X74599000Y-85499000D01*
X76401000Y-85499000D01*
X76401000Y-87301000D01*
X76401000Y-87301000D01*
G37*
G36*
X67502585Y-82878802D02*
G01*
X67652410Y-82908604D01*
X67934674Y-83025521D01*
X68188705Y-83195259D01*
X68404741Y-83411295D01*
X68574479Y-83665326D01*
X68691396Y-83947590D01*
X68751000Y-84247240D01*
X68751000Y-84552760D01*
X68691396Y-84852410D01*
X68574479Y-85134674D01*
X68404741Y-85388705D01*
X68188705Y-85604741D01*
X67934674Y-85774479D01*
X67652410Y-85891396D01*
X67502585Y-85921198D01*
X67352761Y-85951000D01*
X67047239Y-85951000D01*
X66897415Y-85921198D01*
X66747590Y-85891396D01*
X66465326Y-85774479D01*
X66211295Y-85604741D01*
X65995259Y-85388705D01*
X65825521Y-85134674D01*
X65708604Y-84852410D01*
X65649000Y-84552760D01*
X65649000Y-84247240D01*
X65708604Y-83947590D01*
X65825521Y-83665326D01*
X65995259Y-83411295D01*
X66211295Y-83195259D01*
X66465326Y-83025521D01*
X66747590Y-82908604D01*
X66897415Y-82878802D01*
X67047239Y-82849000D01*
X67352761Y-82849000D01*
X67502585Y-82878802D01*
X67502585Y-82878802D01*
G37*
M02*
