M48
; DRILL file {KiCad (5.1.0)-1} date 24/11/2019 19:02:08
; FORMAT={3:3/ absolute / metric / suppress leading zeros}
; #@! TF.CreationDate,2019-11-24T19:02:08+00:00
; #@! TF.GenerationSoftware,Kicad,Pcbnew,(5.1.0)-1
; #@! TF.FileFunction,Plated,1,2,PTH
FMAT,2
METRIC,TZ
T1C0.400
T2C0.600
T3C0.700
T4C0.900
T5C1.000
%
G90
G05
T1
X78000Y-83000
X78000Y-84000
X78000Y-85000
X79000Y-83000
X79000Y-84000
X79000Y-85000
X102000Y-98500
X103000Y-98500
X104000Y-98500
X105000Y-98500
X106000Y-98500
T2
X89730Y-80230
X91000Y-78960
X91000Y-81500
X81730Y-80230
X83000Y-78960
X83000Y-81500
X89730Y-87230
X91000Y-85960
X91000Y-88500
X97230Y-87230
X98500Y-85960
X98500Y-88500
T3
X95000Y-96500
X100080Y-96500
X86920Y-96500
X92000Y-96500
X95000Y-92500
X100080Y-92500
X78920Y-87000
X84000Y-87000
X86920Y-92500
X92000Y-92500
X95420Y-78500
X100500Y-78500
X78920Y-92500
X84000Y-92500
T4
X104500Y-92960
X104500Y-95500
T5
X75500Y-85500
X75500Y-88040
X75500Y-90580
X75500Y-93120
X75500Y-95660
X75500Y-98200
X105000Y-79420
X105000Y-81960
X105000Y-84500
T0
M30
