M48
; DRILL file {KiCad (5.1.0)-1} date 29/12/2019 21:42:22
; FORMAT={3:3/ absolute / metric / suppress leading zeros}
; #@! TF.CreationDate,2019-12-29T21:42:22+00:00
; #@! TF.GenerationSoftware,Kicad,Pcbnew,(5.1.0)-1
; #@! TF.FileFunction,Plated,1,2,PTH
FMAT,2
METRIC,TZ
T1C0.400
T2C0.600
T3C0.800
T4C0.900
T5C1.000
T6C1.520
%
G90
G05
T1
X78100Y-82700
X78100Y-83700
X79100Y-82700
X79100Y-83700
X81700Y-83700
X82900Y-83700
X103400Y-99200
X104400Y-99200
X105400Y-99200
X106400Y-99200
T2
X100830Y-84130
X102100Y-82860
X102100Y-85400
X89730Y-80230
X91000Y-78960
X91000Y-81500
X89730Y-87230
X91000Y-85960
X91000Y-88500
X81730Y-80230
X83000Y-78960
X83000Y-81500
T3
X88480Y-92800
X96100Y-92800
X93200Y-97400
X100820Y-97400
X96400Y-89200
X104020Y-89200
X96480Y-79000
X104100Y-79000
X78380Y-92800
X86000Y-92800
X82380Y-97500
X90000Y-97500
X78580Y-87000
X86200Y-87000
T4
X104400Y-93960
X104400Y-96500
T5
X75500Y-85500
X75500Y-88040
X75500Y-90580
X75500Y-93120
X75500Y-95660
X75500Y-98200
T6
X110700Y-78940
X110700Y-84020
X110700Y-89100
T0
M30
