G04 #@! TF.GenerationSoftware,KiCad,Pcbnew,(5.1.0)-1*
G04 #@! TF.CreationDate,2019-12-29T21:42:19+00:00*
G04 #@! TF.ProjectId,WebastoWBUSInterface,57656261-7374-46f5-9742-5553496e7465,rev?*
G04 #@! TF.SameCoordinates,Original*
G04 #@! TF.FileFunction,Legend,Bot*
G04 #@! TF.FilePolarity,Positive*
%FSLAX46Y46*%
G04 Gerber Fmt 4.6, Leading zero omitted, Abs format (unit mm)*
G04 Created by KiCad (PCBNEW (5.1.0)-1) date 2019-12-29 21:42:19*
%MOMM*%
%LPD*%
G04 APERTURE LIST*
%ADD10C,0.150000*%
G04 APERTURE END LIST*
D10*
X113461904Y-79204761D02*
X114261904Y-79395238D01*
X113690476Y-79547619D01*
X114261904Y-79700000D01*
X113461904Y-79890476D01*
X113842857Y-80461904D02*
X113880952Y-80576190D01*
X113919047Y-80614285D01*
X113995238Y-80652380D01*
X114109523Y-80652380D01*
X114185714Y-80614285D01*
X114223809Y-80576190D01*
X114261904Y-80500000D01*
X114261904Y-80195238D01*
X113461904Y-80195238D01*
X113461904Y-80461904D01*
X113500000Y-80538095D01*
X113538095Y-80576190D01*
X113614285Y-80614285D01*
X113690476Y-80614285D01*
X113766666Y-80576190D01*
X113804761Y-80538095D01*
X113842857Y-80461904D01*
X113842857Y-80195238D01*
X113461904Y-80995238D02*
X114109523Y-80995238D01*
X114185714Y-81033333D01*
X114223809Y-81071428D01*
X114261904Y-81147619D01*
X114261904Y-81300000D01*
X114223809Y-81376190D01*
X114185714Y-81414285D01*
X114109523Y-81452380D01*
X113461904Y-81452380D01*
X114223809Y-81795238D02*
X114261904Y-81909523D01*
X114261904Y-82100000D01*
X114223809Y-82176190D01*
X114185714Y-82214285D01*
X114109523Y-82252380D01*
X114033333Y-82252380D01*
X113957142Y-82214285D01*
X113919047Y-82176190D01*
X113880952Y-82100000D01*
X113842857Y-81947619D01*
X113804761Y-81871428D01*
X113766666Y-81833333D01*
X113690476Y-81795238D01*
X113614285Y-81795238D01*
X113538095Y-81833333D01*
X113500000Y-81871428D01*
X113461904Y-81947619D01*
X113461904Y-82138095D01*
X113500000Y-82252380D01*
X114261904Y-83204761D02*
X113461904Y-83204761D01*
X113728571Y-83585714D02*
X114261904Y-83585714D01*
X113804761Y-83585714D02*
X113766666Y-83623809D01*
X113728571Y-83700000D01*
X113728571Y-83814285D01*
X113766666Y-83890476D01*
X113842857Y-83928571D01*
X114261904Y-83928571D01*
X113728571Y-84195238D02*
X113728571Y-84500000D01*
X113461904Y-84309523D02*
X114147619Y-84309523D01*
X114223809Y-84347619D01*
X114261904Y-84423809D01*
X114261904Y-84500000D01*
X114223809Y-85071428D02*
X114261904Y-84995238D01*
X114261904Y-84842857D01*
X114223809Y-84766666D01*
X114147619Y-84728571D01*
X113842857Y-84728571D01*
X113766666Y-84766666D01*
X113728571Y-84842857D01*
X113728571Y-84995238D01*
X113766666Y-85071428D01*
X113842857Y-85109523D01*
X113919047Y-85109523D01*
X113995238Y-84728571D01*
X114261904Y-85452380D02*
X113728571Y-85452380D01*
X113880952Y-85452380D02*
X113804761Y-85490476D01*
X113766666Y-85528571D01*
X113728571Y-85604761D01*
X113728571Y-85680952D01*
X113728571Y-85833333D02*
X113728571Y-86138095D01*
X114261904Y-85947619D02*
X113576190Y-85947619D01*
X113500000Y-85985714D01*
X113461904Y-86061904D01*
X113461904Y-86138095D01*
X114261904Y-86747619D02*
X113842857Y-86747619D01*
X113766666Y-86709523D01*
X113728571Y-86633333D01*
X113728571Y-86480952D01*
X113766666Y-86404761D01*
X114223809Y-86747619D02*
X114261904Y-86671428D01*
X114261904Y-86480952D01*
X114223809Y-86404761D01*
X114147619Y-86366666D01*
X114071428Y-86366666D01*
X113995238Y-86404761D01*
X113957142Y-86480952D01*
X113957142Y-86671428D01*
X113919047Y-86747619D01*
X114223809Y-87471428D02*
X114261904Y-87395238D01*
X114261904Y-87242857D01*
X114223809Y-87166666D01*
X114185714Y-87128571D01*
X114109523Y-87090476D01*
X113880952Y-87090476D01*
X113804761Y-87128571D01*
X113766666Y-87166666D01*
X113728571Y-87242857D01*
X113728571Y-87395238D01*
X113766666Y-87471428D01*
X114223809Y-88119047D02*
X114261904Y-88042857D01*
X114261904Y-87890476D01*
X114223809Y-87814285D01*
X114147619Y-87776190D01*
X113842857Y-87776190D01*
X113766666Y-87814285D01*
X113728571Y-87890476D01*
X113728571Y-88042857D01*
X113766666Y-88119047D01*
X113842857Y-88157142D01*
X113919047Y-88157142D01*
X113995238Y-87776190D01*
X100428571Y-83461904D02*
X100428571Y-82661904D01*
X100085714Y-83461904D02*
X100085714Y-83042857D01*
X100123809Y-82966666D01*
X100200000Y-82928571D01*
X100314285Y-82928571D01*
X100390476Y-82966666D01*
X100428571Y-83004761D01*
X99819047Y-82928571D02*
X99514285Y-82928571D01*
X99704761Y-82661904D02*
X99704761Y-83347619D01*
X99666666Y-83423809D01*
X99590476Y-83461904D01*
X99514285Y-83461904D01*
X99361904Y-82928571D02*
X99057142Y-82928571D01*
X99247619Y-82661904D02*
X99247619Y-83347619D01*
X99209523Y-83423809D01*
X99133333Y-83461904D01*
X99057142Y-83461904D01*
X98790476Y-82928571D02*
X98790476Y-83728571D01*
X98790476Y-82966666D02*
X98714285Y-82928571D01*
X98561904Y-82928571D01*
X98485714Y-82966666D01*
X98447619Y-83004761D01*
X98409523Y-83080952D01*
X98409523Y-83309523D01*
X98447619Y-83385714D01*
X98485714Y-83423809D01*
X98561904Y-83461904D01*
X98714285Y-83461904D01*
X98790476Y-83423809D01*
X98104761Y-83423809D02*
X98028571Y-83461904D01*
X97876190Y-83461904D01*
X97800000Y-83423809D01*
X97761904Y-83347619D01*
X97761904Y-83309523D01*
X97800000Y-83233333D01*
X97876190Y-83195238D01*
X97990476Y-83195238D01*
X98066666Y-83157142D01*
X98104761Y-83080952D01*
X98104761Y-83042857D01*
X98066666Y-82966666D01*
X97990476Y-82928571D01*
X97876190Y-82928571D01*
X97800000Y-82966666D01*
X97419047Y-83385714D02*
X97380952Y-83423809D01*
X97419047Y-83461904D01*
X97457142Y-83423809D01*
X97419047Y-83385714D01*
X97419047Y-83461904D01*
X97419047Y-82966666D02*
X97380952Y-83004761D01*
X97419047Y-83042857D01*
X97457142Y-83004761D01*
X97419047Y-82966666D01*
X97419047Y-83042857D01*
X96466666Y-82623809D02*
X97152380Y-83652380D01*
X95628571Y-82623809D02*
X96314285Y-83652380D01*
X95019047Y-82928571D02*
X95019047Y-83576190D01*
X95057142Y-83652380D01*
X95095238Y-83690476D01*
X95171428Y-83728571D01*
X95285714Y-83728571D01*
X95361904Y-83690476D01*
X95019047Y-83423809D02*
X95095238Y-83461904D01*
X95247619Y-83461904D01*
X95323809Y-83423809D01*
X95361904Y-83385714D01*
X95400000Y-83309523D01*
X95400000Y-83080952D01*
X95361904Y-83004761D01*
X95323809Y-82966666D01*
X95247619Y-82928571D01*
X95095238Y-82928571D01*
X95019047Y-82966666D01*
X94638095Y-83461904D02*
X94638095Y-82928571D01*
X94638095Y-82661904D02*
X94676190Y-82700000D01*
X94638095Y-82738095D01*
X94600000Y-82700000D01*
X94638095Y-82661904D01*
X94638095Y-82738095D01*
X94371428Y-82928571D02*
X94066666Y-82928571D01*
X94257142Y-82661904D02*
X94257142Y-83347619D01*
X94219047Y-83423809D01*
X94142857Y-83461904D01*
X94066666Y-83461904D01*
X93800000Y-83461904D02*
X93800000Y-82661904D01*
X93457142Y-83461904D02*
X93457142Y-83042857D01*
X93495238Y-82966666D01*
X93571428Y-82928571D01*
X93685714Y-82928571D01*
X93761904Y-82966666D01*
X93800000Y-83004761D01*
X92733333Y-82928571D02*
X92733333Y-83461904D01*
X93076190Y-82928571D02*
X93076190Y-83347619D01*
X93038095Y-83423809D01*
X92961904Y-83461904D01*
X92847619Y-83461904D01*
X92771428Y-83423809D01*
X92733333Y-83385714D01*
X92352380Y-83461904D02*
X92352380Y-82661904D01*
X92352380Y-82966666D02*
X92276190Y-82928571D01*
X92123809Y-82928571D01*
X92047619Y-82966666D01*
X92009523Y-83004761D01*
X91971428Y-83080952D01*
X91971428Y-83309523D01*
X92009523Y-83385714D01*
X92047619Y-83423809D01*
X92123809Y-83461904D01*
X92276190Y-83461904D01*
X92352380Y-83423809D01*
X91628571Y-83385714D02*
X91590476Y-83423809D01*
X91628571Y-83461904D01*
X91666666Y-83423809D01*
X91628571Y-83385714D01*
X91628571Y-83461904D01*
X90904761Y-83423809D02*
X90980952Y-83461904D01*
X91133333Y-83461904D01*
X91209523Y-83423809D01*
X91247619Y-83385714D01*
X91285714Y-83309523D01*
X91285714Y-83080952D01*
X91247619Y-83004761D01*
X91209523Y-82966666D01*
X91133333Y-82928571D01*
X90980952Y-82928571D01*
X90904761Y-82966666D01*
X90447619Y-83461904D02*
X90523809Y-83423809D01*
X90561904Y-83385714D01*
X90600000Y-83309523D01*
X90600000Y-83080952D01*
X90561904Y-83004761D01*
X90523809Y-82966666D01*
X90447619Y-82928571D01*
X90333333Y-82928571D01*
X90257142Y-82966666D01*
X90219047Y-83004761D01*
X90180952Y-83080952D01*
X90180952Y-83309523D01*
X90219047Y-83385714D01*
X90257142Y-83423809D01*
X90333333Y-83461904D01*
X90447619Y-83461904D01*
X89838095Y-83461904D02*
X89838095Y-82928571D01*
X89838095Y-83004761D02*
X89800000Y-82966666D01*
X89723809Y-82928571D01*
X89609523Y-82928571D01*
X89533333Y-82966666D01*
X89495238Y-83042857D01*
X89495238Y-83461904D01*
X89495238Y-83042857D02*
X89457142Y-82966666D01*
X89380952Y-82928571D01*
X89266666Y-82928571D01*
X89190476Y-82966666D01*
X89152380Y-83042857D01*
X89152380Y-83461904D01*
X88200000Y-82623809D02*
X88885714Y-83652380D01*
X87971428Y-83423809D02*
X87895238Y-83461904D01*
X87742857Y-83461904D01*
X87666666Y-83423809D01*
X87628571Y-83347619D01*
X87628571Y-83309523D01*
X87666666Y-83233333D01*
X87742857Y-83195238D01*
X87857142Y-83195238D01*
X87933333Y-83157142D01*
X87971428Y-83080952D01*
X87971428Y-83042857D01*
X87933333Y-82966666D01*
X87857142Y-82928571D01*
X87742857Y-82928571D01*
X87666666Y-82966666D01*
X87400000Y-82928571D02*
X87095238Y-82928571D01*
X87285714Y-82661904D02*
X87285714Y-83347619D01*
X87247619Y-83423809D01*
X87171428Y-83461904D01*
X87095238Y-83461904D01*
X86485714Y-82928571D02*
X86485714Y-83461904D01*
X86828571Y-82928571D02*
X86828571Y-83347619D01*
X86790476Y-83423809D01*
X86714285Y-83461904D01*
X86600000Y-83461904D01*
X86523809Y-83423809D01*
X86485714Y-83385714D01*
X85761904Y-83461904D02*
X85761904Y-83042857D01*
X85800000Y-82966666D01*
X85876190Y-82928571D01*
X86028571Y-82928571D01*
X86104761Y-82966666D01*
X85761904Y-83423809D02*
X85838095Y-83461904D01*
X86028571Y-83461904D01*
X86104761Y-83423809D01*
X86142857Y-83347619D01*
X86142857Y-83271428D01*
X86104761Y-83195238D01*
X86028571Y-83157142D01*
X85838095Y-83157142D01*
X85761904Y-83119047D01*
X85380952Y-83461904D02*
X85380952Y-82928571D01*
X85380952Y-83080952D02*
X85342857Y-83004761D01*
X85304761Y-82966666D01*
X85228571Y-82928571D01*
X85152380Y-82928571D01*
X85000000Y-82928571D02*
X84695238Y-82928571D01*
X84885714Y-82661904D02*
X84885714Y-83347619D01*
X84847619Y-83423809D01*
X84771428Y-83461904D01*
X84695238Y-83461904D01*
X84428571Y-82928571D02*
X84428571Y-83728571D01*
X84428571Y-82966666D02*
X84352380Y-82928571D01*
X84200000Y-82928571D01*
X84123809Y-82966666D01*
X84085714Y-83004761D01*
X84047619Y-83080952D01*
X84047619Y-83309523D01*
X84085714Y-83385714D01*
X84123809Y-83423809D01*
X84200000Y-83461904D01*
X84352380Y-83461904D01*
X84428571Y-83423809D01*
X83704761Y-83461904D02*
X83704761Y-82928571D01*
X83704761Y-82661904D02*
X83742857Y-82700000D01*
X83704761Y-82738095D01*
X83666666Y-82700000D01*
X83704761Y-82661904D01*
X83704761Y-82738095D01*
X83438095Y-82928571D02*
X83133333Y-82928571D01*
X83323809Y-82661904D02*
X83323809Y-83347619D01*
X83285714Y-83423809D01*
X83209523Y-83461904D01*
X83133333Y-83461904D01*
X82980952Y-82928571D02*
X82676190Y-82928571D01*
X82866666Y-82661904D02*
X82866666Y-83347619D01*
X82828571Y-83423809D01*
X82752380Y-83461904D01*
X82676190Y-83461904D01*
X82066666Y-83461904D02*
X82066666Y-83042857D01*
X82104761Y-82966666D01*
X82180952Y-82928571D01*
X82333333Y-82928571D01*
X82409523Y-82966666D01*
X82066666Y-83423809D02*
X82142857Y-83461904D01*
X82333333Y-83461904D01*
X82409523Y-83423809D01*
X82447619Y-83347619D01*
X82447619Y-83271428D01*
X82409523Y-83195238D01*
X82333333Y-83157142D01*
X82142857Y-83157142D01*
X82066666Y-83119047D01*
X81761904Y-82928571D02*
X81609523Y-83461904D01*
X81457142Y-83080952D01*
X81304761Y-83461904D01*
X81152380Y-82928571D01*
X80504761Y-83461904D02*
X80504761Y-83042857D01*
X80542857Y-82966666D01*
X80619047Y-82928571D01*
X80771428Y-82928571D01*
X80847619Y-82966666D01*
X80504761Y-83423809D02*
X80580952Y-83461904D01*
X80771428Y-83461904D01*
X80847619Y-83423809D01*
X80885714Y-83347619D01*
X80885714Y-83271428D01*
X80847619Y-83195238D01*
X80771428Y-83157142D01*
X80580952Y-83157142D01*
X80504761Y-83119047D01*
X80200000Y-82928571D02*
X80009523Y-83461904D01*
X79819047Y-82928571D02*
X80009523Y-83461904D01*
X80085714Y-83652380D01*
X80123809Y-83690476D01*
X80200000Y-83728571D01*
X78942857Y-82623809D02*
X79628571Y-83652380D01*
X78752380Y-82661904D02*
X78561904Y-83461904D01*
X78409523Y-82890476D01*
X78257142Y-83461904D01*
X78066666Y-82661904D01*
X77457142Y-83423809D02*
X77533333Y-83461904D01*
X77685714Y-83461904D01*
X77761904Y-83423809D01*
X77800000Y-83347619D01*
X77800000Y-83042857D01*
X77761904Y-82966666D01*
X77685714Y-82928571D01*
X77533333Y-82928571D01*
X77457142Y-82966666D01*
X77419047Y-83042857D01*
X77419047Y-83119047D01*
X77800000Y-83195238D01*
X77076190Y-83461904D02*
X77076190Y-82661904D01*
X77076190Y-82966666D02*
X77000000Y-82928571D01*
X76847619Y-82928571D01*
X76771428Y-82966666D01*
X76733333Y-83004761D01*
X76695238Y-83080952D01*
X76695238Y-83309523D01*
X76733333Y-83385714D01*
X76771428Y-83423809D01*
X76847619Y-83461904D01*
X77000000Y-83461904D01*
X77076190Y-83423809D01*
X76009523Y-83461904D02*
X76009523Y-83042857D01*
X76047619Y-82966666D01*
X76123809Y-82928571D01*
X76276190Y-82928571D01*
X76352380Y-82966666D01*
X76009523Y-83423809D02*
X76085714Y-83461904D01*
X76276190Y-83461904D01*
X76352380Y-83423809D01*
X76390476Y-83347619D01*
X76390476Y-83271428D01*
X76352380Y-83195238D01*
X76276190Y-83157142D01*
X76085714Y-83157142D01*
X76009523Y-83119047D01*
X75666666Y-83423809D02*
X75590476Y-83461904D01*
X75438095Y-83461904D01*
X75361904Y-83423809D01*
X75323809Y-83347619D01*
X75323809Y-83309523D01*
X75361904Y-83233333D01*
X75438095Y-83195238D01*
X75552380Y-83195238D01*
X75628571Y-83157142D01*
X75666666Y-83080952D01*
X75666666Y-83042857D01*
X75628571Y-82966666D01*
X75552380Y-82928571D01*
X75438095Y-82928571D01*
X75361904Y-82966666D01*
X75095238Y-82928571D02*
X74790476Y-82928571D01*
X74980952Y-82661904D02*
X74980952Y-83347619D01*
X74942857Y-83423809D01*
X74866666Y-83461904D01*
X74790476Y-83461904D01*
X74409523Y-83461904D02*
X74485714Y-83423809D01*
X74523809Y-83385714D01*
X74561904Y-83309523D01*
X74561904Y-83080952D01*
X74523809Y-83004761D01*
X74485714Y-82966666D01*
X74409523Y-82928571D01*
X74295238Y-82928571D01*
X74219047Y-82966666D01*
X74180952Y-83004761D01*
X74142857Y-83080952D01*
X74142857Y-83309523D01*
X74180952Y-83385714D01*
X74219047Y-83423809D01*
X74295238Y-83461904D01*
X74409523Y-83461904D01*
X73876190Y-82661904D02*
X73685714Y-83461904D01*
X73533333Y-82890476D01*
X73380952Y-83461904D01*
X73190476Y-82661904D01*
X72619047Y-83042857D02*
X72504761Y-83080952D01*
X72466666Y-83119047D01*
X72428571Y-83195238D01*
X72428571Y-83309523D01*
X72466666Y-83385714D01*
X72504761Y-83423809D01*
X72580952Y-83461904D01*
X72885714Y-83461904D01*
X72885714Y-82661904D01*
X72619047Y-82661904D01*
X72542857Y-82700000D01*
X72504761Y-82738095D01*
X72466666Y-82814285D01*
X72466666Y-82890476D01*
X72504761Y-82966666D01*
X72542857Y-83004761D01*
X72619047Y-83042857D01*
X72885714Y-83042857D01*
X72085714Y-82661904D02*
X72085714Y-83309523D01*
X72047619Y-83385714D01*
X72009523Y-83423809D01*
X71933333Y-83461904D01*
X71780952Y-83461904D01*
X71704761Y-83423809D01*
X71666666Y-83385714D01*
X71628571Y-83309523D01*
X71628571Y-82661904D01*
X71285714Y-83423809D02*
X71171428Y-83461904D01*
X70980952Y-83461904D01*
X70904761Y-83423809D01*
X70866666Y-83385714D01*
X70828571Y-83309523D01*
X70828571Y-83233333D01*
X70866666Y-83157142D01*
X70904761Y-83119047D01*
X70980952Y-83080952D01*
X71133333Y-83042857D01*
X71209523Y-83004761D01*
X71247619Y-82966666D01*
X71285714Y-82890476D01*
X71285714Y-82814285D01*
X71247619Y-82738095D01*
X71209523Y-82700000D01*
X71133333Y-82661904D01*
X70942857Y-82661904D01*
X70828571Y-82700000D01*
X70485714Y-83461904D02*
X70485714Y-82661904D01*
X70104761Y-82928571D02*
X70104761Y-83461904D01*
X70104761Y-83004761D02*
X70066666Y-82966666D01*
X69990476Y-82928571D01*
X69876190Y-82928571D01*
X69800000Y-82966666D01*
X69761904Y-83042857D01*
X69761904Y-83461904D01*
X69495238Y-82928571D02*
X69190476Y-82928571D01*
X69380952Y-82661904D02*
X69380952Y-83347619D01*
X69342857Y-83423809D01*
X69266666Y-83461904D01*
X69190476Y-83461904D01*
X68619047Y-83423809D02*
X68695238Y-83461904D01*
X68847619Y-83461904D01*
X68923809Y-83423809D01*
X68961904Y-83347619D01*
X68961904Y-83042857D01*
X68923809Y-82966666D01*
X68847619Y-82928571D01*
X68695238Y-82928571D01*
X68619047Y-82966666D01*
X68580952Y-83042857D01*
X68580952Y-83119047D01*
X68961904Y-83195238D01*
X68238095Y-83461904D02*
X68238095Y-82928571D01*
X68238095Y-83080952D02*
X68200000Y-83004761D01*
X68161904Y-82966666D01*
X68085714Y-82928571D01*
X68009523Y-82928571D01*
X67857142Y-82928571D02*
X67552380Y-82928571D01*
X67742857Y-83461904D02*
X67742857Y-82776190D01*
X67704761Y-82700000D01*
X67628571Y-82661904D01*
X67552380Y-82661904D01*
X66942857Y-83461904D02*
X66942857Y-83042857D01*
X66980952Y-82966666D01*
X67057142Y-82928571D01*
X67209523Y-82928571D01*
X67285714Y-82966666D01*
X66942857Y-83423809D02*
X67019047Y-83461904D01*
X67209523Y-83461904D01*
X67285714Y-83423809D01*
X67323809Y-83347619D01*
X67323809Y-83271428D01*
X67285714Y-83195238D01*
X67209523Y-83157142D01*
X67019047Y-83157142D01*
X66942857Y-83119047D01*
X66219047Y-83423809D02*
X66295238Y-83461904D01*
X66447619Y-83461904D01*
X66523809Y-83423809D01*
X66561904Y-83385714D01*
X66600000Y-83309523D01*
X66600000Y-83080952D01*
X66561904Y-83004761D01*
X66523809Y-82966666D01*
X66447619Y-82928571D01*
X66295238Y-82928571D01*
X66219047Y-82966666D01*
X65571428Y-83423809D02*
X65647619Y-83461904D01*
X65800000Y-83461904D01*
X65876190Y-83423809D01*
X65914285Y-83347619D01*
X65914285Y-83042857D01*
X65876190Y-82966666D01*
X65800000Y-82928571D01*
X65647619Y-82928571D01*
X65571428Y-82966666D01*
X65533333Y-83042857D01*
X65533333Y-83119047D01*
X65914285Y-83195238D01*
X67404761Y-86833333D02*
X67452380Y-86976190D01*
X67452380Y-87214285D01*
X67404761Y-87309523D01*
X67357142Y-87357142D01*
X67261904Y-87404761D01*
X67166666Y-87404761D01*
X67071428Y-87357142D01*
X67023809Y-87309523D01*
X66976190Y-87214285D01*
X66928571Y-87023809D01*
X66880952Y-86928571D01*
X66833333Y-86880952D01*
X66738095Y-86833333D01*
X66642857Y-86833333D01*
X66547619Y-86880952D01*
X66500000Y-86928571D01*
X66452380Y-87023809D01*
X66452380Y-87261904D01*
X66500000Y-87404761D01*
X67404761Y-88214285D02*
X67452380Y-88119047D01*
X67452380Y-87928571D01*
X67404761Y-87833333D01*
X67309523Y-87785714D01*
X66928571Y-87785714D01*
X66833333Y-87833333D01*
X66785714Y-87928571D01*
X66785714Y-88119047D01*
X66833333Y-88214285D01*
X66928571Y-88261904D01*
X67023809Y-88261904D01*
X67119047Y-87785714D01*
X67452380Y-88690476D02*
X66785714Y-88690476D01*
X66976190Y-88690476D02*
X66880952Y-88738095D01*
X66833333Y-88785714D01*
X66785714Y-88880952D01*
X66785714Y-88976190D01*
X67452380Y-89309523D02*
X66785714Y-89309523D01*
X66452380Y-89309523D02*
X66500000Y-89261904D01*
X66547619Y-89309523D01*
X66500000Y-89357142D01*
X66452380Y-89309523D01*
X66547619Y-89309523D01*
X67452380Y-90214285D02*
X66928571Y-90214285D01*
X66833333Y-90166666D01*
X66785714Y-90071428D01*
X66785714Y-89880952D01*
X66833333Y-89785714D01*
X67404761Y-90214285D02*
X67452380Y-90119047D01*
X67452380Y-89880952D01*
X67404761Y-89785714D01*
X67309523Y-89738095D01*
X67214285Y-89738095D01*
X67119047Y-89785714D01*
X67071428Y-89880952D01*
X67071428Y-90119047D01*
X67023809Y-90214285D01*
X67452380Y-90833333D02*
X67404761Y-90738095D01*
X67309523Y-90690476D01*
X66452380Y-90690476D01*
X67452380Y-91976190D02*
X66452380Y-91976190D01*
X66785714Y-92452380D02*
X67452380Y-92452380D01*
X66880952Y-92452380D02*
X66833333Y-92500000D01*
X66785714Y-92595238D01*
X66785714Y-92738095D01*
X66833333Y-92833333D01*
X66928571Y-92880952D01*
X67452380Y-92880952D01*
X66785714Y-93214285D02*
X66785714Y-93595238D01*
X66452380Y-93357142D02*
X67309523Y-93357142D01*
X67404761Y-93404761D01*
X67452380Y-93500000D01*
X67452380Y-93595238D01*
X67404761Y-94309523D02*
X67452380Y-94214285D01*
X67452380Y-94023809D01*
X67404761Y-93928571D01*
X67309523Y-93880952D01*
X66928571Y-93880952D01*
X66833333Y-93928571D01*
X66785714Y-94023809D01*
X66785714Y-94214285D01*
X66833333Y-94309523D01*
X66928571Y-94357142D01*
X67023809Y-94357142D01*
X67119047Y-93880952D01*
X67452380Y-94785714D02*
X66785714Y-94785714D01*
X66976190Y-94785714D02*
X66880952Y-94833333D01*
X66833333Y-94880952D01*
X66785714Y-94976190D01*
X66785714Y-95071428D01*
X66785714Y-95261904D02*
X66785714Y-95642857D01*
X67452380Y-95404761D02*
X66595238Y-95404761D01*
X66500000Y-95452380D01*
X66452380Y-95547619D01*
X66452380Y-95642857D01*
X67452380Y-96404761D02*
X66928571Y-96404761D01*
X66833333Y-96357142D01*
X66785714Y-96261904D01*
X66785714Y-96071428D01*
X66833333Y-95976190D01*
X67404761Y-96404761D02*
X67452380Y-96309523D01*
X67452380Y-96071428D01*
X67404761Y-95976190D01*
X67309523Y-95928571D01*
X67214285Y-95928571D01*
X67119047Y-95976190D01*
X67071428Y-96071428D01*
X67071428Y-96309523D01*
X67023809Y-96404761D01*
X67404761Y-97309523D02*
X67452380Y-97214285D01*
X67452380Y-97023809D01*
X67404761Y-96928571D01*
X67357142Y-96880952D01*
X67261904Y-96833333D01*
X66976190Y-96833333D01*
X66880952Y-96880952D01*
X66833333Y-96928571D01*
X66785714Y-97023809D01*
X66785714Y-97214285D01*
X66833333Y-97309523D01*
X67404761Y-98119047D02*
X67452380Y-98023809D01*
X67452380Y-97833333D01*
X67404761Y-97738095D01*
X67309523Y-97690476D01*
X66928571Y-97690476D01*
X66833333Y-97738095D01*
X66785714Y-97833333D01*
X66785714Y-98023809D01*
X66833333Y-98119047D01*
X66928571Y-98166666D01*
X67023809Y-98166666D01*
X67119047Y-97690476D01*
M02*
